<svg width="27" height="21" viewBox="0 0 27 21" fill="none" xmlns="http://www.w3.org/2000/svg">
<path d="M0.16445 9.68397L8.60206 0.277246C8.82181 0.0322593 9.17777 0.0322593 9.39746 0.277246C9.61721 0.522232 9.61721 0.919078 9.39746 1.16401L1.92005 9.50025H26.4375C26.7484 9.50025 27 9.78074 27 10.1274C27 10.474 26.7484 10.7545 26.4375 10.7545H1.92005L9.39746 19.0907C9.61721 19.3357 9.61721 19.7325 9.39746 19.9775C9.28761 20.0999 9.14365 20.1612 8.99973 20.1612C8.85582 20.1612 8.7119 20.0999 8.60201 19.9775L0.164396 10.5707C-0.0552979 10.3258 -0.0552979 9.92896 0.16445 9.68397Z" fill="black"/>
</svg>
