<svg width="32" height="42" viewBox="0 0 32 42" fill="none" xmlns="http://www.w3.org/2000/svg">
<path d="M1.5 16.2457C1.5 7.04556 8.76373 1.5 15.6864 1.5C22.6091 1.5 29.8728 7.04556 29.8728 16.2457C29.8728 18.3081 29.1103 20.7762 27.8352 23.4174C26.5715 26.0348 24.8659 28.698 23.1196 31.1169C19.6272 35.9542 16.0649 39.6873 15.8274 39.9333C15.7829 39.9794 15.7541 40.0033 15.7394 40.0143C15.7291 40.0155 15.7119 40.0167 15.6864 40.0167C15.661 40.0167 15.6438 40.0155 15.6335 40.0143C15.6187 40.0033 15.59 39.9794 15.5454 39.9333C15.3079 39.6873 11.7456 35.9542 8.25327 31.1169C6.5069 28.698 4.80131 26.0348 3.53765 23.4174C2.26251 20.7762 1.5 18.3081 1.5 16.2457ZM15.6454 40.0225C15.6453 40.0225 15.6447 40.0221 15.6435 40.0214C15.6448 40.0221 15.6455 40.0225 15.6454 40.0225ZM8.95761 16.2457C8.95761 20.0928 11.8459 23.1609 15.6864 23.1609C19.5269 23.1609 22.4152 20.0928 22.4152 16.2457C22.4152 12.3986 19.5269 9.33045 15.6864 9.33045C11.8459 9.33045 8.95761 12.3986 8.95761 16.2457Z" stroke="#46C770" stroke-width="3"/>
</svg>
