<svg width="40" height="52" viewBox="0 0 40 52" fill="none" xmlns="http://www.w3.org/2000/svg">
<path d="M20 0C10.2222 0 0 7.68695 0 20.3478C0 32.3304 17.7778 50.6435 18.4444 51.3217C18.8889 51.7739 19.3333 52 20 52C20.6667 52 21.1111 51.7739 21.5556 51.3217C22.2222 50.6435 40 32.3304 40 20.3478C40 7.68695 29.7778 0 20 0ZM20 27.1304C16.2222 27.1304 13.3333 24.1913 13.3333 20.3478C13.3333 16.5043 16.2222 13.5652 20 13.5652C23.7778 13.5652 26.6667 16.5043 26.6667 20.3478C26.6667 24.1913 23.7778 27.1304 20 27.1304Z" fill="#46C770"/>
</svg>
