<svg width="65" height="65" viewBox="0 0 65 65" fill="none" xmlns="http://www.w3.org/2000/svg"><path d="M27.186 34.9h23.789l-4.316-7.875c-.27-.432-.7-.755-1.24-.755H19.527c-.54 0-.971.27-1.24.755L13.97 34.9h13.215z" fill="#46C770"/><path d="M20.23 50.921H9.925a.83.83 0 0 1-.809-.81.83.83 0 0 1 .81-.808h8.684v-.863a2.561 2.561 0 0 0-2.212-2.536l-6.257-.917c-.431-.053-.755-.485-.701-.917.054-.431.485-.755.917-.7l6.257.916c2.05.324 3.614 2.104 3.614 4.154v2.481z" fill="#393939"/><path d="M55.506 64.676h-2.211a4.811 4.811 0 0 1-4.801-4.8v-1.403H16.56v1.402a4.811 4.811 0 0 1-4.8 4.801H9.547a4.811 4.811 0 0 1-4.801-4.8v-17.91l-3.56-1.294C.485 40.402 0 39.755 0 39v-3.237c0-.97.81-1.78 1.78-1.78h4.64a2.71 2.71 0 0 0 2.426-1.456l4.585-8.415c1.025-1.888 3.021-3.075 5.233-3.075h27.672c2.158 0 4.154 1.187 5.233 3.075l4.584 8.415a2.71 2.71 0 0 0 2.428 1.456h4.639c.97 0 1.78.81 1.78 1.78V39c0 .755-.486 1.402-1.187 1.672l-3.56 1.295v17.908c.054 2.643-2.104 4.801-4.747 4.801zm-40.564-7.822h35.17v3.021a3.188 3.188 0 0 0 3.183 3.183h2.211a3.188 3.188 0 0 0 3.183-3.183V40.888l4.639-1.672c.054 0 .108-.108.108-.162v-3.237c0-.108-.054-.162-.162-.162h-4.64c-1.617 0-3.074-.863-3.883-2.32l-4.585-8.414a4.296 4.296 0 0 0-3.776-2.266H18.664c-1.564 0-3.02.863-3.776 2.266l-4.585 8.415a4.452 4.452 0 0 1-3.884 2.32H1.78c-.108 0-.162.053-.162.161v3.237c0 .054.054.108.108.161l4.64 1.673v18.987a3.188 3.188 0 0 0 3.182 3.183h2.211a3.188 3.188 0 0 0 3.183-3.183v-3.02z" fill="#393939"/><path d="M52.323 35.709H12.676l4.962-9.063c.378-.7 1.133-1.132 1.942-1.132h25.84c.809 0 1.564.431 1.941 1.133l4.963 9.062zM15.427 34.09h34.199l-3.668-6.688a.593.593 0 0 0-.54-.324H19.58a.593.593 0 0 0-.54.324l-3.613 6.688zm39.649 16.831H44.773V48.44c0-2.05 1.565-3.83 3.614-4.154l6.258-.917c.431-.054.863.216.917.701.054.432-.216.863-.701.917l-6.258.917c-1.24.162-2.211 1.295-2.211 2.536v.863h8.684a.83.83 0 0 1 .81.809.795.795 0 0 1-.81.809zm-15.59.162H25.569a.83.83 0 0 1-.81-.809.83.83 0 0 1 .81-.81h13.917a.83.83 0 0 1 .809.81.83.83 0 0 1-.81.81z" fill="#393939"/><path d="M39.486 51.083h-.108c-.431-.054-.755-.431-.701-.917l.54-4.585H25.892l.54 4.585c.053.432-.27.863-.702.917-.432.054-.863-.27-.917-.701l-.755-6.42H41.05l-.755 6.42c-.054.378-.431.701-.809.701zm-23.734 7.391h-4.154a.83.83 0 0 1-.809-.81.83.83 0 0 1 .81-.809h4.153a.83.83 0 0 1 .809.81.83.83 0 0 1-.81.809zm37.705 0h-4.154a.83.83 0 0 1-.809-.81.83.83 0 0 1 .81-.809h4.153a.83.83 0 0 1 .809.81.83.83 0 0 1-.81.809z" fill="#393939"/><path d="M38.19 2.427A1.59 1.59 0 0 0 36.572.809h-8.038a1.59 1.59 0 0 0-1.618 1.618V6.04H38.19V2.427z" fill="#46C770"/><path d="M36.52 17.423h-8.038a2.417 2.417 0 0 1-2.427-2.427V2.427A2.417 2.417 0 0 1 28.482 0h8.037a2.417 2.417 0 0 1 2.428 2.427v12.569c.054 1.348-1.079 2.427-2.428 2.427zM28.481 1.618a.83.83 0 0 0-.81.81v12.568a.83.83 0 0 0 .81.809h8.037a.83.83 0 0 0 .81-.81V2.428a.83.83 0 0 0-.81-.809h-8.037z" fill="#393939"/><path d="M31.556 8.685h-1.619v1.618h1.619V8.685zm3.56 0h-1.618v1.618h1.618V8.685zm-3.56 2.913h-1.619v1.618h1.619v-1.618zm3.56 0h-1.618v1.618h1.618v-1.618zm3.076-4.748H26.92a.83.83 0 0 1-.81-.808.83.83 0 0 1 .81-.81h11.273a.83.83 0 0 1 .81.81.83.83 0 0 1-.81.809zm19.309 16.722h-1.618c0-4.261-3.452-7.767-7.768-7.767v-1.618c5.179 0 9.386 4.207 9.386 9.385z" fill="#393939"/><path d="M61.547 23.573h-1.618c0-6.527-5.287-11.814-11.814-11.814v-1.618c7.39-.054 13.432 5.987 13.432 13.432zm-52.378-.001H7.551c0-5.178 4.207-9.385 9.386-9.385v1.618c-4.316 0-7.768 3.506-7.768 7.767z" fill="#393939"/><path d="M5.124 23.572H3.506c0-7.444 6.041-13.431 13.431-13.431v1.618c-6.527-.054-11.813 5.286-11.813 11.813z" fill="#393939"/></svg>