<svg width="75" height="70" viewBox="0 0 75 70" fill="none" xmlns="http://www.w3.org/2000/svg"><path d="M37.5 6.985C20.63 6.985 6.986 20.628 6.986 37.5H34.47a3.024 3.024 0 0 1 3.031-3.031 3.024 3.024 0 0 1 3.032 3.031h27.483c0-16.871-13.643-30.514-30.515-30.514z" fill="#46C770"/><path d="M37.5 69.002C20.103 69.002 5.999 54.9 5.999 37.5S20.103 5.997 37.502 5.997 69.003 20.101 69.003 37.5s-14.17 31.502-31.502 31.502zm0-61.028C21.223 7.974 7.976 21.221 7.976 37.5c0 16.278 13.247 29.525 29.526 29.525 16.278 0 29.525-13.247 29.525-29.525 0-16.279-13.247-29.526-29.525-29.526z" fill="#393939"/><path d="M74.011 38.489c-.527 0-.988-.462-.988-.989 0-19.574-15.95-35.523-35.523-35.523-19.574 0-35.523 15.95-35.523 35.523 0 .527-.461.989-.988.989-.528 0-.989-.462-.989-.989C0 16.806 16.806 0 37.5 0S75 16.806 75 37.5c0 .527-.461.989-.989.989z" fill="#393939"/><path d="M37.5 41.52c-2.174 0-4.02-1.779-4.02-4.02 0-2.24 1.78-4.02 4.02-4.02 2.242 0 4.02 1.78 4.02 4.02 0 2.242-1.844 4.02-4.02 4.02zm0-6.062c-1.12 0-2.042.922-2.042 2.043 0 1.12.922 2.043 2.043 2.043 1.12 0 2.043-.923 2.043-2.043s-.923-2.043-2.043-2.043zm0-18.258c-.527 0-.988-.46-.988-.988V11.6c0-.527.461-.989.988-.989.528 0 .989.462.989.989v4.613c0 .527-.461.989-.989.989zm-6.589 1.055a.991.991 0 0 1-.923-.66l-1.45-4.415c-.197-.527.132-1.054.66-1.252.527-.198 1.054.132 1.252.66l1.45 4.415c.197.527-.132 1.054-.66 1.252h-.329zm-5.932 3.032a.94.94 0 0 1-.791-.395l-2.702-3.757c-.33-.461-.198-1.054.197-1.384.462-.33 1.055-.197 1.384.198l2.702 3.757c.33.46.198 1.054-.197 1.384a1.063 1.063 0 0 1-.593.197zm-4.747 4.68c-.198 0-.395-.066-.593-.198l-3.757-2.702c-.461-.33-.527-.923-.197-1.384.329-.461.922-.527 1.383-.198l3.757 2.702c.461.33.527.923.198 1.384-.132.264-.462.396-.791.396zm-2.964 5.931c-.132 0-.198 0-.33-.066l-4.415-1.45a1.044 1.044 0 0 1-.66-1.252c.198-.527.726-.79 1.253-.659l4.416 1.45c.527.198.79.725.659 1.252a.97.97 0 0 1-.923.725zm-1.057 6.591h-4.613c-.527 0-.989-.461-.989-.989 0-.527.462-.988.989-.988h4.613c.528 0 .989.461.989.988 0 .528-.461.989-.989.989zm-3.359 7.974a.991.991 0 0 1-.923-.659c-.198-.527.132-1.055.66-1.252l4.415-1.45c.527-.198 1.054.132 1.252.659.198.527-.132 1.054-.66 1.252l-4.415 1.45h-.33zm3.69 7.249a.94.94 0 0 1-.79-.395c-.33-.462-.199-1.055.197-1.384l3.757-2.702c.46-.33 1.054-.198 1.384.197.33.396.197 1.055-.198 1.384l-3.757 2.703a1.063 1.063 0 0 1-.593.197zm41.917.001c-.198 0-.396-.066-.594-.198l-3.756-2.702c-.462-.33-.528-.923-.198-1.384.33-.461.923-.527 1.384-.198l3.757 2.702c.461.33.527.923.197 1.385a1.03 1.03 0 0 1-.79.395zm3.69-7.25c-.132 0-.198 0-.33-.066l-4.415-1.45a1.044 1.044 0 0 1-.66-1.252 1.045 1.045 0 0 1 1.253-.66l4.415 1.45c.528.198.791.726.66 1.253a.97.97 0 0 1-.923.725zm1.251-7.974h-4.613c-.527 0-.988-.461-.988-.989 0-.527.461-.988.988-.988h4.614c.527 0 .988.461.988.988 0 .528-.461.989-.988.989zm-5.667-6.591a.991.991 0 0 1-.923-.66c-.198-.527.132-1.054.659-1.252l4.416-1.45c.527-.197 1.054.132 1.252.66.197.527-.132 1.054-.66 1.252l-4.415 1.45h-.33zm-3.031-5.932a.94.94 0 0 1-.79-.395c-.33-.462-.198-1.055.197-1.384l3.757-2.702c.461-.33 1.054-.198 1.384.197.33.462.197 1.055-.198 1.384l-3.757 2.702a1.062 1.062 0 0 1-.593.198zm-4.682-4.678c-.197 0-.395-.066-.593-.198-.461-.33-.527-.922-.198-1.384l2.703-3.756c.329-.462.922-.528 1.383-.198.462.33.528.922.198 1.384l-2.702 3.756c-.198.198-.527.396-.79.396zm-5.93-3.032c-.131 0-.197 0-.329-.066a1.044 1.044 0 0 1-.66-1.253l1.45-4.415a1.047 1.047 0 0 1 1.253-.66c.527.198.79.726.66 1.253l-1.45 4.415a.97.97 0 0 1-.924.726z" fill="#393939"/><path d="M37.5 35.457c-.527 0-.988-.462-.988-.989V22.276c0-.528.461-.989.988-.989.528 0 .989.461.989.989v12.192a.97.97 0 0 1-.989.989zm0 8.897a6.776 6.776 0 0 1-4.81-1.977.956.956 0 0 1 0-1.384.955.955 0 0 1 1.383 0c.923.922 2.11 1.45 3.427 1.45 1.318 0 2.505-.527 3.427-1.45a.956.956 0 0 1 1.384 0 .956.956 0 0 1 0 1.384 6.776 6.776 0 0 1-4.81 1.977zM47.716 60.5h-20.43V49.825h20.43v10.677zm-18.454-1.976H45.74V51.8H29.262v6.723z" fill="#393939"/><path d="M34.073 54.108h-1.977v1.978h1.977v-1.978zm4.416 0h-1.977v1.978h1.977v-1.978zm4.416 0h-1.977v1.978h1.977v-1.978z" fill="#393939"/></svg>