<svg width="50" height="50" viewBox="0 0 50 50" fill="none" xmlns="http://www.w3.org/2000/svg"><g clip-path="url(#a)"><path d="M47.615 29.287h-.748v-6.74a3.165 3.165 0 0 0-1.342-2.586v-.918a2.417 2.417 0 0 0-2.414-2.414h-.559l2.138-3.136a2.31 2.31 0 0 0-.607-3.207L29.578.401a2.29 2.29 0 0 0-1.73-.36 2.293 2.293 0 0 0-1.477.968L13.851 19.38h-3.483l.84-8.508a.253.253 0 0 1 .159-.212 5.416 5.416 0 0 0 2.642-2.147.25.25 0 0 1 .237-.111l5.464.54a.713.713 0 0 0 .14-1.418l-5.464-.54a1.668 1.668 0 0 0-1.579.764 3.982 3.982 0 0 1-1.943 1.578 1.668 1.668 0 0 0-1.074 1.405l-.854 8.65h-.909l1.33-13.458a.883.883 0 0 1 .965-.792l11.042 1.09a.713.713 0 0 0 .14-1.417l-11.042-1.09a2.31 2.31 0 0 0-2.523 2.069L6.867 16.629H5.042a2.417 2.417 0 0 0-2.414 2.414v.626a3.17 3.17 0 0 0-1.847 2.878v24.286A3.17 3.17 0 0 0 3.948 50H43.7a3.17 3.17 0 0 0 3.166-3.167v-6.74h.748c.884 0 1.602-.718 1.602-1.6v-7.605c0-.883-.718-1.602-1.602-1.602zm-4.504-11.233a.99.99 0 0 1 .99.99v.362a3.176 3.176 0 0 0-.4-.026h-3.023l.903-1.326h1.53zM27.549 1.811a.877.877 0 0 1 .731-.386c.175 0 .347.053.495.154l14.505 9.885a.884.884 0 0 1 .233 1.226l-4.56 6.69H37.86l2.235-3.28a1.666 1.666 0 0 0 .078-1.767 3.982 3.982 0 0 1-.477-2.457 1.666 1.666 0 0 0-.72-1.6l-7.52-5.124a1.666 1.666 0 0 0-1.752-.086 3.983 3.983 0 0 1-2.462.455 1.687 1.687 0 0 0-1.616.719L16.67 19.38h-1.094L27.549 1.811zm.314 12.099a5.879 5.879 0 0 0-5.857 5.47h-3.612l8.408-12.338a.254.254 0 0 1 .241-.11 5.417 5.417 0 0 0 3.348-.618.251.251 0 0 1 .261.016l7.52 5.124a.252.252 0 0 1 .11.237 5.415 5.415 0 0 0 .65 3.342.254.254 0 0 1-.015.265l-2.782 4.082H33.72a5.88 5.88 0 0 0-5.857-5.47zm4.428 5.47h-8.857a4.453 4.453 0 0 1 4.428-4.045 4.453 4.453 0 0 1 4.429 4.045zm-28.238-.337a.99.99 0 0 1 .99-.989h1.683l-.13 1.326H4.053v-.337zm-1.847 3.504c0-.96.781-1.742 1.742-1.742H43.7c.96 0 1.741.781 1.741 1.742v1.977H2.206v-1.977zm43.236 24.286c0 .96-.781 1.742-1.741 1.742H3.948c-.96 0-1.742-.781-1.742-1.742v-1.977h3.842a.712.712 0 1 0 0-1.424H2.206V25.949h43.236v3.337h-6.774a5.41 5.41 0 0 0-4.86 3.045l-.01.018-.02.047a5.378 5.378 0 0 0-.27.689v.002a5.41 5.41 0 0 0 5.16 7.007h6.774v3.338H10.61a.712.712 0 1 0 0 1.424h34.832v1.977zm2.35-8.34a.177.177 0 0 1-.177.176h-8.947a3.982 3.982 0 0 1-3.737-5.345 4.041 4.041 0 0 1 .24-.529 3.982 3.982 0 0 1 3.497-2.084h8.947c.098 0 .177.08.177.177v7.604z" fill="#393939"/><path d="M38.836 31.8a2.894 2.894 0 0 0-2.89 2.89 2.894 2.894 0 0 0 2.89 2.891 2.894 2.894 0 0 0 2.89-2.89 2.894 2.894 0 0 0-2.89-2.891zm0 4.356a1.467 1.467 0 0 1-1.466-1.466c0-.808.658-1.465 1.466-1.465.808 0 1.466.657 1.466 1.465 0 .809-.658 1.466-1.466 1.466z" fill="#46C770"/></g><defs><clipPath id="a"><path fill="#fff" d="M0 0h50v50H0z"/></clipPath></defs></svg>