<svg width="65" height="43" viewBox="0 0 65 43" fill="none" xmlns="http://www.w3.org/2000/svg"><path d="M26.789 13.66h23.44L45.977 5.9c-.266-.425-.691-.744-1.223-.744H19.241c-.531 0-.956.266-1.222.744l-4.252 7.76h13.022zM9.78 28.596h9.354v-1.648c0-1.648-1.222-3.083-2.87-3.295l-6.484-.904v5.847zm44.488 0h-9.354v-1.648c0-1.648 1.222-3.083 2.87-3.295l6.484-.904v5.847z" fill="#FCFCFC"/><path d="M19.932 29.393H9.78a.817.817 0 0 1-.797-.797c0-.425.372-.798.797-.798h8.558v-.85a2.524 2.524 0 0 0-2.18-2.498l-6.484-.904c-.425-.053-.744-.478-.691-.903.053-.425.478-.744.903-.691l6.485.903c2.02.32 3.561 2.073 3.561 4.093v2.445z" fill="#344154"/><path d="M54.694 43h-2.18a4.741 4.741 0 0 1-4.73-4.73v-1.383H16.318v1.383a4.741 4.741 0 0 1-4.73 4.73h-2.18a4.741 4.741 0 0 1-4.73-4.73V20.623l-3.509-1.276C.48 19.082 0 18.444 0 17.7v-3.19a1.77 1.77 0 0 1 1.754-1.753h4.571a2.67 2.67 0 0 0 2.392-1.436l4.518-8.291C14.245 1.17 16.21 0 18.39 0h27.267c2.126 0 4.092 1.17 5.155 3.03l4.518 8.291a2.67 2.67 0 0 0 2.392 1.436h4.571a1.77 1.77 0 0 1 1.754 1.754V17.7c0 .744-.478 1.382-1.17 1.647l-3.507 1.276v17.646C59.424 40.874 57.298 43 54.693 43zm-39.97-7.707h34.654v2.977c0 1.7 1.382 3.135 3.136 3.135h2.18c1.7 0 3.135-1.382 3.135-3.136V19.56l4.572-1.647c.053 0 .106-.106.106-.16v-3.188c0-.107-.053-.16-.16-.16h-4.57c-1.595 0-3.03-.85-3.828-2.285l-4.518-8.292a4.233 4.233 0 0 0-3.72-2.232H18.39c-1.542 0-2.977.85-3.721 2.232l-4.518 8.292a4.386 4.386 0 0 1-3.827 2.285h-4.57c-.106 0-.16.053-.16.16v3.189c0 .053.054.106.107.16l4.57 1.647v18.71c0 1.7 1.383 3.135 3.137 3.135h2.18c1.7 0 3.135-1.382 3.135-3.136v-2.976z" fill="#344154"/><path d="M51.557 14.457H12.491l4.89-8.93c.372-.69 1.116-1.115 1.913-1.115h25.46c.797 0 1.541.425 1.913 1.116l4.89 8.93zm-36.355-1.594H48.9l-3.614-6.591a.585.585 0 0 0-.532-.319h-25.46a.585.585 0 0 0-.531.319l-3.562 6.59zm39.066 16.53H44.116v-2.445c0-2.02 1.542-3.774 3.561-4.093l6.538-.903c.425-.053.85.265.904.69.053.426-.266.851-.691.904l-6.485.904c-1.222.16-2.18 1.276-2.18 2.498v.85h8.558c.426 0 .798.373.798.798-.053.478-.372.797-.85.797zm-15.361.16H25.194a.817.817 0 0 1-.797-.798c0-.425.372-.797.797-.797h13.713c.426 0 .798.372.798.797a.783.783 0 0 1-.797.798z" fill="#344154"/><path d="M38.907 29.553h-.106a.795.795 0 0 1-.69-.904l.53-4.518H25.514l.532 4.518c.053.425-.266.85-.691.904-.425.053-.85-.266-.904-.691l-.744-6.325H40.45l-.744 6.325a.799.799 0 0 1-.797.69zM15.52 36.888h-4.092a.817.817 0 0 1-.798-.798c0-.425.372-.797.798-.797h4.092c.426 0 .798.372.798.797a.817.817 0 0 1-.798.797zm37.154 0H48.58a.817.817 0 0 1-.797-.798c0-.425.372-.797.797-.797h4.093c.425 0 .797.372.797.797a.817.817 0 0 1-.797.797z" fill="#344154"/></svg>