<svg width="72" height="66" viewBox="0 0 72 66" fill="none" xmlns="http://www.w3.org/2000/svg"><path d="M48.748 27.143l-2.988-5.478a.342.342 0 0 0-.312-.187H26.834a.342.342 0 0 0-.311.187l-2.989 5.479h25.214z" fill="#FCFCFC"/><path d="M51.612 49.244h-1.494a3.613 3.613 0 0 1-3.611-3.61v-2.18H25.776v2.18a3.613 3.613 0 0 1-3.611 3.61H20.67a3.613 3.613 0 0 1-3.611-3.61V32.248l-2.117-.809c-.623-.249-1.058-.81-1.058-1.494v-2.179c0-.871.685-1.556 1.556-1.556h3.113c.56 0 1.058-.312 1.307-.747l3.113-5.666c.747-1.432 2.241-2.303 3.86-2.303h18.615c1.618 0 3.112.871 3.86 2.303l3.112 5.666c.25.498.747.747 1.308.747h3.112a1.54 1.54 0 0 1 1.557 1.556v2.18c0 .684-.436 1.244-1.059 1.493l-2.116.81v13.385c0 1.93-1.619 3.61-3.611 3.61zm-27.704-7.657h24.467v4.047c0 .933.809 1.743 1.743 1.743h1.494c.934 0 1.743-.81 1.743-1.743V30.94l3.175-1.183v-1.743h-2.8a3.306 3.306 0 0 1-2.926-1.743l-3.113-5.665c-.436-.81-1.308-1.308-2.241-1.308H26.834c-.934 0-1.743.498-2.241 1.308l-3.113 5.665c-.56 1.058-1.743 1.743-2.926 1.743h-2.802v1.743l3.175 1.183v14.693c0 .933.81 1.743 1.744 1.743h1.494c.934 0 1.743-.81 1.743-1.743v-4.047z" fill="#344154"/><path d="M28.266 38.35H20.92a.957.957 0 0 1-.934-.934c0-.498.436-.934.934-.934h5.478v-.187c0-.685-.498-1.245-1.12-1.307l-4.234-.623c-.498-.062-.872-.56-.81-1.058.063-.498.561-.872 1.06-.81l4.233.623c1.556.25 2.739 1.619 2.739 3.175v2.055zm23.097 0h-7.346v-2.055c0-1.556 1.182-2.926 2.739-3.175l4.233-.622c.498-.063.996.248 1.059.809.062.498-.25.996-.81 1.058l-4.233.623c-.685.124-1.12.684-1.12 1.307v.187h5.478c.498 0 .934.436.934.934a.957.957 0 0 1-.934.934zm-10.521.062h-9.339a.957.957 0 0 1-.934-.934c0-.498.436-.934.934-.934h9.339c.498 0 .933.436.933.934a.957.957 0 0 1-.933.934z" fill="#344154"/><path d="M40.841 38.412h-.124c-.498-.063-.872-.498-.81-1.059l.312-2.677h-8.093l.31 2.677c.063.498-.31.996-.809 1.059-.498.062-.996-.312-1.058-.81l-.56-4.731h12.326l-.56 4.731c-.062.498-.498.81-.934.81zm-15.999 5.043H22.04a.957.957 0 0 1-.934-.934c0-.498.436-.934.934-.934h2.802c.498 0 .934.436.934.934a.957.957 0 0 1-.934.934zm26.209 0h-3.61a.957.957 0 0 1-.934-.934c0-.498.436-.934.934-.934h3.61c.498 0 .934.436.934.934a.957.957 0 0 1-.934.934z" fill="#344154"/><path d="M24.841 43.455h-3.61a.957.957 0 0 1-.934-.934c0-.498.436-.934.934-.934h3.61c.499 0 .934.436.934.934a.957.957 0 0 1-.933.934zm44.014-13.759a.957.957 0 0 1-.934-.934c-.062-7.16-2.926-13.883-7.969-18.926C54.847 4.731 48 1.868 40.778 1.868a.957.957 0 0 1-.934-.934c0-.498.435-.934.934-.934 7.72 0 15.003 3.05 20.482 8.53 5.416 5.415 8.404 12.575 8.529 20.17 0 .56-.436.996-.934.996z" fill="#344154"/><path d="M66.141 29.665l2.382 2.78a.623.623 0 0 0 .945 0l2.382-2.78a.623.623 0 0 0-.473-1.027h-4.763a.623.623 0 0 0-.473 1.027zm-63.34 5.821c.498 0 .934.436.934.934.062 7.16 2.926 13.883 7.969 18.926 5.105 5.105 11.953 7.968 19.175 7.968.498 0 .933.436.933.934a.957.957 0 0 1-.933.934c-7.72 0-15.004-3.05-20.483-8.529-5.416-5.416-8.404-12.576-8.529-20.171 0-.56.436-.996.934-.996z" fill="#344154"/><path d="M5.859 35.37l-2.382-2.78a.623.623 0 0 0-.945 0L.15 35.37a.623.623 0 0 0 .473 1.027h4.763a.623.623 0 0 0 .473-1.028z" fill="#344154"/></svg>