<svg width="74" height="59" viewBox="0 0 74 59" fill="none" xmlns="http://www.w3.org/2000/svg"><path d="M64.55 39.4l-2.641-4.842a.303.303 0 0 0-.275-.165H45.18c-.11 0-.22.055-.275.165l-2.641 4.843H64.55zM30.928 2.146l-1.816 1.816-.826-.825a5.38 5.38 0 0 0-7.594 0l-.825.825-1.816-1.816a4.351 4.351 0 0 0-6.163 0L9.63 4.402l6.329 6.109h17.06l6.328-6.109-2.256-2.256a4.35 4.35 0 0 0-6.163 0z" fill="#FCFCFC"/><path d="M33.35 11.336H15.63L8.476 4.402l2.862-2.861C12.328.55 13.594 0 14.97 0a4.99 4.99 0 0 1 3.63 1.54l1.266 1.266.22-.22A6.249 6.249 0 0 1 24.49.77c1.651 0 3.192.66 4.403 1.816l.22.22 1.266-1.265a5.148 5.148 0 0 1 7.319 0l2.861 2.861-7.209 6.934zm-17.06-1.65h16.4l5.448-5.284-1.651-1.65c-1.376-1.376-3.632-1.376-4.953 0l-2.421 2.42-1.376-1.375a4.408 4.408 0 0 0-3.191-1.32 4.54 4.54 0 0 0-3.192 1.32l-1.376 1.376-2.421-2.422a3.5 3.5 0 0 0-2.476-1.045 3.5 3.5 0 0 0-2.477 1.045l-1.65 1.651 5.337 5.283zm50.792 49.25h-1.32a3.194 3.194 0 0 1-3.192-3.192v-1.926H44.245v1.926a3.194 3.194 0 0 1-3.192 3.192h-1.32a3.194 3.194 0 0 1-3.192-3.192v-11.83l-1.871-.716c-.55-.22-.936-.716-.936-1.321v-1.926c0-.77.606-1.376 1.376-1.376h2.752a1.34 1.34 0 0 0 1.155-.66l2.752-5.008c.66-1.265 1.98-2.036 3.411-2.036h16.454c1.43 0 2.752.77 3.412 2.036l2.751 5.008c.22.44.66.66 1.156.66h2.751c.77 0 1.376.606 1.376 1.376v1.926c0 .605-.385 1.1-.935 1.32l-1.871.716v11.831c0 1.706-1.431 3.192-3.192 3.192zm-24.488-6.769h21.627v3.577c0 .826.715 1.541 1.54 1.541h1.321c.825 0 1.54-.715 1.54-1.54V42.757l2.807-1.046v-1.54h-2.476c-1.1 0-2.091-.606-2.586-1.542l-2.752-5.007c-.385-.716-1.156-1.156-1.98-1.156H45.18c-.825 0-1.54.44-1.98 1.156l-2.752 5.007c-.495.936-1.54 1.541-2.586 1.541h-2.477v1.54l2.807 1.047v12.986c0 .826.715 1.541 1.54 1.541h1.321c.826 0 1.541-.715 1.541-1.54v-3.578z" fill="#344154"/><path d="M46.446 49.306h-6.494a.846.846 0 0 1-.825-.825c0-.44.385-.826.825-.826h4.843v-.165c0-.605-.44-1.1-.99-1.156l-3.743-.55c-.44-.055-.77-.495-.715-.935.055-.44.495-.77.935-.716l3.743.55c1.375.22 2.42 1.431 2.42 2.807v1.816zm20.416 0h-6.494V47.49c0-1.376 1.046-2.586 2.421-2.806l3.742-.55c.44-.056.88.22.936.715.055.44-.22.88-.716.935l-3.742.55c-.605.11-.99.606-.99 1.156v.165h4.843c.44 0 .825.385.825.825 0 .44-.385.826-.825.826zm-9.3.055h-8.255a.846.846 0 0 1-.825-.825c0-.44.385-.826.825-.826h8.255c.44 0 .825.385.825.826 0 .44-.385.825-.825.825z" fill="#344154"/><path d="M57.562 49.361h-.11c-.44-.055-.77-.44-.716-.935l.276-2.367h-7.154l.275 2.367c.055.44-.275.88-.715.935-.44.055-.88-.275-.936-.715l-.495-4.182h10.895l-.495 4.182a.827.827 0 0 1-.825.715zM43.42 53.818h-2.477a.846.846 0 0 1-.825-.825c0-.44.385-.826.825-.826h2.476c.44 0 .826.386.826.826 0 .44-.385.825-.826.825zm23.166 0h-3.191a.846.846 0 0 1-.826-.825c0-.44.386-.826.826-.826h3.191c.44 0 .826.386.826.826 0 .44-.385.825-.826.825z" fill="#344154"/><path d="M43.42 53.818h-3.192a.846.846 0 0 1-.826-.825c0-.44.386-.826.826-.826h3.191c.44 0 .826.386.826.826 0 .44-.385.825-.826.825z" fill="#344154"/><path d="M40.228 58.936H24.379c-9.19 0-15.848-2.091-19.92-6.163C1.432 49.746-.054 45.674 0 40.72c.057-4.95 1.762-10.014 4.844-14.14l9.685-13.042h19.205v1.651h-18.38L6.165 27.57c-2.916 3.907-4.512 8.584-4.567 13.206-.055 4.513 1.321 8.2 3.962 10.896 3.742 3.742 10.016 5.668 18.765 5.668h15.849v1.596h.055z" fill="#344154"/><path d="M45.566 31.972a27.646 27.646 0 0 0-2.587-4.457l-9.465-12.712 1.32-.99 9.466 12.71a27.473 27.473 0 0 1 2.806 4.732l-1.54.716z" fill="#344154"/><path d="M34.395 15.133H14.309c-1.21 0-2.146-.99-2.146-2.146v-1.1c0-1.211.99-2.147 2.146-2.147h20.086c1.21 0 2.146.99 2.146 2.146v1.1c.055 1.156-.936 2.147-2.146 2.147zm-20.03-3.797a.493.493 0 0 0-.496.495v1.1c0 .276.22.496.495.496H34.45c.275 0 .495-.22.495-.495v-1.1a.493.493 0 0 0-.495-.496H14.364z" fill="#344154"/><path d="M33.35 11.336H15.63L8.476 4.402l2.862-2.861C12.328.55 13.594 0 14.97 0a4.99 4.99 0 0 1 3.63 1.54l1.266 1.266.22-.22A6.249 6.249 0 0 1 24.49.77c1.651 0 3.192.66 4.403 1.816l.22.22 1.266-1.265a5.148 5.148 0 0 1 7.319 0l2.861 2.861-7.209 6.934zm-17.06-1.65h16.4l5.448-5.284-1.651-1.65c-1.376-1.376-3.632-1.376-4.953 0l-2.421 2.42-1.376-1.375a4.408 4.408 0 0 0-3.191-1.32 4.54 4.54 0 0 0-3.192 1.32l-1.376 1.376-2.421-2.422a3.5 3.5 0 0 0-2.476-1.045 3.5 3.5 0 0 0-2.477 1.045l-1.65 1.651 5.337 5.283z" fill="#344154"/></svg>