<svg width="55" height="56" viewBox="0 0 55 56" fill="none" xmlns="http://www.w3.org/2000/svg"><path d="M13.338 19.252l-.11-.103c-.438.466-1.001 1.063-2.098 1.063-1.096 0-1.66-.597-2.097-1.063-.18-.192-.326-.343-.477-.443a.92.92 0 0 0-.54-.153c-1.05 0-1.932.77-1.932 1.75 0 .373.13.73.371 1.029l.001.002 4.535 5.48.045.055h6.427l.046-.055 4.543-5.49.001-.002a1.62 1.62 0 0 0 .363-1.02c0-.979-.882-1.749-1.932-1.749a.928.928 0 0 0-.543.153c-.152.1-.297.252-.479.444-.438.465-1.002 1.062-2.098 1.062-1.097 0-1.662-.597-2.1-1.063-.18-.192-.325-.343-.477-.443a.925.925 0 0 0-.542-.153.92.92 0 0 0-.541.153c-.152.1-.296.252-.476.443l.11.103zm0 0c.365-.39.528-.549.907-.549.38 0 .543.159.91.549m-1.817 0l-.002.002c-.441.469-1.043 1.108-2.206 1.108-1.164 0-1.767-.642-2.207-1.11-.367-.39-.53-.549-.907-.549-.983 0-1.782.718-1.782 1.6 0 .337.117.66.338.935l8.583-1.986m0 0c.44.468 1.044 1.11 2.209 1.11 1.163 0 1.766-.64 2.206-1.108l.002-.001c.368-.391.532-.55.912-.55.983 0 1.782.718 1.782 1.6 0 .337-.117.66-.33.925l-6.781-1.976zM23.6 31.789l.005.003a13.094 13.094 0 0 1 4.744 10.102c0 7.263-5.944 13.175-13.25 13.175h-1.7C6.094 55.069.15 49.157.15 41.894a13.11 13.11 0 0 1 4.77-10.122l.004-.004 4.63-4.14.108-.096-.092-.11-4.262-5.152v-.001a3.145 3.145 0 0 1-.705-1.966c0-1.774 1.523-3.231 3.413-3.231 1.095 0 1.659.597 2.096 1.063.18.192.325.343.477.443a.92.92 0 0 0 .54.153c.215 0 .38-.046.542-.153.151-.1.296-.251.476-.443.303-.322.667-.698 1.217-.905l.218-.082-.165-.165-5.403-5.403a2.506 2.506 0 0 1-.739-1.783c0-.674.263-1.307.739-1.783.918-.918 2.505-.955 3.464-.097l.25.224V4.453A4.308 4.308 0 0 1 16.031.15h6.235a2.525 2.525 0 0 1 2.522 2.522 2.525 2.525 0 0 1-2.522 2.522h-5.494V8.14l.25-.224c.959-.859 2.547-.821 3.466.097a2.5 2.5 0 0 1 .738 1.783c0 .675-.262 1.308-.738 1.784l-5.406 5.405-.164.164.216.082c.547.209.91.582 1.21.902.181.192.326.344.478.444a.926.926 0 0 0 .543.153c.215 0 .38-.046.542-.153.152-.1.298-.251.478-.443.438-.466 1.002-1.063 2.1-1.063 1.889 0 3.412 1.457 3.412 3.23 0 .702-.247 1.398-.697 1.958l-4.27 5.16-.093.111.108.097 4.656 4.16zM13.21 11.738L10.533 9.06a1.024 1.024 0 0 0-.736-.305c-.281 0-.538.107-.736.305a1.024 1.024 0 0 0-.305.736c0 .281.107.537.305.736l5.083 5.082.106.107.106-.107 5.083-5.082a1.039 1.039 0 0 0 0-1.471c-.4-.402-1.072-.4-1.472 0l-2.676 2.676V3.713h6.975a1.04 1.04 0 0 0 0-2.082H16.03a2.825 2.825 0 0 0-2.822 2.822v7.285zM11.028 28.35h-.058l-.042.038-5.04 4.505c-2.714 2.25-4.257 5.523-4.257 9.001 0 6.45 5.281 11.694 11.77 11.694H15.1c6.488 0 11.769-5.245 11.769-11.694 0-3.478-1.542-6.752-4.231-8.98l-5.066-4.526-.043-.038h-6.501zm22.075-17.662C33.103 4.878 37.83.15 43.641.15c5.81 0 10.537 4.727 10.537 10.537 0 5.81-4.727 10.538-10.537 10.538-5.81 0-10.538-4.727-10.538-10.538zm1.481 0c0 4.993 4.063 9.056 9.057 9.056 4.993 0 9.056-4.063 9.056-9.056 0-4.994-4.063-9.057-9.056-9.057-4.994 0-9.057 4.063-9.057 9.056z" fill="#393939" stroke="#fff" stroke-width=".3"/><path d="M38.764 14.514l8.693-8.693 1.047 1.047-8.692 8.693-1.048-1.047zm5.917-.264a2.525 2.525 0 0 1 2.522-2.522 2.525 2.525 0 0 1 2.522 2.522 2.525 2.525 0 0 1-2.522 2.522 2.525 2.525 0 0 1-2.522-2.522zm1.482 0a1.04 1.04 0 1 0 2.081 0 1.04 1.04 0 0 0-2.081 0zm-6.085-9.647A2.525 2.525 0 0 1 42.6 7.125a2.525 2.525 0 0 1-2.522 2.522 2.525 2.525 0 0 1-2.522-2.522 2.525 2.525 0 0 1 2.522-2.522zm0 1.481a1.041 1.041 0 1 0 0 2.082 1.041 1.041 0 0 0 0-2.082zm3.712 27.6l2.677 2.677c.4.4 1.072.4 1.472 0 .198-.198.305-.455.305-.736 0-.281-.107-.538-.305-.736l-5.083-5.083-.106-.106-.106.107-5.083 5.082a1.035 1.035 0 0 0-.304.736c0 .278.108.54.304.735l.106-.106a.901.901 0 0 0 1.26 0l2.782-2.782v.212h2.082z" fill="#393939" stroke="#fff" stroke-width=".3"/><path d="M14.59 47.986h-1.605v-8.86H9.219v-1.34h9.138v1.34H14.59v8.86zm3.767-11.538H9.219v-1.339h9.138v1.339z" fill="#46C770"/></svg>