<svg width="55" height="57" viewBox="0 0 55 57" fill="none" xmlns="http://www.w3.org/2000/svg"><path d="M13.338 20.142l-.11-.102c-.438.466-1.001 1.063-2.098 1.063-1.096 0-1.66-.597-2.097-1.063-.18-.192-.326-.343-.477-.443a.92.92 0 0 0-.54-.153c-1.05 0-1.932.77-1.932 1.75 0 .373.13.729.371 1.029l.001.001 4.535 5.481.045.054h6.427l.046-.054 4.543-5.49.001-.002a1.62 1.62 0 0 0 .363-1.02c0-.979-.882-1.75-1.932-1.75a.927.927 0 0 0-.543.154c-.152.1-.297.251-.479.443-.438.466-1.002 1.063-2.098 1.063-1.097 0-1.662-.597-2.1-1.063-.18-.192-.325-.343-.477-.444a.925.925 0 0 0-.542-.152.92.92 0 0 0-.541.153c-.152.1-.296.251-.476.443l.11.102zm0 0c.365-.39.528-.548.907-.548.38 0 .543.158.91.548m-1.817 0l-.002.003c-.441.468-1.043 1.108-2.206 1.108-1.164 0-1.767-.642-2.207-1.11-.367-.39-.53-.55-.907-.55-.983 0-1.782.719-1.782 1.6 0 .338.117.661.338.935l8.583-1.986m0 0c.44.469 1.044 1.111 2.209 1.111 1.163 0 1.766-.64 2.206-1.108l.002-.002c.368-.39.532-.55.912-.55.983 0 1.782.719 1.782 1.6 0 .338-.117.661-.33.926l-6.781-1.977zM23.6 32.68l.005.004a13.094 13.094 0 0 1 4.744 10.102c0 7.263-5.944 13.174-13.25 13.174h-1.7C6.094 55.96.15 50.048.15 42.785a13.11 13.11 0 0 1 4.77-10.122l.004-.004 4.63-4.14.108-.096-.092-.111-4.262-5.152a3.145 3.145 0 0 1-.705-1.967c0-1.774 1.523-3.23 3.413-3.23 1.095 0 1.659.597 2.096 1.063.18.191.325.343.477.443a.92.92 0 0 0 .54.153.93.93 0 0 0 .542-.153c.151-.1.296-.252.476-.443.303-.322.667-.698 1.217-.906l.218-.082-.165-.164-5.403-5.403a2.506 2.506 0 0 1-.739-1.784c0-.673.263-1.306.739-1.782.918-.918 2.505-.955 3.464-.097l.25.224V5.344a4.308 4.308 0 0 1 4.303-4.303h6.235a2.525 2.525 0 0 1 2.522 2.522 2.525 2.525 0 0 1-2.522 2.521h-5.494v2.948l.25-.224c.959-.86 2.547-.821 3.466.097a2.5 2.5 0 0 1 .738 1.783c0 .675-.262 1.307-.738 1.783l-5.406 5.405-.164.164.216.083c.547.208.91.582 1.21.902.181.192.326.344.478.444a.927.927 0 0 0 .543.153.93.93 0 0 0 .542-.153c.152-.1.298-.251.478-.443.438-.466 1.002-1.064 2.1-1.064 1.889 0 3.412 1.457 3.412 3.231 0 .702-.247 1.398-.697 1.957v.001l-4.27 5.16-.093.111.108.096 4.656 4.161zM13.21 12.63l-2.676-2.677a1.024 1.024 0 0 0-.736-.305c-.281 0-.538.107-.736.305a1.024 1.024 0 0 0-.305.736c0 .28.107.537.305.735l5.083 5.083.106.106.106-.106 5.083-5.083c.195-.195.304-.457.304-.736a1.03 1.03 0 0 0-.304-.734c-.4-.402-1.072-.4-1.472-.001l-2.676 2.677V4.603h6.975a1.04 1.04 0 0 0 0-2.081H16.03a2.825 2.825 0 0 0-2.822 2.822v7.285zm-2.182 16.61h-.058l-.042.038-5.04 4.504c-2.714 2.25-4.257 5.523-4.257 9.002 0 6.449 5.281 11.693 11.77 11.693H15.1c6.488 0 11.769-5.244 11.769-11.693 0-3.478-1.542-6.752-4.231-8.981l-5.066-4.525-.043-.038h-6.501zm22.075-17.662c0-5.81 4.727-10.537 10.538-10.537 5.81 0 10.537 4.727 10.537 10.537 0 5.81-4.727 10.538-10.537 10.538-5.81 0-10.538-4.727-10.538-10.538zm1.481 0c0 4.994 4.063 9.056 9.057 9.056 4.993 0 9.056-4.062 9.056-9.056 0-4.994-4.063-9.056-9.056-9.056-4.994 0-9.057 4.062-9.057 9.056z" fill="#393939" stroke="#fff" stroke-width=".3"/><path d="M38.764 15.404l8.693-8.692 1.047 1.047-8.692 8.693-1.048-1.048zm5.917-.264a2.525 2.525 0 0 1 2.522-2.521 2.525 2.525 0 0 1 2.522 2.522 2.525 2.525 0 0 1-2.522 2.522 2.525 2.525 0 0 1-2.522-2.522zm1.482 0a1.041 1.041 0 1 0 2.082 0 1.041 1.041 0 0 0-2.082 0zm-6.085-9.646A2.525 2.525 0 0 1 42.6 8.016a2.525 2.525 0 0 1-2.522 2.521 2.525 2.525 0 0 1-2.522-2.521 2.525 2.525 0 0 1 2.522-2.522zm0 1.481a1.041 1.041 0 1 0 0 2.082 1.041 1.041 0 0 0 0-2.082zm3.712 27.6l2.677 2.676c.4.4 1.072.4 1.472 0 .198-.198.305-.454.305-.735 0-.282-.107-.538-.305-.736l-5.083-5.083-.106-.106-.106.106-5.083 5.083a1.034 1.034 0 0 0-.304.736c0 .278.108.539.304.735l.106-.106a.901.901 0 0 0 1.26 0l2.782-2.783v.213h2.082z" fill="#393939" stroke="#fff" stroke-width=".3"/><path d="M14.59 48.877h-1.605v-8.861H9.219v-1.339h9.138v1.339H14.59v8.861zm3.767-11.538H9.219V36h9.138v1.339z" fill="#393939"/></svg>