<svg width="76" height="40" viewBox="0 0 76 40" fill="none" xmlns="http://www.w3.org/2000/svg"><path d="M7.101 12.271c-.208 0-.417-.052-.574-.208l-1.775-1.776H2.036a.803.803 0 0 1-.783-.783c0-.418.365-.783.783-.783H5.43l2.246 2.245a.757.757 0 0 1 0 1.097c-.157.156-.366.208-.575.208zm38.016 14.256a4.959 4.959 0 0 1-4.96-4.96c0-2.716 2.245-4.961 4.96-4.961 2.716 0 4.96 2.245 4.96 4.96 0 2.716-2.244 4.961-4.96 4.961zm0-8.355a3.388 3.388 0 0 0-3.394 3.395 3.388 3.388 0 0 0 3.394 3.394 3.387 3.387 0 0 0 3.394-3.394 3.387 3.387 0 0 0-3.394-3.395zm-32.793 8.355a4.959 4.959 0 0 1-4.96-4.96c0-2.716 2.245-4.961 4.96-4.961a4.959 4.959 0 0 1 4.96 4.96 4.959 4.959 0 0 1-4.96 4.961zm0-8.355a3.387 3.387 0 0 0-3.394 3.395 3.388 3.388 0 0 0 3.394 3.394 3.388 3.388 0 0 0 3.394-3.394c.053-1.88-1.514-3.395-3.394-3.395z" fill="#344154"/><path d="M53.107 23.29h-3.916v-1.567h3.76l-.053-2.767c0-.21-.052-.261-.104-.261l-1.515-.993v-2.036c0-.052-.052-.105-.104-.157-.992-.47-3.916-1.566-9.504-1.88-2.193-.104-4.23-.679-6.11-1.618l-4.543-2.246a12.13 12.13 0 0 0-5.378-1.253h-5.797c-3.707 0-7.258.94-10.287 2.663-2.298 1.305-4.595 1.932-6.893 1.88v2.089l-.156.208s-.94 1.254-.94 2.925c0 .156.052 3.498 2.558 3.498h4.021v1.567h-4.02C.887 23.342 0 20.052 0 18.33c0-1.775.731-3.133 1.097-3.655v-1.776c0-.365.156-.73.417-.992.261-.261.627-.366.993-.366 2.036.105 4.125-.47 6.214-1.67 3.237-1.88 7.101-2.873 11.07-2.873h5.796c2.09 0 4.23.523 6.11 1.463l4.543 2.245a14.017 14.017 0 0 0 5.483 1.462c5.64.313 8.72 1.41 10.078 1.985.68.313 1.045.992.993 1.67v1.097l.783.522c.522.366.783.888.783 1.567l.053 2.924c0 .366-.157.731-.418 1.045-.157.156-.522.313-.888.313z" fill="#344154"/><path d="M40.679 21.723H16.71v1.567h23.969v-1.567z" fill="#344154"/><path d="M64.491 6.475v17.911h9.66l-1.252-7.05c-.157-.782-.314-1.566-.523-2.349-1.253-4.96-2.663-7.363-7.885-8.512z" fill="#46C770"/><path d="M59.53 6.736h-1.566V2.09a.523.523 0 0 0-1.045 0v4.647h-1.566V2.09c0-1.15.94-2.089 2.088-2.089 1.15 0 2.09.94 2.09 2.089v4.647zM74.1 23.603h-9.61v1.567h9.61v-1.567zm-59.949 9.295H4.647v1.567h9.504v-1.567z" fill="#344154"/><path d="M19.687 40c-3.342 0-6.11-2.715-6.11-6.11 0-3.342 2.716-6.11 6.11-6.11 3.342 0 6.11 2.716 6.11 6.11a6.084 6.084 0 0 1-6.11 6.11zm0-10.6a4.546 4.546 0 0 0-4.543 4.543 4.546 4.546 0 0 0 4.543 4.543 4.546 4.546 0 0 0 4.543-4.543 4.546 4.546 0 0 0-4.543-4.544z" fill="#344154"/><path d="M19.687 35.144a1.27 1.27 0 0 1-1.253-1.254 1.27 1.27 0 0 1 1.253-1.253 1.27 1.27 0 0 1 1.253 1.253c0 .731-.574 1.254-1.253 1.254zm0-1.567a.337.337 0 0 0-.314.313c0 .157.157.314.314.314A.337.337 0 0 0 20 33.89c0-.156-.104-.313-.313-.313zm14.465 1.567a1.27 1.27 0 0 1-1.254-1.254 1.27 1.27 0 0 1 1.254-1.253 1.27 1.27 0 0 1 1.253 1.253c-.052.731-.574 1.254-1.253 1.254zm0-1.567a.337.337 0 0 0-.314.313c0 .157.157.314.314.314a.337.337 0 0 0 .313-.314.337.337 0 0 0-.313-.313zm30.13 1.567a1.27 1.27 0 0 1-1.254-1.254 1.27 1.27 0 0 1 1.254-1.253 1.27 1.27 0 0 1 1.253 1.253c0 .731-.575 1.254-1.253 1.254zm0-1.567a.337.337 0 0 0-.314.313c0 .157.157.314.314.314a.337.337 0 0 0 .313-.314c0-.156-.105-.313-.313-.313z" fill="#344154"/><path d="M34.152 40c-3.342 0-6.11-2.715-6.11-6.11 0-3.342 2.715-6.11 6.11-6.11 3.342 0 6.11 2.716 6.11 6.11-.053 3.395-2.768 6.11-6.11 6.11zm0-10.6a4.546 4.546 0 0 0-4.543 4.543 4.546 4.546 0 0 0 4.543 4.543 4.546 4.546 0 0 0 4.543-4.543 4.546 4.546 0 0 0-4.543-4.544z" fill="#344154"/><path d="M75.195 32.115h-6.788l-.21-.418a4.5 4.5 0 0 0-3.916-2.297 4.5 4.5 0 0 0-3.916 2.297l-.209.418H38.328l-.208-.418a4.5 4.5 0 0 0-3.917-2.297 4.5 4.5 0 0 0-3.916 2.297l-.21.418h-6.109l-.209-.418a4.5 4.5 0 0 0-3.916-2.297 4.5 4.5 0 0 0-3.917 2.297l-.209.418H4.804v-7.102h7.676v1.567H6.37v3.968h8.408c1.148-1.67 3.028-2.715 5.065-2.715 2.036 0 3.916 1.044 5.065 2.715h4.334c1.15-1.67 3.03-2.715 5.066-2.715s3.916 1.044 5.065 2.715h20.052c1.149-1.67 3.029-2.715 5.065-2.715 2.037 0 3.917 1.044 5.066 2.715h4.334v-.26a57.11 57.11 0 0 0-3.133-18.695c-1.045-2.768-3.812-4.021-6.006-4.021H59.53v14.621c0 2.402-1.984 4.387-4.386 4.387H45.117v-1.567h10.026a2.808 2.808 0 0 0 2.82-2.82V6.005h6.527c2.82 0 6.215 1.567 7.468 5.065 2.14 6.215 3.237 12.638 3.237 19.217v1.828z" fill="#344154"/><path d="M64.281 40c-3.342 0-6.11-2.715-6.11-6.11 0-3.342 2.716-6.11 6.11-6.11 3.343 0 6.11 2.716 6.11 6.11 0 3.395-2.767 6.11-6.11 6.11zm0-10.6a4.546 4.546 0 0 0-4.543 4.543 4.546 4.546 0 0 0 4.543 4.543 4.546 4.546 0 0 0 4.544-4.543 4.546 4.546 0 0 0-4.544-4.544z" fill="#344154"/></svg>