<svg width="61" height="53" viewBox="0 0 61 53" fill="none" xmlns="http://www.w3.org/2000/svg"><path d="M30.06 5.117a4.586 4.586 0 0 0-4.605 4.604 4.586 4.586 0 0 0 4.605 4.605 4.586 4.586 0 0 0 4.605-4.605 4.586 4.586 0 0 0-4.605-4.604zm0 6.293a1.703 1.703 0 0 1-1.688-1.689c0-.92.767-1.688 1.688-1.688.92 0 1.688.767 1.688 1.688 0 .921-.767 1.689-1.688 1.689z" fill="#F2DDDE"/><path d="M30.06 28.09c-6.55 0-11.922 5.32-11.922 11.921a11.9 11.9 0 0 0 11.921 11.922A11.9 11.9 0 0 0 41.981 40.01c0-6.6-5.373-11.921-11.922-11.921zm7.572 12.996l-1.33.102c-.205 1.075-.666 2.098-1.382 2.916l.767 1.126c.307.41.205 1.023-.255 1.28l-1.228.818c-.41.307-1.024.204-1.28-.256l-.767-1.074c-1.074.358-2.2.46-3.223.255l-.563 1.228a.938.938 0 0 1-1.228.46l-1.33-.613a.938.938 0 0 1-.461-1.228l.563-1.228a6.558 6.558 0 0 1-1.842-2.66l-1.33.102c-.512.05-.973-.358-1.024-.87l-.102-1.484c-.051-.512.358-.972.87-1.023l1.33-.103c.205-1.074.665-2.097 1.381-2.916l-.767-1.126c-.307-.409-.205-1.023.256-1.279l1.228-.818c.41-.307 1.023-.205 1.279.255l.767 1.075c1.075-.358 2.2-.46 3.224-.256l.563-1.228c.204-.46.767-.665 1.228-.46l1.33.614c.46.204.665.767.46 1.228l-.562 1.227a6.559 6.559 0 0 1 1.841 2.661l1.33-.102c.513-.051.973.358 1.024.87l.102 1.483c0 .512-.358.973-.87 1.024z" fill="#46C770"/><path d="M27.502 48.76c-.256 0-.512-.05-.717-.153l-1.33-.614a1.795 1.795 0 0 1-.87-.972c-.153-.41-.102-.87.051-1.28l.358-.716c-.562-.614-1.074-1.279-1.381-2.046l-.767.05c-.921.052-1.74-.613-1.842-1.534l-.103-1.484c-.05-.46.103-.87.41-1.228a1.776 1.776 0 0 1 1.176-.614l.768-.05a5.886 5.886 0 0 1 1.074-2.201l-.46-.614a1.6 1.6 0 0 1-.256-1.28c.102-.46.358-.818.716-1.074l1.228-.818a1.597 1.597 0 0 1 1.28-.256c.46.102.818.358 1.074.716l.46.614c.82-.204 1.638-.256 2.456-.204l.358-.717c.205-.41.563-.716.973-.87.409-.153.87-.153 1.279.052l1.33.614c.41.204.716.562.87.972.153.409.102.87-.051 1.279l-.358.716c.562.614 1.074 1.28 1.381 2.047l.767-.051c.922-.051 1.74.614 1.842 1.535l.103 1.483c.051.46-.103.87-.41 1.228a1.775 1.775 0 0 1-1.176.614l-.768.051a5.887 5.887 0 0 1-1.074 2.2l.46.615c.512.767.358 1.841-.46 2.353l-1.228.819a1.597 1.597 0 0 1-1.28.256 1.763 1.763 0 0 1-1.074-.717l-.46-.614c-.819.205-1.638.256-2.456.205l-.358.716a1.738 1.738 0 0 1-1.535.973zm-2.917-7.418l.205.562a5.06 5.06 0 0 0 1.637 2.354l.46.358-.818 1.74v.102c0 .051.051.051.102.102l1.33.614c.103.051.205 0 .205-.102l.819-1.74.563.103c.972.153 1.944.102 2.814-.205l.563-.205 1.074 1.587c.051.05.051.05.102.05.052 0 .052 0 .103-.05l1.228-.82c.05-.05.102-.153.05-.204l-1.074-1.586.359-.46c.614-.717 1.023-1.638 1.227-2.559l.103-.563 1.893-.153c.051 0 .102-.051.102-.051s.052-.051.052-.102l-.103-1.484c0-.103-.102-.154-.153-.154l-1.893.154-.205-.563a5.056 5.056 0 0 0-1.637-2.354l-.46-.358.818-1.74v-.102c0-.05-.051-.051-.103-.102l-1.33-.614h-.102c-.051 0-.051.051-.102.102l-.82 1.74-.562-.103c-.972-.153-1.944-.102-2.814.205l-.563.205-1.074-1.586c-.052-.051-.052-.051-.103-.051-.05 0-.05 0-.102.05l-1.228.82c-.051.05-.051.05-.051.102 0 .05 0 .05.051.102l1.074 1.586-.358.46c-.614.717-1.023 1.638-1.228 2.559l-.102.563-1.893.153c-.051 0-.102.051-.102.051s-.052.051-.052.103l.103 1.484c0 .102.102.153.153.153l1.842-.153z" fill="#344154"/><path d="M30.06 52.7c-7.01 0-12.689-5.68-12.689-12.689 0-7.01 5.68-12.689 12.689-12.689 7.01 0 12.689 5.68 12.689 12.69 0 7.009-5.73 12.688-12.689 12.688zm0-23.843c-6.14 0-11.154 5.014-11.154 11.154S23.92 51.165 30.06 51.165s11.154-5.014 11.154-11.154S36.2 28.857 30.06 28.857zM5.09 26.964c-.204 0-.408-.051-.562-.205a.742.742 0 0 1 0-1.074L15.682 14.53a.742.742 0 0 1 1.074 0 .742.742 0 0 1 0 1.074L5.654 26.76c-.154.154-.358.205-.563.205zm-2.149-2.149c-.204 0-.409-.051-.562-.205a.742.742 0 0 1 0-1.074l11.154-11.154a.742.742 0 0 1 1.074 0 .742.742 0 0 1 0 1.075L3.453 24.61c-.102.154-.307.205-.512.205zM.793 22.666c-.205 0-.41-.051-.563-.204a.742.742 0 0 1 0-1.075l11.154-11.154a.742.742 0 0 1 1.075 0 .742.742 0 0 1 0 1.074L1.305 22.462c-.103.153-.307.204-.512.204zm54.235 4.298c-.204 0-.41-.051-.563-.205L43.311 15.605a.742.742 0 0 1 0-1.074.742.742 0 0 1 1.075 0L55.54 25.685a.742.742 0 0 1-.512 1.279zm2.15-2.149c-.205 0-.41-.051-.563-.205L45.46 13.457a.742.742 0 0 1 0-1.075.742.742 0 0 1 1.074 0L57.69 23.536a.742.742 0 0 1 0 1.074.657.657 0 0 1-.511.205zm2.148-2.149c-.205 0-.41-.051-.563-.204L47.61 11.307a.742.742 0 0 1 0-1.074.742.742 0 0 1 1.075 0l11.154 11.154a.742.742 0 0 1 0 1.075.657.657 0 0 1-.512.204z" fill="#344154"/><path d="M54.26 16.884l-1.074-1.125 4.605-4.605-9.619-9.619H11.896l-9.568 9.619 4.605 4.605-1.126 1.125-5.68-5.73L11.283 0h37.555l11.154 11.154-5.73 5.73zM18.905 38.579L7.854 27.527l9.72-9.722 11.053 11.052-1.33.307a11.168 11.168 0 0 0-8.085 8.084l-.307 1.33zm-8.903-11.052l8.136 8.135a12.704 12.704 0 0 1 7.521-7.521l-8.135-8.135-7.522 7.52zm31.161 11.052l-.307-1.33a11.168 11.168 0 0 0-8.084-8.085l-1.33-.307 11.051-11.052 9.721 9.722-11.051 11.052zm-6.754-10.49a12.704 12.704 0 0 1 7.521 7.522l8.136-8.135-7.522-7.521-8.135 8.135z" fill="#344154"/><path d="M30.06 15.094a5.372 5.372 0 1 1 0-10.745 5.372 5.372 0 0 1 5.372 5.372 5.372 5.372 0 0 1-5.372 5.373zm0-9.21c-2.098 0-3.837 1.74-3.837 3.837 0 2.098 1.74 3.838 3.837 3.838 2.098 0 3.837-1.74 3.837-3.838 0-2.097-1.74-3.837-3.837-3.837z" fill="#344154"/><path d="M30.06 12.177c-1.33 0-2.456-1.125-2.456-2.456 0-1.33 1.125-2.456 2.455-2.456s2.456 1.126 2.456 2.456-1.125 2.456-2.456 2.456zm0-3.377a.917.917 0 0 0-.921.921c0 .512.409.921.92.921a.917.917 0 0 0 .921-.92.917.917 0 0 0-.92-.922zm6.037 12.434a.817.817 0 0 1-.767-.666L33.897 9.056c-.051-.409.256-.818.665-.87.41-.05.819.256.87.666l1.433 11.512c.051.41-.256.819-.665.87h-.103zm-12.075 0h-.102c-.41-.052-.717-.46-.665-.87l1.432-11.512a.765.765 0 0 1 .87-.666c.41.052.716.461.665.87L24.79 20.57a.775.775 0 0 1-.768.665z" fill="#344154"/></svg>