<svg width="68" height="54" viewBox="0 0 68 54" fill="none" xmlns="http://www.w3.org/2000/svg"><path d="M39.962 2.935h-12.62l-2.445 4.01h17.51l-2.445-4.01zm8.853 46.663l-12.473-4.402v-3.277l13.598 4.89-1.125 2.789z" fill="#46C770"/><path d="M28.174 14.87h-5.233a.752.752 0 0 1-.734-.734c0-.391.342-.734.734-.734h3.766v-.049c0-.44-.342-.782-.734-.88l-2.983-.44c-.392-.05-.685-.44-.636-.832.049-.391.44-.685.831-.636l2.984.44c1.125.147 2.005 1.174 2.005 2.3v1.565z" fill="#344154"/><path d="M44.56 22.549h-1.076a2.63 2.63 0 0 1-2.641-2.641V18.44H26.364v1.468a2.63 2.63 0 0 1-2.64 2.64h-1.077a2.63 2.63 0 0 1-2.641-2.64v-9.392l-1.468-.538a1.206 1.206 0 0 1-.782-1.125V7.337a1.19 1.19 0 0 1 1.174-1.174h2.2c.343 0 .686-.196.832-.49l2.201-4.01A3.135 3.135 0 0 1 26.951 0H40.11c1.174 0 2.25.636 2.788 1.663l2.201 4.01c.147.294.49.49.832.49h2.2a1.19 1.19 0 0 1 1.175 1.174v1.565c0 .49-.294.93-.783 1.125l-1.467.538v9.391c.147 1.419-1.027 2.593-2.495 2.593zm-19.614-5.527h17.413v2.934a1.19 1.19 0 0 0 1.174 1.174h1.076a1.19 1.19 0 0 0 1.174-1.174V9.538l2.25-.831V7.63h-1.908a2.49 2.49 0 0 1-2.152-1.271l-2.2-4.011a1.727 1.727 0 0 0-1.517-.88H27.098c-.636 0-1.174.342-1.516.88l-2.201 4.01a2.489 2.489 0 0 1-2.152 1.272H19.32v1.077l2.25.831v10.418a1.19 1.19 0 0 0 1.174 1.174h1.076a1.19 1.19 0 0 0 1.174-1.174v-2.934h-.049z" fill="#344154"/><path d="M42.409 7.68H24.898a.752.752 0 0 1-.734-.734c0-.392.342-.734.734-.734h17.51c.392 0 .734.342.734.734a.72.72 0 0 1-.733.733zm1.956 7.19H39.13v-1.517c0-1.174.88-2.152 2.005-2.299l2.984-.44c.391-.049.783.196.832.636.048.391-.196.783-.636.832l-2.984.44c-.44.049-.734.44-.734.88v.049h3.767c.39 0 .733.342.733.734 0 .342-.293.684-.733.684zm-7.386.097h-6.604a.752.752 0 0 1-.733-.733c0-.392.342-.734.733-.734h6.604c.39 0 .733.342.733.734a.752.752 0 0 1-.733.733z" fill="#344154"/><path d="M36.978 14.967h-.098a.731.731 0 0 1-.635-.831l.195-1.81h-5.527l.196 1.81c.049.391-.245.783-.636.832-.392.048-.783-.245-.832-.636l-.391-3.424h8.853l-.391 3.424a.781.781 0 0 1-.734.635zM25.68 18.49h-1.957a.752.752 0 0 1-.734-.735c0-.39.343-.733.734-.733h1.957c.39 0 .733.342.733.733a.72.72 0 0 1-.733.734zm18.489 0h-2.544a.752.752 0 0 1-.733-.735c0-.39.342-.733.733-.733h2.544c.391 0 .733.342.733.733a.752.752 0 0 1-.733.734z" fill="#344154"/><path d="M25.68 18.49h-2.544a.752.752 0 0 1-.734-.735c0-.39.343-.733.734-.733h2.544c.39 0 .733.342.733.733a.72.72 0 0 1-.733.734z" fill="#344154"/><path d="M18.636 49.598l12.473-4.402v-3.277l-13.598 4.89 1.125 2.789z" fill="#46C770"/><path d="M30.962 42.652c-.342 0-.636-.196-.685-.538l-1.125-4.01a12.091 12.091 0 0 0-6.554-7.68l-2.788-1.32a7.19 7.19 0 0 1-3.815-4.452l-1.419-4.94.147-.978a3.348 3.348 0 0 0-1.565-3.326l-.05-.05c-.341-.195-.44-.684-.244-1.027.196-.342.685-.44 1.027-.244l.05.049a4.93 4.93 0 0 1 2.25 4.793l-.098.636 1.32 4.647a5.503 5.503 0 0 0 2.984 3.522l2.788 1.32c3.62 1.663 6.26 4.794 7.386 8.658l1.125 4.01a.775.775 0 0 1-.49.93h-.244zm-11.348 4.06c-.244 0-.538-.147-.636-.391-.88-1.712-2.494-2.886-4.304-3.278-.196-.048-.44-.097-.636-.146-3.277-.832-6.212-3.082-7.973-6.163C3.815 32.82.49 28.81.44 28.76L0 28.27l.44-.489c.05-.048 1.272-1.32 3.277-1.222 1.761.098 3.424 1.174 5.087 3.277 1.859 2.397 4.843 3.717 7.729 3.473.195 0 .39-.05.538-.05.391-.048.782.245.831.637.05.39-.244.782-.636.831-.195.05-.44.05-.636.05-3.423.293-6.798-1.224-9-4.012-1.32-1.712-2.69-2.641-3.962-2.69-.684-.049-1.271.196-1.663.391 1.028 1.272 3.473 4.403 5.283 7.582 1.614 2.788 4.158 4.744 7.043 5.478l.588.147c2.298.489 4.206 1.956 5.331 4.01.196.343.049.783-.294.979-.097.049-.244.049-.342.049z" fill="#344154"/><path d="M4.01 28.027c-.342 0-.635-.244-.733-.587l-1.419-6.603.05-.196L6.211 7.386l.684.147c1.028.244 2.886 1.663 2.3 5.038l-1.81 8.07 1.222 5.038a.73.73 0 1 1-1.418.343L5.87 20.69l1.907-8.364c.293-1.663-.196-2.543-.636-2.935L3.375 20.935l1.37 6.212a.73.73 0 0 1-.539.88h-.195z" fill="#344154"/><path d="M11.006 25.875c-.343 0-.636-.196-.685-.538l-1.419-4.99 1.761-9.097c.587-2.25-.244-3.424-.88-3.962L8.95 9.832a.775.775 0 0 1-.93.489.775.775 0 0 1-.488-.93l1.32-4.108.734.244c1.272.49 3.424 2.348 2.495 6.065L10.419 20.3l1.32 4.647a.775.775 0 0 1-.489.929h-.244z" fill="#344154"/><path d="M13.94 25.24c-.342 0-.636-.197-.685-.539l-1.467-5.087 1.027-5.43c.294-1.467-.342-2.983-1.516-3.863l-.147-.098c-.342-.245-.391-.685-.147-1.027.245-.343.685-.392 1.028-.147l.146.098a5.356 5.356 0 0 1 2.104 5.331l-.979 5.087 1.37 4.745a.775.775 0 0 1-.49.93h-.244zM19.957 54c-.294 0-.587-.196-.685-.44l-2.592-6.457c-.098-.196-.05-.391 0-.587.097-.195.244-.342.44-.391l13.598-4.891a.687.687 0 0 1 .684.097.697.697 0 0 1 .294.587v3.278a.752.752 0 0 1-.734.733.752.752 0 0 1-.734-.733v-2.25L18.342 47.2l2.055 5.136 8.95-2.74a.775.775 0 0 1 .93.49.775.775 0 0 1-.489.93l-9.587 2.934c-.098.049-.146.049-.244.049z" fill="#344154"/><path d="M18.49 50.331a.736.736 0 0 1-.685-.489c-.147-.391.049-.782.44-.93l12.473-4.401c.39-.147.782.049.929.44.147.391-.049.783-.44.93l-12.473 4.401c-.049.05-.147.05-.245.05zm17.853-7.679c-.049 0-.147 0-.196-.049a.715.715 0 0 1-.489-.93l1.125-4.01c1.076-3.815 3.767-6.946 7.386-8.658l2.788-1.32a5.503 5.503 0 0 0 2.984-3.522l1.32-4.647-.097-.635a4.93 4.93 0 0 1 2.25-4.794l.049-.049a.783.783 0 0 1 1.027.245.783.783 0 0 1-.245 1.027l-.049.049a3.348 3.348 0 0 0-1.565 3.326l.147.978-1.419 4.94c-.538 1.957-1.956 3.57-3.815 4.451l-2.788 1.321a11.935 11.935 0 0 0-6.554 7.68l-1.125 4.01c-.098.392-.392.587-.734.587zm11.397 4.06a.907.907 0 0 1-.342-.098c-.343-.196-.49-.636-.294-.978 1.125-2.103 3.033-3.57 5.332-4.011l.587-.147c2.886-.733 5.478-2.739 7.043-5.478 1.81-3.18 4.256-6.31 5.283-7.581-.392-.196-.93-.44-1.663-.392-1.272.098-2.642.978-3.962 2.69-2.201 2.837-5.576 4.305-9 4.011-.196 0-.391-.049-.636-.049-.391-.049-.685-.44-.636-.831.049-.392.44-.685.832-.636.195.049.39.049.538.049 2.886.244 5.87-1.076 7.728-3.473 1.614-2.103 3.326-3.18 5.087-3.277 2.005-.098 3.228 1.174 3.277 1.223l.44.489-.44.489c-.049.049-3.375 4.06-5.625 7.973-1.81 3.13-4.696 5.38-7.973 6.163-.196.049-.44.098-.636.147a6.245 6.245 0 0 0-4.304 3.277c-.147.293-.391.44-.636.44z" fill="#344154"/><path d="M63.294 28.027h-.147a.73.73 0 0 1-.538-.88l1.37-6.212L60.213 9.39c-.44.44-.88 1.272-.587 2.984l1.907 8.315-1.32 5.332a.73.73 0 1 1-1.419-.343l1.223-5.038-1.81-8.021c-.587-3.424 1.223-4.794 2.3-5.038l.684-.147 4.402 13.45-1.418 6.604c-.245.342-.538.538-.88.538z" fill="#344154"/><path d="M56.348 25.875c-.049 0-.147 0-.195-.049a.715.715 0 0 1-.49-.93l1.321-4.646-1.663-8.755c-.93-3.669 1.223-5.528 2.495-6.017l.733-.244 1.32 4.108c.148.392-.097.783-.488.93-.392.146-.783-.098-.93-.49L57.62 7.24c-.636.538-1.467 1.663-.88 3.913l1.76 9.098-1.418 4.99c-.147.44-.44.635-.734.635z" fill="#344154"/><path d="M53.365 25.24c-.05 0-.147 0-.196-.05a.715.715 0 0 1-.49-.93l1.37-4.744-.978-5.087c-.391-2.005.44-4.108 2.103-5.331L55.321 9a.759.759 0 0 1 1.027.147.759.759 0 0 1-.146 1.027l-.147.098a3.837 3.837 0 0 0-1.517 3.864l1.028 5.43-1.468 5.086c-.098.391-.391.587-.733.587zM47.348 54c-.048 0-.146 0-.195-.049l-9.587-2.935c-.392-.097-.587-.538-.49-.929.099-.391.539-.587.93-.49l8.951 2.74 2.054-5.136-11.885-4.255v2.25a.752.752 0 0 1-.734.733.752.752 0 0 1-.734-.733v-3.277c0-.245.098-.44.294-.587.195-.147.44-.147.684-.098l13.598 4.891c.196.049.343.196.44.391a.623.623 0 0 1 0 .587l-2.592 6.457c-.147.244-.44.44-.734.44z" fill="#344154"/><path d="M48.816 50.331c-.098 0-.147 0-.245-.048L36.098 45.88c-.391-.146-.587-.538-.44-.929.147-.391.538-.587.93-.44l12.472 4.402c.392.147.587.538.44.93a.736.736 0 0 1-.684.488z" fill="#344154"/></svg>