<svg width="50" height="50" viewBox="0 0 50 50" fill="none" xmlns="http://www.w3.org/2000/svg">
<g clip-path="url(#clip0)">
<path d="M47.6154 29.287H46.8672V22.5472C46.8672 21.4802 46.3361 20.5355 45.5251 19.9615V19.0438C45.5251 17.7127 44.4422 16.6298 43.111 16.6298H42.5523L44.6899 13.493C45.4064 12.4417 45.134 11.0033 44.0826 10.2867L29.5776 0.401928C29.0684 0.0547603 28.4545 -0.0733647 27.8486 0.0415767C27.2431 0.156323 26.7184 0.499975 26.3713 1.00935L13.8517 19.3807H10.3678L11.2083 10.8719C11.2178 10.776 11.2801 10.6929 11.367 10.6602C12.4499 10.2519 13.3884 9.48943 14.0095 8.51326C14.0584 8.4364 14.1507 8.39246 14.2462 8.40212L19.7105 8.94197C20.1023 8.97996 20.4509 8.6946 20.4895 8.303C20.5282 7.9114 20.2422 7.56267 19.8506 7.524L14.3862 6.98416C13.752 6.92205 13.1471 7.21433 12.8072 7.74832C12.3506 8.46609 11.6605 9.02664 10.8644 9.32683C10.265 9.55281 9.85351 10.0911 9.79023 10.7318L8.93594 19.3806H8.02744L9.35674 5.92322C9.40459 5.43884 9.83691 5.08298 10.3219 5.13152L21.3643 6.22234C21.7559 6.26013 22.1046 5.97498 22.1433 5.58337C22.1819 5.19177 21.8959 4.84304 21.5043 4.80437L10.4619 3.71355C9.1959 3.58865 8.06377 4.51687 7.93867 5.78308L6.86719 16.6298H5.04248C3.71143 16.6298 2.62842 17.7127 2.62842 19.0438V19.6698C1.53945 20.1712 0.78125 21.2719 0.78125 22.5472V46.8339C0.78125 48.58 2.20176 50.0005 3.94795 50.0005H43.7006C45.4467 50.0005 46.8672 48.58 46.8672 46.8339V40.0942H47.6154C48.4986 40.0942 49.2171 39.3758 49.2171 38.4927V30.8887C49.2172 30.0054 48.4986 29.287 47.6154 29.287ZM43.111 18.0548C43.6565 18.0547 44.1002 18.4984 44.1002 19.0439V19.4069C43.9691 19.3903 43.836 19.3808 43.7006 19.3808H40.6776L41.5812 18.0548H43.111ZM27.5487 1.81169C27.6815 1.61687 27.8822 1.48542 28.1139 1.44148C28.1692 1.43103 28.2248 1.42576 28.28 1.42576C28.4555 1.42576 28.6269 1.4783 28.7752 1.57927L43.2802 11.464C43.6823 11.7382 43.7866 12.2884 43.5126 12.6905L38.9534 19.3805H37.8593L40.0945 16.1006C40.457 15.5686 40.4869 14.8917 40.1723 14.3338C39.7541 13.5926 39.5846 12.7198 39.6949 11.8761C39.777 11.2485 39.5008 10.6358 38.9742 10.277L31.4549 5.15281C30.9282 4.79392 30.2569 4.76101 29.7028 5.06697C28.9582 5.4781 28.0839 5.63953 27.2411 5.52156C26.6161 5.43386 25.9822 5.71609 25.6251 6.24001L16.6701 19.3806H15.576L27.5487 1.81169ZM27.8625 13.9104C24.7599 13.9104 22.213 16.3297 22.0055 19.3806H18.3942L26.8023 7.04246C26.8024 7.04246 26.8024 7.04246 26.8024 7.04246C26.8502 6.97224 26.9294 6.93044 27.0107 6.93044C27.0216 6.93044 27.0324 6.93123 27.0433 6.93269C28.1896 7.09304 29.3785 6.87371 30.3914 6.31443C30.4711 6.27029 30.5734 6.27664 30.6523 6.33035L38.1718 11.4547C38.2505 11.5084 38.2937 11.6013 38.282 11.6916C38.1319 12.8389 38.3626 14.0259 38.9312 15.0339C38.9769 15.1148 38.9713 15.2185 38.9172 15.2981L36.1352 19.3805H33.7198C33.5121 16.3297 30.9653 13.9104 27.8625 13.9104ZM32.291 19.3807H23.4341C23.6382 17.1162 25.5458 15.3354 27.8625 15.3354C30.1793 15.3353 32.087 17.1162 32.291 19.3807ZM4.05332 19.0438C4.05332 18.4983 4.49697 18.0546 5.04248 18.0546H6.72646L6.59551 19.3806H4.05332V19.0438ZM2.20615 22.5472C2.20615 21.5869 2.9875 20.8055 3.94795 20.8055H43.7006C44.661 20.8055 45.4423 21.5869 45.4423 22.5472V24.5242H2.20615V22.5472ZM45.4423 46.8339C45.4423 47.7942 44.661 48.5756 43.7006 48.5756H3.94795C2.9875 48.5756 2.20615 47.7942 2.20615 46.8339V44.8569H6.04814C6.4417 44.8569 6.76055 44.538 6.76055 44.1445C6.76055 43.7511 6.4416 43.4321 6.04814 43.4321H2.20615V25.9491H45.4423V29.287H38.6683H38.6682C36.5338 29.287 34.685 30.5311 33.8075 32.332C33.8046 32.3381 33.8013 32.3439 33.7982 32.35C33.7908 32.3653 33.7844 32.3812 33.7771 32.3967C33.6727 32.6186 33.5818 32.8484 33.5079 33.0855C33.5077 33.0862 33.5075 33.0868 33.5073 33.0875C33.3496 33.5942 33.2645 34.1326 33.2645 34.6906C33.2645 37.6702 35.6886 40.0942 38.6681 40.0942H38.6682H45.4422V43.4321H10.6101C10.2165 43.4321 9.89766 43.7511 9.89766 44.1445C9.89766 44.538 10.2166 44.8569 10.6101 44.8569H45.4423V46.8339ZM47.7923 38.4926C47.7923 38.59 47.713 38.6693 47.6154 38.6693H38.6684C37.1601 38.6693 35.845 37.8257 35.1705 36.5855C35.1398 36.5292 35.1105 36.472 35.0825 36.414C35.0266 36.2981 34.9761 36.1791 34.9314 36.0572C34.775 35.6308 34.6896 35.1705 34.6896 34.6906C34.6896 34.2107 34.7751 33.7504 34.9314 33.324C34.9762 33.2022 35.0267 33.0832 35.0825 32.9672C35.1105 32.9093 35.1398 32.852 35.1705 32.7957C35.845 31.5555 37.1601 30.7119 38.6684 30.7119H47.6154C47.7129 30.7119 47.7923 30.7912 47.7923 30.8887V38.4926Z" fill="#393939"/>
<path d="M38.8359 31.7998C37.242 31.7998 35.9453 33.0966 35.9453 34.6904C35.9453 36.2843 37.242 37.581 38.8359 37.581C40.4299 37.581 41.7266 36.2843 41.7266 34.6904C41.7266 33.0966 40.4299 31.7998 38.8359 31.7998ZM38.8359 36.1561C38.0277 36.1561 37.3702 35.4985 37.3702 34.6904C37.3702 33.8823 38.0277 33.2247 38.8359 33.2247C39.6441 33.2247 40.3017 33.8822 40.3017 34.6904C40.3017 35.4986 39.6441 36.1561 38.8359 36.1561Z" fill="#46C770"/>
</g>
<defs>
<clipPath id="clip0">
<rect width="50" height="50" fill="white"/>
</clipPath>
</defs>
</svg>
