<svg width="63" height="63" viewBox="0 0 63 63" fill="none" xmlns="http://www.w3.org/2000/svg">
<g clip-path="url(#clip0)">
<path d="M55.3576 12.7558L31.6795 0.138821C31.3282 -0.0486575 30.9072 -0.0460263 30.5586 0.145399L7.5356 12.7623C7.15801 12.9696 6.92383 13.3656 6.92383 13.7964V30.2774C6.93764 43.8252 14.9643 56.0816 27.3774 61.5093L30.573 62.9019C30.8717 63.0321 31.2118 63.0328 31.5111 62.9032L35.112 61.3481C47.7552 56.0382 55.9806 43.6633 55.9819 29.9505V13.7964C55.9819 13.361 55.7418 12.9603 55.3576 12.7558ZM53.6243 29.9505C53.6217 42.7181 45.9614 54.2384 34.1891 59.1793L34.1812 59.1832L31.0453 60.537L28.3207 59.3483C16.7661 54.2963 9.29395 42.8884 9.28079 30.2774V14.4944L31.1328 2.51815L53.6243 14.5029V29.9505Z" fill="#393939"/>
<path d="M22.4352 29.5126C22.0122 29.0173 21.2682 28.9587 20.7729 29.3817C20.2775 29.804 20.219 30.5487 20.6419 31.0433L26.8688 38.3352C27.2846 38.822 28.0128 38.8885 28.5088 38.4846L43.011 26.6859C43.5162 26.2755 43.5925 25.5328 43.1814 25.0276C42.7709 24.523 42.0283 24.4461 41.5231 24.8572L27.9141 35.9283L22.4352 29.5126Z" fill="#46C770"/>
</g>
<defs>
<clipPath id="clip0">
<rect width="63" height="63" fill="white"/>
</clipPath>
</defs>
</svg>
