<svg width="24" height="24" viewBox="0 0 24 24" fill="none" xmlns="http://www.w3.org/2000/svg">
<path d="M12 0C18.6171 0 24 5.38293 24 12C24 18.6171 18.6171 24 12 24C5.38293 24 0 18.6171 0 12C0 5.38293 5.38293 0 12 0ZM6.29297 18.2069C6.48798 18.4019 6.74396 18.5001 6.99994 18.5001C7.25592 18.5001 7.51208 18.4019 7.70691 18.2069L12.707 13.207C12.895 13.0201 12.9999 12.7659 12.9999 12.5001V6C12.9999 5.44702 12.5521 5.00006 12 5.00006C11.4479 5.00006 11.0001 5.44702 11.0001 6V12.0861L6.29297 16.793C5.90204 17.1841 5.90204 17.816 6.29297 18.2069Z" fill="#46C770"/>
</svg>
