<svg width="21" height="20" viewBox="0 0 21 20" fill="none" xmlns="http://www.w3.org/2000/svg">
<g clip-path="url(#clip0)">
<path d="M16.0696 6.4515L17.1578 5.81572C14.8033 1.76462 9.72837 0.217014 5.51928 2.26657V0.715576H4.25977V4.50003H8.0383V3.23854H6.42928C9.99205 1.72488 14.1227 3.10159 16.0696 6.4515Z" fill="#46C770"/>
<path d="M4.57495 16.2796C1.65497 13.9045 0.88643 9.75848 2.76062 6.49183L1.66863 5.86108C-0.469042 9.58936 0.339802 14.313 3.59568 17.1148H2.05593V18.3763H5.83447V14.5918H4.57495V16.2796Z" fill="#46C770"/>
<path d="M17.7779 8.64282L15.1065 11.3191L15.997 12.2109L17.0675 11.1387C16.6476 15.0465 13.3598 18.0123 9.43555 18.0232V19.2847C14.1111 19.2724 17.9897 15.6584 18.339 10.9886L19.5595 12.2109L20.45 11.3191L17.7779 8.64282Z" fill="#46C770"/>
</g>
<defs>
<clipPath id="clip0">
<rect width="19.9688" height="20" fill="white" transform="translate(0.480469)"/>
</clipPath>
</defs>
</svg>
