<svg width="30" height="20" viewBox="0 0 30 20" fill="none" xmlns="http://www.w3.org/2000/svg">
<path d="M25.321 2.97869C24.9287 2.24366 24.1634 1.7855 23.3312 1.78736H20.1719V6.01991C20.1719 6.49133 20.5851 6.87265 21.056 6.87265H27.402L25.321 2.97869Z" fill="#46C770"/>
<path d="M7.05549 19.9349C8.54775 19.9349 9.75746 18.7233 9.75746 17.2287C9.75746 15.7341 8.54775 14.5225 7.05549 14.5225C5.56323 14.5225 4.35352 15.7341 4.35352 17.2287C4.35352 18.7233 5.56323 19.9349 7.05549 19.9349Z" fill="#46C770"/>
<path d="M22.3311 14.5225C20.8387 14.5225 19.6289 15.7341 19.6289 17.2289C19.6289 18.7236 20.8387 19.9353 22.3311 19.9353C23.8235 19.9353 25.0333 18.7236 25.0333 17.2289C25.0333 17.2288 25.0333 17.2287 25.0333 17.2287C25.0315 15.7348 23.8227 14.5242 22.3311 14.5225Z" fill="#46C770"/>
<path d="M29.4264 9.75511L28.0296 7.97209H21.0547C19.9785 7.97209 19.0728 7.09756 19.0728 6.01982V0.814265C19.0828 0.374662 18.7351 0.0102389 18.2962 0.000205784C18.2806 -0.000137817 18.2651 -6.92854e-05 18.2494 0.000549196H1.83394C1.36318 0.000549196 0.958984 0.342776 0.958984 0.814265V15.8599C0.958984 16.3314 1.36318 16.6996 1.83394 16.6996H3.29079C3.57368 14.6173 5.48832 13.159 7.56729 13.4423C9.25894 13.6728 10.5893 15.0053 10.8195 16.6996H18.567C18.8501 14.6173 20.7648 13.1591 22.8439 13.4425C24.5354 13.6731 25.8656 15.0054 26.0958 16.6996H29.0387C29.5095 16.6996 29.9137 16.3314 29.9137 15.8599V11.1453C29.909 10.6407 29.7377 10.1519 29.4264 9.75511Z" fill="#46C770"/>
</svg>
