<svg width="23" height="23" viewBox="0 0 23 23" fill="none" xmlns="http://www.w3.org/2000/svg">
<g clip-path="url(#clip0)">
<path d="M20.9793 2.74023H2.0223C1.71112 2.74023 1.41981 2.81674 1.15625 2.94283L11.4559 13.2425L13.7644 11.0239C13.7644 11.0239 13.7646 11.0237 13.7646 11.0236C13.7647 11.0235 13.7648 11.0234 13.7648 11.0234L21.8457 2.94301C21.5821 2.81683 21.2906 2.74023 20.9793 2.74023Z" fill="#46C770"/>
<path d="M22.7979 3.896L15.1934 11.5001L22.7976 19.1043C22.9237 18.8408 23.0002 18.5495 23.0002 18.2383V4.76173C23.0002 4.45074 22.9239 4.15946 22.7979 3.896Z" fill="#46C770"/>
<path d="M0.202598 3.89563C0.076502 4.15919 0 4.4505 0 4.76168V18.2382C0 18.5492 0.0764121 18.8406 0.202418 19.1041L7.80693 11.5L0.202598 3.89563Z" fill="#46C770"/>
<path d="M14.2395 12.453L11.9307 14.6718C11.7991 14.8034 11.6267 14.8692 11.4543 14.8692C11.2819 14.8692 11.1095 14.8034 10.9779 14.6718L8.75894 12.4529L1.1543 20.057C1.4179 20.1832 1.7094 20.2598 2.02066 20.2598H20.9777C21.2889 20.2598 21.5802 20.1833 21.8437 20.0572L14.2395 12.453Z" fill="#46C770"/>
</g>
<defs>
<clipPath id="clip0">
<rect width="23" height="23" fill="white"/>
</clipPath>
</defs>
</svg>
