<svg width="23" height="23" viewBox="0 0 23 23" fill="none" xmlns="http://www.w3.org/2000/svg">
<path d="M16.7741 0H6.22588C2.79287 0 0 2.79287 0 6.22588V16.7743C0 20.2071 2.79287 23 6.22588 23H16.7743C20.2071 23 23 20.2071 23 16.7743V6.22588C23 2.79287 20.2071 0 16.7741 0V0ZM11.5 17.7889C8.03223 17.7889 5.2111 14.9677 5.2111 11.5C5.2111 8.03223 8.03223 5.2111 11.5 5.2111C14.9677 5.2111 17.7889 8.03223 17.7889 11.5C17.7889 14.9677 14.9677 17.7889 11.5 17.7889ZM17.9392 6.69422C16.9145 6.69422 16.0809 5.86071 16.0809 4.83594C16.0809 3.81116 16.9145 2.97747 17.9392 2.97747C18.964 2.97747 19.7977 3.81116 19.7977 4.83594C19.7977 5.86071 18.964 6.69422 17.9392 6.69422Z" fill="#46C770"/>
<path d="M11.4991 6.55945C8.77503 6.55945 6.55859 8.77571 6.55859 11.5C6.55859 14.2241 8.77503 16.4405 11.4991 16.4405C14.2234 16.4405 16.4396 14.2241 16.4396 11.5C16.4396 8.77571 14.2234 6.55945 11.4991 6.55945Z" fill="#46C770"/>
<path d="M17.9396 4.32605C17.6585 4.32605 17.4297 4.55487 17.4297 4.83598C17.4297 5.11709 17.6585 5.34591 17.9396 5.34591C18.2209 5.34591 18.4497 5.11727 18.4497 4.83598C18.4497 4.55469 18.2209 4.32605 17.9396 4.32605Z" fill="#46C770"/>
</svg>
