<svg width="17" height="22" viewBox="0 0 17 22" fill="none" xmlns="http://www.w3.org/2000/svg">
<path d="M8.5 0C4.34444 0 0 3.25217 0 8.6087C0 13.6783 7.55556 21.4261 7.83889 21.713C8.02778 21.9043 8.21667 22 8.5 22C8.78333 22 8.97222 21.9043 9.16111 21.713C9.44444 21.4261 17 13.6783 17 8.6087C17 3.25217 12.6556 0 8.5 0ZM8.5 11.4783C6.89444 11.4783 5.66667 10.2348 5.66667 8.6087C5.66667 6.98261 6.89444 5.73913 8.5 5.73913C10.1056 5.73913 11.3333 6.98261 11.3333 8.6087C11.3333 10.2348 10.1056 11.4783 8.5 11.4783Z" fill="#46C770"/>
</svg>
