<svg width="23" height="22" viewBox="0 0 23 22" fill="none" xmlns="http://www.w3.org/2000/svg">
<path d="M20.6632 16.1795C21.1525 16.6499 21.1512 17.409 20.6606 17.8783L17.7891 20.625C8.75797 20.625 1.4375 13.6228 1.4375 4.98438L1.44253 4.98798L4.33047 2.22681C4.82227 1.75639 5.61847 1.75639 6.11027 2.22681L9.35543 5.33569C9.84598 5.80611 9.84472 6.56769 9.35417 7.03691L6.46875 9.79688L12.7578 15.8125L15.6395 13.0561C16.1313 12.5857 16.93 12.5857 17.4205 13.0585L20.6632 16.1795ZM21.5625 11H19.0469C19.0469 7.01886 15.6621 3.78125 11.5 3.78125V1.375C17.0482 1.375 21.5625 5.69302 21.5625 11ZM16.5312 11H14.0156C14.0156 9.67295 12.8874 8.59375 11.5 8.59375V6.1875C14.2747 6.1875 16.5312 8.34591 16.5312 11Z" fill="#46C770"/>
</svg>
