<svg width="20" height="19" viewBox="0 0 20 19" fill="none" xmlns="http://www.w3.org/2000/svg">
<path d="M10.9843 8.76923H14.2345C14.6374 8.76923 14.9641 9.09641 14.9641 9.5C14.9641 9.90359 14.6374 10.2308 14.2345 10.2308H10.9843V13.486C10.9843 13.8896 10.6576 14.2168 10.2547 14.2168C9.85172 14.2168 9.52506 13.8896 9.52506 13.486V10.2308H6.2749C5.87194 10.2308 5.54527 9.90359 5.54527 9.5C5.54527 9.09641 5.87194 8.76923 6.2749 8.76923H9.52506V5.51399C9.52506 5.11039 9.85172 4.78322 10.2547 4.78322C10.6576 4.78322 10.9843 5.11039 10.9843 5.51399V8.76923ZM10.2547 19C5.01618 19 0.769531 14.7467 0.769531 9.5C0.769531 4.25329 5.01618 0 10.2547 0C15.4932 0 19.7398 4.25329 19.7398 9.5C19.7398 14.7467 15.4932 19 10.2547 19ZM10.2547 17.5385C14.6873 17.5385 18.2806 13.9395 18.2806 9.5C18.2806 5.06048 14.6873 1.46154 10.2547 1.46154C5.8221 1.46154 2.22879 5.06048 2.22879 9.5C2.22879 13.9395 5.8221 17.5385 10.2547 17.5385Z" fill="#46C770"/>
</svg>
