<svg width="23" height="23" viewBox="0 0 23 23" fill="none" xmlns="http://www.w3.org/2000/svg"><g clip-path="url(#a)"><path d="M20.065 1.676a5.736 5.736 0 0 0-8.103 0l-8.53 8.53a.674.674 0 1 0 .952.954l8.531-8.531c1.656-1.655 4.54-1.655 6.197 0a4.386 4.386 0 0 1 0 6.195L7.199 20.871c-1.019 1.019-2.794 1.019-3.813 0a2.699 2.699 0 0 1 0-3.812L14.822 5.488a1.036 1.036 0 0 1 1.43 0 1.013 1.013 0 0 1 0 1.43L5.293 18.012c-.227.227-.227.726 0 .953.263.263.69.263.953 0L17.205 7.87c.92-.92.92-2.416 0-3.336-.891-.891-2.446-.89-3.336 0L2.433 16.105c-1.564 1.565-1.564 4.155 0 5.72A4.01 4.01 0 0 0 5.293 23a4.01 4.01 0 0 0 2.86-1.176L20.064 9.777a5.735 5.735 0 0 0 0-8.101z" fill="#46C770"/></g><defs><clipPath id="a"><path fill="#fff" d="M0 0h23v23H0z"/></clipPath></defs></svg>