<svg width="24" height="24" viewBox="0 0 24 24" fill="none" xmlns="http://www.w3.org/2000/svg"><path d="M4.793 17.796a3.206 3.206 0 1 1 0 1.5H3a.75.75 0 0 1 0-1.5h1.793zm6.545-6.546a3.206 3.206 0 0 1 6.321.75 3.205 3.205 0 0 1-6.32.75H3a.75.75 0 0 1 0-1.5h8.338zM4.793 4.705a3.206 3.206 0 0 1 6.32.75 3.205 3.205 0 0 1-6.32.75H3a.75.75 0 0 1 0-1.5h1.793zm8.843 1.5a.75.75 0 0 1 0-1.5H21a.75.75 0 0 1 0 1.5h-7.364zm6.546 6.545a.75.75 0 0 1 0-1.5H21a.75.75 0 0 1 0 1.5h-.818zm-6.546 6.546a.75.75 0 0 1 0-1.5H21a.75.75 0 1 1 0 1.5h-7.364zM7.91 7.159a1.705 1.705 0 1 0 0-3.409 1.705 1.705 0 0 0 0 3.41zm6.545 6.545a1.705 1.705 0 1 0 0-3.409 1.705 1.705 0 0 0 0 3.41zM7.91 20.25a1.705 1.705 0 1 0 0-3.41 1.705 1.705 0 0 0 0 3.41z" fill="#fff"/></svg>