<svg width="32" height="42" viewBox="0 0 32 42" fill="none" xmlns="http://www.w3.org/2000/svg"><path d="M1.5 16.246C1.5 7.046 8.764 1.5 15.686 1.5c6.923 0 14.187 5.546 14.187 14.746 0 2.062-.763 4.53-2.038 7.171-1.264 2.618-2.97 5.281-4.715 7.7-3.493 4.837-7.055 8.57-7.293 8.816a.777.777 0 0 1-.088.081.475.475 0 0 1-.106 0 .774.774 0 0 1-.088-.08c-.237-.247-3.8-3.98-7.292-8.817-1.746-2.419-3.452-5.082-4.715-7.7-1.275-2.64-2.038-5.109-2.038-7.171zm14.145 23.777l-.002-.002.002.002zM8.958 16.245c0 3.847 2.888 6.915 6.728 6.915s6.73-3.068 6.73-6.915-2.89-6.916-6.73-6.916c-3.84 0-6.728 3.069-6.728 6.916z" stroke="#46C770" stroke-width="3"/></svg>