<svg width="51" height="51" viewBox="0 0 51 51" fill="none" xmlns="http://www.w3.org/2000/svg">
<g clip-path="url(#clip0)">
<path d="M49.6617 39.3452L39.3391 32.4612C38.0292 31.5947 36.2732 31.8798 35.3048 33.1165L32.2979 36.9825C31.9115 37.4921 31.209 37.6399 30.65 37.3293L30.078 37.014C28.182 35.9805 25.8228 34.6939 21.0694 29.9388C16.3161 25.1838 15.0268 22.8228 13.9933 20.9302L13.6797 20.3582C13.3649 19.7993 13.5099 19.0938 14.0196 18.7043L17.8831 15.6984C19.1192 14.7298 19.4048 12.9744 18.5392 11.664L11.6552 1.34141C10.7681 0.00704062 8.98838 -0.393529 7.61507 0.432011L3.29854 3.02496C1.94226 3.82231 0.947212 5.11365 0.522043 6.62839C-1.03233 12.2919 0.137009 22.0663 14.5356 36.4666C25.9894 47.9195 34.5162 50.9995 40.3769 50.9995C41.7257 51.0053 43.0692 50.8298 44.3713 50.4777C45.8864 50.053 47.1779 49.0579 47.9748 47.7012L50.5703 43.3873C51.397 42.0137 50.9967 40.2328 49.6617 39.3452ZM49.1059 42.5152L46.5163 46.8317C45.9441 47.811 45.0152 48.5309 43.9242 48.8409C38.6958 50.2763 29.5613 49.0874 15.7381 35.2641C1.91487 21.4409 0.726013 12.3073 2.16147 7.07806C2.47181 5.9857 3.19267 5.05559 4.17308 4.48252L8.48961 1.89296C9.08548 1.53442 9.85794 1.70822 10.2429 2.28726L13.9824 7.90151L17.121 12.6089C17.4968 13.1773 17.3733 13.9391 16.8371 14.3597L12.9728 17.3657C11.7967 18.2649 11.4609 19.892 12.185 21.1833L12.4918 21.7409C13.578 23.733 14.9284 26.2112 19.8585 31.1405C24.7887 36.0697 27.2661 37.4203 29.2573 38.5063L29.8156 38.814C31.1068 39.5379 32.734 39.2022 33.6333 38.0262L36.6392 34.1618C37.0599 33.6259 37.8214 33.5025 38.39 33.878L48.7117 40.762C49.2911 41.1466 49.4649 41.9194 49.1059 42.5152Z" fill="#393939"/>
<path d="M28.8987 8.50437C36.8743 8.51323 43.3376 14.9766 43.3466 22.9523C43.3466 23.4216 43.727 23.8021 44.1964 23.8021C44.6658 23.8021 45.0462 23.4216 45.0462 22.9523C45.0364 14.0382 37.8127 6.81445 28.8987 6.80469C28.4293 6.80469 28.0488 7.18514 28.0488 7.65453C28.0488 8.12392 28.4293 8.50437 28.8987 8.50437Z" fill="#46C770"/>
<path d="M28.8987 13.6036C34.0593 13.6097 38.2412 17.7917 38.2473 22.9523C38.2473 23.4217 38.6279 23.8021 39.0972 23.8021C39.5665 23.8021 39.947 23.4217 39.947 22.9523C39.9399 16.8533 34.9975 11.9109 28.8987 11.9039C28.4293 11.9039 28.0488 12.2844 28.0488 12.7538C28.0488 13.2232 28.4293 13.6036 28.8987 13.6036Z" fill="#46C770"/>
<path d="M28.8987 18.7029C31.2443 18.7057 33.1452 20.6065 33.1481 22.9523C33.1481 23.4217 33.5286 23.8021 33.9979 23.8021C34.4672 23.8021 34.8478 23.4217 34.8478 22.9523C34.844 19.6682 32.1827 17.0069 28.8987 17.0032C28.4293 17.0032 28.0488 17.3836 28.0488 17.853C28.0488 18.3224 28.4293 18.7029 28.8987 18.7029Z" fill="#46C770"/>
</g>
<defs>
<clipPath id="clip0">
<rect width="51" height="51" fill="white"/>
</clipPath>
</defs>
</svg>
