<svg width="75" height="57" viewBox="0 0 75 57" fill="none" xmlns="http://www.w3.org/2000/svg">
<path d="M10.7559 29.4515H20.3905V27.7545C20.3905 26.0574 19.1315 24.5794 17.4344 24.3604L10.7559 23.4298V29.4515Z" fill="#F2DDDE"/>
<path d="M56.5761 29.4515H46.9414V27.7545C46.9414 26.0574 48.2005 24.5794 49.8975 24.3604L56.5761 23.4298V29.4515Z" fill="#F2DDDE"/>
<path d="M21.2116 30.2726H10.7558C10.3179 30.2726 9.93468 29.8894 9.93468 29.4515C9.93468 29.0136 10.3179 28.6304 10.7558 28.6304H19.5694V27.7545C19.5694 26.4407 18.584 25.3458 17.3249 25.1816L10.6463 24.251C10.2084 24.1962 9.87994 23.7583 9.93468 23.3204C9.98942 22.8824 10.4274 22.5539 10.8653 22.6087L17.5439 23.5393C19.6241 23.8678 21.2116 25.6743 21.2116 27.7545V30.2726Z" fill="#344154"/>
<path d="M57.0136 44.2867H54.7692C52.0868 44.2867 49.8971 42.097 49.8971 39.4146V37.9913H17.4895V39.4146C17.4895 42.097 15.2998 44.2867 12.6175 44.2867H10.373C7.69063 44.2867 5.50093 42.097 5.50093 39.4146V21.2401L1.88793 19.9263C1.17627 19.6526 0.683594 18.9956 0.683594 18.2293V14.9447C0.683594 13.9593 1.50473 13.1382 2.49009 13.1382H7.19795C8.23806 13.1382 9.16868 12.5908 9.66137 11.6602L14.3145 3.12031C15.3546 1.20433 17.3801 0 19.6245 0H47.7074C49.8971 0 51.9226 1.20433 53.0174 3.12031L57.6706 11.6602C58.1632 12.5908 59.0939 13.1382 60.134 13.1382H64.8418C65.8272 13.1382 66.6483 13.9593 66.6483 14.9447V18.2293C66.6483 18.9956 66.1556 19.6526 65.444 19.9263L61.831 21.2401V39.4146C61.8857 42.097 59.696 44.2867 57.0136 44.2867ZM15.8473 36.349H51.5394V39.4146C51.5394 41.1664 52.9627 42.6444 54.7692 42.6444H57.0136C58.7654 42.6444 60.2435 41.2211 60.2435 39.4146V20.1452L64.9513 18.4482C65.0061 18.4482 65.0608 18.3387 65.0608 18.284V14.9994C65.0608 14.89 65.0061 14.8352 64.8966 14.8352H60.1887C58.5464 14.8352 57.0684 13.9593 56.2472 12.4813L51.5941 3.94145C50.8277 2.51815 49.3497 1.64228 47.7622 1.64228H19.6245C18.037 1.64228 16.5589 2.51815 15.7925 3.94145L11.1394 12.4813C10.373 13.9046 8.84023 14.8352 7.19795 14.8352H2.49009C2.38061 14.8352 2.32587 14.89 2.32587 14.9994V18.284C2.32587 18.3387 2.38061 18.3935 2.43535 18.4482L7.14321 20.1452V39.4146C7.14321 41.1664 8.56651 42.6444 10.373 42.6444H12.6175C14.3692 42.6444 15.8473 41.2211 15.8473 39.4146V36.349Z" fill="#344154"/>
<path d="M53.7836 14.89H13.5479L18.5842 5.6933C18.9674 4.98164 19.7338 4.5437 20.5549 4.5437H46.7766C47.5977 4.5437 48.3641 4.98164 48.7473 5.6933L53.7836 14.89ZM16.3397 13.2478H51.0465L47.324 6.45969C47.2145 6.24072 46.9955 6.13123 46.7766 6.13123H20.5549C20.3359 6.13123 20.117 6.24072 20.0075 6.45969L16.3397 13.2478Z" fill="#344154"/>
<path d="M56.5759 30.2726H46.1201V27.7545C46.1201 25.6743 47.7077 23.8678 49.7879 23.5393L56.5212 22.6087C56.9591 22.5539 57.3971 22.8824 57.4518 23.3204C57.5066 23.7583 57.1781 24.1962 56.7402 24.251L50.0616 25.1816C48.8025 25.3458 47.8171 26.4954 47.8171 27.7545V28.6304H56.6307C57.0686 28.6304 57.4518 29.0136 57.4518 29.4515C57.3971 29.9442 57.0686 30.2726 56.5759 30.2726Z" fill="#344154"/>
<path d="M40.7553 30.4368H26.6317C26.1937 30.4368 25.8105 30.0536 25.8105 29.6157C25.8105 29.1778 26.1937 28.7946 26.6317 28.7946H40.7553C41.1932 28.7946 41.5764 29.1778 41.5764 29.6157C41.5764 30.1084 41.1932 30.4368 40.7553 30.4368Z" fill="#344154"/>
<path d="M40.755 30.4368C40.7003 30.4368 40.7002 30.4368 40.6455 30.4368C40.2076 30.3821 39.8791 29.9989 39.9339 29.5062L40.4813 24.8531H26.9599L27.5073 29.5062C27.562 29.9441 27.2336 30.3821 26.7957 30.4368C26.3577 30.4916 25.9198 30.1631 25.865 29.7252L25.0986 23.2108H42.3425L41.5761 29.7252C41.5214 30.1631 41.1382 30.4368 40.755 30.4368Z" fill="#344154"/>
<path d="M16.6681 37.9913H12.453C12.015 37.9913 11.6318 37.6081 11.6318 37.1702C11.6318 36.7322 12.015 36.349 12.453 36.349H16.6681C17.1061 36.349 17.4893 36.7322 17.4893 37.1702C17.4893 37.6081 17.1061 37.9913 16.6681 37.9913Z" fill="#344154"/>
<path d="M54.9328 37.9913H50.7176C50.2797 37.9913 49.8965 37.6081 49.8965 37.1702C49.8965 36.7322 50.2797 36.349 50.7176 36.349H54.9328C55.3707 36.349 55.7539 36.7322 55.7539 37.1702C55.7539 37.6081 55.3707 37.9913 54.9328 37.9913Z" fill="#344154"/>
<path d="M74.2849 54.6326L59.2941 39.6417C62.4078 36.1845 64.3215 31.6264 64.3215 26.6184C64.3214 15.8651 55.5728 7.11646 44.8194 7.11646C34.0661 7.11646 25.3174 15.8651 25.3174 26.6185C25.3174 37.3719 34.0661 46.1206 44.8194 46.1206C49.8274 46.1206 54.3855 44.2069 57.8427 41.0932L72.8336 56.084C73.034 56.2845 73.2967 56.3847 73.5593 56.3847C73.8219 56.3847 74.0845 56.2845 74.285 56.084C74.6859 55.683 74.6859 55.0335 74.2849 54.6326ZM44.8194 44.0677C35.1988 44.0677 27.3703 36.2402 27.3703 26.6185C27.3703 16.9969 35.1988 9.16927 44.8194 9.16927C54.4401 9.16927 62.2686 16.9968 62.2686 26.6185C62.2686 36.2403 54.4401 44.0677 44.8194 44.0677Z" fill="#46C770"/>
<circle cx="44.7513" cy="26.5501" r="17.7913" fill="#46C770" fill-opacity="0.3"/>
</svg>
