<svg width="73" height="50" viewBox="0 0 73 50" fill="none" xmlns="http://www.w3.org/2000/svg">
<path d="M38.8001 24.2225H32.9363C32.4979 24.2225 32.1143 23.8389 32.1143 23.4005C32.1143 22.9621 32.4979 22.5784 32.9363 22.5784H37.156V22.5236C37.156 22.0304 36.7724 21.6468 36.334 21.5372L32.9911 21.044C32.5527 20.9892 32.2239 20.5508 32.2787 20.1123C32.3335 19.6739 32.7719 19.3451 33.2103 19.3999L36.5532 19.8932C37.8137 20.0576 38.8001 21.2084 38.8001 22.4688V24.2225Z" fill="#344154"/>
<path d="M57.1584 32.8264H55.9528C54.3087 32.8264 52.9935 31.5111 52.9935 29.867V28.223H36.7721V29.867C36.7721 31.5111 35.4568 32.8264 33.8128 32.8264H32.6072C30.9631 32.8264 29.6478 31.5111 29.6478 29.867V19.3451L28.0038 18.7422C27.4558 18.523 27.127 18.0298 27.127 17.4818V15.7281C27.127 15.0157 27.7298 14.4129 28.4422 14.4129H30.9083C31.2919 14.4129 31.6755 14.1937 31.8399 13.8649L34.306 9.37111C34.9088 8.22027 36.1144 7.50783 37.4297 7.50783H52.1714C53.4867 7.50783 54.6924 8.22027 55.2952 9.37111L57.7613 13.8649C57.9257 14.1937 58.3093 14.4129 58.6929 14.4129H61.159C61.8714 14.4129 62.4742 15.0157 62.4742 15.7281V17.4818C62.4742 18.0298 62.1454 18.523 61.5974 18.7422L59.9534 19.3451V29.867C60.063 31.5111 58.7477 32.8264 57.1584 32.8264ZM35.1828 26.5789H54.6923V29.867C54.6923 30.5795 55.2952 31.1823 56.0076 31.1823H57.2133C57.9257 31.1823 58.5285 30.5795 58.5285 29.867V18.1942L61.0494 17.2626V16.1117H58.9121C57.9257 16.1117 56.994 15.5637 56.5008 14.6869L54.0347 10.1931C53.7059 9.59032 53.0483 9.20669 52.3359 9.20669H37.5941C36.8817 9.20669 36.2789 9.59032 35.8953 10.1931L33.4292 14.6869C32.936 15.5637 32.0043 16.1117 31.0179 16.1117H28.8806V17.3174L31.4015 18.249V29.9219C31.4015 30.6343 32.0043 31.2371 32.7167 31.2371H33.9224C34.6348 31.2371 35.2376 30.6343 35.2376 29.9219V26.5789H35.1828Z" fill="#344154"/>
<path d="M54.7468 16.1118H35.1277C34.6893 16.1118 34.3057 15.7282 34.3057 15.2898C34.3057 14.8513 34.6893 14.4677 35.1277 14.4677H54.7468C55.1853 14.4677 55.5689 14.8513 55.5689 15.2898C55.5689 15.783 55.1853 16.1118 54.7468 16.1118Z" fill="#344154"/>
<path d="M56.939 24.2225H51.0752V22.5236C51.0752 21.2084 52.0616 20.1123 53.3221 19.9479L56.665 19.4547C57.1035 19.3999 57.5418 19.6739 57.5966 20.1672C57.6514 20.6056 57.3774 21.044 56.8842 21.0988L53.5413 21.592C53.0481 21.6468 52.7193 22.0852 52.7193 22.5784V22.6332H56.939C57.3775 22.6332 57.7611 23.0169 57.7611 23.4553C57.7611 23.8389 57.3775 24.2225 56.939 24.2225Z" fill="#344154"/>
<path d="M48.609 24.2772H41.2107C40.7723 24.2772 40.3887 23.8936 40.3887 23.4552C40.3887 23.0168 40.7723 22.6331 41.2107 22.6331H48.609C49.0474 22.6331 49.431 23.0168 49.431 23.4552C49.431 23.9484 49.0474 24.2772 48.609 24.2772Z" fill="#344154"/>
<path d="M48.6089 24.2774C48.5541 24.2774 48.5541 24.2774 48.4993 24.2774C48.0609 24.2226 47.732 23.8389 47.7868 23.3457L48.0061 21.318H41.8134L42.0326 23.3457C42.0874 23.7841 41.7587 24.2226 41.3202 24.2774C40.8818 24.3322 40.4434 24.0033 40.3886 23.5649L39.9502 19.7288H49.8693L49.4309 23.5649C49.3761 24.0033 48.9925 24.2774 48.6089 24.2774Z" fill="#344154"/>
<path d="M36.0043 28.2231H33.8123C33.3738 28.2231 32.9902 27.8395 32.9902 27.401C32.9902 26.9626 33.3738 26.579 33.8123 26.579H36.0043C36.4428 26.579 36.8264 26.9626 36.8264 27.401C36.8264 27.8943 36.4428 28.2231 36.0043 28.2231Z" fill="#344154"/>
<path d="M56.6649 28.2231H53.8152C53.3768 28.2231 52.9932 27.8395 52.9932 27.401C52.9932 26.9626 53.3768 26.579 53.8152 26.579H56.6649C57.1034 26.579 57.487 26.9626 57.487 27.401C57.487 27.8943 57.1582 28.2231 56.6649 28.2231Z" fill="#344154"/>
<path d="M36.0037 28.2231H33.1541C32.7156 28.2231 32.332 27.8395 32.332 27.401C32.332 26.9626 32.7156 26.579 33.1541 26.579H36.0037C36.4422 26.579 36.8258 26.9626 36.8258 27.401C36.8258 27.8943 36.4422 28.2231 36.0037 28.2231Z" fill="#344154"/>
<path d="M20.8243 23.0717H11.3435C10.9051 23.0717 10.5215 22.6881 10.5215 22.2496C10.5215 21.8112 10.9051 21.4276 11.3435 21.4276H20.8243C21.2627 21.4276 21.6463 21.8112 21.6463 22.2496C21.6463 22.7429 21.2627 23.0717 20.8243 23.0717Z" fill="#344154"/>
<path d="M20.8243 27.127H11.3435C10.9051 27.127 10.5215 26.7434 10.5215 26.305C10.5215 25.8666 10.9051 25.483 11.3435 25.483H20.8243C21.2627 25.483 21.6463 25.8666 21.6463 26.305C21.6463 26.7982 21.2627 27.127 20.8243 27.127Z" fill="#344154"/>
<path d="M20.8243 31.1824H11.3435C10.9051 31.1824 10.5215 30.7987 10.5215 30.3603C10.5215 29.9219 10.9051 29.5383 11.3435 29.5383H20.8243C21.2627 29.5383 21.6463 29.9219 21.6463 30.3603C21.6463 30.7987 21.2627 31.1824 20.8243 31.1824Z" fill="#344154"/>
<path d="M69.6533 49.4862H3.34291C1.47964 49.4862 0 48.0066 0 46.1433V43.1292C0 42.6908 0.383614 42.3072 0.82203 42.3072H72.1742C72.6126 42.3072 72.9962 42.6908 72.9962 43.1292V46.1433C72.9962 48.0066 71.5166 49.4862 69.6533 49.4862ZM1.64406 44.006V46.1981C1.64406 47.1298 2.41127 47.897 3.34291 47.897H69.6533C70.585 47.897 71.3522 47.1298 71.3522 46.1981V44.006H1.64406Z" fill="#344154"/>
<path d="M67.5161 44.006H5.48023C5.04182 44.006 4.6582 43.6224 4.6582 43.184V3.17851C4.6582 1.42485 6.08305 0 7.83671 0H65.1596C66.9133 0 68.3381 1.42485 68.3381 3.17851V43.184C68.3381 43.6224 67.9545 44.006 67.5161 44.006ZM6.30226 42.362H66.694V3.17851C66.694 2.30168 65.9816 1.64406 65.1596 1.64406H7.83671C6.95988 1.64406 6.30226 2.35648 6.30226 3.17851V42.362Z" fill="#344154"/>
<path d="M21.0981 8.38472H11.0693V18.0299H21.0981V8.38472Z" fill="#46C770"/>
</svg>
