<svg width="72" height="68" viewBox="0 0 72 68" fill="none" xmlns="http://www.w3.org/2000/svg">
<path d="M20.8753 21.6123C21.424 21.4609 21.746 20.8934 21.5946 20.3448C18.7901 10.1811 27.5015 0.507613 37.9275 2.2723C38.488 2.36743 39.0206 1.98942 39.1156 1.42831C39.2106 0.867198 38.8327 0.335261 38.2716 0.24026C26.3243 -1.78328 16.4129 9.31417 19.6079 20.893C19.759 21.4408 20.3257 21.7638 20.8753 21.6123Z" fill="#46C770"/>
<path d="M51.7592 13.7292C51.6641 13.1681 51.132 12.7902 50.5711 12.8852C50.0099 12.9803 49.6321 13.5121 49.7271 14.0732C51.4941 24.5087 41.8049 33.2065 31.6545 30.4055C31.1057 30.2541 30.5384 30.5762 30.387 31.1248C30.2356 31.6735 30.5576 32.2409 31.1063 32.3923C42.7293 35.5993 53.7753 25.6355 51.7592 13.7292Z" fill="#46C770"/>
<path d="M46.3231 11.3443C49.4483 11.3443 51.9909 8.80167 51.9909 5.67645C51.9909 2.55123 49.4483 0.00863647 46.3231 0.00863647C43.1979 0.00863647 40.6553 2.55123 40.6553 5.67645C40.6553 8.80167 43.1979 11.3443 46.3231 11.3443ZM46.3231 2.06966C48.3119 2.06966 49.9299 3.68763 49.9299 5.67645C49.9299 7.66527 48.3119 9.28324 46.3231 9.28324C44.3343 9.28324 42.7163 7.66527 42.7163 5.67645C42.7163 3.68763 44.3343 2.06966 46.3231 2.06966Z" fill="#46C770"/>
<path d="M24.6822 22.6799C22.1252 22.6799 20.0449 24.7602 20.0449 27.3172C20.0449 29.8742 22.1252 31.9545 24.6822 31.9545C27.2392 31.9545 29.3195 29.8742 29.3195 27.3172C29.3195 24.7602 27.2393 22.6799 24.6822 22.6799ZM24.6822 29.8935C23.2617 29.8935 22.1059 28.7377 22.1059 27.3172C22.1059 25.8966 23.2617 24.7409 24.6822 24.7409C26.1028 24.7409 27.2585 25.8966 27.2585 27.3172C27.2585 28.7377 26.1028 29.8935 24.6822 29.8935Z" fill="#46C770"/>
<path d="M30.3496 10.3137C30.3496 10.8829 30.811 11.3443 31.3801 11.3443H39.6242C40.1934 11.3443 40.6547 10.8829 40.6547 10.3137C40.6547 9.74458 40.1934 9.28323 39.6242 9.28323H31.3801C30.811 9.28323 30.3496 9.74465 30.3496 10.3137Z" fill="#46C770"/>
<path d="M31.3801 14.951H34.4717V22.6799C34.4717 23.249 34.933 23.7104 35.5022 23.7104C36.0713 23.7104 36.5327 23.249 36.5327 22.6799V14.951H39.6242C40.1934 14.951 40.6547 14.4897 40.6547 13.9205C40.6547 13.3514 40.1934 12.89 39.6242 12.89H31.3801C30.811 12.89 30.3496 13.3514 30.3496 13.9205C30.3496 14.4897 30.811 14.951 31.3801 14.951Z" fill="#46C770"/>
<path d="M66.5932 39.5995C65.7982 39.5995 65.065 39.7923 64.4132 40.0825C63.4255 38.8237 61.8909 38.0097 60.1603 38.0081C59.2655 38.0073 58.4434 38.244 57.7365 38.5975L55.4533 39.9418C54.4625 38.7638 52.979 38.009 51.314 38.0081C50.4193 38.0073 49.5979 38.244 48.8909 38.5975L40.6732 43.598C38.6788 43.0109 30.0172 40.5678 28.3515 40.1497C27.5158 39.9403 26.7865 39.7682 26.1893 39.6459C25.8903 39.5852 25.6247 39.5356 25.3887 39.4996C25.1496 39.4644 24.9504 39.4397 24.7249 39.4389C24.5513 39.4397 24.4019 39.4557 24.2298 39.4757C23.607 39.5581 22.7208 39.7469 21.6756 39.9898C19.5397 40.4895 16.8127 41.2148 15.3069 41.6228V39.3884C15.3069 37.6291 13.8603 36.1895 12.0913 36.1895H3.24362C1.47565 36.1895 0.0273438 37.629 0.0273438 39.3884V64.179C0.0273438 65.9383 1.47565 67.3779 3.24362 67.3779H12.0898C13.8596 67.3779 15.3054 65.9384 15.3054 64.179V62.2542C17.2142 62.6676 21.4519 63.5777 25.9189 64.4901C28.9401 65.1067 32.063 65.7241 34.6413 66.1895C35.9311 66.4214 37.0859 66.6157 38.0296 66.7532C38.982 66.8907 39.693 66.9754 40.2343 66.978C40.6558 66.9764 41.054 66.8963 41.485 66.7796C42.2871 66.5548 43.1995 66.1735 44.244 65.6688C47.8793 63.9062 53.1007 60.6036 58.0259 57.3359C62.9424 54.0731 67.5406 50.8496 69.7943 49.3068C71.2064 48.3392 71.9998 46.7063 71.9998 44.9774C71.9983 42.0081 69.5809 39.6002 66.5932 39.5995ZM12.8944 64.1789C12.8944 64.6123 12.5257 64.9786 12.0899 64.9786H3.24362C2.80785 64.9786 2.43913 64.6123 2.43913 64.1789V39.3884C2.43913 38.955 2.80785 38.5887 3.24362 38.5887H12.0898C12.5256 38.5887 12.8943 38.955 12.8943 39.3884V64.1789H12.8944ZM68.4293 47.3308C65.6575 49.2294 59.4566 53.5836 53.4542 57.4597C50.4561 59.3967 47.5061 61.2127 45.0878 62.5299C43.8803 63.188 42.8031 63.7206 41.941 64.0757C41.5108 64.2541 41.1341 64.3868 40.8358 64.4692C40.5391 64.5531 40.3161 64.5811 40.2345 64.5795C39.9713 64.5819 39.2749 64.5125 38.3807 64.3803C35.2116 63.919 29.281 62.7409 24.1749 61.6822C21.6198 61.152 19.2648 60.6522 17.5493 60.2835C16.5529 60.07 15.7827 59.9028 15.3045 59.7997V44.1105C15.5396 44.0465 15.8491 43.9625 16.2202 43.8618C17.4918 43.5188 19.4325 43.0045 21.1727 42.5784C22.0411 42.3649 22.8623 42.1747 23.515 42.0394C23.8404 41.9724 24.1236 41.9194 24.3419 41.8851C24.5561 41.8491 24.7217 41.8371 24.7234 41.8387C24.7282 41.8379 24.8545 41.8459 25.0264 41.8723C25.6918 41.9714 27.0569 42.2888 28.7187 42.7223C33.7281 44.0226 41.6265 46.3745 44.8174 47.339C45.921 47.67 46.9213 48.1691 47.5764 48.7745C47.9066 49.0769 48.1537 49.3999 48.3201 49.7494C48.4873 50.1004 48.5807 50.481 48.5824 50.9449C48.5816 51.8861 48.2026 52.7275 47.582 53.3456C46.9663 53.9557 46.1297 54.33 45.1949 54.3379L42.0834 54.0348L31.4603 52.6793C30.799 52.5954 30.1936 53.0591 30.1095 53.7157C30.0256 54.3732 30.4926 54.9746 31.1531 55.0585L41.8107 56.4186L45.1095 56.7401H45.1687C48.3859 56.7386 50.9945 54.1459 50.9961 50.9455C50.9976 50.1393 50.8177 49.3837 50.5003 48.72C50.022 47.7212 49.252 46.9478 48.3827 46.3592C47.5095 45.7691 46.5242 45.3485 45.5198 45.0446C45.0385 44.8989 44.4465 44.7207 43.779 44.5215L49.9942 40.7349C50.4189 40.5262 50.8539 40.4087 51.3137 40.4078C52.0935 40.407 52.7971 40.7077 53.3298 41.194L50.0951 43.1013C49.5224 43.4388 49.3338 44.1753 49.6737 44.7454C50.0144 45.3148 50.7541 45.5027 51.3267 45.1645L58.8335 40.7373C59.2605 40.5262 59.698 40.4087 60.1602 40.4078C60.9927 40.407 61.7411 40.7517 62.2825 41.2988L53.5411 46.4545C52.9677 46.792 52.7789 47.5285 53.1197 48.0986C53.4596 48.6679 54.1993 48.8559 54.7718 48.5177L65.2677 42.3273C65.6939 42.1186 66.1305 42.0002 66.592 41.9994C67.4213 42.0002 68.1635 42.3304 68.7081 42.8726C69.2518 43.4156 69.5854 44.1529 69.5862 44.9791C69.5872 45.9826 69.1233 46.8606 68.4293 47.3308Z" fill="#344154"/>
</svg>
