<svg width="1397" height="269" viewBox="0 0 1397 269" fill="none" xmlns="http://www.w3.org/2000/svg"><path fill-rule="evenodd" clip-rule="evenodd" d="M0 225.396L52.05 71.533h42.357l52.016 153.863H106.66l-9.557-31.127H48.364l-9.523 31.127H0zm88.4-59.251l-15.837-51.197-15.837 51.197H88.4zm107.069 59.251h-36.213V64.639h36.213v160.757zm72.324 2.321c-14.744 0-25.485-3.026-32.22-9.079-6.826-6.075-10.239-16.007-10.239-29.796v-54.234h-13.653v-25.189h13.653V76.175h36.179v33.244h34.95v25.189h-34.814v51.879a22.154 22.154 0 0 0 1.639 8.191 11.53 11.53 0 0 0 5.119 5.734 21.644 21.644 0 0 0 10.718 2.117c2.58-.095 5.138-.52 7.611-1.263a31.427 31.427 0 0 0 6.621-2.321h3.106v25.461a91.329 91.329 0 0 1-12.526 2.424c-5.401.659-10.84.956-16.28.887h.136zm151.645-118.298l-58.501 158.505h-38.876l17.612-45.326-42.561-113.179H335.1l24.335 72.733 22.8-72.733h37.203zm122.257 116.046h-36.178v-57.511c0-4.676-.171-9.318-.581-13.994a30.933 30.933 0 0 0-2.15-10.24 11.43 11.43 0 0 0-5.393-5.631 22.093 22.093 0 0 0-9.454-1.707 26.764 26.764 0 0 0-9.045 1.673 44.12 44.12 0 0 0-9.795 5.256v82.085H432.92V109.35h36.179v12.834a88.092 88.092 0 0 1 17.338-11.775 40.956 40.956 0 0 1 18.67-4.233c11.844 0 20.888 3.72 27.305 11.229 6.417 7.509 9.42 18.26 9.42 32.425l-.137 75.635z" fill="#F3F3F3"/><path fill-rule="evenodd" clip-rule="evenodd" d="M1309.19 13.782l73.07-12.765a4.224 4.224 0 0 1 4.57 3.652l9.12 45.907a4.071 4.071 0 0 1-.4 3.102 4.014 4.014 0 0 1-2.5 1.88l-73.04 12.765c-.72 0-24.82-13.072-40.38-21.638 6.24-7.544 29.52-32.732 29.56-32.903z" fill="#F3F3F3" stroke="#F3F3F3" stroke-width=".57" stroke-miterlimit="22.93"/><path fill-rule="evenodd" clip-rule="evenodd" d="M1312.89 56.892a4.516 4.516 0 0 1 .41-3.413 4.681 4.681 0 0 1 3.17-1.672 4.977 4.977 0 0 1 3.65.307c.49.372.89.84 1.19 1.373.3.534.49 1.124.55 1.733a4.516 4.516 0 0 1-.41 3.413 5.143 5.143 0 0 1-3.24 1.706 4.89 4.89 0 0 1-3.62-.34 4.64 4.64 0 0 1-1.7-3.107zm19.69-17.646l-4.47-22.185c0-.375-.27-.546-.62-.478l-8.77 1.775v3.413l2.12.41c.27.02.53.114.75.273.15.237.24.506.27.785l6.83 34.131 7.23-1.434-1.74-8.635 1.91-3.071 9.8 9.693 8.26-1.639-14.4-13.652 8.15-13.926-8.22 1.639-7.13 12.56.03.341zm22.66 7.919l10.89-20.103-13.89 2.798-1.09-5.46 22.9-4.608.99 4.846-10.89 20.172 14.78-2.97 1.09 5.461-23.89 4.779-.89-4.915z" fill="#fff"/><path fill-rule="evenodd" clip-rule="evenodd" d="M636.9 229.359c-23.073 0-41.379-6.985-54.917-20.956-13.539-13.971-20.365-33.608-20.479-58.911 0-24.415 6.826-43.869 20.479-58.364 13.652-14.494 31.981-21.753 54.985-21.775 5.523-.022 11.041.32 16.519 1.023 4.731.68 9.416 1.65 14.028 2.902a101.73 101.73 0 0 1 11.468 4.266c4.13 1.775 7.475 3.413 10.001 4.608v36.725h-3.891c-1.877-1.638-4.198-3.414-7.031-5.871a93.027 93.027 0 0 0-9.625-6.826 63.84 63.84 0 0 0-11.81-5.597 40.943 40.943 0 0 0-13.652-2.287 43.546 43.546 0 0 0-15.359 2.628 37.119 37.119 0 0 0-13.243 9.113 43.747 43.747 0 0 0-9.454 15.905 68.248 68.248 0 0 0-3.686 23.585 66.064 66.064 0 0 0 3.822 24.096 43.519 43.519 0 0 0 10.035 15.734 36.035 36.035 0 0 0 13.379 8.363 43.868 43.868 0 0 0 14.711 2.594 42.519 42.519 0 0 0 14.574-2.526 55.617 55.617 0 0 0 11.673-5.563 71.781 71.781 0 0 0 9.079-6.417c2.628-2.184 4.914-4.13 6.826-5.837h3.413v36.145l-9.796 4.471a90.54 90.54 0 0 1-11.468 4.267 135.697 135.697 0 0 1-13.652 3.413 103.607 103.607 0 0 1-17.339 1.126l.41-.034zm136.524-33.243V171.78l-14.744 1.638a44.953 44.953 0 0 0-11.093 2.663 15.729 15.729 0 0 0-7.338 4.983 14.327 14.327 0 0 0-2.594 9.01c0 5.461 1.433 9.215 4.334 11.229a22.32 22.32 0 0 0 12.868 3.072 23.428 23.428 0 0 0 9.625-2.184 30.745 30.745 0 0 0 8.942-6.075zm0 17.986c-2.491 2.082-4.71 3.925-6.826 5.598a44.122 44.122 0 0 1-7.884 4.949 55.036 55.036 0 0 1-9.42 3.652 49.828 49.828 0 0 1-12.8 1.263 34.132 34.132 0 0 1-25.496-10.239 35.706 35.706 0 0 1-10.239-26.077 37.85 37.85 0 0 1 5.154-20.922 35.224 35.224 0 0 1 14.813-12.663 76.83 76.83 0 0 1 23.38-6.621c9.078-1.263 18.806-2.219 29.25-2.901v-.649a13.654 13.654 0 0 0-7.065-13.243 47.076 47.076 0 0 0-21.127-3.686 58.026 58.026 0 0 0-14.916 2.321 121.315 121.315 0 0 0-16.69 5.939h-3.072v-28.056c3.414-1.024 9.352-2.252 17.373-3.652a136.144 136.144 0 0 1 24.131-2.116c19.978 0 34.529 3.322 43.654 9.966 9.147 6.826 13.652 16.827 13.652 30.514v79.081h-35.667v-12.287l-.205-.171zm140.86-69.388h-3.004a24.372 24.372 0 0 0-6.007-1.126 85.826 85.826 0 0 0-8.738-.376 47.245 47.245 0 0 0-11.946 1.673 110.882 110.882 0 0 0-12.219 3.925v77.58h-36.179V110.344h36.418v16.622c1.673-1.502 3.96-3.413 6.827-5.7a64.055 64.055 0 0 1 8.02-5.564 48.814 48.814 0 0 1 9.182-4.095 32.41 32.41 0 0 1 9.932-1.673h3.891c1.467 0 2.799 0 3.959.308l-.136 34.472zm113.686-25.501c-.14-4.4-.76-8.772-1.84-13.039-2.83-1.774-14.51-1.228-17.95-.238a9.614 9.614 0 0 0-5.8 4.869 9.697 9.697 0 0 0-1.02 3.728c-.08 1.298.1 2.6.54 3.827 1.26 2.013 3.92 1.604 7.03 1.672 9.55.273 9.52-1.775 9.69 8.499a44.318 44.318 0 0 0-9.93 9.044c-2.8 2.799-4.37 8.738-5.91 13.072-3.204 9.25-5.491 7.066-6.822 12.117-2.662 10.854-3.072 42.22-1.843 52.698a126.94 126.94 0 0 0 2.662 16.247c2.492 9.454-1.502 9.045-1.536 15.939.99.785 1.843 1.263 3.14 2.253 1.909 17.066-2.013 19.148 24.129 18.636h21.3c3.72 0 5.87 0 7.24-3.414a35.092 35.092 0 0 0 1.6-9.317c5.8-1.877 4.06 1.604 10.24-2.765 2.8-1.946 7.99-1.229 12.22-1.16l52.7.989h26.86c20.24.717 56.21-.682 79.01-1.126 3.89 0 9.59-.922 12.46.921 7.99 5.223 4.85 1.127 10.58 2.97 1.09 9.522.78 12.39 8.36 12.595 7.58.204 14.54-.001 21.81.17 25.81.478 22.15-1.126 24.1-18.636 1.3-.989 2.15-1.467 3.14-2.252 0-6.588-3.99-6.826-1.61-15.564 3.96-14.745 4.27-36.725 2.77-51.777-.51-5.188-.79-12.287-1.78-17.066-.99-4.778-3.68-3.413-6.82-12.15-1.4-3.994-3.42-10.82-5.77-13.209a47.38 47.38 0 0 0-10.24-9.284c0-10.239 0-8.225 9.18-8.464 5.26 0 10.41.921 7.07-9.42-2.67-8.192-22.91-5.427-23.89-4.471a58.029 58.029 0 0 0-1.88 13.037c-.72-.307-7.1-11.911-8.19-13.652-3.08-5.085-5.98-9.25-9.25-13.652-8.47-11.537-17.07-23.722-32.39-23.892-3.42 0-7.07-1.093-10.24-1.468-11.33-1.263-56.9-3.003-66.73-2.764-17.99.477-48.84 1.058-66.28 2.73-3.42.307-6.83 1.365-10.24 1.502-15.87.648-22.6 9.966-32.94 23.892-3.17 4.334-6.14 8.567-9.08 13.379-1.02 1.707-7.64 13.653-8.36 13.994h.51zm56.76 57.511c-7.1 4.676-15.63 3.174-25.12 2.901-7.68-.205-47.78-2.799-52.53-4.915-4.02-1.809-1.97-6.587-1.43-10.854.55-4.266.55-8.532 3.41-10.478 10.62-7.031 37.96-8.772 48.81-6.075 6.83 1.672 12.02 8.737 15.43 13.14 4.2 5.125 8 10.569 11.36 16.281h.07zm-15.46 41.162c.48 1.297-1.06 1.98-2.35 3.413a34.718 34.718 0 0 0-3.08 3.413c-12.9 15.291-7.33 14.608-23 12.629-6.28-.785-15.43-2.253-19.73-5.427-4.3-3.174-8.7-16.452-.54-16.452 9.62 0 16.48 1.297 25.36 1.639 4.4 0 20.47 0 23.34.921v-.136zm67.48-3.993c16.31-1.127 35.39-.001 52.01.238 20.11.376 30.72-1.126 43.28 9.557a77.011 77.011 0 0 1 11.44 15.052c3.1 4.642-.24 5.7-5.05 5.802-4.82.103-8.3.307-12.67.376-17.51.239-34.64.648-52.18.819-9.15 0-96.46-.205-105.33-1.297-5.29-.649-2.32-5.29-.65-7.782 6.04-9.01 8.81-13.994 19.86-19.216 11.06-5.222 35.26-2.559 49.29-3.413v-.136zm103.62 3.993c1.13-.444 31.74-1.434 36.69-1.843 5.94-.478 14.92-2.424 16.08 1.979.46 2.48.28 5.036-.53 7.426a14.806 14.806 0 0 1-4.08 6.227 37.571 37.571 0 0 1-14.47 4.642 97.43 97.43 0 0 1-17.07 1.536c-1.26-.41-10-12.39-12.9-15.53-2.9-3.14-4.16-3.004-3.62-4.539l-.1.102zm-15.43-41.162a129.358 129.358 0 0 1 11.54-16.554c3.41-4.403 8.64-11.195 15.22-12.867 8.94-1.253 18-1.379 26.97-.376 8.46 1.161 15.83 2.458 21.84 6.451 3 1.98 3 6.621 3.41 10.922.41 4.3 2.6 8.908-1.84 10.546-5.73 2.116-44.37 4.574-52.66 4.779-9.42.273-17.62 1.741-24.61-2.901h.13zm-98.98-3.413c9.94-.717 22.02.58 31.17 0 10.23-.717 21.5 0 31.63 0 25.67.375 25.09-1.4 20.48 7.338-4.6 8.737-12.76 7.577-24.57 7.577h-64.85c-12.66 0-17.3-1.16-21.2-10.854-1.87-4.676.35-3.822 11.1-3.822h16.21l.03-.239zm-90.99-52.938c-.55-4.437 11.67-23.584 14.34-27.714 2.68-4.213 5.64-8.239 8.87-12.049 3.75-4.47 6.62-6.177 14.57-6.826 27.31-1.707 54.07-4.232 82.09-3.413 14.23.375 28.43.375 42.53.82 13.07.374 26.38 1.91 39.52 2.73 8.33.512 10.92 2.32 14.81 6.826 5.77 6.826 23.69 33.687 22.97 39.49-3.41 2.525-9.18.921-13.96.477-17.81-1.536-26.82-1.024-44.57-1.297a4319.4 4319.4 0 0 0-122.6 0c-18.12.273-26.93-.238-45.12 1.366-4.68.512-10.04 2.218-13.45-.444v.034z" fill="#F3F3F3"/></svg>