<svg width="190" height="38" viewBox="0 0 190 38" fill="none" xmlns="http://www.w3.org/2000/svg"><path fill-rule="evenodd" clip-rule="evenodd" d="M0 31.378l7.046-20.83h5.735l7.042 20.83H14.44l-1.294-4.213H6.547l-1.289 4.213H0zm11.967-8.02l-2.143-6.932-2.144 6.931h4.287zm14.495 8.02H21.56V9.615h4.902V31.38zm9.792.315c-1.996 0-3.45-.41-4.362-1.23-.924-.822-1.386-2.166-1.386-4.033v-7.342h-1.849v-3.41h1.849v-4.501h4.897v4.5h4.732v3.41h-4.713v7.024a3 3 0 0 0 .222 1.109c.135.33.38.604.693.776.451.218.95.317 1.45.287.35-.013.696-.07 1.031-.171.31-.071.61-.177.897-.314h.42v3.447c-.557.148-1.124.258-1.696.328a16.55 16.55 0 0 1-2.204.12h.019zm20.53-16.016l-7.92 21.459H43.6L45.985 31l-5.762-15.322h5.143l3.294 9.846 3.087-9.847h5.036zm16.55 15.71h-4.898v-7.785c0-.633-.023-1.262-.078-1.895a4.193 4.193 0 0 0-.291-1.386 1.547 1.547 0 0 0-.73-.762 2.989 2.989 0 0 0-1.28-.231 3.61 3.61 0 0 0-1.225.226c-.47.18-.915.42-1.326.712v11.113h-4.898v-15.71h4.898v1.737a11.935 11.935 0 0 1 2.348-1.594 5.546 5.546 0 0 1 2.527-.573c1.603 0 2.828.503 3.697 1.52.868 1.016 1.275 2.472 1.275 4.39l-.019 10.239z" fill="#2B7F2F"/><path fill-rule="evenodd" clip-rule="evenodd" d="M177.234 2.73l9.893-1.728a.573.573 0 0 1 .619.495l1.234 6.215a.55.55 0 0 1-.198.582.54.54 0 0 1-.195.092l-9.888 1.728c-.097 0-3.359-1.77-5.466-2.93.845-1.02 3.997-4.43 4.001-4.454z" fill="#000" stroke="#000" stroke-width=".57" stroke-miterlimit="22.93"/><path fill-rule="evenodd" clip-rule="evenodd" d="M177.738 8.566a.615.615 0 0 1 .056-.462.638.638 0 0 1 .43-.226.674.674 0 0 1 .494.042.6.6 0 0 1 .236.42.615.615 0 0 1-.056.462.697.697 0 0 1-.439.231.662.662 0 0 1-.49-.046.633.633 0 0 1-.231-.42zm2.667-2.388l-.606-3.004c0-.05-.037-.074-.083-.065l-1.187.24v.463l.286.055a.2.2 0 0 1 .102.037c.02.032.033.069.037.106l.924 4.621.979-.194-.235-1.169.258-.416 1.327 1.312 1.118-.221-1.95-1.849 1.104-1.885-1.113.222-.966 1.7.005.047zm3.068 1.072l1.474-2.722-1.881.379-.148-.74 3.101-.623.134.656-1.474 2.73 2-.401.148.739-3.234.647-.12-.665z" fill="#fff"/><path fill-rule="evenodd" clip-rule="evenodd" d="M86.221 31.914c-3.123 0-5.602-.945-7.434-2.837-1.833-1.891-2.757-4.55-2.773-7.975 0-3.305.924-5.939 2.773-7.901 1.848-1.962 4.33-2.945 7.443-2.948.748-.003 1.495.043 2.237.138.64.092 1.275.224 1.899.393a13.78 13.78 0 0 1 1.552.578c.56.24 1.012.462 1.354.624v4.971h-.526c-.255-.221-.569-.462-.952-.794-.415-.336-.85-.644-1.303-.925a8.65 8.65 0 0 0-1.6-.757 5.545 5.545 0 0 0-1.847-.31 5.896 5.896 0 0 0-2.08.356 5.026 5.026 0 0 0-1.792 1.234 5.924 5.924 0 0 0-1.28 2.153 9.243 9.243 0 0 0-.5 3.193 8.945 8.945 0 0 0 .518 3.262c.294.8.757 1.526 1.359 2.13a4.88 4.88 0 0 0 1.81 1.132 5.94 5.94 0 0 0 1.992.351 5.752 5.752 0 0 0 1.973-.342 7.528 7.528 0 0 0 1.58-.753 9.714 9.714 0 0 0 1.23-.869c.356-.295.665-.559.924-.79h.462v4.894l-1.326.605c-.504.227-1.023.42-1.553.578-.607.185-1.224.34-1.848.462a14.03 14.03 0 0 1-2.347.152l.055-.005zm18.483-4.5v-3.295l-1.996.222a6.086 6.086 0 0 0-1.502.36 2.13 2.13 0 0 0-.993.675 1.938 1.938 0 0 0-.352 1.22c0 .74.194 1.248.587 1.52a3.022 3.022 0 0 0 1.742.416 3.167 3.167 0 0 0 1.303-.296c.449-.2.859-.479 1.211-.822zm0 2.435c-.337.282-.638.531-.924.758-.332.26-.689.485-1.068.67a7.466 7.466 0 0 1-1.275.494 6.746 6.746 0 0 1-1.733.171 4.621 4.621 0 0 1-3.451-1.386 4.832 4.832 0 0 1-1.387-3.53 5.125 5.125 0 0 1 .698-2.833 4.769 4.769 0 0 1 2.006-1.714 10.4 10.4 0 0 1 3.165-.896c1.229-.171 2.546-.3 3.96-.393v-.088a1.85 1.85 0 0 0-.957-1.793 6.37 6.37 0 0 0-2.86-.499 7.852 7.852 0 0 0-2.02.314c-.771.213-1.526.482-2.259.804h-.416V16.13c.462-.138 1.266-.305 2.352-.494a18.427 18.427 0 0 1 3.267-.287c2.705 0 4.675.45 5.91 1.35 1.238.924 1.848 2.278 1.848 4.13v10.706h-4.828v-1.663l-.028-.023zm19.069-9.394h-.406a3.31 3.31 0 0 0-.814-.152 11.64 11.64 0 0 0-1.182-.051 6.398 6.398 0 0 0-1.618.226 15.06 15.06 0 0 0-1.654.532v10.502h-4.898v-15.71h4.93v2.25c.227-.203.536-.462.925-.771a8.69 8.69 0 0 1 1.085-.753 6.64 6.64 0 0 1 1.243-.555 4.391 4.391 0 0 1 1.345-.226h.527c.198 0 .379 0 .536.041l-.019 4.667z" fill="#000"/><path fill-rule="evenodd" clip-rule="evenodd" d="M139.165 17.003a8.219 8.219 0 0 0-.25-1.765c-.383-.24-1.963-.166-2.43-.032a1.3 1.3 0 0 0-.85 1.682c.171.273.531.217.952.226 1.293.037 1.289-.24 1.312 1.15a6.029 6.029 0 0 0-1.345 1.225c-.379.38-.591 1.183-.799 1.77-.434 1.252-.744.957-.924 1.64-.361 1.47-.416 5.716-.25 7.135.073.74.193 1.475.361 2.2.337 1.28-.204 1.224-.208 2.157.134.106.249.171.425.305.259 2.31-.273 2.592 3.267 2.523h2.883c.504 0 .795 0 .98-.462.129-.409.202-.833.217-1.262.785-.254.55.218 1.386-.374.379-.263 1.081-.166 1.654-.157l7.134.134h3.637c2.74.097 7.61-.093 10.697-.152.526 0 1.298-.125 1.686.124 1.081.707.656.153 1.433.402.147 1.29.106 1.678 1.132 1.705 1.025.028 1.968 0 2.952.023 3.493.065 2.999-.152 3.262-2.523.176-.133.292-.198.426-.304 0-.892-.541-.925-.218-2.107.536-1.997.578-4.972.375-7.01-.07-.702-.107-1.663-.241-2.31s-.499-.462-.924-1.645c-.189-.54-.462-1.465-.781-1.788a6.418 6.418 0 0 0-1.386-1.257c0-1.387 0-1.114 1.243-1.146.712 0 1.409.125.957-1.275-.361-1.11-3.101-.735-3.235-.606a7.973 7.973 0 0 0-.254 1.765c-.097-.041-.961-1.612-1.109-1.848a22.4 22.4 0 0 0-1.252-1.848c-1.146-1.562-2.311-3.212-4.385-3.235-.462 0-.957-.148-1.386-.198-1.534-.171-7.703-.407-9.034-.375-2.435.065-6.612.144-8.973.37-.462.042-.924.185-1.386.203-2.149.088-3.059 1.35-4.459 3.235-.43.586-.832 1.16-1.229 1.811-.139.231-1.035 1.848-1.132 1.894h.069zm7.684 7.786c-.961.633-2.116.43-3.401.393-1.039-.028-6.469-.379-7.111-.665-.545-.245-.268-.892-.194-1.47.074-.577.074-1.155.462-1.418 1.437-.952 5.138-1.188 6.608-.823.924.227 1.626 1.183 2.088 1.78a17.31 17.31 0 0 1 1.539 2.203h.009zm-2.093 5.573c.065.175-.143.268-.319.462a4.588 4.588 0 0 0-.416.462c-1.746 2.07-.993 1.978-3.114 1.71-.85-.107-2.089-.305-2.671-.735-.582-.43-1.178-2.227-.074-2.227 1.303 0 2.232.175 3.433.222.597 0 2.773 0 3.161.124v-.018zm9.135-.54c2.209-.153 4.792 0 7.042.032 2.721.05 4.158-.153 5.859 1.293a10.495 10.495 0 0 1 1.548 2.038c.42.628-.033.772-.684.785-.652.014-1.123.042-1.714.051-2.371.033-4.69.088-7.065.111-1.239 0-13.058-.027-14.26-.175-.716-.088-.314-.717-.087-1.054.817-1.22 1.192-1.894 2.689-2.601 1.497-.707 4.773-.347 6.672-.462v-.019zm14.028.54c.153-.06 4.298-.194 4.968-.25.804-.064 2.019-.328 2.176.268a1.996 1.996 0 0 1-.624 1.848 5.083 5.083 0 0 1-1.959.629c-.763.137-1.536.207-2.31.208-.171-.056-1.354-1.677-1.747-2.102-.393-.426-.564-.407-.49-.615l-.014.014zm-2.088-5.573c.461-.786.983-1.536 1.562-2.24.462-.597 1.169-1.516 2.06-1.743a14.58 14.58 0 0 1 3.651-.05c1.146.157 2.144.332 2.957.873.407.268.407.896.462 1.478.055.583.351 1.206-.25 1.428-.776.287-6.006.62-7.129.647-1.276.037-2.384.236-3.332-.393h.019zm-13.4-.462c1.344-.097 2.98.079 4.219 0 1.386-.097 2.911 0 4.283 0 3.475.051 3.396-.19 2.772.994-.624 1.183-1.728 1.025-3.327 1.025h-8.779c-1.714 0-2.343-.157-2.869-1.469-.254-.633.046-.517 1.501-.517h2.195l.005-.033zm-12.319-7.166c-.074-.601 1.58-3.193 1.941-3.752.363-.57.764-1.116 1.201-1.632.509-.605.897-.836 1.973-.924 3.697-.23 7.319-.573 11.113-.462 1.927.051 3.849.051 5.757.111 1.77.051 3.572.259 5.351.37 1.127.07 1.479.314 2.005.924.781.924 3.207 4.56 3.11 5.346-.462.342-1.243.125-1.89.065-2.412-.208-3.632-.139-6.034-.176a584.197 584.197 0 0 0-16.598 0c-2.453.037-3.645-.032-6.108.185-.633.07-1.359.3-1.821-.06v.005z" fill="#2B7F2F"/></svg>