<svg width="1158" height="624" viewBox="0 0 1158 624" fill="none" xmlns="http://www.w3.org/2000/svg"><path fill-rule="evenodd" clip-rule="evenodd" d="M105.353 407.928l-35.244 50.033 63.13 124.114s33.574-6.199 33.829-7.73c.271-1.629 20.312-19.009 23.078-19.392 1.713-.237 20.523-5.447 26.364-4.682 5.027.658 23.273 15.48 22.851 15.902-1.262 5.301 3.322 10.601 7.746 15.902 2.282 5.649 3.854 8.455 5.422 11.248 6.506 1.367 9.817.501 15.178-2.452l.315-153.078 71.651-23.659 71.085 57.336s22.256 29.543 24.58 29.543c2.323 0 30.162-5.908 30.162-5.908.067-.089 37.647 1.962 37.068 3.123-1.595 3.199 12.777-7.71 12.777-7.71 6.11 6.487 11.634 13.169 18.732 19.326l7.382 17.544 8.11-6.528-3.075 42.21h14.718s1.57 15.49 1.549 18.617c-.027 4.071 3.099 17.066 3.099 17.066s15.033 2.191 19.365 0c4.488-2.27 16.989-.498 15.879-.776l5.81 6.594c-1.562 2.541-3.929 4.622-3.099 8.532.276 1.656 12.629 13.425 15.105 7.757 1.522-3.481-1.374-9.308-1.549-9.308-1.08-3.384 5.456-5.82 5.035-6.594-.566-1.042 2.153-8.498 7.746-8.532 3.025-.019 0-9.309 2.711-9.309 2.712 0 6.972-4.266 6.972-4.266l9.295-6.594c3.586-.535 7.026-1.162 7.746-3.491 0 0 5.264-1.742 6.585-4.654 6.235-13.745 7.634-6.989 12.393-6.593-3.287-2.426 5.649-9.673 9.296-8.533 1.479.462-4.261-3.103-4.261-3.103.408.612 6.168-3.953 5.035-6.594-1.489-3.473 1.963-6.614 3.873-5.817l2.324-5.43 5.035-1.94 5.035.388c.781-1.91 8.524 1.086 12.781.388 2.198-.36 17.633 2.372 16.654 4.654.783-1.479 4.27.629 5.035 5.043.265 1.528 7.408-1.051 10.925-.173 3.516.879 3.406 5.215 3.406 5.215l3.873.387c1.193-.359-1.627-5.984-1.513-8.697.115-2.714 1.52-5.259 2.811-9.332 1.563-4.926.187-8.113.752-8.113l7.174-2.97c10.418-5.114 17.959-4.647 22.535 1.575 7.516 6.178 11.631 6.226 17.428 9.308l11.62 1.164 4.143-5.889 20.257 2.398 12.394-3.103 5.422 2.715c0-1.728 20.527.483 22.851 2.328 1.919 1.523 14.33-.984 14.33-.984l13.263 5.183 5.328-1.097c-.098 2.933-.084 5.723 2.324 5.43 0 0 2.324 3.879 3.873 4.655 1.549.775.16 3.79 1.549 3.102 3.062-1.515 15.305.188 14.718.776-.874.875 6.407 14.14 7.746 11.636.753-1.41-3.486-18.617-3.486-20.557 0-1.939 3.165-7.028 3.165-7.028 4.966.239 6.675-1.968 8.841-3.832 0 0-7.613-2.303-6.064-3.855 1.55-1.551 8.776-5.453 8.776-5.453l3.873 2.327c-.726-14.609-8.373-29.493-12.715-44.102l.321-12.913s.025-3.124 0-6.593c-.022-2.994 4.856-2.794 3.646-5.203-1.85-3.683-8.959-3.761-8.959-3.761s-3.982 3.146-5.532 1.595c-1.549-1.552-3.822-4.995-3.822-4.995 3.331-2.659 5.032-6.296 13.505-5.865 3.111-2.765 8.876-4.649 17.875-5.704 6.439-.755 12.408-3.807 17.757-6.32 3.246-4.55 9.532 9.908 10.07 8.145.903-2.957 11.019-4.681 14.719.776 0 0 6.97-7.369 4.26-11.636-2.71-4.266-8.91-1.551-9.68-5.43-.778-3.878 3.87-9.696 4.26-12.023.38-2.327 3.87-19.393 3.87-19.393s5.42-13.187 6.58-16.678c1.17-3.49 4.26-11.247 4.26-11.247 1.18-4.343-1.66-13.411 5.04-11.248l22.85 10.86c3.61-2.146 11.06-1.492 18.59-.776 0 0 2.97 10.819 4.65 7.369 2.71-5.559 16.65-11.836 16.65-10.86 1.5.644 12.84-12.55 8.14-12.799-2.75-.146-6.31-15.075-5.81-19.005.38-3.078 5.52-20.22 5.03-22.495-.62-2.912 7.23-4.616 14.24-3.699 4.08.534 8.88-5.099 12.1-6.386 4.65-1.86 4.55-11.975 3.48-13.962-3.67-6.861 10.01-10.993 16.27-5.818 4.18 3.457-3.48-8.145-3.48-8.145s-4.67-3.135-6.59-2.327c-2.2.925-5.64-7.717-5.42-8.145-.99-1.858-2.98-2.703-5.42-3.103.35-.986-.07-2.361 2.32-2.327 2.15-.776 2.75-1.552 3.1-2.327.35-2.548-.88-3.514-2.71-3.879-1.29-.805-2.58-.881-3.88 1.939-.61 3.236-2.18 5.387-5.7 5.34-2.06-2.295-2.56 7.893-3.59 7.072-1.57-1.249-13.6-4.895-14.33-5.042-4.07-2.998-8.76-1.672-13.56.388.72-6.692-3.53-11.963-7.06-16.13.54-1.3 3.47-2.866 1.25-5.202-5.65-2.027-8.63-6.282-18.2-5.043-.14.509-6.19-6.677-5.03-13.187 1.07-6.056-3.56-6.361-5.41-7.257-2.55-1.243.37-5.542.37-5.542-5.81-2.876-11.62-6.533-17.43-7.369-4.1-1.087-4.81.458-5.72 1.854-1.41 1.275-.62 3.51-7.45 2.412-8.62-2.767-6.5 4.622-9.29 7.37 0-1.717-16.206-1.782-11.234 1.163 3.137 1.859-9.753-4.064-14.33-3.491-.133 1.796-2.83 1.49-6.972 0 3.567-11.015-3.363-8.285-8.908-7.369-.451-3.77 5.267-12.876-2.324-10.472l-5.508-3.495c-2.572-2.844-4.221.783-6.111 2.719-2.469.332-6.473-.531-2.711 4.655l-1.162 6.593c-4.894 2.007-11.345 3.624-9.295 7.369 0 0-36.794-64.383-39.118-69.038-2.324-4.654-16.654-25.986-16.654-25.986l-10.845-15.514-34.083-23.272c1.785 0-2.979-6.89-1.756-8.054 1.883-1.792 6.737 2.917 8.728 1.073 1.903-1.762 4.046-7.67 3.098-8.145.375-2.737-.48-4.552-1.549-6.205-2.358 2.28-4.076 4.946-8.133 6.205h-7.746v3.879c-7.713 1.12-11.228 4.11-15.88 6.593l-4.26-1.551c-2.827.24-4.68 1.067-3.873 3.49.981 1.082 3.149 2.065 0 3.491-1.542-.83-8.901 7.642-8.908 7.37-.098-3.658-9.683-1.94-9.683-1.94-.652 1.987.199 4.162-3.099 5.818-2.56-1.083-4.17-.93-3.098 2.715-1.27-.754.16 3.753 0 6.206-.25 3.828-7.699-4.929-7.699-4.929-1.952-2.059-3.905-1.25-5.857-1.277-4.953-2.204-6.697.412-9.682 1.164 0-.593-5.048 7.627-5.423 5.817-.708-3.424-4.398-3.679-5.035-4.654-1.878-2.877.158-2.098 1.068-5.042.456-1.474 2.407-10.56 7.84-7.37l2.712.776c.07-4.027 1.606-6.291 3.485-8.144-2.029.6-6.055-5.373-5.809 2.714-4.75 1.088-9.22-.143-14.647-.41l-1.233-4.244c-2.446-2.295-6.652-1.652-10.07-2.327l-3.098 2.715c5.876 1.502 5.595 3.591 3.873 5.818-3.493-1.384-2.639.135-3.099.776-1.966-.02-5.604.875-3.873-1.164-1.073-2.274-.315-3.448.388-4.654 2.561.337.101-2.557-2.324-5.43l1.162-2.715c-3.663-1.93-5.012-4.323-6.972-6.594l-1.936 1.164c.735 2.586-1.166 5.171 3.486 7.757-.079 1.473-.168 2.935-3.099 1.551-11.082-7.474-8.939-2.146-9.683.388-.486 2.588-3.613 2.2-6.971 1.552-2.123-5.264-5.334-4.26-8.908-1.164-1.756.825-2.775-3.928-5.191-7.071 0 0 7.517.377 5.966-1.85-3.47-4.98 2.005-15.002 2.323-13.187.512 2.924-9.608-6.061-8.133-16.677.389-2.804-7.46-8.13-4.648-8.533-1.132-2.2-3.22-2.247-5.809-1.164-2.6-2.403-8.342 4.606-10.915 5.748-6.16 2.732-13.021-7.43-12.445-6.277-3.15-.913-6.971-4.346-8.787-.246-2.897-5.756-4.76-3.228-6.584-.388-1.974-4.902-5.527-3.872-8.908-3.49 1.237 2.05 2.453 4.093 1.549 5.429-2.31-3.093-4.714-5.342-7.746-1.94l-1.549 5.43c-4.358.466-11.595-3-12.394 2.328 0 0 6.584-.388 4.261 3.103-2.324 3.49-6.197 5.43-6.197 5.43-.299-.674-9.877-4.344-10.07 2.327-.036 1.245-7.059-3.234-11.678 1.148-2.737 2.596-13.286 3.482-14.272 4.282-7.406 1.823-14.084 1.46-22.463 6.205-1.795-8.093-5.774-2.627-9.296 0-4.747-1.897-8.738-.513-12.394 2.328-1.934 3.102-.91 6.205.388 9.308l-4.648.776c-2.558-4.54-5.666-5.776-9.682-1.552-5.863.43-12.138.776-16.267 1.552-1.717.705-6.93-1.119-2.711 3.878l-6.585 1.552c-.352-5.348-6.819-2.387-12.006-1.164-3.302.71-6.17 1.802-6.584 5.042l-9.683-.775c-2.745-2.043-11.582 4.36-5.81 10.084 2.611 2.589-6.693-5.842-6.693-5.842-3.599.416-8.129-4.14-10.735 1.575l-6.197-.388c-3.965-3.378-5.883-.608-8.521 0-1.882-.967-2.653-2.157-2.711-3.49l-4.648 3.49c-2.157.965-8.772.335-1.549 4.655l3.486 1.163c-.702-.803-2.916 4.198-4.648 6.206-2.278 2.642-5.809-.776-5.809-.776 1.619 2.114 2.454 5.798 6.111 3.832.156-.887 1.015 4.68 3.571 2.762 2.948-2.211 11.386-2.103 10.845-.388-.519.935-.968 3.097-2.711 4.266-3.445 2.21-5.083-.101-7.156-1.324-1.511 1.154-3.086 2.268-1.752 5.203 0 0-1.87 5.087 3.098 4.266 2.294-.379 6.002.786 9.171 2.828 2.824 1.82 5.934 1.439 5.934 1.439 2.711.422 5.422.891 8.133 3.103-.432 1.852.115 4.194-2.323 5.042l-10.845-.776c-.633-1.11-9.471-2.539-9.295 1.164.092 1.937-5.172-3.244-5.172-3.244-3.873 3.878-9.089 9.997-11.619 11.635-1.118.952-2.062 1.99-1.025 4.02 1.709 1.672 4.883.899 4.647 5.818 4.088 2.09 4.836 5.853 6.972 8.92-7.4.959-10.328 3.908-14.718 6.206-4.585 1.081-9.355 1.992-9.682 6.981-3.168-.753-6.994-2.355-7.747 0l2.712 5.43c10.716.032 15.372 1.816 9.682 6.594l3.873 2.715h11.619c-.327 2.541-1.838 5.174 2.324 7.369l10.07-.776c2.132 2.281 3.155 3.728 6.584 6.982l1.55 2.715-3.099 2.327-5.422 15.514c-1.367-1.244-20.881 8.574-19.365 8.921 2.11.482-14.165-6.205-15.493-4.654.05-4.73.191-9.653-5.809-1.552-.39 2.457-.563 4.913-2.711 7.369l-5.81 3.103s-7.588 1.597-5.422.388c10.529-5.877-5.161-6.922-7.359-6.206l-9.295-3.102c-2.491 0-10.311-9.607-5.81-10.473 5.354-1.029-2.229-6.007-6.197-6.205.376-1.979-5.042-3.103-4.712-.037.118 1.106.769 2.899-.323 2.752-2.434-.329-14.887-4.402-14.33-.776 2.095 7.158.643 8.545-3.099 6.206-2.7 5.293-7.173-2.429-10.844-4.267-10.868-3.746-16.947-3.734-14.33 3.103 0 0-4.342-10.785-5.81-5.43-1.716 6.26-4.938 8.728-5.422 7.757h-3.099l-1.549 8.145c-4.097 1.804-8.521 3.361-11.232 6.206.904-2.855-14.844-6.523-11.619-3.879 1.51 1.238-12.832-16.919-14.718-16.29-2.417.516-5.745.196-6.533 2.506l4.984 4.088c-2.14 4.56-1.07 8.156.388 11.636-.283.622-8.385 7.302-7.747-.776.221-2.788-1.942-4.089-.387-5.818 3.978-4.424.989-5.42-2.711-5.818-2.074-.222-5.035-5.818-5.035-5.818l-3.873-4.654c.415-4.154-4.218-1.851-7.746-4.266-5.666-3.879-3.231-6.519-3.161-6.59-1.625-4.059-6.121-3.262-7.421-3.081-3.795-.714-7.837-1.614-8.807-.206-.774.441-6.355 1.114-7.734-.857-1.286-1.836-1.954 8.214-6.663 1.766-.433-.593-3.581-11.299-4.17-11.201-.187-6.868-6.134.363-9.295.776-2.246-1.199-10.713 5.423-5.423 8.921 2.353 1.555-9.295.388-11.619.388s-9.093-1.527-5.809-1.94c9.396-1.18 3.536-6.831-1.55-7.757l-6.197 1.164c-6.918-8.195-4.66-2.605-3.098 1.939-1.046 1.073.487 3.007-3.486 3.103-1.549-8.133-3.098-1.872-4.647 4.654-3.932-.064-5.549 3.058-6.585 6.982-.814-.954-10.786 2.999-12.78 7.369-1.377 3.014-7.304-2.649-7.304-1.152-7.44 1.642-6.606 6.923-4.402 12.078-6.358 1.822-11.844 4.081-13.857 8.079-7.048 2.125-7.49.387-7.359 3.232-1.539-.386 4.451 19.941 6.972 22.107 2.794 2.402-13.761 10.106-16.357 8.811-2.981-1.486-4.601-10.542-7.656-11.655 0 0-5.422-10.86-8.52-12.799-3.1-1.939-3.874-2.327-3.874-2.327-2.428 2.497-2.075 8.056-7.746 6.981-2.713 4.02-1.167 8.427 0 12.8l-10.845 7.757-2.71 19.78c8.905 5.172 9.488 11.733-3.486 20.556L2.33 295.062l17.816 5.043c.562 7.11-.832 14.221 2.324 21.332l4.26 3.49c2.72-.493 1.488-3.249 1.937-5.042l5.422.776c1.338 2.936 8.942.852 13.556 1.163l11.232 15.127c3.743 4.526 6.212 10.328 9.295 15.514l5.03 12.341c.038 1.89-1.465 2.017-3.98.984l-4.148 1.026c-2.391-2.405-5.104-6.42-5.035 3.49 1.869 2.957 3.437 3.195 4.945 2.895l16.744 8.353 17.428 15.902 6.197 10.472z" fill="#fff" stroke="#E5E5E5" stroke-width="3" stroke-linecap="round" stroke-linejoin="round"/><path d="M1141.97 268.073c1.39-1.128 1.97-3.013 4.47-3.11 1.73-.298 3.88-1.952 5.49-1.454l2.34.335c-.38 2.015.1 4.32.49 6.592l-.12 2.488c-1.76-.304-2.74.119-2.98 1.243-.23 1.037-.3 2.016.62 2.612.96 1.755 2 3.439 4.1 4.229m-2.31-17.092l2.74-.406" stroke="#E5E5E5" stroke-width="3" stroke-linejoin="round"/><path d="M289.289 430.611c-2.793-13.273-3.681-34.082-8.723-39.109l-7.918-.403-5.771-3.629-4.563-.806-2.147-6.586-4.563-.403c-1.133-1.436-1.722-4.505-3.49-4.032l-5.502 4.57-10.87 1.209-12.481.672-6.576-1.344-4.563.269-.806 2.15-2.147 6.048-3.758 3.629c-1.565 1.579-3.131 2.271-4.697 2.419l-18.252-.672" stroke="#E5E5E5" stroke-linejoin="round"/><path d="M280.565 391.905l-1.074-7.123c-3.864-3.335-3.239-7.233-4.562-10.886 0 0-12.544-4.19-13.287-4.032-2.349.5-9.398-3.856-8.857-4.166 0 0-4.697-4.704-4.966-5.241-.268-.538-7.381-13.843-7.381-13.843l.403-7.795 2.281-18.95c.678-5.159-1.521-7.436-2.818-10.617-2.453-3.503-.968-6.021-.805-8.87-5.499-5.896-1.485-7.559-1.208-10.886 1.056-2.419-.365-4.838-.94-7.257-1.4-.626-4.222-.111-4.026-2.016l-2.952-1.881c-2.602.767-2.653 4.517-3.221 7.66-4.827-1.84-10.353-5.547-14.226-4.838l-1.745-17.471-2.281.94c-1.73-.629-3.645-1.374-8.186-3.763l-3.087 3.495-2.818 4.166-6.576 1.344-7.65-1.747c-2.989 2.197-3.455 5.026-3.624 7.929l-3.757 8.735c-1.502 1.289-.688 3.571.268 5.914l-6.442 1.209c-6.784-2.627-10.738-2.421-16.104-3.628.563-1.461-.389-3.301-1.208-5.107-2.163-.732-6.167-1.095-10.065-1.479-10.789 6.268-21.847 12.401-31.27 19.353-2.46 3.294-4.921 4.763-7.381 6.72-5.547 1.947-11.094 2.08-16.641 2.285l.939 3.494c-11.147-3.283-22.2-6.423-31.94-7.593-13.617-3.728-22.596-3.234-32.478-3.562m179.499-41.494c.946-1.927 2.168-3.487 2.372-6.652.16-1.568 1.242-2.859-.949-5.132 0 0 4.081-2.851 6.169-3.611 2.087-.761 9.11.19 9.11.19s-.759 3.231 1.328 2.281c2.088-.951 6.643-3.232 6.643-3.232.655-.187-.357-1.357-1.708-2.28-1.686-1.153 1.307-5.57 2.183-6.082.819-.479 3.511-7.223 2.372-8.743-1.139-1.521-3.986-2.751-3.986-5.132 0 0 .19-6.272.57-7.602.379-1.331 1.328-7.793 1.328-7.793m322.174 338.786l3.417-.475c13.93-11.636 27.999-23.175 44.411-33.071.559 0 2.271-3.326.19-4.656-1.189-.761-1.328-1.901-1.613-2.851-.285-.95.759-3.611.759-4.372 0-.76 3.573-2.618 2.467-3.516-1.756-1.425.134-7.127.19-7.127l3.606 2.566s.285-9.598.475-10.169c.189-.57 2.467-3.041 2.467-3.041l-2.278-2.47-4.46-3.136c-1.768-.637-1.648-3.165-1.993-5.227-2.546-.785-5.032-1.416-8.066-3.421l.285-5.702.19-21.762.664-6.558-4.365-.475-4.84-3.991-.664-3.421 1.328-2.946c2.356-4.15 1.392-8.299 2.088-12.449l1.708-2.281-1.139-2.946c-2.86-.338-2.63-2.888-3.89-4.371 0 0-.095-6.557-.475-6.938-.379-.38-.949-1.615-.949-1.615-3.574-.718-6.367-.131-9.205.38l-32.549-.95c-4.901-4.217-10.343-7.62-14.33-13.21l-3.511.476-17.746-9.409-15.088-5.416c-7.468-2.979-7.465-2.218-11.198-3.326-.596 0-8.83-7.983-8.636-7.603.277.542-10.628 2.566-10.628 2.566-1.625-2.239 2.657-3.295 3.986-4.942-1.914-.562-3.518-.66-5.884-1.9l-1.518-6.082-6.643-8.553-3.132-.19c-2.504-4.072-4.017-8.233-9.11-12.069-5.694.189-11.26.634-16.702 1.33l-9.205 24.613c-2.09 1.522-6.738 1.012-7.022.571-.414-.645-9.679-2.281-9.679-2.281-.328 4.446-.659 8.895-1.234 13.589l-7.022.856c-11.368 12.422-21.277 25.209-29.608 38.392-4.713 1.077-7.75 2.154-8.92 3.231-2.077 4.703-3.236 9.711-3.796 14.92" stroke="#E5E5E5" stroke-linejoin="round"/><path d="M458.117 347.958c7.597-5.628 14.582-11.716 23.083-16.665 6.243-4.601 12.903-8.854 17.715-14.649-5.701-2.55-7.078-7.024-8.32-11.558.711.356-5.343-11.138-9.26-13.036-.526-.255-17.179-7.984-17.179-9.139l.94-6.048c-.779-.833-.082-1.912-3.624-2.284l-3.355 2.553c-5.613-3.443-8.797-8.384-11.139-13.843l-2.415-1.747-.269-1.747 5.368.403c-.332-3.934-3.561-6.709-6.307-9.676l3.355-8.333s3.758-2.419 3.892-3.225c.134-.806.402-2.419.402-3.225 0-.807 4.563-4.973 4.563-4.973 1.404 1.405 2.907 2.114 4.563 1.747l.94-3.225-9.126-15.859c-2.607-3.001-3.869-6.003-4.697-9.004l-1.745-5.914-4.697 1.747-.537-3.628s1.476-1.747 2.013-2.554c.537-.806 4.295-1.478 4.295-1.478s-5.637-4.032-5.637-5.51c0-1.479-.537-4.704-.537-4.704l-2.281-1.613-.671.403-2.55 2.42c-.895.324-1.79-1.453-2.684-3.226.218-1.365 1.893-2.106-.134-4.435l-1.611-2.419-4.697 3.494m257.001 373.214c-.536-.269-3.757-6.451-3.757-6.451-.454.324-3.998-1.053-2.953-2.151 1.216-1.276-2.886-3.291-2.952-3.225-.967.073-1.628.947-4.832-4.838 0 1.036-6.36-2.37-5.368-2.823 1.98-.903 1.816-7.82.94-7.794 0 0-4.017-5.588-3.758-6.451.355-1.186-1.392-4.007-2.416-3.495-2.012-.683-4.527-.99-5.905-2.15-5.472.282-7.071-2.991-8.32-6.585-.438-.986-.805-1.971-.537-2.957 2.218-3.319 3.73-6.537 4.697-9.676 1.313-3.633 2.9-7.084 2.147-12.096l3.355-6.182v-4.838c-3.314-10.931-4.801-21.862-6.576-32.792.106-.02-3.654-12.544-5.1-13.44-.98-.607-2.647-11.678-3.757-12.095v-4.435c-3.341-3.226-5.291-6.451-6.308-9.677h-52.608" stroke="#E5E5E5" stroke-linejoin="round"/><path d="M818.187 524.955c-3.51-.509-6.156-4.913-8.991-8.466-2.273 1.264-5.218-6.953-4.161-9.005.749-1.453 3.087-5.107 3.087-5.107-.249-.674-.284-2.317-2.013-4.032l-7.918-2.419c-2.095-.985-1.056-1.971-.805-2.956 2.722-2.02 6.509-3.506 6.576-6.855l2.281-12.633-14.628-11.02-3.355.806c-1.644-.349-3.27-.819-4.563-3.628-1.292-2.686-.702-4.429-.671-6.451l1.074-2.957c-2.029-3.008-3.525-2.813-5.234-3.897-1.612-2.104-4.175-3.256-6.845-4.301l-2.415-1.613c2.037-2.973 1.735-6.531.939-10.214 0 0-3.221-10.617-3.221-11.154 0-.538-1.208-10.618-1.208-10.618.485-4.438 1.286-8.719 3.892-12.095l-138.901-.403" stroke="#E5E5E5" stroke-linejoin="round"/><path d="M1000.16 415.63l-3.471-.397c-.953-1.284-.644-4.462-.596-7.25-6.761-9.405-12.287-18.563-17.751-27.708 1.836-1.937 2.21-4.166 2.776-6.356-3.066.571-5.108 2.167-7.438 3.476-3.231-3.472-10.161-6.327-19.735-8.74l-11.207-4.668c-.367-1.688-1.452-3.376-3.669-5.065l-2.578-.397c-4.391 1.28-8.039 2.858-11.108 4.668l-6.149-.099-7.537-12.713c-2.337 2.214-7.874 1.625-12.099 2.185.044-3.692-1.774-4.401-4.363-3.873-3.186-2.088-6.812-5.5-9.521-6.157l-4.661 4.469c-1.794-1.634-3.323-1.939-4.86-2.284-.339 1.125-1.313 2.251-2.975 3.376-2.512-.92-5.025-2.126-7.537-1.787l.595 22.842c-3.077 2.225-5.691 3.061-8.529 4.568l-8.231-.298c-4.228-.612-9.175-1.279-14.182-3.873l-3.173-.199c-3.306-2.549-8.1-1.815-11.405-2.483-3.844-.875-8.259-.606-12.893.1-7.045 1.038-14.537 6.989-21.818 10.626-5.837 6.329-13.982 12.503-16.264 19.068" stroke="#E5E5E5" stroke-linejoin="round"/><path d="M865.51 346.432c-.305 2.464-3.564 1.475-6.833.475-1.168 2.426-2.236 4.977-6.358 3.706 0 1.212-5.225-4.586-5.599-5.512-.592-1.465 1.241-2.713 1.328-2.661l.475-5.701s4.86-.614 4.176-.381c-1.456.497-.054-8.992.284-9.218-1.358-2.15.556-6.642.854-9.978l3.227-4.656c.771-1.539 3.515-1.892 5.409-2.756l-3.511-1.901-3.227.475-2.182-2.185-.285-2.851c.15 0 3.897-1.141 3.416-1.141-.379 0-.19-2.09-.19-2.09-1.707.695-2.635.612-3.606.57-2.089-1.266-4.43-2.279-5.314-4.752.018-2.311 2.773-3.056 4.365-4.466h3.701l4.366-5.132c.965-2.438 1.625-4.845.094-7.032l-5.504-.19-3.985 1.425c-2.071-1.765-3.465-3.937-4.271-6.462l7.023-4.752-10.439-9.693c-2.382-2.376-3.596-4.751-3.701-7.127 5.223-1.417 9.61-3.336 13.57-5.512 2.486-.31 3.641-2.142 4.366-4.466.061-2.471.215-4.942-.949-7.413l.759-3.136 9.11-4.371c2.293-2.703 5.851-5.06 5.599-8.458l2.562.095.285 2.091c6.315 2.744 12.384 5.242 16.702 5.987l4.65-1.901c2.056-1.909 4.731-3.662 5.883-5.797 0 0 .005-2.581.664-3.516.686-.972-2.748-6.135-3.89-6.462.251-3.598 1.259-7.499.379-10.644l-5.314-4.751c-1.164.133-4.032-1.44-6.358-2.471l-4.176-7.412s-.353-1.241-.284-1.711c.345-2.377 6.5-5.344 6.358-4.562l4.175.476c4.62-2.754 8.451-7.086 12.622-10.739 0 0 1.138 1.806 1.138 1.426 0-.381 7.592-6.843 7.592-6.843l1.708-5.702" stroke="#E5E5E5" stroke-linejoin="round"/><path d="M871.595 219.255l-2.111-2.551c2.141-3.346.582-5.602-.436-8.018-1.656-.442-2.757-1.578-3.64-2.988-3.023-.89-4.366-.096-6.113.291-1.134-2.491-4.233-3.669-6.405-5.466-1.626.389-3.741.532-4.295 1.458l-2.474 2.551c-.849 2.041-1.699 3.988-2.548 6.778-1.061 1.094.174 2.444.728 3.717-.866 1.837-2.077 2.835-4.294 1.385-2.408-1.556-4.536.255-6.769.802-2.094 3.357-4.336 2.289-6.623-.146l-6.696 3.426c-4.537.376-9.074.539-13.611.729-3.443 2.139-7.917 3.659-9.607 6.851l-2.111.073-2.329-5.029c1.625-.657 3.128-1.557 4.367-2.988l2.984-.073 1.092-1.604-5.314-8.09c-2.049.293-4.669-2.123-4.585-2.478.108-.455-4.149.218-4.149.218-1.915-1.166-1.893-2.915.073-5.248l-.509-1.239c-2.354.337-4.707.496-7.06-.51l-10.991 1.822c-3.121-.453-2.844-3.51-2.765-6.414.919-1.203.687-2.984 2.984-3.498 1.854-1.725.409-3.45-.073-5.175.836-3.118 1.51-6.268.437-9.767-4.593-.076-7.017-1.6-9.972-2.77 0 0 2.038-3.207 2.257-3.644.218-.438 2.911-1.822 2.911-1.822s.237-2.149.582-2.624c.326-.449 5.429-1.193 7.206-.802.868.191 4.148-1.093 4.148-1.093.595-.486.873-.972-.072-1.458 0 0-5.75-1.968-6.114-1.968-.364 0-5.532-.073-5.532-.073-1.717-3.268-.966-5.548-.873-8.09l5.604-2.843-.291-28.353s-1.164-.364-1.164-.656v-2.916l-5.095-.728s-2.402-1.75-2.475-2.624c-.073-.875 1.82-1.968 1.82-1.968l2.838.51c.546 1.091.714 2.843 1.965 2.697l1.674-.146s1.674-5.248 1.529-5.831c-.146-.583-1.965-4.446-1.965-4.446-1.071.154-2.418-.038-2.766 1.02l-2.984 4.374s-3.567 1.02-3.639.656c-.073-.365-1.019-3.572-1.019-3.572-.593-.475 2.545-3.428 2.693-3.426.363.005-1.674-2.259-1.674-2.259l-2.839 1.385-.728-1.239 7.424-4.665s.433-2.21.218-1.822c-.182.33-2.363-1.647-2.693-2.697-.197-.63-3.93 3.207-3.93 3.207l-3.421-.802c-.219-1.75.197-3.498.946-5.248 0 0 2.985 1.02 2.985.73 0-.292.218-2.625.218-2.916 0-.292-3.712-4.884-3.712-4.884" stroke="#E5E5E5" stroke-linejoin="round"/><path d="M767.46 122.254l-12.261-3.05c-.529-1.891-1.892-3.505-5.609-4.333l-10.658-2.006s-2.003-5.056-2.003-5.457c0-.401.065-4.18-.16-4.574-.725-1.265-3.753-1.492-3.526-.963l-3.927 2.006-6.01-.401-5.529 3.852-9.055.08c-2.934-1.467-3.713-2.665-5.049-3.932 1.184-3.37.752-6.74 1.122-10.111-.834-2.498-2.4-4.017-3.846-5.698-2.181-.567-3.07-.165-4.488-.16l-3.846 3.29-5.609-1.043-2.565-3.611-9.055.16c-1.852 1.712-3.93 3.424-7.052 5.136-2.638-1.66-4.491-5.287-6.731-7.945l-4.888-.24-3.205-2.648c.062-1.4 1.033-3.188-.241-4.013l-6.891-2.487-3.927 3.771.241 3.531c-1.468 1.815-2.089.52-2.965.16l-.08-2.728-5.45-3.45-2.564 2.567-4.487-1.364-8.975 9.068c.374 3.75 4.431 6.158 6.891 9.148v6.42l-4.087 2.568 2.885 6.42-4.888.963-5.529 4.494-1.523 4.092-4.247-.08c-1.792.699-2.158 1.789-1.602 3.13l-3.847-.161-.32 2.167c1.395.473 2.415.999 2.323 1.685-3.533 1.952-5.621 7.284-11.459 3.852-1.095-.556-2.19-1.722-3.285-3.13l-7.292.722.16 8.507c-1.855-.697-2.967-1.989-5.77-1.926-4.664.903-9.649-.449-14.504-.883-1.2.601-.268-2.996.481-3.37.321-.161-1.4-.615-2.164-.402-.768.215-7.469 1.47-7.051 2.167l-4.488-4.895h-2.003l.561-15.087 2.885-3.611s7.452-.561 7.452-.882c0-.321-.641-2.007-.641-2.007l-8.414-.321s-.882-3.691-.561-4.172c.32-.482 3.045-2.007 3.045-2.007l6.17.16.161-2.888-4.087-.963-.321-12.278s-3.651-.677-4.006-.722c-.871-.11.408-7.07 2.083-7.222l-.641-4.494c-.374.401-1.153.397-2.805-.482l-1.202-8.185 6.01-3.53 3.606-.241c-.672-1.834-1.52-3.136-2.404-4.334l-2.404-.08s-1.763-1.605-1.843-1.926c-.08-.321 3.045-2.087 3.045-2.087-2.979-3.734-3.067-9.495-4.087-14.605" stroke="#E5E5E5" stroke-linecap="round" stroke-linejoin="round"/><path d="M491.681 305.052l6.548-5.901-1.965-5.378 9.953-1.967-4.19-7.475 7.857-.918 1.31-9.836 21.216 4.59c4.918-.878 7.367-3.954 9.167-7.607h6.548l.393 2.754 7.858-11.672c5.419-.635 5.718-3.664 6.024-6.688l3.667-5.771c8.239-3.238 10.172-9.876 14.275-15.344.779-5.211 7.207-7.279 10.87-10.885-1.776-3.686.816-4.638 4.584-4.853l5.107-2.098 3.798-4.59c.587-2.633-2.263-3.545-3.536-5.246l-3.405 1.967c-3.986.654-11.115-.124-11.656 2.098l-4.19 2.885-5.239-3.278 1.834-4.066-5.763-5.377-3.143 2.623-6.286-1.836-6.941.393-7.203-6.688h-2.226l-2.489-4.197h-3.667l-2.226 4.984c-1.642-.918-2.975-1.836-6.286-2.754l1.964-8.394-4.714-4.852c.577 0-.049-5.64-.393-6.164-.518-.791 3.536-1.049 3.536-1.049l-1.31-2.886 1.834-5.639c-3.265-2.811-6.021-5.537-7.203-8 3.205-1.905 7.318-2.901 11.917-3.41 1.677-3.585 2.16-7.169 2.096-10.754l3.798-3.803.131-7.213 3.274-4.197" stroke="#E5E5E5" stroke-linecap="round" stroke-linejoin="round"/><path d="M758.975 175.216l-2.227-1.049-5.5-.394c-1.046 2.058-2.979 2.561-6.81-.262 0 0 4.86 9.381 4.584 8.787-.83-1.784 5.21-4.624 7.203-2.23l-4.584 5.508-6.548 1.312c1.065 2.046 1.449 3.58-.262 3.541l-5.501 2.098-4.976-.787c-1.835.946-2.748 2.508-2.488 4.853l-6.418 1.967-1.047 1.967 2.095 2.361-.393 3.016-5.631-1.18-3.012.918 1.44 3.41-2.357 2.098c-3.851-2.48-7.436-4.053-9.56-.655l-3.012.262 2.881-3.935.262-3.672-1.31-.393 1.441-1.836c6.295-2.504.34-2.177-1.703-2.754-2.708-1.396-5.242-3.14-11.001 1.573l-.131 1.968-4.845 1.967c-2.077.539-2.368 2.418-3.143 3.934-2.053 1.668-3.928 2.092-5.632 1.312l-2.095 1.18c-.043 2.984 1.028 6.247-.262 8.918l-2.488 1.574c-6.588 4.685-7.323 4.861-9.692 6.295l-4.321-1.574s1.383-6.625.654-7.475c-3.516-4.102-12.373 1.086-12.572 1.705-.378 1.177-3.405-1.312-3.405-1.312-3.922-11.569-10.499-1.337-15.977-.131l-6.156-2.492 1.048-18.754c-2.512-4.457-7.255-.42-11.394 1.312l-6.417 3.803c-2.454-.43-4.444-1.944-7.858-.131l.655 4.196" stroke="#E5E5E5" stroke-linecap="round" stroke-linejoin="round"/><path fill-rule="evenodd" clip-rule="evenodd" d="M769.724 430.746l-3.236-9.118-3.25-1.133-2.877-6.639-3.766-5.022-4.118-2.293 2.664-4.848-.561-3.548 4.289-4.281 2.935-1.687-2.721-5.229 1.487-3.619 8.986-1.216.574-4.436 4.314-1.848 7.179-5.628 3.306-7.192 3.647-1.938 4.005.541 6.228-.894 8.124 2.833 3.073 2.499 1.864-3.915 5.227-1.03 6.096.129 4.85-.734 4.943 3.793 3.696 2.93 4.78-2.827 4.409 2.679 4.716.29 3.785 2.247 6.184-.553 9.119-2.241 9.346 1.263 3.784 2.247 4.207 1.61 2.595-6.941 7.028-1.828 4.207 1.609-1.518-4.024 6.096.129 4.339.586 2.009 5.48-4.471.438-1.972 7.372-3.778 2.962-8.766-.49-3.628-.837-7.828 2.762-5.006-.677-1.449-1.931-10.013-1.353-3.161-1.816-6.14.212-5.227 1.03-4.163-1.951-16.065-1.823-5.605 1.327-6.007-.812-5.095.006c-1.601-1.601-3.811-4.232-2.582-1.043l-4.515.779-2.645 2.073-6.071 2.305-4.761.051-3.124 11.036-4.711 4.92-5.252-1.404-4.27 1.506-.441 3.413 1.499 6.799-1.997 4.939-3.665 4.713-.592 7.212-.543 12.079z" fill="#fff" stroke="#fff" stroke-width="1.052"/><path fill-rule="evenodd" clip-rule="evenodd" d="M416.484 391.143l-4.091-2.865-1.812-4.353-1.61-5.369-1.418 1.828-3.472 1.862-4.489-3.62-.253-3.388-3.35 2.309-7.376-1.726-1.974-4.069.574-2.462 3.91-1.838 4.704-2.968 4.813 3.052 1.852 3.623 5.696.313 1.725-4.745-3.393-2.24.104-1.901 2.767.299 2.186 5.547-.508 3.932 3.758 3.581 3.611.932 2.971 1.924 2.653-.294 3.746-4.194-2.438 7.053-1.028 2.73-1.849 1.658-3.001 1.302-3.008 4.087z" fill="#fff" stroke="#fff"/></svg>