<svg width="96" height="52" viewBox="0 0 96 52" fill="none" xmlns="http://www.w3.org/2000/svg">
<path d="M9.06817 15.6665C8.80151 15.6665 8.53486 15.5998 8.33486 15.3998L6.06818 13.1332H2.60156C2.06823 13.1332 1.60156 12.6665 1.60156 12.1332C1.60156 11.5998 2.06823 11.1332 2.60156 11.1332H6.93488L9.80153 13.9998C10.2015 14.3998 10.2015 14.9999 9.80153 15.3998C9.60153 15.5998 9.33484 15.6665 9.06817 15.6665Z" fill="#393939"/>
<path d="M57.6009 33.8665C54.0676 33.8665 51.2676 30.9998 51.2676 27.5331C51.2676 24.0665 54.1342 21.1998 57.6009 21.1998C61.0675 21.1998 63.9342 24.0665 63.9342 27.5331C63.9342 30.9998 61.0675 33.8665 57.6009 33.8665ZM57.6009 23.1998C55.2009 23.1998 53.2676 25.1332 53.2676 27.5331C53.2676 29.9331 55.2009 31.8665 57.6009 31.8665C60.0009 31.8665 61.9342 29.9331 61.9342 27.5331C61.9342 25.1332 60.0009 23.1998 57.6009 23.1998Z" fill="#393939"/>
<path d="M15.7318 33.8665C12.1984 33.8665 9.39844 30.9998 9.39844 27.5331C9.39844 24.0665 12.2651 21.1998 15.7318 21.1998C19.2651 21.1998 22.0651 24.0665 22.0651 27.5331C22.0651 30.9998 19.2651 33.8665 15.7318 33.8665ZM15.7318 23.1998C13.3318 23.1998 11.3984 25.1332 11.3984 27.5331C11.3984 29.9331 13.3318 31.8665 15.7318 31.8665C18.1317 31.8665 20.0651 29.9331 20.0651 27.5331C20.1317 25.1332 18.1317 23.1998 15.7318 23.1998Z" fill="#393939"/>
<path d="M67.7998 29.7332H62.7998V27.7332H67.5998L67.5331 24.1998C67.5331 23.9332 67.4665 23.8665 67.3998 23.8665L65.4665 22.5999V20.0665V19.9998C65.4665 19.9332 65.3998 19.8665 65.3331 19.7999C64.0665 19.1999 60.3332 17.7999 53.1998 17.3999C50.3998 17.2665 47.7998 16.5332 45.3999 15.3332L39.5999 12.4665C37.4666 11.3999 35.0666 10.8665 32.7332 10.8665H25.3333C20.5999 10.8665 16.0666 12.0666 12.2 14.2665C9.26663 15.9332 6.3333 16.7332 3.39997 16.6665V19.3332L3.19998 19.5999C3.19998 19.5999 1.99999 21.1998 1.99999 23.3332C1.99999 23.5332 2.06668 27.7998 5.26667 27.7998H10.4V29.7998H5.26667C1.13335 29.7998 0 25.5999 0 23.3999C0 21.1332 0.933314 19.3999 1.39998 18.7332V16.4665C1.39998 15.9999 1.60001 15.5332 1.93334 15.1999C2.26668 14.8665 2.73332 14.7332 3.19998 14.7332C5.79998 14.8666 8.46665 14.1332 11.1333 12.5999C15.2666 10.1999 20.2 8.93323 25.2666 8.93323H32.6666C35.3332 8.93323 38.0666 9.59988 40.4666 10.7999L46.2666 13.6665C48.3999 14.7332 50.7999 15.3999 53.2665 15.5332C60.4665 15.9332 64.3998 17.3332 66.1332 18.0665C66.9998 18.4665 67.4665 19.3332 67.3998 20.1998V21.5999L68.3998 22.2665C69.0665 22.7332 69.3998 23.3999 69.3998 24.2665L69.4665 27.9998C69.4665 28.4665 69.2665 28.9332 68.9332 29.3332C68.7332 29.5332 68.2665 29.7332 67.7998 29.7332Z" fill="#393939"/>
<path d="M51.9339 27.7332H21.334V29.7331H51.9339V27.7332Z" fill="#393939"/>
<path d="M82.334 8.2666V31.1332H94.6673L93.0673 22.1332C92.8673 21.1332 92.6673 20.1332 92.4006 19.1332C90.8006 12.7999 89.0006 9.73326 82.334 8.2666Z" fill="#46C770"/>
<path d="M75.9993 8.59999H73.9993V2.66666C73.9993 2.33333 73.7327 1.99999 73.3327 1.99999C72.9993 1.99999 72.666 2.26666 72.666 2.66666V8.59999H70.666V2.66666C70.666 1.2 71.866 0 73.3327 0C74.7993 0 75.9993 1.2 75.9993 2.66666V8.59999Z" fill="#393939"/>
<path d="M94.6006 30.1333H82.334V32.1333H94.6006V30.1333Z" fill="#393939"/>
<path d="M18.0669 41.9999H5.93359V43.9999H18.0669V41.9999Z" fill="#393939"/>
<path d="M25.134 51.0665C20.8673 51.0665 17.334 47.5999 17.334 43.2665C17.334 38.9999 20.8006 35.4666 25.134 35.4666C29.4006 35.4666 32.934 38.9332 32.934 43.2665C32.934 47.5999 29.4673 51.0665 25.134 51.0665ZM25.134 37.5332C21.934 37.5332 19.334 40.1332 19.334 43.3332C19.334 46.5332 21.934 49.1332 25.134 49.1332C28.334 49.1332 30.934 46.5332 30.934 43.3332C30.934 40.1332 28.334 37.5332 25.134 37.5332Z" fill="#393939"/>
<path d="M25.1332 44.8665C24.2666 44.8665 23.5332 44.1332 23.5332 43.2665C23.5332 42.3999 24.2666 41.6665 25.1332 41.6665C25.9999 41.6665 26.7332 42.3999 26.7332 43.2665C26.7332 44.1998 25.9999 44.8665 25.1332 44.8665ZM25.1332 42.8665C24.9332 42.8665 24.7332 43.0665 24.7332 43.2665C24.7332 43.4665 24.9332 43.6665 25.1332 43.6665C25.3332 43.6665 25.5332 43.4665 25.5332 43.2665C25.5332 43.0665 25.3999 42.8665 25.1332 42.8665Z" fill="#393939"/>
<path d="M43.6 44.8665C42.7333 44.8665 42 44.1332 42 43.2665C42 42.3999 42.7333 41.6665 43.6 41.6665C44.4667 41.6665 45.2 42.3999 45.2 43.2665C45.1333 44.1998 44.4667 44.8665 43.6 44.8665ZM43.6 42.8665C43.4 42.8665 43.2 43.0665 43.2 43.2665C43.2 43.4665 43.4 43.6665 43.6 43.6665C43.8 43.6665 44 43.4665 44 43.2665C44 43.0665 43.8 42.8665 43.6 42.8665Z" fill="#393939"/>
<path d="M82.0648 44.8665C81.1982 44.8665 80.4648 44.1332 80.4648 43.2665C80.4648 42.3999 81.1982 41.6665 82.0648 41.6665C82.9315 41.6665 83.6648 42.3999 83.6648 43.2665C83.6648 44.1998 82.9315 44.8665 82.0648 44.8665ZM82.0648 42.8665C81.8648 42.8665 81.6648 43.0665 81.6648 43.2665C81.6648 43.4665 81.8648 43.6665 82.0648 43.6665C82.2648 43.6665 82.4648 43.4665 82.4648 43.2665C82.4648 43.0665 82.3315 42.8665 82.0648 42.8665Z" fill="#393939"/>
<path d="M43.5988 51.0665C39.3322 51.0665 35.7988 47.5999 35.7988 43.2665C35.7988 38.9999 39.2655 35.4666 43.5988 35.4666C47.8655 35.4666 51.3988 38.9332 51.3988 43.2665C51.3321 47.5999 47.8655 51.0665 43.5988 51.0665ZM43.5988 37.5332C40.3988 37.5332 37.7988 40.1332 37.7988 43.3332C37.7988 46.5332 40.3988 49.1332 43.5988 49.1332C46.7988 49.1332 49.3988 46.5332 49.3988 43.3332C49.3988 40.1332 46.7988 37.5332 43.5988 37.5332Z" fill="#393939"/>
<path d="M95.9992 40.9999H87.3326L87.0659 40.4665C86.0659 38.6665 84.1326 37.5332 82.0659 37.5332C79.9992 37.5332 78.0659 38.6665 77.0659 40.4665L76.7993 40.9999H48.9327L48.666 40.4665C47.666 38.6665 45.7327 37.5332 43.666 37.5332C41.5994 37.5332 39.666 38.6665 38.666 40.4665L38.3994 40.9999H30.5994L30.3327 40.4665C29.3327 38.6665 27.3994 37.5332 25.3327 37.5332C23.2661 37.5332 21.3328 38.6665 20.3328 40.4665L20.0661 40.9999H6.13281V31.9332H15.9328V33.9332H8.13281V38.9999H18.8661C20.3328 36.8665 22.7328 35.5332 25.3327 35.5332C27.9327 35.5332 30.3327 36.8665 31.7994 38.9999H37.3327C38.7994 36.8665 41.1994 35.5332 43.7994 35.5332C46.3994 35.5332 48.7994 36.8665 50.266 38.9999H75.8659C77.3326 36.8665 79.7326 35.5332 82.3326 35.5332C84.9326 35.5332 87.3326 36.8665 88.7992 38.9999H94.3326V38.6665C94.3326 30.5332 92.9992 22.5333 90.3326 14.7999C88.9992 11.2666 85.4659 9.66662 82.6659 9.66662H75.9993V28.3332C75.9993 31.3999 73.4659 33.9332 70.3993 33.9332H57.5993V31.9332H70.3993C72.3993 31.9332 73.9993 30.3332 73.9993 28.3332V7.66663H82.3326C85.9326 7.66663 90.2659 9.66663 91.8659 14.1333C94.5992 22.0666 95.9992 30.2666 95.9992 38.6665V40.9999Z" fill="#393939"/>
<path d="M82.0675 51.0665C77.8009 51.0665 74.2676 47.5999 74.2676 43.2665C74.2676 38.9999 77.7342 35.4666 82.0675 35.4666C86.3342 35.4666 89.8675 38.9332 89.8675 43.2665C89.8675 47.5999 86.3342 51.0665 82.0675 51.0665ZM82.0675 37.5332C78.8675 37.5332 76.2676 40.1332 76.2676 43.3332C76.2676 46.5332 78.8675 49.1332 82.0675 49.1332C85.2675 49.1332 87.8675 46.5332 87.8675 43.3332C87.8675 40.1332 85.2675 37.5332 82.0675 37.5332Z" fill="#393939"/>
</svg>
