<svg width="65" height="65" viewBox="0 0 65 65" fill="none" xmlns="http://www.w3.org/2000/svg">
<g clip-path="url(#clip0)">
<path d="M9.53184 59.3603C9.53184 58.9174 9.89099 58.5582 10.334 58.5582C10.7771 58.5582 11.1361 58.9173 11.1361 59.3603V59.4238C11.1361 59.8668 10.777 60.226 10.334 60.226C9.89099 60.226 9.53184 59.8668 9.53184 59.4238V59.3603Z" fill="black" stroke="white" stroke-width="0.3"/>
<mask id="path-2-inside-1" fill="white">
<path d="M64.8304 14.4201L56.81 0.477347C56.6802 0.25175 56.4637 0.0891217 56.211 0.0272952C55.9585 -0.0345313 55.6912 0.00964861 55.4719 0.149933L49.5391 3.94217L30.8248 6.32586C29.5682 6.48506 28.4078 7.09114 27.5578 8.03263L21.3233 14.9374C20.6672 15.6634 20.3058 16.6021 20.3058 17.5803C20.3058 18.461 20.6055 19.3266 21.149 20.0169C22.0194 21.1251 23.3811 21.6497 24.7065 21.4967C25.4642 22.2756 26.492 22.6892 27.535 22.6892C28.2316 22.6892 28.9349 22.505 29.5681 22.123L29.6338 22.0849C30.1566 22.5056 30.7723 22.7793 31.4169 22.8942C27.4721 24.8769 24.7585 28.9619 24.7585 33.6693C24.7585 37.6169 26.6667 41.1273 29.6091 43.3269L23.4042 46.9266L21.7262 46.717L24.6603 44.6149C25.6914 43.8758 26.307 42.6781 26.307 41.4111C26.307 41.1491 26.2801 40.884 26.2268 40.6226C25.7968 38.5182 23.804 37.1585 21.6898 37.5277L20.9183 37.6611C17.3152 38.288 13.8781 39.797 10.9787 42.0248L6.56732 45.4132L0.481408 49.3029C0.0529385 49.5769 -0.0846795 50.139 0.168974 50.5799L8.18929 64.5227C8.31903 64.7483 8.53549 64.9109 8.78825 64.9727C8.8629 64.991 8.93895 65 9.01461 65C9.19476 65 9.373 64.9488 9.52751 64.8501L15.4603 61.0578L19.6087 60.5288C20.1303 60.4623 20.4992 59.9855 20.4327 59.4638C20.3662 58.9423 19.8897 58.5732 19.3677 58.6397L15.6364 59.1157L12.8774 54.3195L8.34836 46.4458L12.1386 43.5345C14.7948 41.4936 17.9437 40.1112 21.2436 39.5371L22.0156 39.4036C23.108 39.2131 24.1385 39.9157 24.3607 41.0031C24.3883 41.1391 24.4024 41.2764 24.4024 41.411C24.4024 42.0655 24.084 42.6847 23.5508 43.0668L18.639 46.586C18.3203 46.8142 18.1742 47.2144 18.2707 47.5944C18.3672 47.9742 18.6866 48.2562 19.0755 48.3048L32.2444 49.9501C32.4573 49.9767 32.6727 49.9307 32.856 49.8195L39.6914 45.6756C40.5724 45.1414 41.7164 45.3493 42.3533 46.1602C42.6343 46.5172 42.7892 46.9643 42.7892 47.4196C42.7892 47.9251 42.6023 48.4103 42.2628 48.7861L36.0281 55.6911C35.4832 56.2945 34.74 56.683 33.9345 56.7849L23.1371 58.1599C22.6154 58.2262 22.2464 58.703 22.3128 59.2246C22.3792 59.7463 22.856 60.116 23.3775 60.0489L34.1743 58.674C35.4309 58.5148 36.5913 57.9087 37.4414 56.9672L43.6758 50.0625C44.3319 49.3364 44.6933 48.3977 44.6933 47.4196C44.6933 46.5389 44.3936 45.6733 43.8501 44.9829C43.5665 44.6217 43.2302 44.3234 42.8604 44.0893C46.4471 41.9991 48.863 38.1112 48.863 33.6692C48.863 31.1654 48.089 28.753 46.6633 26.7328C48.681 26.1341 50.6 25.2594 52.3922 24.1163C52.8357 23.8336 52.9658 23.2449 52.6831 22.8015C52.4005 22.3581 51.8119 22.228 51.3683 22.5107C49.0397 23.9958 46.4781 24.989 43.7554 25.4628L42.9834 25.5963C41.8911 25.787 40.8605 25.0842 40.6383 23.9968C40.6106 23.8607 40.5965 23.7235 40.5965 23.5889C40.5965 22.9343 40.9149 22.3152 41.4482 21.9331L46.36 18.4139C46.6786 18.1856 46.8248 17.7855 46.7283 17.4055C46.6318 17.0257 46.3124 16.7437 45.9235 16.6951L32.7546 15.0497C32.5421 15.0235 32.3263 15.0692 32.1429 15.1804L25.3076 19.3243C24.4266 19.8585 23.2826 19.6506 22.6457 18.8397C22.3647 18.4827 22.2098 18.0356 22.2098 17.5803C22.2098 17.0748 22.3967 16.5896 22.7362 16.2138L28.9709 9.30877C29.5158 8.70535 30.2589 8.31688 31.0645 8.21493L49.3628 5.88431L51.7125 9.96893L56.6509 18.5542L54.3714 20.3051C53.9544 20.6254 53.876 21.2231 54.1964 21.6403C54.5168 22.0573 55.1146 22.1358 55.5315 21.8154L58.4322 19.5872L64.5178 15.6972C64.9463 15.4232 65.0839 14.861 64.8304 14.4201ZM9.34241 62.7082L2.2726 50.4179L6.77921 47.5374L10.7209 54.3897L13.8489 59.8276L9.34241 62.7082ZM31.548 20.9746L37.4438 17.5549L38.4729 17.6835L33.1823 20.7519C33.177 20.7549 33.1718 20.758 33.1666 20.7611C32.6668 21.0639 32.079 21.1259 31.548 20.9746ZM31.4503 44.4609C31.6785 44.5748 31.9106 44.6821 32.1468 44.7816L27.5562 47.4452L26.527 47.3166L31.4503 44.4609ZM32.1521 48.0194L30.6784 47.8353L34.6555 45.5277C35.0927 45.607 35.5382 45.662 35.9903 45.6926L32.1521 48.0194ZM42.6174 27.533C42.8452 27.533 43.0768 27.5133 43.3096 27.4727L44.0811 27.3393C44.2724 27.306 44.4628 27.2702 44.6526 27.2322C46.1429 29.0436 46.959 31.3086 46.959 33.6693C46.959 39.2647 42.4069 43.8167 36.8115 43.8167C31.2155 43.8167 26.6629 39.2647 26.6629 33.6693C26.6629 28.0739 31.2155 23.5219 36.8115 23.5219C37.4476 23.5219 38.0782 23.5818 38.6953 23.6981C38.7016 23.9246 38.7268 24.1525 38.7727 24.3778C39.1554 26.2504 40.7757 27.5331 42.6174 27.533ZM40.3391 20.3854C39.8087 20.7656 39.3893 21.2676 39.1061 21.8376C38.3544 21.6921 37.586 21.6176 36.8115 21.6176C36.3093 21.6176 35.8143 21.6489 35.328 21.7089L41.5959 18.0737L43.2732 18.2833L40.3391 20.3854ZM32.8472 16.9806L34.321 17.1647L28.6049 20.4801C28.5994 20.4832 28.5939 20.4864 28.5885 20.4897C28.0326 20.8272 27.3718 20.8679 26.7987 20.6474L32.8472 16.9806ZM58.22 17.4626L54.2784 10.6103L51.1503 5.17235L55.6568 2.29177L62.7266 14.582L58.22 17.4626Z"/>
</mask>
<path d="M64.8304 14.4201L56.81 0.477347C56.6802 0.25175 56.4637 0.0891217 56.211 0.0272952C55.9585 -0.0345313 55.6912 0.00964861 55.4719 0.149933L49.5391 3.94217L30.8248 6.32586C29.5682 6.48506 28.4078 7.09114 27.5578 8.03263L21.3233 14.9374C20.6672 15.6634 20.3058 16.6021 20.3058 17.5803C20.3058 18.461 20.6055 19.3266 21.149 20.0169C22.0194 21.1251 23.3811 21.6497 24.7065 21.4967C25.4642 22.2756 26.492 22.6892 27.535 22.6892C28.2316 22.6892 28.9349 22.505 29.5681 22.123L29.6338 22.0849C30.1566 22.5056 30.7723 22.7793 31.4169 22.8942C27.4721 24.8769 24.7585 28.9619 24.7585 33.6693C24.7585 37.6169 26.6667 41.1273 29.6091 43.3269L23.4042 46.9266L21.7262 46.717L24.6603 44.6149C25.6914 43.8758 26.307 42.6781 26.307 41.4111C26.307 41.1491 26.2801 40.884 26.2268 40.6226C25.7968 38.5182 23.804 37.1585 21.6898 37.5277L20.9183 37.6611C17.3152 38.288 13.8781 39.797 10.9787 42.0248L6.56732 45.4132L0.481408 49.3029C0.0529385 49.5769 -0.0846795 50.139 0.168974 50.5799L8.18929 64.5227C8.31903 64.7483 8.53549 64.9109 8.78825 64.9727C8.8629 64.991 8.93895 65 9.01461 65C9.19476 65 9.373 64.9488 9.52751 64.8501L15.4603 61.0578L19.6087 60.5288C20.1303 60.4623 20.4992 59.9855 20.4327 59.4638C20.3662 58.9423 19.8897 58.5732 19.3677 58.6397L15.6364 59.1157L12.8774 54.3195L8.34836 46.4458L12.1386 43.5345C14.7948 41.4936 17.9437 40.1112 21.2436 39.5371L22.0156 39.4036C23.108 39.2131 24.1385 39.9157 24.3607 41.0031C24.3883 41.1391 24.4024 41.2764 24.4024 41.411C24.4024 42.0655 24.084 42.6847 23.5508 43.0668L18.639 46.586C18.3203 46.8142 18.1742 47.2144 18.2707 47.5944C18.3672 47.9742 18.6866 48.2562 19.0755 48.3048L32.2444 49.9501C32.4573 49.9767 32.6727 49.9307 32.856 49.8195L39.6914 45.6756C40.5724 45.1414 41.7164 45.3493 42.3533 46.1602C42.6343 46.5172 42.7892 46.9643 42.7892 47.4196C42.7892 47.9251 42.6023 48.4103 42.2628 48.7861L36.0281 55.6911C35.4832 56.2945 34.74 56.683 33.9345 56.7849L23.1371 58.1599C22.6154 58.2262 22.2464 58.703 22.3128 59.2246C22.3792 59.7463 22.856 60.116 23.3775 60.0489L34.1743 58.674C35.4309 58.5148 36.5913 57.9087 37.4414 56.9672L43.6758 50.0625C44.3319 49.3364 44.6933 48.3977 44.6933 47.4196C44.6933 46.5389 44.3936 45.6733 43.8501 44.9829C43.5665 44.6217 43.2302 44.3234 42.8604 44.0893C46.4471 41.9991 48.863 38.1112 48.863 33.6692C48.863 31.1654 48.089 28.753 46.6633 26.7328C48.681 26.1341 50.6 25.2594 52.3922 24.1163C52.8357 23.8336 52.9658 23.2449 52.6831 22.8015C52.4005 22.3581 51.8119 22.228 51.3683 22.5107C49.0397 23.9958 46.4781 24.989 43.7554 25.4628L42.9834 25.5963C41.8911 25.787 40.8605 25.0842 40.6383 23.9968C40.6106 23.8607 40.5965 23.7235 40.5965 23.5889C40.5965 22.9343 40.9149 22.3152 41.4482 21.9331L46.36 18.4139C46.6786 18.1856 46.8248 17.7855 46.7283 17.4055C46.6318 17.0257 46.3124 16.7437 45.9235 16.6951L32.7546 15.0497C32.5421 15.0235 32.3263 15.0692 32.1429 15.1804L25.3076 19.3243C24.4266 19.8585 23.2826 19.6506 22.6457 18.8397C22.3647 18.4827 22.2098 18.0356 22.2098 17.5803C22.2098 17.0748 22.3967 16.5896 22.7362 16.2138L28.9709 9.30877C29.5158 8.70535 30.2589 8.31688 31.0645 8.21493L49.3628 5.88431L51.7125 9.96893L56.6509 18.5542L54.3714 20.3051C53.9544 20.6254 53.876 21.2231 54.1964 21.6403C54.5168 22.0573 55.1146 22.1358 55.5315 21.8154L58.4322 19.5872L64.5178 15.6972C64.9463 15.4232 65.0839 14.861 64.8304 14.4201ZM9.34241 62.7082L2.2726 50.4179L6.77921 47.5374L10.7209 54.3897L13.8489 59.8276L9.34241 62.7082ZM31.548 20.9746L37.4438 17.5549L38.4729 17.6835L33.1823 20.7519C33.177 20.7549 33.1718 20.758 33.1666 20.7611C32.6668 21.0639 32.079 21.1259 31.548 20.9746ZM31.4503 44.4609C31.6785 44.5748 31.9106 44.6821 32.1468 44.7816L27.5562 47.4452L26.527 47.3166L31.4503 44.4609ZM32.1521 48.0194L30.6784 47.8353L34.6555 45.5277C35.0927 45.607 35.5382 45.662 35.9903 45.6926L32.1521 48.0194ZM42.6174 27.533C42.8452 27.533 43.0768 27.5133 43.3096 27.4727L44.0811 27.3393C44.2724 27.306 44.4628 27.2702 44.6526 27.2322C46.1429 29.0436 46.959 31.3086 46.959 33.6693C46.959 39.2647 42.4069 43.8167 36.8115 43.8167C31.2155 43.8167 26.6629 39.2647 26.6629 33.6693C26.6629 28.0739 31.2155 23.5219 36.8115 23.5219C37.4476 23.5219 38.0782 23.5818 38.6953 23.6981C38.7016 23.9246 38.7268 24.1525 38.7727 24.3778C39.1554 26.2504 40.7757 27.5331 42.6174 27.533ZM40.3391 20.3854C39.8087 20.7656 39.3893 21.2676 39.1061 21.8376C38.3544 21.6921 37.586 21.6176 36.8115 21.6176C36.3093 21.6176 35.8143 21.6489 35.328 21.7089L41.5959 18.0737L43.2732 18.2833L40.3391 20.3854ZM32.8472 16.9806L34.321 17.1647L28.6049 20.4801C28.5994 20.4832 28.5939 20.4864 28.5885 20.4897C28.0326 20.8272 27.3718 20.8679 26.7987 20.6474L32.8472 16.9806ZM58.22 17.4626L54.2784 10.6103L51.1503 5.17235L55.6568 2.29177L62.7266 14.582L58.22 17.4626Z" fill="black" stroke="white" stroke-width="0.6" mask="url(#path-2-inside-1)"/>
<path d="M53.8639 5.63965C53.8639 5.19665 54.223 4.8375 54.666 4.8375C55.109 4.8375 55.4682 5.19665 55.4682 5.63965V5.70312C55.4682 6.14612 55.109 6.50527 54.666 6.50527C54.223 6.50527 53.8639 6.14612 53.8639 5.70312V5.63965Z" fill="black" stroke="white" stroke-width="0.3"/>
<path d="M37.7031 40H36.2969V32.4304H33V31.2869H41V32.4304H37.7031V40ZM41 30.1435H33V29H41V30.1435Z" fill="#46C770"/>
</g>
<defs>
<clipPath id="clip0">
<rect width="65" height="65" fill="white"/>
</clipPath>
</defs>
</svg>
