<svg width="55" height="55" viewBox="0 0 55 55" fill="none" xmlns="http://www.w3.org/2000/svg">
<path d="M27.5 0C12.3365 0 0 12.3365 0 27.5C0 42.6635 12.3365 55 27.5 55C42.6635 55 55 42.6635 55 27.5C55 12.3365 42.6635 0 27.5 0ZM27.5 53.1667C13.3476 53.1667 1.83333 41.6524 1.83333 27.5C1.83333 13.3476 13.3476 1.83333 27.5 1.83333C41.6524 1.83333 53.1667 13.3476 53.1667 27.5C53.1667 41.6524 41.6524 53.1667 27.5 53.1667Z" fill="#393939"/>
<path d="M27.4998 5.5C26.9938 5.5 26.5832 5.90975 26.5832 6.41667V27.5H12.8332C12.3272 27.5 11.9165 27.9098 11.9165 28.4167C11.9165 28.9236 12.3272 29.3333 12.8332 29.3333H27.4998C28.0058 29.3333 28.4165 28.9236 28.4165 28.4167V6.41667C28.4165 5.90975 28.0058 5.5 27.4998 5.5Z" fill="#46C770"/>
</svg>
