<svg width="69" height="55" viewBox="0 0 69 55" fill="none" xmlns="http://www.w3.org/2000/svg">
<path d="M40.7028 2.98926H27.8494L25.3584 7.07445H43.1937L40.7028 2.98926Z" fill="#46C770"/>
<path d="M49.7196 50.5169L37.0156 46.0332V42.6953L50.8654 47.6772L49.7196 50.5169Z" fill="#46C770"/>
<path d="M28.6962 15.1444H23.3655C22.9669 15.1444 22.6182 14.7957 22.6182 14.3971C22.6182 13.9986 22.9669 13.6498 23.3655 13.6498H27.2016V13.6C27.2016 13.1516 26.8528 12.8029 26.4543 12.7033L23.4153 12.2549C23.0167 12.2051 22.7178 11.8065 22.7676 11.408C22.8175 11.0094 23.216 10.7105 23.6146 10.7603L26.6535 11.2087C27.7994 11.3581 28.6962 12.4044 28.6962 13.5502V15.1444Z" fill="#393939"/>
<path d="M45.385 22.9667H44.2889C42.7944 22.9667 41.5987 21.7711 41.5987 20.2765V18.7819H26.8522V20.2765C26.8522 21.7711 25.6565 22.9667 24.1619 22.9667H23.0659C21.5713 22.9667 20.3757 21.7711 20.3757 20.2765V10.7112L18.8811 10.1631C18.3829 9.96386 18.084 9.5155 18.084 9.0173V7.4729C18.084 6.82525 18.632 6.27724 19.2797 6.27724H21.5215C21.8703 6.27724 22.219 6.07796 22.3684 5.77905L24.6103 1.69385C25.1583 0.647648 26.2544 0 27.45 0H40.8514C42.0471 0 43.1431 0.647648 43.6911 1.69385L45.933 5.77905C46.0825 6.07796 46.4312 6.27724 46.7799 6.27724H49.0218C49.6694 6.27724 50.2175 6.82525 50.2175 7.4729V9.06713C50.2175 9.56532 49.9186 10.0137 49.4204 10.213L47.9258 10.761V20.3263C48.0752 21.771 46.8796 22.9667 45.385 22.9667ZM25.4074 17.3371H43.1431V20.3263C43.1431 20.9739 43.6911 21.522 44.3388 21.522H45.4348C46.0825 21.522 46.6305 20.9739 46.6305 20.3263V9.71477L48.9222 8.86784V7.77182H46.9792C46.0825 7.77182 45.2355 7.27362 44.7871 6.47651L42.5453 2.39132C42.2464 1.84331 41.6485 1.49458 41.0009 1.49458H27.5995C26.9518 1.49458 26.4038 1.84331 26.0551 2.39132L23.8132 6.47651C23.3648 7.27362 22.5179 7.77182 21.6211 7.77182H19.6782V8.86784L21.9699 9.71477V20.3263C21.9699 20.9739 22.5179 21.522 23.1655 21.522H24.2616C24.9092 21.522 25.4573 20.9739 25.4573 20.3263V17.3371H25.4074Z" fill="#393939"/>
<path d="M43.193 7.82173H25.3576C24.9591 7.82173 24.6104 7.47299 24.6104 7.07444C24.6104 6.67588 24.9591 6.32715 25.3576 6.32715H43.193C43.5915 6.32715 43.9403 6.67588 43.9403 7.07444C43.9403 7.47299 43.6414 7.82173 43.193 7.82173Z" fill="#393939"/>
<path d="M45.1862 15.1452H39.8555V13.6008C39.8555 12.4052 40.7523 11.4088 41.8981 11.2593L44.9371 10.811C45.3356 10.7612 45.7342 11.0102 45.784 11.4586C45.8338 11.8572 45.5847 12.2557 45.1364 12.3056L42.0973 12.7539C41.649 12.8037 41.35 13.2023 41.35 13.6507V13.7005H45.1862C45.5847 13.7005 45.9335 14.0492 45.9335 14.4478C45.9335 14.7965 45.6345 15.1452 45.1862 15.1452Z" fill="#393939"/>
<path d="M37.6624 15.2446H30.9367C30.5382 15.2446 30.1895 14.8958 30.1895 14.4973C30.1895 14.0987 30.5382 13.75 30.9367 13.75H37.6624C38.0609 13.75 38.4096 14.0987 38.4096 14.4973C38.4096 14.8958 38.0609 15.2446 37.6624 15.2446Z" fill="#393939"/>
<path d="M37.6635 15.2454C37.6137 15.2454 37.6136 15.2454 37.5638 15.2454C37.1652 15.1955 36.8664 14.8468 36.9162 14.3984L37.1154 12.5551H31.4859L31.6852 14.3984C31.735 14.797 31.436 15.1955 31.0375 15.2454C30.6389 15.2952 30.2404 14.9963 30.1906 14.5977L29.792 11.1104H38.8093L38.4108 14.5977C38.3609 14.9464 38.0122 15.2454 37.6635 15.2454Z" fill="#393939"/>
<path d="M26.1561 18.8315H24.1633C23.7648 18.8315 23.416 18.4828 23.416 18.0842C23.416 17.6856 23.7648 17.3369 24.1633 17.3369H26.1561C26.5546 17.3369 26.9034 17.6856 26.9034 18.0842C26.9034 18.4828 26.6045 18.8315 26.1561 18.8315Z" fill="#393939"/>
<path d="M44.9863 18.8315H42.3957C41.9972 18.8315 41.6484 18.4828 41.6484 18.0842C41.6484 17.6856 41.9972 17.3369 42.3957 17.3369H44.9863C45.3849 17.3369 45.7336 17.6856 45.7336 18.0842C45.7336 18.4828 45.3849 18.8315 44.9863 18.8315Z" fill="#393939"/>
<path d="M26.1543 18.8315H23.5637C23.1651 18.8315 22.8164 18.4828 22.8164 18.0842C22.8164 17.6856 23.1651 17.3369 23.5637 17.3369H26.1543C26.5528 17.3369 26.9016 17.6856 26.9016 18.0842C26.9016 18.4828 26.6027 18.8315 26.1543 18.8315Z" fill="#393939"/>
<path d="M18.9808 50.516L31.6848 46.0322V42.6943L17.835 47.6763L18.9808 50.516Z" fill="#46C770"/>
<path d="M31.5357 43.4412C31.187 43.4412 30.888 43.2419 30.8382 42.8932L29.6924 38.808C28.696 35.3206 26.2549 32.4809 23.0166 30.9864L20.1769 29.6412C18.2837 28.7445 16.8888 27.1004 16.291 25.1077L14.8462 20.0759L14.9957 19.0795C15.195 17.7344 14.5473 16.3893 13.4014 15.6918L13.3516 15.642C13.0029 15.4427 12.9033 14.9445 13.1025 14.5958C13.3018 14.247 13.8 14.1474 14.1487 14.3467L14.1985 14.3965C15.8426 15.4427 16.7394 17.3359 16.4903 19.2788L16.3906 19.9265L17.7358 24.6593C18.1841 26.2535 19.2802 27.5488 20.7747 28.2463L23.6144 29.5914C27.301 31.2853 29.9913 34.4737 31.1371 38.4094L32.283 42.4946C32.3826 42.8932 32.1833 43.2917 31.7848 43.4412C31.6852 43.4412 31.6353 43.4412 31.5357 43.4412Z" fill="#393939"/>
<path d="M19.9776 47.576C19.7285 47.576 19.4296 47.4265 19.3299 47.1774C18.4332 45.4337 16.7891 44.2381 14.9458 43.8395C14.7465 43.7897 14.4975 43.7399 14.2982 43.6901C10.9603 42.8431 7.97111 40.5514 6.17761 37.4128C3.88592 33.4273 0.498206 29.3421 0.448386 29.2923L0 28.7941L0.448386 28.2959C0.498206 28.2461 1.74373 26.9507 3.78632 27.0504C5.57981 27.15 7.27362 28.2461 8.96748 30.3883C10.8606 32.8294 13.8996 34.1746 16.839 33.9255C17.0382 33.9255 17.2375 33.8756 17.387 33.8756C17.7855 33.8258 18.1841 34.1247 18.2339 34.5233C18.2837 34.9218 17.9848 35.3204 17.5863 35.3702C17.387 35.42 17.1379 35.42 16.9386 35.42C13.4512 35.719 10.0137 34.1746 7.77186 31.3349C6.42674 29.5912 5.03175 28.6446 3.73645 28.5948C3.03898 28.545 2.4412 28.7941 2.04264 28.9934C3.08885 30.2887 5.57978 33.4771 7.42309 36.7154C9.06713 39.5551 11.6577 41.5478 14.5971 42.2951C14.7964 42.3449 14.9956 42.3948 15.1949 42.4446C17.5364 42.9428 19.4794 44.4373 20.6252 46.5297C20.8245 46.8785 20.675 47.3269 20.3263 47.5261C20.2267 47.576 20.0772 47.576 19.9776 47.576Z" fill="#393939"/>
<path d="M4.08562 28.5452C3.73688 28.5452 3.43797 28.2961 3.33833 27.9474L1.89355 21.2218L1.94336 21.0225L6.32749 7.52148L7.02497 7.67094C8.07118 7.92003 9.96429 9.3648 9.36646 12.8023L7.52316 21.0225L8.76865 26.1539C8.86829 26.5525 8.61914 26.951 8.22059 27.0507C7.82203 27.1503 7.42351 26.9012 7.32387 26.5027L5.97872 21.0723L7.92168 12.5532C8.2206 10.8594 7.72244 9.96263 7.27407 9.56408L3.43794 21.3214L4.83291 27.6485C4.93255 28.047 4.68346 28.4456 4.28491 28.5452C4.18527 28.5452 4.13544 28.5452 4.08562 28.5452Z" fill="#393939"/>
<path d="M11.209 26.3528C10.8603 26.3528 10.5614 26.1536 10.5116 25.8048L9.06684 20.7233L10.8603 11.4569C11.4582 9.16518 10.6112 7.96951 9.96355 7.4215L9.11665 10.0121C8.96719 10.4107 8.56862 10.6099 8.17007 10.5103C7.77151 10.3608 7.57224 9.9623 7.67188 9.56374L9.01703 5.37891L9.76432 5.628C11.0596 6.1262 13.2517 8.01934 12.3051 11.8056L10.6112 20.6734L11.9563 25.4063C12.056 25.8048 11.8567 26.2034 11.4581 26.3528C11.3087 26.3528 11.2589 26.3528 11.209 26.3528Z" fill="#393939"/>
<path d="M14.1985 25.7055C13.8498 25.7055 13.5509 25.5062 13.5011 25.1574L12.0065 19.9762L13.0527 14.4463C13.3517 12.9517 12.704 11.4073 11.5084 10.5106L11.3589 10.4109C11.0101 10.1618 10.9603 9.71345 11.2094 9.36471C11.4585 9.01597 11.9069 8.96616 12.2556 9.21526L12.4051 9.3149C14.0989 10.5604 14.9459 12.6528 14.5473 14.7452L13.5509 19.9264L14.9458 24.7589C15.0455 25.1575 14.8462 25.556 14.4476 25.7055C14.348 25.7055 14.2484 25.7055 14.1985 25.7055Z" fill="#393939"/>
<path d="M20.3261 54.999C20.0271 54.999 19.7282 54.7997 19.6286 54.5507L16.9882 47.9745C16.8886 47.7752 16.9384 47.5759 16.9882 47.3767C17.0878 47.1774 17.2372 47.0279 17.4365 46.9781L31.2863 41.9962C31.5354 41.8965 31.7845 41.9464 31.9838 42.0958C32.1831 42.2453 32.2827 42.4446 32.2827 42.6937V46.0315C32.2827 46.4301 31.934 46.7788 31.5354 46.7788C31.1369 46.7788 30.7881 46.4301 30.7881 46.0315V43.7398L18.682 48.0741L20.7744 53.3052L29.8913 50.5153C30.2899 50.4156 30.6885 50.6149 30.8379 51.0135C30.9376 51.412 30.7383 51.8106 30.3397 51.96L20.5752 54.9492C20.4755 54.999 20.4257 54.999 20.3261 54.999Z" fill="#393939"/>
<path d="M18.8311 51.2623C18.5322 51.2623 18.2332 51.063 18.1336 50.7641C17.9841 50.3656 18.1834 49.967 18.582 49.8175L31.2859 45.3338C31.6845 45.1843 32.083 45.3836 32.2325 45.7822C32.382 46.1807 32.1827 46.5793 31.7841 46.7287L19.0802 51.2125C19.0304 51.2623 18.9307 51.2623 18.8311 51.2623Z" fill="#393939"/>
<path d="M37.0177 43.4422C36.9679 43.4422 36.8682 43.4422 36.8184 43.3923C36.4198 43.2927 36.1708 42.8443 36.3202 42.4458L37.4661 38.3606C38.5621 34.4747 41.3022 31.2862 44.9888 29.5426L47.8285 28.1974C49.323 27.5 50.4191 26.2047 50.8675 24.6104L52.2126 19.8776L52.113 19.23C51.8639 17.287 52.7606 15.3939 54.4047 14.3477L54.4545 14.2979C54.8032 14.0986 55.2516 14.1982 55.5007 14.547C55.6999 14.8957 55.6003 15.344 55.2516 15.5931L55.2017 15.643C54.0559 16.3404 53.4083 17.6856 53.6076 19.0307L53.757 20.0271L52.3122 25.0588C51.7642 27.0516 50.3195 28.6956 48.4263 29.5924L45.5866 30.9375C42.2985 32.4321 39.8574 35.3216 38.9109 38.7591L37.765 42.8443C37.6653 43.2429 37.3664 43.4422 37.0177 43.4422Z" fill="#393939"/>
<path d="M48.6256 47.5769C48.526 47.5769 48.3765 47.5271 48.2768 47.4773C47.9281 47.278 47.7787 46.8296 47.9779 46.4809C49.1238 44.3387 51.0667 42.8441 53.4083 42.3957C53.6075 42.3459 53.8068 42.2961 54.0061 42.2463C56.9454 41.499 59.5858 39.4564 61.1801 36.6665C63.0234 33.4282 65.5144 30.2398 66.5606 28.9445C66.162 28.7452 65.614 28.4961 64.8667 28.5459C63.5714 28.6456 62.1765 29.5423 60.8313 31.286C58.5895 34.1755 55.1519 35.6701 51.6646 35.3712C51.4653 35.3712 51.266 35.3214 51.0169 35.3214C50.6183 35.2716 50.3195 34.873 50.3693 34.4745C50.4191 34.0759 50.8176 33.777 51.2162 33.8268C51.4155 33.8766 51.6147 33.8766 51.7642 33.8766C54.7035 34.1257 57.7425 32.7806 59.6357 30.3394C61.2797 28.1972 63.0234 27.1012 64.8169 27.0016C66.8595 26.9019 68.1049 28.1972 68.1548 28.247L68.6031 28.7452L68.1548 29.2434C68.1049 29.2932 64.7172 33.3784 62.4255 37.364C60.5822 40.5524 57.6429 42.8441 54.305 43.6412C54.1057 43.691 53.8566 43.7408 53.6573 43.7907C51.7642 44.1892 50.17 45.3849 49.2732 47.1286C49.1238 47.4275 48.8747 47.5769 48.6256 47.5769Z" fill="#393939"/>
<path d="M64.4686 28.5452C64.4188 28.5452 64.369 28.5452 64.3192 28.5452C63.9206 28.4456 63.6715 28.047 63.7711 27.6485L65.1661 21.3214L61.33 9.56406C60.8817 10.0124 60.4333 10.8594 60.7322 12.603L62.6751 21.0723L61.33 26.5026C61.2304 26.9012 60.8318 27.1503 60.4333 27.0506C60.0347 26.951 59.7856 26.5525 59.8853 26.1539L61.1307 21.0225L59.2874 12.8521C58.6896 9.36477 60.5329 7.96984 61.6289 7.72074L62.3264 7.57129L66.8102 21.2716L65.3654 27.9972C65.1163 28.346 64.8174 28.5452 64.4686 28.5452Z" fill="#393939"/>
<path d="M57.3938 26.3538C57.344 26.3538 57.2444 26.3538 57.1946 26.304C56.796 26.2044 56.5469 25.756 56.6964 25.3574L58.0415 20.6246L56.3477 11.7069C55.4011 7.9705 57.5931 6.07737 58.8884 5.57917L59.6357 5.33008L60.9808 9.5149C61.1303 9.91345 60.8812 10.312 60.4826 10.4615C60.0841 10.6109 59.6855 10.3618 59.536 9.96327L58.6891 7.37266C58.0415 7.92067 57.1945 9.06652 57.7924 11.3582L59.5859 20.6246L58.1411 25.7062C57.9917 26.1546 57.6928 26.3538 57.3938 26.3538Z" fill="#393939"/>
<path d="M54.3527 25.7066C54.3028 25.7066 54.2032 25.7066 54.1534 25.6568C53.7548 25.5571 53.5057 25.1088 53.6552 24.7102L55.0501 19.8777L54.0537 14.6965C53.6551 12.6539 54.5021 10.5117 56.1959 9.26621L56.3454 9.16657C56.6942 8.91747 57.1425 9.01712 57.3916 9.31604C57.6407 9.66477 57.5411 10.1131 57.2421 10.3622L57.0927 10.4619C55.8472 11.3586 55.2494 12.903 55.5483 14.3976L56.5945 19.9275L55.0999 25.1088C55.0003 25.5073 54.7014 25.7066 54.3527 25.7066Z" fill="#393939"/>
<path d="M48.2262 55.0004C48.1763 55.0004 48.0767 55.0004 48.0269 54.9506L38.2623 51.9614C37.8637 51.8618 37.6645 51.4134 37.7641 51.0149C37.8637 50.6163 38.3121 50.417 38.7107 50.5167L47.8276 53.3066L49.92 48.0755L37.8139 43.7412V46.0329C37.8139 46.4315 37.4652 46.7802 37.0666 46.7802C36.6681 46.7802 36.3193 46.4315 36.3193 46.0329V42.6951C36.3193 42.446 36.419 42.2467 36.6182 42.0972C36.8175 41.9478 37.0666 41.9477 37.3157 41.9976L51.1655 46.9795C51.3648 47.0293 51.5143 47.1788 51.6139 47.3781C51.7135 47.5773 51.7135 47.7766 51.6139 47.9759L48.9735 54.552C48.824 54.8011 48.5251 55.0004 48.2262 55.0004Z" fill="#393939"/>
<path d="M49.7206 51.2633C49.6209 51.2633 49.5711 51.2633 49.4715 51.2135L36.7675 46.7297C36.369 46.5803 36.1697 46.1817 36.3192 45.7831C36.4686 45.3846 36.8672 45.1853 37.2657 45.3348L49.9697 49.8185C50.3682 49.968 50.5675 50.3665 50.418 50.7651C50.3184 51.064 50.0195 51.2633 49.7206 51.2633Z" fill="#393939"/>
</svg>
