<svg width="53" height="57" viewBox="0 0 53 57" fill="none" xmlns="http://www.w3.org/2000/svg">
<path d="M31.5004 20.3964H34.5034C34.8918 20.3964 35.2069 20.0812 35.2069 19.6928C35.2069 19.3039 34.8918 18.9893 34.5034 18.9893H31.5004C31.1116 18.9893 30.7969 19.3039 30.7969 19.6928C30.7969 20.0812 31.1116 20.3964 31.5004 20.3964Z" fill="#46C770"/>
<path d="M18.2758 20.3964H28.8081C29.1969 20.3964 29.5116 20.0812 29.5116 19.6928C29.5116 19.3039 29.1969 18.9893 28.8081 18.9893H18.2758C17.8874 18.9893 17.5723 19.3039 17.5723 19.6928C17.5723 20.0812 17.8874 20.3964 18.2758 20.3964Z" fill="#46C770"/>
<path d="M11.0512 20.3964H15.5304C15.9188 20.3964 16.234 20.0812 16.234 19.6928C16.234 19.3039 15.9188 18.9893 15.5304 18.9893H11.0512C10.6623 18.9893 10.3477 19.3039 10.3477 19.6928C10.3477 20.0812 10.6623 20.3964 11.0512 20.3964Z" fill="#46C770"/>
<path d="M27.1354 25.1895H14.6606C14.2717 25.1895 13.957 25.5046 13.957 25.893C13.957 26.2814 14.2717 26.5966 14.6606 26.5966H27.1354C27.5238 26.5966 27.8389 26.2814 27.8389 25.893C27.8389 25.5046 27.5238 25.1895 27.1354 25.1895Z" fill="#46C770"/>
<path d="M11.0512 26.5966H12.3571C12.7455 26.5966 13.0606 26.2814 13.0606 25.893C13.0606 25.5046 12.7455 25.1895 12.3571 25.1895H11.0512C10.6623 25.1895 10.3477 25.5046 10.3477 25.893C10.3477 26.2814 10.6623 26.5966 11.0512 26.5966Z" fill="#46C770"/>
<path d="M11.0512 33.1815H19.4068C19.7957 33.1815 20.1104 32.8664 20.1104 32.478C20.1104 32.0895 19.7957 31.7744 19.4068 31.7744H11.0512C10.6623 31.7744 10.3477 32.0895 10.3477 32.478C10.3477 32.8664 10.6623 33.1815 11.0512 33.1815Z" fill="#46C770"/>
<path d="M14.4288 37.8604H11.0512C10.6623 37.8604 10.3477 38.1755 10.3477 38.5639C10.3477 38.9528 10.6623 39.2675 11.0512 39.2675H14.4288C14.8172 39.2675 15.1324 38.9528 15.1324 38.5639C15.1324 38.1755 14.8172 37.8604 14.4288 37.8604Z" fill="#46C770"/>
<path d="M51.8239 15.5849C50.9119 14.2007 49.0513 13.8155 47.6653 14.7242L46.9013 15.2263H46.8995L45.5537 16.1117V5.76218C45.5519 4.10452 44.2085 2.76108 42.5508 2.75925H27.1473C26.3443 1.07365 24.6441 0 22.7771 0C20.9096 0 19.2094 1.07365 18.4064 2.75925H3.00293C1.34527 2.76108 0.00183217 4.10452 0 5.76218V53.5878C0.00274831 55.245 1.34573 56.5875 3.00293 56.5898H42.5508C44.208 56.588 45.551 55.245 45.5537 53.5878V24.7888L51.6471 20.7851C53.0313 19.8731 53.4165 18.013 52.5077 16.6265L51.8239 15.5849ZM25.7063 36.1455L24.8745 34.879L48.6895 19.2309L49.5217 20.4974L25.7063 36.1455ZM38.8141 42.2444H35.1126C33.455 42.2462 32.1115 43.5892 32.1097 45.2468V48.8507H7.18577C6.93981 48.8503 6.74056 48.6505 6.7401 48.4046V10.9449C6.74056 10.6985 6.93981 10.4993 7.18577 10.4983H10.3472V12.4299C10.3472 12.8183 10.6619 13.1335 11.0507 13.1335H34.5034C34.8919 13.1335 35.207 12.8183 35.207 12.4299V10.4983H38.3679C38.6139 10.4988 38.8136 10.6985 38.8141 10.9449V20.54L21.9091 31.6475C21.8981 31.6549 21.888 31.6627 21.8775 31.6709C21.8711 31.6755 21.8647 31.6801 21.8583 31.6851C21.8367 31.7021 21.8161 31.7204 21.7964 31.7396L21.7955 31.7405C21.7767 31.7598 21.7589 31.7804 21.7424 31.8019C21.7383 31.8069 21.7346 31.812 21.7305 31.817C21.7172 31.8349 21.7048 31.8537 21.6934 31.8729C21.6911 31.8761 21.6888 31.8789 21.6865 31.8825L18.4903 37.3905L17.5403 38.0143C17.2155 38.2278 17.1253 38.6638 17.3387 38.9886C17.5522 39.3134 17.9883 39.4036 18.313 39.1901L19.263 38.5663L25.5867 37.8188C25.5904 37.8188 25.5941 37.8174 25.5977 37.8169C25.6092 37.8151 25.6202 37.8128 25.6316 37.8105C25.6522 37.8068 25.6724 37.8027 25.6921 37.7972C25.704 37.794 25.7159 37.7899 25.7273 37.7853C25.7466 37.7789 25.7654 37.772 25.7837 37.7642C25.7951 37.7592 25.807 37.7537 25.818 37.7482C25.8359 37.7391 25.8533 37.7294 25.8703 37.7189C25.8771 37.7148 25.884 37.712 25.8909 37.707L38.8141 29.2167V42.2444ZM37.8476 43.6515L33.5168 47.9823V45.2468C33.5177 44.366 34.2318 43.6524 35.1126 43.6515H37.8476ZM24.2914 36.5546L20.3307 37.0231L22.3328 33.5732L23.3121 35.0641L24.2914 36.5546ZM24.1017 33.7032L23.2699 32.4368L45.2427 17.9997L45.2441 17.9988L47.085 16.7891L47.9172 18.0556L24.1017 33.7032ZM42.5508 4.16636C43.4316 4.16727 44.1452 4.8809 44.1466 5.76218V17.036L40.2212 19.6157V10.9449C40.2198 9.92166 39.3908 9.09261 38.3679 9.09123H35.207V6.91186C35.207 6.52299 34.8919 6.20831 34.5034 6.20831H27.6191V4.84243C27.6186 4.61615 27.6026 4.39034 27.571 4.16636H42.5508ZM22.7771 1.40757C24.6734 1.4094 26.2106 2.94659 26.2124 4.84334V6.91186C26.2124 7.30028 26.5275 7.61542 26.916 7.61542H33.8003V11.7264H11.7543V7.61542H18.6382C19.0266 7.61542 19.3418 7.30028 19.3418 6.91186V4.84243C19.3441 2.94613 20.8808 1.40986 22.7771 1.40757ZM44.1466 53.5878C44.1448 54.4682 43.4312 55.1818 42.5508 55.1827H3.00293C2.12257 55.1813 1.40894 54.4682 1.40711 53.5878V5.76218C1.40802 4.88136 2.12211 4.16727 3.00293 4.16636H17.9828C17.9512 4.39034 17.9351 4.61615 17.9347 4.84243V6.20831H11.0507C10.6619 6.20831 10.3472 6.52299 10.3472 6.91186V9.09123H7.18577C6.16296 9.09306 5.33437 9.92166 5.33299 10.9449V48.405C5.33437 49.4274 6.16296 50.2564 7.18577 50.2578H32.368C32.4615 50.2569 32.5545 50.25 32.6465 50.2372C32.701 50.2505 32.7569 50.2574 32.8133 50.2578C33.0166 50.2578 33.2099 50.1694 33.3428 50.0164C33.5264 49.9189 33.6941 49.7947 33.8411 49.6477L39.6111 43.8787C40.0027 43.4889 40.2221 42.9585 40.2207 42.4056V28.2919L44.1462 25.7122L44.1466 53.5878ZM50.8743 19.6093L50.6975 19.7252L48.2612 16.0168L48.438 15.901C49.1746 15.4168 50.1639 15.6215 50.6476 16.3581L51.3315 17.3992C51.8143 18.1357 51.6095 19.1242 50.8743 19.6088V19.6093Z" fill="black"/>
</svg>
