<svg width="52" height="52" viewBox="0 0 52 52" fill="none" xmlns="http://www.w3.org/2000/svg">
<g clip-path="url(#clip0)">
<path d="M26.5676 10.0091L26.565 9.88411C26.5549 9.88432 26.5462 9.88449 26.5377 9.88449C26.2463 9.88449 25.9664 9.75668 25.7669 9.52888L25.7669 9.52888L24.3559 7.91799L24.3559 7.91796C24.1244 7.65377 24.151 7.25179 24.4153 7.02029C24.6798 6.78885 25.0816 6.81539 25.313 7.07965L25.313 7.07966L26.4284 8.35309L26.5276 8.46636L26.6207 8.34799L28.7902 5.58881L28.7902 5.58879C29.0073 5.31258 29.4072 5.26453 29.6835 5.4819L29.6835 5.48195C29.9597 5.69898 30.0075 6.09902 29.7904 6.37522L27.3457 9.48434L27.3457 9.48435C27.1516 9.73131 26.8664 9.87602 26.5642 9.88413L26.5676 10.0091ZM26.5676 10.0091C26.9081 9.99995 27.2276 9.83685 27.444 9.56161L25.407 6.9973C25.1301 6.68105 24.6493 6.64938 24.3329 6.92625C24.0167 7.20323 23.9848 7.6842 24.2619 8.00035L25.6728 9.61124C25.8954 9.86537 26.2092 10.0095 26.5377 10.0095C26.5477 10.0095 26.5577 10.0093 26.5676 10.0091Z" fill="#46C770" stroke="white" stroke-width="0.25"/>
<path d="M32.6089 5.34668H45.5973C45.9487 5.34668 46.2334 5.63143 46.2334 5.98287C46.2334 6.33432 45.9487 6.61907 45.5973 6.61907H32.6089C32.2574 6.61907 31.9727 6.33432 31.9727 5.98287C31.9727 5.63143 32.2574 5.34668 32.6089 5.34668Z" fill="black" stroke="white" stroke-width="0.25"/>
<path d="M32.6089 8.6123H45.5973C45.9487 8.6123 46.2334 8.89705 46.2334 9.2485C46.2334 9.59995 45.9487 9.8847 45.5973 9.8847H32.6089C32.2574 9.8847 31.9727 9.59995 31.9727 9.2485C31.9727 8.89705 32.2574 8.6123 32.6089 8.6123Z" fill="black" stroke="white" stroke-width="0.25"/>
<path d="M29.6835 14.6704L29.6835 14.6704C29.4072 14.453 29.0073 14.5011 28.7902 14.7773L28.7902 14.7773L26.6207 17.5366L26.5276 17.6549L26.4284 17.5417L25.313 16.2682L25.313 16.2682C25.0815 16.0039 24.6797 15.9774 24.4153 16.2089L29.6835 14.6704ZM29.6835 14.6704C29.9597 14.8876 30.0075 15.2876 29.7904 15.5638L27.3457 18.6729L27.3457 18.6729C27.1516 18.9199 26.8664 19.0646 26.5642 19.0727L26.5676 19.1977M29.6835 14.6704L24.3559 17.1065M26.5676 19.1977C26.9081 19.1885 27.2276 19.0254 27.444 18.7502L26.5676 19.1977ZM26.5676 19.1977L26.565 19.0727C26.5549 19.0729 26.5462 19.0731 26.5377 19.0731C26.2463 19.0731 25.9664 18.9453 25.7669 18.7175L25.7669 18.7175L24.3559 17.1066L24.3559 17.1065M24.3559 17.1065C24.1244 16.8424 24.151 16.4404 24.4153 16.2089L24.3559 17.1065Z" fill="#46C770" stroke="white" stroke-width="0.25"/>
<path d="M32.6089 14.5342H45.5973C45.9487 14.5342 46.2334 14.8189 46.2334 15.1704C46.2334 15.5218 45.9487 15.8066 45.5973 15.8066H32.6089C32.2574 15.8066 31.9727 15.5218 31.9727 15.1704C31.9727 14.8189 32.2574 14.5342 32.6089 14.5342Z" fill="black" stroke="white" stroke-width="0.25"/>
<path d="M32.6089 17.7998H45.5973C45.9487 17.7998 46.2334 18.0846 46.2334 18.436C46.2334 18.7874 45.9487 19.0722 45.5973 19.0722H32.6089C32.2574 19.0722 31.9727 18.7874 31.9727 18.436C31.9727 18.0846 32.2574 17.7998 32.6089 17.7998Z" fill="black" stroke="white" stroke-width="0.25"/>
<path d="M29.6835 23.8579L29.6835 23.8579C29.9597 24.0751 30.0075 24.4751 29.7904 24.7513L27.3457 27.8605C27.1514 28.1076 26.8662 28.2522 26.564 28.2601L26.5634 28.2602C26.5553 28.2604 26.5468 28.2605 26.5377 28.2605C26.2461 28.2605 25.9662 28.1327 25.7668 27.9048L25.7668 27.9048L24.3559 26.2941L24.3559 26.2941C24.1244 26.0299 24.151 25.6279 24.4153 25.3964L24.4153 25.3964C24.6795 25.1648 25.0815 25.1914 25.313 25.4558L25.313 25.4558L26.4284 26.7291L26.5276 26.8424L26.6207 26.724L28.7902 23.9648L28.7902 23.9648C29.0073 23.6885 29.4072 23.6405 29.6835 23.8579Z" fill="#46C770" stroke="white" stroke-width="0.25"/>
<path d="M32.6089 23.7217H45.5973C45.9487 23.7217 46.2334 24.0064 46.2334 24.3579C46.2334 24.7093 45.9487 24.9941 45.5973 24.9941H32.6089C32.2574 24.9941 31.9727 24.7093 31.9727 24.3579C31.9727 24.0064 32.2574 23.7217 32.6089 23.7217Z" fill="black" stroke="white" stroke-width="0.25"/>
<path d="M32.6089 26.9883H45.5973C45.9487 26.9883 46.2334 27.273 46.2334 27.6245C46.2334 27.9759 45.9487 28.2607 45.5973 28.2607H32.6089C32.2574 28.2607 31.9727 27.9759 31.9727 27.6245C31.9727 27.273 32.2574 26.9883 32.6089 26.9883Z" fill="black" stroke="white" stroke-width="0.25"/>
<path d="M25.6727 37.1756C25.8952 37.4299 26.2091 37.574 26.5377 37.574C26.5476 37.574 26.5574 37.5739 26.5673 37.5736L25.6727 37.1756ZM25.6727 37.1756L24.2619 35.5649L25.6727 37.1756ZM29.6835 33.0464L29.6835 33.0464C29.9597 33.2635 30.0076 33.6635 29.7904 33.9398C29.7904 33.9398 29.7904 33.9398 29.7904 33.9398L27.3457 37.0489C27.1514 37.2961 26.8662 37.4407 26.564 37.4486L26.5634 37.4486C26.5553 37.4489 26.5468 37.449 26.5377 37.449C26.2461 37.449 25.9662 37.3212 25.7668 37.0933L25.7668 37.0933L24.3559 35.4826L24.3559 35.4825C24.1244 35.2184 24.151 34.8164 24.4153 34.5849L24.4153 34.5848C24.6795 34.3533 25.0815 34.3798 25.313 34.6442L25.313 34.6442L26.4284 35.9176L26.5276 36.0308L26.6207 35.9125L28.7902 33.1533L28.7902 33.1533C29.0073 32.877 29.4072 32.829 29.6835 33.0464Z" fill="#46C770" stroke="white" stroke-width="0.25"/>
<path d="M32.6089 32.9102H45.5973C45.9487 32.9102 46.2334 33.1949 46.2334 33.5464C46.2334 33.8978 45.9487 34.1826 45.5973 34.1826H32.6089C32.2574 34.1826 31.9727 33.8978 31.9727 33.5464C31.9727 33.1949 32.2574 32.9102 32.6089 32.9102Z" fill="black" stroke="white" stroke-width="0.25"/>
<path d="M45.5973 36.1768C45.9487 36.1768 46.2334 36.4615 46.2334 36.813C46.2334 37.1644 45.9487 37.4492 45.5973 37.4492H32.6089C32.2574 37.4492 31.9727 37.1644 31.9727 36.813C31.9727 36.4615 32.2574 36.1768 32.6089 36.1768H45.5973Z" fill="black" stroke="white" stroke-width="0.25"/>
<path d="M25.6727 46.3631C25.8952 46.6174 26.2091 46.7615 26.5377 46.7615C26.5476 46.7615 26.5574 46.7614 26.5673 46.7611C26.9078 46.7521 27.2274 46.5891 27.444 46.3137L25.6727 46.3631ZM25.6727 46.3631L24.2619 44.7524L25.6727 46.3631ZM29.6835 42.2339L29.6835 42.2339C29.9597 42.4511 30.0075 42.8511 29.7904 43.1273L27.3457 46.2364C27.1514 46.4836 26.8662 46.6282 26.564 46.6361L26.5634 46.6361C26.5553 46.6364 26.5468 46.6365 26.5377 46.6365C26.2461 46.6365 25.9662 46.5087 25.7668 46.2808L25.7668 46.2808L24.3559 44.6701L24.3559 44.6701C24.1244 44.4059 24.151 44.0039 24.4153 43.7724L24.4153 43.7723C24.6795 43.5407 25.0815 43.5673 25.313 43.8317L25.313 43.8318L26.4284 45.1051L26.5276 45.2183L26.6207 45.1L28.7902 42.3408L28.7902 42.3408C29.0073 42.0645 29.4072 42.0165 29.6835 42.2339Z" fill="#46C770" stroke="white" stroke-width="0.25"/>
<path d="M32.6088 42.0977H37.7895C38.141 42.0977 38.4257 42.3824 38.4257 42.7339C38.4257 43.0853 38.141 43.37 37.7895 43.37H32.6088C32.2574 43.37 31.9727 43.0853 31.9727 42.7339C31.9727 42.3824 32.2574 42.0977 32.6088 42.0977Z" fill="black" stroke="white" stroke-width="0.25"/>
<path d="M32.6088 45.3643H37.7895C38.141 45.3643 38.4257 45.649 38.4257 46.0005C38.4257 46.3519 38.141 46.6366 37.7895 46.6366H32.6088C32.2574 46.6366 31.9727 46.3519 31.9727 46.0005C31.9727 45.649 32.2574 45.3643 32.6088 45.3643Z" fill="black" stroke="white" stroke-width="0.25"/>
<path d="M48.9434 43.4208H48.8184H43.8467C42.5477 43.4208 41.4906 44.4778 41.4906 45.7768V50.4603V50.5853H41.3656H16.9441H16.7156L16.8388 50.3928C17.1543 49.9004 17.338 49.3161 17.338 48.6893V35.9119V35.7064L17.5205 35.8009C17.901 35.9979 18.3336 36.11 18.7929 36.11C20.2789 36.11 21.4882 34.9007 21.4882 33.4146V26.0505C21.4882 23.8888 20.8014 21.8376 19.5017 20.1174C18.2451 18.4539 16.4583 17.2093 14.4715 16.6132L14.4715 16.6132C14.3256 16.5693 14.2299 16.4309 14.2299 16.2811V15.6956V15.614L14.3046 15.5812C16.7752 14.4944 18.5048 12.0248 18.5048 9.15808C18.5048 6.23823 16.7108 3.72979 14.1667 2.67563L14.0896 2.64366V2.56015V1.77612C14.0896 1.56713 14.2593 1.39739 14.4683 1.39739H40.437C40.7884 1.39739 41.0732 1.11264 41.0732 0.761194C41.0732 0.409746 40.7884 0.125 40.437 0.125H14.4682C13.5579 0.125 12.8171 0.865853 12.8171 1.77612V2.12211V2.27019L12.6711 2.24533C12.2866 2.17986 11.8926 2.14399 11.4904 2.14399C7.62284 2.14399 4.4761 5.29072 4.4761 9.15828C4.4761 12.1341 6.34002 14.682 8.96176 15.6991L9.04154 15.7301V15.8157V16.2812C9.04154 16.431 8.94586 16.5694 8.79998 16.6133L8.79994 16.6133C7.7523 16.9277 6.76952 17.4127 5.8789 18.0548C5.59389 18.2603 5.5294 18.6579 5.73485 18.943L48.9434 43.4208ZM48.9434 43.4208V43.2958M48.9434 43.4208V43.2958M48.9434 43.2958V1.77612C48.9434 1.56713 48.7737 1.39739 48.5647 1.39739H43.9637C43.6123 1.39739 43.3275 1.11264 43.3275 0.761194C43.3275 0.409746 43.6123 0.125 43.9637 0.125H48.4397H48.5647C49.4751 0.125 50.2158 0.865849 50.2158 1.77612V44.1557C50.2158 44.3303 50.1441 44.4972 50.0173 44.6173C48.9555 45.6237 46.0693 48.3601 44.3803 49.9615C43.8593 50.4555 43.4522 50.8415 43.2477 51.0353C43.1738 51.1054 43.1035 51.1756 43.0344 51.2447C42.9009 51.3782 42.7715 51.5075 42.6285 51.6229C42.4196 51.7913 42.1835 51.8523 41.9213 51.8694C41.7894 51.8779 41.6529 51.8753 41.5107 51.8702C41.4787 51.869 41.4463 51.8677 41.4136 51.8664C41.3029 51.8621 41.1888 51.8575 41.0758 51.8575H14.1696C13.1906 51.8575 12.3138 51.4113 11.7319 50.7108L11.6357 50.5951L11.5396 50.7108C10.9576 51.4113 10.0807 51.8575 9.10177 51.8575C7.3549 51.8575 5.93344 50.4362 5.93344 48.6892V35.8878V35.6759M48.9434 43.2958L5.93344 35.6759M9.16559 17.832L9.16565 17.832C9.84103 17.6295 10.314 16.9915 10.314 16.2812V16.2195V16.0746L10.4573 16.0959C10.7948 16.1459 11.1396 16.1726 11.4904 16.1726C11.941 16.1726 12.3813 16.1282 12.809 16.0465L12.9574 16.0181V16.1693V16.2812C12.9574 16.9915 13.4306 17.6295 14.1058 17.832L14.1059 17.832C15.836 18.3512 17.3914 19.4351 18.4863 20.8845C19.6176 22.3818 20.2157 24.1686 20.2157 26.0506V33.4147C20.2157 34.1994 19.5776 34.8377 18.7928 34.8377C18.0646 34.8377 17.4397 34.2941 17.3392 33.6066L17.3379 33.5976V33.5885V25.091C17.3379 24.7395 17.0532 24.4548 16.7017 24.4548C16.3503 24.4548 16.0655 24.7395 16.0655 25.091V48.6893C16.0655 49.7348 15.2151 50.5853 14.1696 50.5853C13.1241 50.5853 12.2736 49.7348 12.2736 48.6893V34.9564C12.2736 34.605 11.9889 34.3203 11.6375 34.3202H11.6375H11.6375C11.2862 34.3202 11.0013 34.6048 11.0013 34.9562L10.9978 48.6893C10.9978 49.7348 10.1474 50.5853 9.10187 50.5853C8.05637 50.5853 7.20592 49.7348 7.20592 48.6893V24.9614C7.20592 24.6099 6.92118 24.3252 6.56973 24.3252C6.21828 24.3252 5.93354 24.6099 5.93354 24.9614V24.9615L5.92755 33.3467L9.16559 17.832ZM9.16559 17.832C8.25401 18.1057 7.39846 18.5279 6.62308 19.087M9.16559 17.832L6.62308 19.087M5.93344 35.6759L5.74801 35.7783M5.93344 35.6759L5.74801 35.7783M5.74801 35.7783C5.36581 35.9894 4.9328 36.11 4.47858 36.11C2.99244 36.11 1.7832 34.9007 1.7832 33.4146V26.0505C1.7832 24.1971 2.30096 22.3912 3.28013 20.8279C3.4666 20.5301 3.85918 20.4402 4.15716 20.6265M5.74801 35.7783L4.15716 20.6265M6.62308 19.087C6.33791 19.2924 5.94038 19.228 5.73487 18.9431L6.62308 19.087ZM4.35854 21.5033C3.50616 22.8641 3.05569 24.4365 3.05569 26.0505V33.4146C3.05569 34.1993 3.69392 34.8376 4.47868 34.8376C5.25651 34.8376 5.9275 34.1397 5.92755 33.3468L4.35854 21.5033ZM4.35854 21.5033C4.54498 21.2055 4.45488 20.813 4.15716 20.6265M4.35854 21.5033L4.15716 20.6265M42.763 49.4338V49.7273L42.9746 49.5239L47.7761 44.9083L47.9998 44.6932H47.6894H43.8467C43.249 44.6932 42.763 45.1792 42.763 45.7768V49.4338ZM5.74849 9.15818C5.74849 12.3245 8.32421 14.9002 11.4904 14.9002C14.6566 14.9002 17.2323 12.3245 17.2323 9.15818C17.2323 5.992 14.6566 3.41628 11.4904 3.41628C8.32421 3.41628 5.74849 5.992 5.74849 9.15818Z" fill="black" stroke="white" stroke-width="0.25"/>
<path d="M11.3989 12.2628L11.3989 12.2627C11.1873 11.9823 10.7885 11.9266 10.5079 12.1382L11.3989 12.2628ZM11.3989 12.2628C11.4272 12.3003 11.4957 12.369 11.6115 12.369C11.7265 12.369 11.7949 12.3012 11.8235 12.2635L11.7238 12.1881L11.8233 12.2638C12.0361 11.984 12.4351 11.9296 12.7149 12.1422C12.9946 12.3549 13.0489 12.7541 12.8363 13.0337C12.5425 13.4201 12.0966 13.6413 11.6115 13.6413C11.132 13.6413 10.6724 13.4124 10.3833 13.0292L10.3833 13.0292M11.3989 12.2628L10.3833 13.0292M10.3833 13.0292C10.1717 12.7487 10.2274 12.3498 10.5079 12.1382L10.3833 13.0292Z" fill="black" stroke="white" stroke-width="0.25"/>
</g>
<defs>
<clipPath id="clip0">
<rect width="52" height="52" fill="white"/>
</clipPath>
</defs>
</svg>
