<svg width="70" height="47" viewBox="0 0 70 47" fill="none" xmlns="http://www.w3.org/2000/svg">
<path d="M36.7719 22.957H31.2146C30.7991 22.957 30.4355 22.5935 30.4355 22.178C30.4355 21.7625 30.7991 21.3989 31.2146 21.3989H35.2138V21.347C35.2138 20.8795 34.8502 20.516 34.4347 20.4121L31.2665 19.9446C30.851 19.8927 30.5394 19.4772 30.5914 19.0617C30.6433 18.6462 31.0588 18.3346 31.4743 18.3865L34.6425 18.854C35.837 19.0098 36.7719 20.1004 36.7719 21.295V22.957Z" fill="#393939"/>
<path d="M54.1707 31.1104H53.0281C51.47 31.1104 50.2235 29.8639 50.2235 28.3057V26.7476H34.85V28.3057C34.85 29.8639 33.6035 31.1104 32.0453 31.1104H30.9027C29.3446 31.1104 28.0981 29.8639 28.0981 28.3057V18.3338L26.54 17.7624C26.0206 17.5547 25.709 17.0873 25.709 16.5679V14.9059C25.709 14.2307 26.2803 13.6594 26.9555 13.6594H29.2927C29.6563 13.6594 30.0198 13.4516 30.1756 13.14L32.5128 8.88112C33.0841 7.79044 34.2267 7.11523 35.4732 7.11523H49.4444C50.6909 7.11523 51.8336 7.79044 52.4049 8.88112L54.7421 13.14C54.8979 13.4516 55.2614 13.6594 55.625 13.6594H57.9622C58.6374 13.6594 59.2087 14.2307 59.2087 14.9059V16.5679C59.2087 17.0873 58.8971 17.5547 58.3777 17.7624L56.8196 18.3338V28.3057C56.9235 29.8639 55.6769 31.1104 54.1707 31.1104ZM33.3438 25.1895H51.8335V28.3057C51.8335 28.9809 52.4049 29.5523 53.08 29.5523H54.2227C54.8979 29.5523 55.4692 28.9809 55.4692 28.3057V17.2431L57.8583 16.3601V15.2694H55.8328C54.8979 15.2694 54.0149 14.7501 53.5475 13.9191L51.2103 9.66019C50.8987 9.08887 50.2754 8.7253 49.6003 8.7253H35.629C34.9539 8.7253 34.3826 9.08887 34.019 9.66019L31.6818 13.9191C31.2144 14.7501 30.3314 15.2694 29.3965 15.2694H27.371V16.4121L29.7601 17.295V28.3577C29.7601 29.0329 30.3314 29.6042 31.0066 29.6042H32.1493C32.8244 29.6042 33.3957 29.0329 33.3957 28.3577V25.1895H33.3438Z" fill="#393939"/>
<path d="M51.8864 15.27H33.2927C32.8772 15.27 32.5137 14.9065 32.5137 14.491C32.5137 14.0755 32.8772 13.7119 33.2927 13.7119H51.8864C52.3019 13.7119 52.6655 14.0755 52.6655 14.491C52.6655 14.9584 52.3019 15.27 51.8864 15.27Z" fill="#393939"/>
<path d="M53.9617 22.9558H48.4043V21.3457C48.4043 20.0992 49.3392 19.0605 50.5337 18.9047L53.702 18.4372C54.1175 18.3853 54.5329 18.645 54.5849 19.1124C54.6368 19.5279 54.3771 19.9434 53.9097 19.9953L50.7415 20.4628C50.274 20.5147 49.9624 20.9302 49.9624 21.3977V21.4496H53.9617C54.3772 21.4496 54.7407 21.8132 54.7407 22.2287C54.7407 22.5922 54.3772 22.9558 53.9617 22.9558Z" fill="#393939"/>
<path d="M46.068 23.0083H39.0564C38.6409 23.0083 38.2773 22.6448 38.2773 22.2293C38.2773 21.8138 38.6409 21.4502 39.0564 21.4502H46.068C46.4835 21.4502 46.847 21.8138 46.847 22.2293C46.847 22.6967 46.4835 23.0083 46.068 23.0083Z" fill="#393939"/>
<path d="M46.0694 23.0091C46.0174 23.0091 46.0175 23.0091 45.9655 23.0091C45.55 22.9571 45.2384 22.5936 45.2903 22.1261L45.4981 20.2044H39.6291L39.8369 22.1261C39.8888 22.5416 39.5772 22.9571 39.1617 23.0091C38.7462 23.061 38.3307 22.7494 38.2787 22.3339L37.8633 18.6982H47.264L46.8484 22.3339C46.7965 22.7494 46.4329 23.0091 46.0694 23.0091Z" fill="#393939"/>
<path d="M34.1222 26.7476H32.0447C31.6292 26.7476 31.2656 26.384 31.2656 25.9685C31.2656 25.553 31.6292 25.1895 32.0447 25.1895H34.1222C34.5377 25.1895 34.9013 25.553 34.9013 25.9685C34.9013 26.436 34.5377 26.7476 34.1222 26.7476Z" fill="#393939"/>
<path d="M53.7025 26.7476H51.0017C50.5862 26.7476 50.2227 26.384 50.2227 25.9685C50.2227 25.553 50.5862 25.1895 51.0017 25.1895H53.7025C54.118 25.1895 54.4816 25.553 54.4816 25.9685C54.4816 26.436 54.1699 26.7476 53.7025 26.7476Z" fill="#393939"/>
<path d="M34.1243 26.7476H31.4236C31.0081 26.7476 30.6445 26.384 30.6445 25.9685C30.6445 25.553 31.0081 25.1895 31.4236 25.1895H34.1243C34.5398 25.1895 34.9034 25.553 34.9034 25.9685C34.9034 26.436 34.5398 26.7476 34.1243 26.7476Z" fill="#393939"/>
<path d="M19.7369 21.8657H10.7517C10.3362 21.8657 9.97266 21.5022 9.97266 21.0867C9.97266 20.6712 10.3362 20.3076 10.7517 20.3076H19.7369C20.1524 20.3076 20.516 20.6712 20.516 21.0867C20.516 21.5541 20.1524 21.8657 19.7369 21.8657Z" fill="#393939"/>
<path d="M19.7369 25.7095H10.7517C10.3362 25.7095 9.97266 25.3459 9.97266 24.9304C9.97266 24.5149 10.3362 24.1514 10.7517 24.1514H19.7369C20.1524 24.1514 20.516 24.5149 20.516 24.9304C20.516 25.3979 20.1524 25.7095 19.7369 25.7095Z" fill="#393939"/>
<path d="M19.7369 29.5532H10.7517C10.3362 29.5532 9.97266 29.1897 9.97266 28.7742C9.97266 28.3587 10.3362 27.9951 10.7517 27.9951H19.7369C20.1524 27.9951 20.516 28.3587 20.516 28.7742C20.516 29.1897 20.1524 29.5532 19.7369 29.5532Z" fill="#393939"/>
<path d="M66.0126 46.8995H3.16818C1.4023 46.8995 0 45.4972 0 43.7313V40.8748C0 40.4593 0.363563 40.0957 0.779063 40.0957H68.4017C68.8172 40.0957 69.1808 40.4593 69.1808 40.8748V43.7313C69.1808 45.4972 67.7785 46.8995 66.0126 46.8995ZM1.55813 41.7058V43.7833C1.55813 44.6662 2.28524 45.3933 3.16818 45.3933H66.0126C66.8956 45.3933 67.6227 44.6662 67.6227 43.7833V41.7058H1.55813Z" fill="#393939"/>
<path d="M63.9884 41.7059H5.19508C4.77958 41.7059 4.41602 41.3423 4.41602 40.9268V3.01237C4.41602 1.35037 5.76639 0 7.42839 0H61.7551C63.4171 0 64.7674 1.35037 64.7674 3.01237V40.9268C64.7674 41.3423 64.4039 41.7059 63.9884 41.7059ZM5.97414 40.1477H63.2093V3.01237C63.2093 2.18137 62.5342 1.55813 61.7551 1.55813H7.42839C6.59739 1.55813 5.97414 2.23331 5.97414 3.01237V40.1477Z" fill="#393939"/>
<path d="M19.9968 7.94727H10.4922V17.0883H19.9968V7.94727Z" fill="#46C770"/>
</svg>
