<svg width="60" height="49" viewBox="0 0 60 49" fill="none" xmlns="http://www.w3.org/2000/svg">
<path d="M25.5705 25.0782H42.9829L39.8618 19.3288C39.6976 19.0003 39.3143 18.7812 38.9858 18.7812H29.5129H20.0402C19.6569 18.7812 19.3283 19.0003 19.1641 19.3288L16.043 25.0782H25.5705Z" fill="#46C770"/>
<path d="M7.06445 0.821289L12.1568 5.96835H46.7078L51.8001 0.930791L7.06445 0.821289Z" fill="#46C770"/>
<path d="M20.6983 37.0154H12.9229C12.4849 37.0154 12.1016 36.6321 12.1016 36.1941C12.1016 35.756 12.4849 35.3727 12.9229 35.3727H19.0556V34.9894C19.0556 34.1681 18.4533 33.4563 17.6319 33.3467L13.0872 32.6897C12.6491 32.6349 12.3206 32.1969 12.3753 31.7588C12.4301 31.3208 12.8682 30.9922 13.3062 31.047L17.8509 31.7041C19.4389 31.9231 20.6983 33.3467 20.6983 34.9894V37.0154Z" fill="#393939"/>
<path d="M46.2698 48.8426H44.6271C42.5464 48.8426 40.9037 47.1451 40.9037 45.1192V42.5456H18.0157V45.1192C18.0157 47.1999 16.3182 48.8426 14.2923 48.8426H12.6496C10.5689 48.8426 8.92619 47.1451 8.92619 45.1192V30.4445L6.46216 29.5684C5.85985 29.3494 5.47656 28.7471 5.47656 28.1448V25.7355C5.47656 24.9142 6.18838 24.2023 7.00972 24.2023H10.4046C11.0617 24.2023 11.664 23.819 11.9925 23.2715L15.3326 17.0841C16.154 15.6056 17.6872 14.6748 19.3298 14.6748H39.5896C41.287 14.6748 42.8202 15.6056 43.5868 17.0841L46.9269 23.2715C47.2554 23.8738 47.8577 24.2023 48.5148 24.2023H51.9097C52.731 24.2023 53.4428 24.9142 53.4428 25.7355V28.1448C53.4428 28.8018 53.0595 29.3494 52.4572 29.5684L49.9932 30.4445V45.1192C49.9932 47.1451 48.3505 48.8426 46.2698 48.8426ZM16.373 40.9029H42.5464V45.1192C42.5464 46.269 43.4772 47.1999 44.6271 47.1999H46.2698C47.4197 47.1999 48.3505 46.269 48.3505 45.1192V29.2946L51.8002 28.0353V25.845H48.5148C47.2554 25.845 46.1055 25.1332 45.5032 24.0381L42.1631 17.8506C41.6703 16.9198 40.6847 16.3175 39.5896 16.3175H19.3298C18.2347 16.3175 17.2491 16.9198 16.7563 17.8506L13.4162 24.0381C12.8139 25.1332 11.664 25.845 10.4046 25.845H7.11924V28.0353L10.5689 29.2946V45.1192C10.5689 46.269 11.4997 47.1999 12.6496 47.1999H14.2923C15.4421 47.1999 16.373 46.269 16.373 45.1192V40.9029Z" fill="#393939"/>
<path d="M44.3518 25.8996H14.5645L18.3974 18.9456C18.7259 18.3432 19.3282 17.96 20.0401 17.96H38.9857C39.6427 17.96 40.2998 18.3432 40.6283 18.9456L44.3518 25.8996ZM17.357 24.2569H41.614L39.1499 19.7121C39.0952 19.6574 39.0404 19.6026 38.9857 19.6026H20.0401C19.9853 19.6026 19.8758 19.6574 19.8758 19.7121L17.357 24.2569Z" fill="#393939"/>
<path d="M45.9961 37.0154H38.2207V34.9894C38.2207 33.3467 39.4253 31.9778 41.068 31.704L45.6128 31.0469C46.0508 30.9922 46.4889 31.266 46.5436 31.7588C46.5984 32.1968 46.3246 32.6349 45.8318 32.6896L41.287 33.3467C40.4657 33.4562 39.8634 34.168 39.8634 34.9894V35.3727H45.9961C46.4341 35.3727 46.8174 35.756 46.8174 36.194C46.8174 36.6321 46.4341 37.0154 45.9961 37.0154Z" fill="#393939"/>
<path d="M34.5509 37.1241H24.3663C23.9282 37.1241 23.5449 36.7408 23.5449 36.3028C23.5449 35.8647 23.9282 35.4814 24.3663 35.4814H34.5509C34.9889 35.4814 35.3722 35.8647 35.3722 36.3028C35.3722 36.7408 34.9889 37.1241 34.5509 37.1241Z" fill="#393939"/>
<path d="M24.3669 37.1243C23.9289 37.1243 23.6004 36.7957 23.5456 36.4124L22.998 31.4844H35.9205L35.3729 36.4124C35.3181 36.8505 34.9348 37.179 34.442 37.1243C34.004 37.0695 33.6755 36.6862 33.7302 36.1934L34.1135 33.0723H24.805L25.1883 36.1934C25.243 36.6315 24.9145 37.0695 24.4765 37.1243C24.4217 37.1243 24.4217 37.1243 24.3669 37.1243Z" fill="#393939"/>
<path d="M17.1943 42.546H14.128C13.6899 42.546 13.3066 42.1627 13.3066 41.7247C13.3066 41.2866 13.6899 40.9033 14.128 40.9033H17.1943C17.6324 40.9033 18.0156 41.2866 18.0156 41.7247C18.0156 42.1627 17.6324 42.546 17.1943 42.546Z" fill="#393939"/>
<path d="M45.6661 42.546H41.7237C41.2856 42.546 40.9023 42.1627 40.9023 41.7247C40.9023 41.2866 41.2856 40.9033 41.7237 40.9033H45.6661C46.1041 40.9033 46.4874 41.2866 46.4874 41.7247C46.4874 42.1627 46.1041 42.546 45.6661 42.546Z" fill="#393939"/>
<path d="M17.1934 42.546H13.251C12.813 42.546 12.4297 42.1627 12.4297 41.7247C12.4297 41.2866 12.813 40.9033 13.251 40.9033H17.1934C17.6315 40.9033 18.0148 41.2866 18.0148 41.7247C18.0148 42.1627 17.6315 42.546 17.1934 42.546Z" fill="#393939"/>
<path d="M58.4794 48.8424C58.0414 48.8424 57.6581 48.4591 57.6581 48.021V4.81852C57.6581 3.06633 56.2345 1.64268 54.4823 1.64268H4.81852C3.06633 1.64268 1.64268 3.06633 1.64268 4.81852V48.021C1.64268 48.4591 1.25939 48.8424 0.821341 48.8424C0.383292 48.8424 0 48.4591 0 48.021V4.81852C0 2.19023 2.13548 0 4.81852 0H54.4823C57.1105 0 59.3008 2.13548 59.3008 4.81852V48.021C59.3008 48.4591 58.9722 48.8424 58.4794 48.8424Z" fill="#393939"/>
<path d="M46.7064 6.79014H12.1553C11.7173 6.79014 11.334 6.40685 11.334 5.9688C11.334 5.53075 11.7173 5.14746 12.1553 5.14746H46.7064C47.1444 5.14746 47.5277 5.53075 47.5277 5.9688C47.5277 6.40685 47.1992 6.79014 46.7064 6.79014Z" fill="#393939"/>
<path d="M47.0902 6.78971H11.8273L6.46125 1.42363C6.13271 1.09509 6.13271 0.602282 6.46125 0.273746C6.78978 -0.0547903 7.28257 -0.0547903 7.61111 0.273746L12.4844 5.14703H46.3784L51.1969 0.328505C51.5255 -3.09143e-05 52.0183 -3.09143e-05 52.3468 0.328505C52.6753 0.657042 52.6753 1.14983 52.3468 1.47837L47.0902 6.78971Z" fill="#393939"/>
<path d="M21.6835 12.2648C21.574 12.2648 21.4097 12.21 21.3002 12.1553C20.9169 11.9362 20.7527 11.4434 20.9169 11.0601L22.1763 8.59613C22.3954 8.21283 22.8882 8.04858 23.2715 8.21284C23.6547 8.43187 23.819 8.92467 23.6548 9.30797L22.3953 11.772C22.2858 12.1005 22.012 12.2648 21.6835 12.2648Z" fill="#393939"/>
<path d="M29.46 12.2639C29.022 12.2639 28.6387 11.8806 28.6387 11.4426V8.97857C28.6387 8.54052 29.022 8.15723 29.46 8.15723C29.8981 8.15723 30.2814 8.54052 30.2814 8.97857V11.4426C30.2814 11.8806 29.8981 12.2639 29.46 12.2639Z" fill="#393939"/>
<path d="M37.2338 12.2637C36.9601 12.2637 36.6315 12.0994 36.522 11.8257L35.2626 9.36164C35.0436 8.97834 35.2079 8.48554 35.6459 8.26652C36.0292 8.04749 36.522 8.21175 36.741 8.6498L38.0004 11.1138C38.2194 11.4971 38.0552 11.9899 37.6171 12.2089C37.4529 12.2089 37.3434 12.2637 37.2338 12.2637Z" fill="#393939"/>
</svg>
