<svg width="84" height="54" viewBox="0 0 84 54" fill="none" xmlns="http://www.w3.org/2000/svg">
<path d="M69.6455 46.3428V51.4919C69.6455 52.3501 70.3056 53.0103 71.1638 53.0103H81.4622C82.3204 53.0103 82.9805 52.3501 82.9805 51.4919V46.3428H69.6455Z" fill="#46C770"/>
<path d="M0.990234 7.5918V12.741C0.990234 13.5992 1.65038 14.2594 2.50857 14.2594H12.7409C13.5991 14.2594 14.2592 13.5992 14.2592 12.741V7.5918H0.990234Z" fill="#CDCDCD"/>
<path d="M23.8311 7.5918V12.741C23.8311 13.5992 24.4912 14.2594 25.3494 14.2594H35.5817C36.4399 14.2594 37.1 13.5992 37.1 12.741V7.5918H23.8311Z" fill="#CDCDCD"/>
<path d="M46.7383 7.5918V12.741C46.7383 13.5992 47.3984 14.2594 48.2566 14.2594H58.489C59.3471 14.2594 60.0073 13.5992 60.0073 12.741V7.5918H46.7383Z" fill="#CDCDCD"/>
<path d="M0.990234 46.3428V51.4919C0.990234 52.3501 1.65038 53.0103 2.50857 53.0103H12.7409C13.5991 53.0103 14.2592 52.3501 14.2592 51.4919V46.3428H0.990234Z" fill="#CDCDCD"/>
<path d="M23.8311 46.3428V51.4919C23.8311 52.3501 24.4912 53.0103 25.3494 53.0103H35.5817C36.4399 53.0103 37.1 52.3501 37.1 51.4919V46.3428H23.8311Z" fill="#CDCDCD"/>
<path d="M46.7383 46.3428V51.4919C46.7383 52.3501 47.3984 53.0103 48.2566 53.0103H58.489C59.3471 53.0103 60.0073 52.3501 60.0073 51.4919V46.3428H46.7383Z" fill="#CDCDCD"/>
<path d="M12.8069 15.2495H2.44254C1.05623 15.2495 0 14.1272 0 12.8069V2.4426C0 1.05629 1.12224 0 2.44254 0H12.8069C14.1932 0 15.2495 1.1223 15.2495 2.4426V12.8069C15.2495 14.1272 14.1932 15.2495 12.8069 15.2495ZM2.44254 1.91445C2.17848 1.91445 1.98045 2.11254 1.98045 2.3766V12.7409C1.98045 13.005 2.17848 13.203 2.44254 13.203H12.8069C13.071 13.203 13.269 13.005 13.269 12.7409V2.3766C13.269 2.11254 13.071 1.91445 12.8069 1.91445H2.44254Z" fill="#393939"/>
<path d="M12.8069 54.0004H2.44254C1.05623 54.0004 0 52.8782 0 51.5579V41.1935C0 39.8072 1.12224 38.751 2.44254 38.751H12.8069C14.1932 38.751 15.2495 39.8732 15.2495 41.1935V51.5579C15.2495 52.8782 14.1932 54.0004 12.8069 54.0004ZM2.44254 40.6654C2.17848 40.6654 1.98045 40.8634 1.98045 41.1275V51.4918C1.98045 51.7559 2.17848 51.954 2.44254 51.954H12.8069C13.071 51.954 13.269 51.7559 13.269 51.4918V41.1275C13.269 40.8634 13.071 40.6654 12.8069 40.6654H2.44254Z" fill="#393939"/>
<path d="M35.7141 15.2495H25.3498C23.9635 15.2495 22.9072 14.1272 22.9072 12.8069V2.4426C22.9072 1.05629 24.0295 0 25.3498 0H35.7141C37.1005 0 38.1567 1.1223 38.1567 2.4426V12.8069C38.1567 14.1272 37.0344 15.2495 35.7141 15.2495ZM25.3498 1.91445C25.0857 1.91445 24.8877 2.11254 24.8877 2.3766V12.7409C24.8877 13.005 25.0857 13.203 25.3498 13.203H35.7141C35.9782 13.203 36.1762 13.005 36.1762 12.7409V2.3766C36.1762 2.11254 35.9782 1.91445 35.7141 1.91445H25.3498Z" fill="#393939"/>
<path d="M35.7141 54.0004H25.3498C23.9635 54.0004 22.9072 52.8782 22.9072 51.5579V41.1935C22.9072 39.8072 24.0295 38.751 25.3498 38.751H35.7141C37.1005 38.751 38.1567 39.8732 38.1567 41.1935V51.5579C38.1567 52.8782 37.0344 54.0004 35.7141 54.0004ZM25.3498 40.6654C25.0857 40.6654 24.8877 40.8634 24.8877 41.1275V51.4918C24.8877 51.7559 25.0857 51.954 25.3498 51.954H35.7141C35.9782 51.954 36.1762 51.7559 36.1762 51.4918V41.1275C36.1762 40.8634 35.9782 40.6654 35.7141 40.6654H25.3498Z" fill="#393939"/>
<path d="M58.6213 15.2495H48.257C46.8707 15.2495 45.8145 14.1272 45.8145 12.8069V2.4426C45.8145 1.05629 46.9367 0 48.257 0H58.6213C60.0077 0 61.0639 1.1223 61.0639 2.4426V12.8069C61.0639 14.1272 59.9416 15.2495 58.6213 15.2495ZM48.257 1.91445C47.993 1.91445 47.7949 2.11254 47.7949 2.3766V12.7409C47.7949 13.005 47.993 13.203 48.257 13.203H58.6213C58.8854 13.203 59.0835 13.005 59.0835 12.7409V2.3766C59.0835 2.11254 58.8854 1.91445 58.6213 1.91445H48.257Z" fill="#393939"/>
<path d="M58.6213 54.0004H48.257C46.8707 54.0004 45.8145 52.8782 45.8145 51.5579V41.1935C45.8145 39.8072 46.9367 38.751 48.257 38.751H58.6213C60.0077 38.751 61.0639 39.8732 61.0639 41.1935V51.5579C61.0639 52.8782 59.9416 54.0004 58.6213 54.0004ZM48.257 40.6654C47.993 40.6654 47.7949 40.8634 47.7949 41.1275V51.4918C47.7949 51.7559 47.993 51.954 48.257 51.954H58.6213C58.8854 51.954 59.0835 51.7559 59.0835 51.4918V41.1275C59.0835 40.8634 58.8854 40.6654 58.6213 40.6654H48.257Z" fill="#393939"/>
<path d="M81.5286 54.0004H71.1642C69.7779 54.0004 68.7217 52.8782 68.7217 51.5579V41.1935C68.7217 39.8072 69.8439 38.751 71.1642 38.751H81.5286C82.9149 38.751 83.9711 39.8732 83.9711 41.1935V51.5579C83.9711 52.8782 82.8489 54.0004 81.5286 54.0004ZM71.0982 40.6654C70.8341 40.6654 70.6361 40.8634 70.6361 41.1275V51.4918C70.6361 51.7559 70.8341 51.954 71.0982 51.954H81.4626C81.7266 51.954 81.9247 51.7559 81.9247 51.4918V41.1275C81.9247 40.8634 81.7266 40.6654 81.4626 40.6654H71.0982Z" fill="#393939"/>
<path d="M77.3036 39.6754H75.3231V27.3305H7.5918V25.3501H77.3036V39.6754Z" fill="#393939"/>
<path d="M8.58201 14.2598H6.60156V39.6755H8.58201V14.2598Z" fill="#393939"/>
<path d="M31.4892 14.2598H29.5088V39.6755H31.4892V14.2598Z" fill="#393939"/>
<path d="M54.3965 14.2598H52.416V39.6755H54.3965V14.2598Z" fill="#393939"/>
<path d="M8.58201 6.46924H6.60156V8.71376H8.58201V6.46924Z" fill="#393939"/>
<path d="M8.58201 45.2202H6.60156V47.4647H8.58201V45.2202Z" fill="#393939"/>
<path d="M31.4892 6.46924H29.5088V8.71376H31.4892V6.46924Z" fill="#393939"/>
<path d="M31.4892 45.2202H29.5088V47.4647H31.4892V45.2202Z" fill="#393939"/>
<path d="M54.3965 6.46924H52.416V8.71376H54.3965V6.46924Z" fill="#393939"/>
<path d="M54.3965 45.2202H52.416V47.4647H54.3965V45.2202Z" fill="#393939"/>
<path d="M77.3037 45.2202H75.3232V47.4647H77.3037V45.2202Z" fill="#393939"/>
</svg>
