<svg width="61" height="61" viewBox="0 0 61 61" fill="none" xmlns="http://www.w3.org/2000/svg">
<path d="M58.2688 58.4498C60.4538 56.2648 60.4538 52.7444 58.2688 50.5594L23.4295 15.7201C24.522 11.8963 23.5509 7.58689 20.5161 4.55211C17.6634 1.69942 13.6575 0.667591 9.95508 1.45663L11.7153 3.2168L16.753 8.25455L14.9321 15.1131L58.2688 58.4498Z" fill="#46C770"/>
<path d="M2.36656 59.4817C2.12378 59.4817 1.881 59.4211 1.69891 59.239C1.33474 58.8748 1.33474 58.3285 1.69891 57.9643L14.3843 45.279C14.7485 44.9148 15.2947 44.9148 15.6589 45.279C16.0231 45.6432 16.0231 46.1894 15.6589 46.5536L2.97352 59.239C2.85213 59.4211 2.60934 59.4817 2.36656 59.4817Z" fill="#393939"/>
<path d="M6.00886 60.999C4.37008 60.999 2.85269 60.3921 1.76017 59.2389C0.606957 58.0856 0 56.5682 0 54.9902C0 53.4121 0.606957 51.8947 1.76017 50.7415L22.2146 30.287C22.5788 29.9229 23.125 29.9229 23.4892 30.287C23.8534 30.6512 23.8534 31.1975 23.4892 31.5616L3.03478 52.0161C2.24574 52.8051 1.82087 53.8369 1.82087 54.9902C1.82087 56.0827 2.24574 57.1752 3.03478 57.9642C3.82382 58.7533 4.85565 59.1781 6.00886 59.1781C7.10139 59.1781 8.19391 58.7533 8.98295 57.9642L29.4374 37.5098C29.8015 37.1457 30.3478 37.1457 30.712 37.5098C31.0761 37.874 31.0761 38.4203 30.712 38.7844L10.2576 59.2389C9.10434 60.3314 7.58695 60.999 6.00886 60.999Z" fill="#393939"/>
<path d="M36.1154 29.2553C35.8726 29.2553 35.6299 29.1946 35.4478 29.0125C35.0836 28.6484 35.0836 28.1021 35.4478 27.7379L50.561 12.6247L48.3152 10.379L33.202 25.4922C32.8379 25.8563 32.2916 25.8563 31.9274 25.4922C31.5633 25.128 31.5633 24.5817 31.9274 24.2176L47.6476 8.49742C47.8297 8.31533 48.0725 8.25464 48.3152 8.25464C48.558 8.25464 48.8008 8.37603 48.9829 8.49742L52.5032 12.0178C52.8674 12.3819 52.8674 12.9282 52.5032 13.2924L36.7831 29.0125C36.601 29.1946 36.3582 29.2553 36.1154 29.2553Z" fill="#393939"/>
<path d="M51.6533 13.7172L47.2832 9.34712L49.3468 4.12729L55.902 0L61.0004 5.09843L56.8731 11.6535L51.6533 13.7172ZM49.4075 8.86156L52.0782 11.5322L55.6592 10.1362L58.694 5.34121L55.6592 2.30643L50.8642 5.34121L49.4075 8.86156Z" fill="#393939"/>
<path d="M54.3217 60.9991C52.5615 60.9991 50.9227 60.3314 49.7088 59.1175L15.2337 24.6424C11.1064 25.6136 6.73632 24.3389 3.70154 21.3649C0.727453 18.3908 -0.547154 14.1421 0.36328 10.0148L0.727457 8.376L8.31441 15.963L14.1412 14.3849L15.7193 8.5581L8.13232 0.971153L9.7711 0.606976C13.8984 -0.303458 18.1471 0.910454 21.1212 3.94523C24.156 6.98001 25.3699 11.3501 24.3987 15.4774L58.8738 49.9525C60.0878 51.1664 60.7554 52.8052 60.7554 54.5654C60.7554 56.3255 60.0878 57.9643 58.8738 59.1782C57.6599 60.2707 56.0818 60.9991 54.3217 60.9991ZM15.78 22.5788L50.9834 57.7822C51.8938 58.6926 53.0471 59.1782 54.3217 59.1782C55.5963 59.1782 56.7495 58.6926 57.6599 57.7822C58.5704 56.8718 59.0559 55.7186 59.0559 54.444C59.0559 53.1693 58.5704 52.0161 57.6599 51.1057L22.4565 15.9023L22.5779 15.4167C23.6097 11.775 22.5779 7.82975 19.9073 5.15915C17.7829 3.0348 14.9302 1.94228 11.9561 2.12437L17.8436 8.01183L15.7193 15.8416L7.82884 17.9052L1.94137 12.0177C1.75928 14.9918 2.8518 17.8445 4.97615 19.9689C7.64675 22.6395 11.592 23.6713 15.2337 22.6395L15.78 22.5788Z" fill="#393939"/>
<path d="M58.2678 59.3602C58.025 59.3602 57.7822 59.2995 57.6001 59.1174L47.7067 49.224C47.3426 48.8599 47.3426 48.3136 47.7067 47.9494C48.0709 47.5852 48.6172 47.5852 48.9813 47.9494L58.8747 57.8428C59.2389 58.207 59.2389 58.7532 58.8747 59.1174C58.7533 59.2388 58.5105 59.3602 58.2678 59.3602Z" fill="#393939"/>
</svg>
