<svg width="87" height="29" viewBox="0 0 87 29" fill="none" xmlns="http://www.w3.org/2000/svg">
<path d="M85.603 19.0618C85.603 18.3636 85.3237 17.8748 84.9048 17.5955L83.0894 16.4085V13.8949C83.1592 13.2665 82.8101 12.6381 82.2515 12.3588C80.2964 11.4511 75.4088 9.77529 66.5412 9.28652C63.3293 9.07705 60.1174 8.30899 57.2547 6.8427L49.993 3.21192C47.1303 1.81545 43.9882 1.04736 40.7764 1.04736H38.2627V24.8572H64.7258C64.4465 23.8098 64.3767 22.7625 64.5861 21.5755C65.1447 18.0843 68.0773 15.2914 71.6383 14.9422C76.4561 14.4535 80.5059 18.2239 80.5059 22.9021C80.5059 23.6003 80.4361 24.2288 80.2964 24.8572H84.6953C85.2539 24.8572 85.7426 24.3684 85.7426 23.8098L85.603 19.0618Z" fill="#46C770"/>
<path d="M72.4765 28.1385C69.5439 28.1385 67.1699 25.7645 67.1699 22.832C67.1699 19.8994 69.5439 17.5254 72.4765 17.5254C75.4091 17.5254 77.7831 19.8994 77.7831 22.832C77.7831 25.7645 75.3392 28.1385 72.4765 28.1385ZM72.4765 19.6201C70.7309 19.6201 69.2646 21.0864 69.2646 22.832C69.2646 24.5775 70.7309 26.0438 72.4765 26.0438C74.2221 26.0438 75.6884 24.5775 75.6884 22.832C75.6884 21.0864 74.2221 19.6201 72.4765 19.6201Z" fill="#393939"/>
<path d="M18.4336 28.1385C15.501 28.1385 13.127 25.7645 13.127 22.832C13.127 19.8994 15.501 17.5254 18.4336 17.5254C21.3661 17.5254 23.7401 19.8994 23.7401 22.832C23.7401 25.7645 21.3661 28.1385 18.4336 28.1385ZM18.4336 19.6201C16.688 19.6201 15.2217 21.0864 15.2217 22.832C15.2217 24.5775 16.688 26.0438 18.4336 26.0438C20.1791 26.0438 21.6454 24.5775 21.6454 22.832C21.6454 21.0864 20.249 19.6201 18.4336 19.6201Z" fill="#393939"/>
<path d="M84.626 25.8347H78.9005L79.2496 24.5081C79.3893 23.9495 79.4591 23.3909 79.4591 22.8323C79.4591 20.8772 78.6212 18.992 77.1549 17.6653C75.6886 16.3387 73.7336 15.7103 71.7785 15.9197C68.7063 16.2689 66.1228 18.6429 65.634 21.7151C65.4944 22.6926 65.4944 23.6003 65.7737 24.5779L66.1228 25.9045H24.9968L25.3459 24.5779C25.4855 24.0193 25.5554 23.4607 25.5554 22.9021C25.5554 20.947 24.7175 19.0618 23.2512 17.7352C21.7849 16.4085 19.8298 15.7801 17.8748 15.9896C14.8026 16.3387 12.2191 18.7127 11.7303 21.7849C11.5907 22.7625 11.5907 23.6701 11.87 24.6477L12.2191 25.9743H6.35392C1.32663 25.9743 0 20.8074 0 18.0843C0 15.2215 1.25682 13.057 1.74559 12.289V9.35636C1.74559 8.79777 1.95507 8.30898 2.37401 7.89004C2.79296 7.54092 3.2817 7.33146 3.84029 7.33146C7.12199 7.54093 10.5433 6.63325 13.9647 4.60837C19.1316 1.60596 25.2761 0 31.63 0H40.9165C44.2681 0 47.6196 0.768049 50.622 2.30417L57.8837 5.93499C60.6068 7.33146 63.6092 8.09954 66.8211 8.30901C75.8283 8.79777 80.7857 10.5433 82.8804 11.5209C83.858 11.9398 84.4165 12.9872 84.3467 14.0345V15.9197L85.7432 16.8275C86.5112 17.3162 86.9302 18.1541 86.9302 19.2014L87 23.8796C87 24.4382 86.7906 24.9968 86.3716 25.3459C85.6734 25.6252 85.1846 25.8347 84.626 25.8347ZM81.4141 23.74H84.5562L84.4864 19.0618C84.4864 18.6429 84.3467 18.5032 84.2071 18.4334L81.9029 16.8973V13.825V13.7552C81.9029 13.5458 81.8331 13.4061 81.6236 13.2665C80.0177 12.4984 75.2697 10.7528 66.2625 10.2641C62.8411 10.0546 59.5594 9.2167 56.557 7.68058L49.2953 4.04975C46.5722 2.72311 43.5698 1.95505 40.5674 1.95505H31.4206C25.4157 1.95505 19.6902 3.42135 14.8026 6.28411C11.1019 8.44864 7.33147 9.42616 3.63083 9.28651V12.7777L3.42137 13.057C3.42137 13.057 1.88524 15.0819 1.88524 17.8748C1.88524 18.0843 1.95505 23.6702 6.14445 23.6702H9.42617C9.35634 22.9021 9.35633 22.0642 9.49597 21.2962C10.1244 17.3162 13.4759 14.1742 17.4559 13.7552C20.0393 13.4759 22.553 14.3138 24.508 16.0594C26.3932 17.805 27.5105 20.2488 27.5105 22.7625C27.5105 23.0418 27.5104 23.3909 27.4406 23.6702H63.3997C63.3299 22.9021 63.3299 22.0642 63.4695 21.2962C64.0979 17.3162 67.4494 14.1742 71.4294 13.7552C74.0128 13.4759 76.5265 14.3138 78.4816 16.0594C80.3668 17.805 81.484 20.2488 81.484 22.7625C81.484 23.1116 81.4839 23.4607 81.4141 23.74Z" fill="#393939"/>
<path d="M10.8222 8.16887C10.5429 8.16887 10.2636 8.09903 10.0541 7.88956L7.12154 4.95701H2.65282C2.09423 4.95701 1.60547 4.46824 1.60547 3.90966C1.60547 3.35107 2.09423 2.8623 2.65282 2.8623H7.95943L11.4506 6.35348C11.8695 6.77242 11.8695 7.40081 11.4506 7.81975C11.311 8.09905 11.1015 8.16887 10.8222 8.16887Z" fill="#393939"/>
<path d="M39.2412 0.978027H37.1465V24.7878H39.2412V0.978027Z" fill="#393939"/>
</svg>
