<svg width="51" height="51" viewBox="0 0 51 51" fill="none" xmlns="http://www.w3.org/2000/svg">
<path d="M50.9991 21.2401C50.9986 21.2039 50.9965 21.1678 50.9915 21.1321C50.9912 21.1298 50.9906 21.1275 50.9902 21.1252C50.9854 21.0928 50.9783 21.0609 50.9697 21.0292C50.9672 21.0199 50.9646 21.0109 50.9618 21.0017C50.9528 20.9719 50.9422 20.9426 50.9299 20.9139C50.9284 20.9105 50.9272 20.9068 50.9257 20.9033C50.9115 20.8716 50.895 20.841 50.8769 20.8111C50.8724 20.8037 50.8676 20.7966 50.8629 20.7893C50.8479 20.766 50.8316 20.7434 50.814 20.7214C50.8088 20.7147 50.8038 20.708 50.7982 20.7015C50.7759 20.6751 50.7521 20.6498 50.7261 20.6259C50.7214 20.6216 50.7163 20.6178 50.7115 20.6136C50.6958 20.5998 50.6802 20.5858 50.6632 20.573L47.5998 18.2494V13.6007C47.5998 13.1306 47.2199 12.7507 46.7499 12.7507H40.3523L26.0139 1.87299C25.7096 1.6426 25.2897 1.6426 24.9862 1.87299L10.6479 12.7506H4.25002C3.78086 12.7506 3.40005 13.1305 3.40005 13.6006V18.2493L0.336579 20.5729C0.321936 20.5839 0.308688 20.5961 0.294942 20.6078C0.287372 20.6144 0.279204 20.6205 0.271833 20.6273C0.24713 20.6502 0.224319 20.6746 0.202904 20.6997C0.19603 20.7078 0.189755 20.7162 0.183181 20.7246C0.167343 20.7446 0.152501 20.7652 0.138755 20.7864C0.133078 20.7952 0.127201 20.8038 0.121921 20.8127C0.104589 20.8416 0.088652 20.8711 0.0750056 20.9016C0.0722165 20.9079 0.0701247 20.9144 0.0674353 20.9207C0.0567771 20.9461 0.0474139 20.9719 0.0392459 20.9981C0.03566 21.0096 0.0323729 21.021 0.029285 21.0327C0.0223124 21.0593 0.0165351 21.0861 0.0120527 21.1133C0.0107578 21.1209 0.00896481 21.1284 0.00796872 21.1362C0.00348631 21.1689 0.00159374 21.2021 0.00099609 21.2352C0.00099609 21.2404 0 21.2452 0 21.2503V48.4503C0 48.9203 0.380805 49.3002 0.849963 49.3002H50.1497C50.6198 49.3002 50.9997 48.9203 50.9997 48.4503V21.2503C50.9998 21.2468 50.9991 21.2436 50.9991 21.2401ZM48.7425 21.2504L47.5997 22.1173V20.3837L48.7425 21.2504ZM25.4996 3.61715L37.5386 12.7505H13.4614L25.4996 3.61715ZM45.8998 14.4505V23.407L30.8162 34.8503H20.1834L5.09998 23.4076V14.4505H45.8998ZM28.5754 36.5503L25.4999 38.8835L22.4243 36.5503H28.5754ZM3.39995 22.1179L2.25684 21.2507L3.39995 20.3837V22.1179ZM49.2998 47.6003H1.70003V22.9622L24.9865 40.6278C25.2899 40.8582 25.7099 40.8582 26.0133 40.6278L49.2998 22.9623V47.6003Z" fill="black"/>
<path d="M39.9496 17.8503H43.3495C43.8196 17.8503 44.1995 17.4704 44.1995 17.0004C44.1995 16.5303 43.8196 16.1504 43.3495 16.1504H39.9496C39.4804 16.1504 39.0996 16.5303 39.0996 17.0004C39.0995 17.4703 39.4803 17.8503 39.9496 17.8503Z" fill="#46C770"/>
<path d="M7.84996 17.6999H11.2499C11.72 17.6999 12.0999 17.32 12.0999 16.85C12.0999 16.3799 11.72 16 11.2499 16H7.84996C7.3808 16 7 16.3799 7 16.85C6.9999 17.3199 7.3807 17.6999 7.84996 17.6999Z" fill="#46C770"/>
<path d="M39.85 45.6999H43.2499C43.72 45.6999 44.0999 45.32 44.0999 44.85C44.0999 44.3799 43.72 44 43.2499 44H39.85C39.3808 44 39 44.3799 39 44.85C38.9999 45.3199 39.3807 45.6999 39.85 45.6999Z" fill="#46C770"/>
</svg>
