<svg width="63" height="63" viewBox="0 0 63 63" fill="none" xmlns="http://www.w3.org/2000/svg">
<path d="M31.5 0.911377V6.26582C45.4557 6.26582 56.7912 17.6012 56.7912 31.5569C56.7912 32.4114 56.7342 33.2658 56.6772 34.0633L41.5253 30.5316C41.0127 25.462 36.7405 21.4747 31.557 21.4747V27.4557C33.7785 27.4557 35.6013 29.2785 35.6013 31.5C35.6013 33.7215 33.7785 35.5443 31.557 35.5443V62.0886C48.4747 62.0886 62.2026 48.3608 62.2026 31.4431C62.2026 14.5253 48.4177 0.911377 31.5 0.911377ZM34.576 56.6202V41.0696C36.9684 40.3291 38.962 38.6772 40.2152 36.5126L55.3101 39.9874C52.1772 48.8734 44.2025 55.424 34.576 56.6202Z" fill="#46C770"/>
<path d="M31.5 63C14.1266 63 0 48.8734 0 31.5C0 14.1266 14.1266 0 31.5 0C48.8734 0 63 14.1266 63 31.5C63 48.8734 48.8734 63 31.5 63ZM31.5 1.76581C15.0949 1.76581 1.70886 15.0949 1.70886 31.5569C1.70886 47.962 15.038 61.3481 31.5 61.3481C47.9051 61.3481 61.2911 48.019 61.2911 31.5569C61.2911 15.0949 47.9051 1.76581 31.5 1.76581ZM29.3354 57.5886L28.3671 57.4747C18.6266 56.2785 10.1962 49.557 6.89241 40.3291L6.55063 39.4177L23.1836 35.5443L23.5253 36.1139C24.6646 38.1076 26.4873 39.5886 28.7089 40.2722L29.2785 40.443V57.5886H29.3354ZM8.82912 40.6139C12.019 48.4747 19.1962 54.2848 27.5696 55.5949V41.6392C25.462 40.8418 23.6392 39.3608 22.3861 37.4241L8.82912 40.6139ZM33.7215 57.5886V40.5L34.2912 40.3291C36.4557 39.6456 38.2785 38.1646 39.4747 36.1709L39.8165 35.6013L56.4494 39.4747L56.1076 40.3861C52.8038 49.6139 44.3734 56.3924 34.6329 57.5317L33.7215 57.5886ZM35.4304 41.6962V55.6519C43.8038 54.2848 50.981 48.5316 54.1709 40.6709L40.6139 37.538C39.3608 39.4177 37.538 40.8418 35.4304 41.6962ZM57.4177 35.0886L40.7279 31.2152L40.6709 30.5886C40.2152 25.8608 36.2848 22.3291 31.557 22.3291C26.8291 22.3291 22.8987 25.8608 22.443 30.5886L22.3861 31.2152L5.6962 35.0886L5.58227 34.1202C5.46835 33.2658 5.46836 32.3544 5.46836 31.5C5.46836 17.0886 17.2025 5.35441 31.6139 5.35441C46.0253 5.35441 57.7595 17.0886 57.7595 31.5C57.7595 32.3544 57.7025 33.2088 57.6456 34.1202L57.4177 35.0886ZM31.5 7.06327C18.057 7.06327 7.06329 18 7.06329 31.5C7.06329 31.9557 7.06329 32.4683 7.12025 32.981L20.7342 29.8481C21.5316 24.5506 26.0886 20.6203 31.5 20.6203C36.9114 20.6203 41.4684 24.5506 42.2658 29.8481L55.8797 32.981C55.9367 32.4683 55.9367 32.0127 55.9367 31.5C55.9367 18.057 45 7.06327 31.5 7.06327Z" fill="#393939"/>
<path d="M31.4983 36.3988C28.7642 36.3988 26.5996 34.1773 26.5996 31.5C26.5996 28.7659 28.8211 26.6013 31.4983 26.6013C34.2325 26.6013 36.3971 28.8228 36.3971 31.5C36.454 34.2342 34.2325 36.3988 31.4983 36.3988ZM31.4983 28.3102C29.7325 28.3102 28.3085 29.7342 28.3085 31.5C28.3085 33.2659 29.7325 34.6899 31.4983 34.6899C33.2642 34.6899 34.6882 33.2659 34.6882 31.5C34.7452 29.7342 33.2642 28.3102 31.4983 28.3102Z" fill="#393939"/>
<path d="M46.2542 17.6013C46.0263 17.6013 45.7985 17.5443 45.6276 17.3734C41.8681 13.6139 36.8554 11.5063 31.501 11.5063C26.1466 11.5063 21.1339 13.6139 17.3744 17.3734C17.0326 17.7152 16.52 17.7152 16.1782 17.3734C15.8364 17.0317 15.8364 16.519 16.1782 16.1772C20.2795 12.0759 25.7478 9.79749 31.501 9.79749C37.3111 9.79749 42.7225 12.0759 46.8238 16.1772C47.1656 16.519 47.1656 17.0317 46.8238 17.3734C46.7099 17.5443 46.482 17.6013 46.2542 17.6013Z" fill="#393939"/>
</svg>
