<svg width="53" height="74" viewBox="0 0 53 74" fill="none" xmlns="http://www.w3.org/2000/svg">
<path d="M30.94 4.94117H29.0799V4.70588C29.0799 3.05882 27.6539 1.76471 25.9798 1.76471C24.2437 1.76471 22.8796 3.11765 22.8796 4.70588V4.94117H21.0195V4.70588C21.0195 2.11765 23.2516 0 25.9798 0C28.7079 0 30.94 2.11765 30.94 4.70588V4.94117Z" fill="#393939"/>
<path d="M17.4219 6V14.1176C17.4219 14.8823 18.1039 15.5294 18.9099 15.5294H19.468C20.212 15.5294 20.832 15 20.894 14.3529V14.1765C21.2041 11.7647 23.3742 9.94116 25.9783 9.94116C28.5204 9.94116 30.6906 11.7647 31.0626 14.1765V14.3529C31.1866 15.0588 31.8066 15.5294 32.4886 15.5294C33.2947 15.5294 33.9767 14.8823 33.9767 14.1176V6C33.9767 5.41176 33.4807 4.94116 32.8606 4.94116H18.5379C17.9179 4.94116 17.4219 5.41176 17.4219 6Z" fill="#46C770"/>
<path d="M47.1224 74H4.89827C2.23213 74 0 71.9411 0 69.3529V11.8823C0 9.35289 2.17013 7.23523 4.89827 7.23523H17.4229V8.99994H4.89827C3.22418 8.99994 1.8601 10.2941 1.8601 11.8823V69.4117C1.8601 71 3.22418 72.2941 4.89827 72.2941H47.1224C48.7965 72.2941 50.1606 71 50.1606 69.4117V11.9411C50.1606 10.3529 48.7965 9.05876 47.1224 9.05876H33.9778V7.29406H47.1224C49.7886 7.29406 52.0207 9.35288 52.0207 11.9411V69.4117C51.9587 71.9411 49.7886 74 47.1224 74Z" fill="#393939"/>
<path d="M37.7598 60.5295H46.1302L37.7598 68.4707V60.5295Z" fill="#46C770"/>
<path d="M35.5897 68.4707H5.82812V12.8824H16.0587V14.6472H7.68822V66.706H33.7296V56.706H44.2701V14.6472H35.9617V12.8824H46.1302V58.4707H35.5897V68.4707Z" fill="#393939"/>
<path d="M16.8653 42.5884L13.9512 39.8237L15.2533 38.5884L16.8653 40.059L20.8335 36.059L22.1976 37.2943L16.8653 42.5884Z" fill="#393939"/>
<path d="M19.6941 22.4766L14.1699 27.7174L15.4852 28.9652L21.0094 23.7244L19.6941 22.4766Z" fill="#393939"/>
<path d="M15.4911 22.4884L14.1758 23.7362L19.7 28.977L21.0153 27.7292L15.4911 22.4884Z" fill="#393939"/>
<path d="M19.698 49.5334L14.1738 54.7742L15.4891 56.022L21.0133 50.7812L19.698 49.5334Z" fill="#393939"/>
<path d="M15.495 49.5456L14.1797 50.7935L19.7039 56.0343L21.0192 54.7865L15.495 49.5456Z" fill="#393939"/>
<path d="M40.3015 27.4706H24.3047V29.2353H40.3015V27.4706Z" fill="#393939"/>
<path d="M40.3015 40.7646H24.3047V42.5294H40.3015V40.7646Z" fill="#393939"/>
</svg>
