<svg width="74" height="59" viewBox="0 0 74 59" fill="none" xmlns="http://www.w3.org/2000/svg">
<path d="M64.5504 39.4012L61.909 34.5586C61.854 34.4485 61.7439 34.3936 61.6339 34.3936H45.1802C45.0702 34.3936 44.9601 34.4485 44.9051 34.5586L42.2637 39.4012H49.4174H64.5504Z" fill="#46C770"/>
<path d="M30.9281 2.14661L29.1121 3.9626L28.2867 3.13716C26.1956 1.04606 22.7838 1.04606 20.6927 3.13716L19.8672 3.9626L18.0513 2.14661C16.3454 0.440712 13.5939 0.440712 11.888 2.14661L9.63184 4.40286L15.9602 10.5111H24.4896H33.0191L39.3475 4.40286L37.0913 2.14661C35.3854 0.440712 32.634 0.440712 30.9281 2.14661Z" fill="#F2DDDE"/>
<path d="M33.3488 11.336H15.6294L8.47559 4.40232L11.3371 1.54077C12.3276 0.55025 13.5933 0 14.969 0C16.3448 0 17.6655 0.55025 18.6009 1.54077L19.8666 2.80647L20.0867 2.58634C21.2423 1.43073 22.8382 0.770353 24.489 0.770353C26.1399 0.770353 27.6807 1.43073 28.8913 2.58634L29.1115 2.80647L30.3772 1.54077C32.4132 -0.495302 35.6599 -0.495302 37.696 1.54077L40.5575 4.40232L33.3488 11.336ZM16.2897 9.6851H32.6884L38.1363 4.40232L36.4854 2.75145C35.1097 1.37573 32.8535 1.37573 31.5328 2.75145L29.1115 5.17268L27.7358 3.79695C26.8553 2.91649 25.7547 2.47631 24.5441 2.47631C23.3335 2.47631 22.1778 2.97152 21.3524 3.79695L19.9767 5.17268L17.5554 2.75145C16.895 2.0911 16.0146 1.70589 15.0791 1.70589C14.1436 1.70589 13.2631 2.0911 12.6028 2.75145L10.9519 4.40232L16.2897 9.6851Z" fill="#344154"/>
<path d="M67.082 58.9359H65.7613C64.0003 58.9359 62.5696 57.5051 62.5696 55.7442V53.8182H44.2449V55.7442C44.2449 57.5051 42.8142 58.9359 41.0533 58.9359H39.7326C37.9716 58.9359 36.5408 57.5051 36.5408 55.7442V43.913L34.6698 43.1976C34.1196 42.9775 33.7344 42.4822 33.7344 41.8769V39.9509C33.7344 39.1805 34.3397 38.5752 35.1101 38.5752H37.8616C38.3568 38.5752 38.797 38.3 39.0172 37.9148L41.7686 32.9071C42.429 31.6415 43.7497 30.8711 45.1804 30.8711H61.6341C63.0648 30.8711 64.3856 31.6415 65.0459 32.9071L67.7974 37.9148C68.0175 38.355 68.4577 38.5752 68.953 38.5752H71.7044C72.4748 38.5752 73.0801 39.1805 73.0801 39.9509V41.8769C73.0801 42.4822 72.695 42.9775 72.1447 43.1976L70.2737 43.913V55.7442C70.2737 57.4501 68.8429 58.9359 67.082 58.9359ZM42.594 52.1673H64.2205V55.7442C64.2205 56.5696 64.9358 57.285 65.7613 57.285H67.082C67.9074 57.285 68.6228 56.5696 68.6228 55.7442V42.7574L71.4293 41.7118V40.171H68.953C67.8524 40.171 66.8619 39.5657 66.3666 38.6302L63.6152 33.6225C63.23 32.9072 62.4595 32.4669 61.6341 32.4669H45.1804C44.355 32.4669 43.6396 32.9072 43.1993 33.6225L40.4479 38.6302C39.9526 39.5657 38.9071 40.171 37.8616 40.171H35.3852V41.7118L38.1917 42.7574V55.7442C38.1917 56.5696 38.9071 57.285 39.7326 57.285H41.0533C41.8787 57.285 42.594 56.5696 42.594 55.7442V52.1673Z" fill="#344154"/>
<path d="M46.4458 49.3057H39.9524C39.5122 49.3057 39.127 48.9205 39.127 48.4803C39.127 48.04 39.5122 47.6548 39.9524 47.6548H44.7949V47.4897C44.7949 46.8844 44.3547 46.3891 43.8044 46.3341L40.0624 45.7838C39.6222 45.7288 39.292 45.2886 39.347 44.8484C39.402 44.4081 39.8423 44.0779 40.2825 44.133L44.0245 44.6832C45.4002 44.9034 46.4458 46.114 46.4458 47.4897V49.3057Z" fill="#344154"/>
<path d="M66.8616 49.3057H60.3682V47.4897C60.3682 46.114 61.4137 44.9033 62.7895 44.6832L66.5314 44.1329C66.9716 44.0779 67.4119 44.3531 67.4669 44.8483C67.522 45.2886 67.2468 45.7288 66.7515 45.7838L63.0095 46.3341C62.4042 46.4441 62.019 46.9394 62.019 47.4897V47.6548H66.8616C67.3018 47.6548 67.687 48.04 67.687 48.4802C67.687 48.9205 67.3018 49.3057 66.8616 49.3057Z" fill="#344154"/>
<path d="M57.5622 49.3608H49.3079C48.8676 49.3608 48.4824 48.9756 48.4824 48.5354C48.4824 48.0952 48.8676 47.71 49.3079 47.71H57.5622C58.0024 47.71 58.3877 48.0952 58.3877 48.5354C58.3877 48.9756 58.0024 49.3608 57.5622 49.3608Z" fill="#344154"/>
<path d="M57.5614 49.3615C57.5064 49.3615 57.5063 49.3615 57.4513 49.3615C57.0111 49.3064 56.6809 48.9213 56.736 48.426L57.0111 46.0597H49.8573L50.1325 48.426C50.1875 48.8662 49.8573 49.3064 49.4171 49.3615C48.9768 49.4165 48.5366 49.0863 48.4816 48.6461L47.9863 44.4639H58.882L58.3868 48.6461C58.3318 49.0863 57.9466 49.3615 57.5614 49.3615Z" fill="#344154"/>
<path d="M43.4189 53.8188H40.9426C40.5024 53.8188 40.1172 53.4336 40.1172 52.9934C40.1172 52.5532 40.5024 52.168 40.9426 52.168H43.4189C43.8592 52.168 44.2444 52.5532 44.2444 52.9934C44.2444 53.4336 43.8592 53.8188 43.4189 53.8188Z" fill="#344154"/>
<path d="M66.5864 53.8188H63.3948C62.9545 53.8188 62.5693 53.4336 62.5693 52.9934C62.5693 52.5532 62.9545 52.168 63.3948 52.168H66.5864C67.0266 52.168 67.4119 52.5532 67.4119 52.9934C67.4119 53.4336 67.0266 53.8188 66.5864 53.8188Z" fill="#344154"/>
<path d="M43.4194 53.8188H40.2278C39.7875 53.8188 39.4023 53.4336 39.4023 52.9934C39.4023 52.5532 39.7875 52.168 40.2278 52.168H43.4194C43.8597 52.168 44.2449 52.5532 44.2449 52.9934C44.2449 53.4336 43.8597 53.8188 43.4194 53.8188Z" fill="#344154"/>
<path d="M40.2277 58.9361H24.3793C15.1895 58.9361 8.53096 56.8449 4.45881 52.7728C1.43222 49.7462 -0.053555 45.6741 0.00147401 40.7215C0.0565031 35.7689 1.7624 30.7061 4.84402 26.579L14.5291 13.5371H33.7343V15.188H15.3546L6.16473 27.5695C3.24819 31.4766 1.65233 36.1541 1.5973 40.7765C1.54227 45.2889 2.918 48.9758 5.55939 51.6722C9.30137 55.4142 15.5747 57.3402 24.3243 57.3402H40.1726V58.9361H40.2277Z" fill="#344154"/>
<path d="M45.566 31.9721C44.8506 30.4313 43.9702 28.8905 42.9797 27.5147L33.5146 14.803L34.8354 13.8125L44.3003 26.5242C45.4009 28.01 46.3365 29.6058 47.1069 31.2567L45.566 31.9721Z" fill="#344154"/>
<path d="M34.3948 15.1331H14.3092C13.0986 15.1331 12.1631 14.1426 12.1631 12.987V11.8864C12.1631 10.6757 13.1536 9.74023 14.3092 9.74023H34.3948C35.6054 9.74023 36.5409 10.7308 36.5409 11.8864V12.987C36.596 14.1426 35.6054 15.1331 34.3948 15.1331ZM14.3642 11.3361C14.0891 11.3361 13.869 11.5562 13.869 11.8314V12.9319C13.869 13.2071 14.0891 13.4272 14.3642 13.4272H34.4499C34.725 13.4272 34.9451 13.2071 34.9451 12.9319V11.8314C34.9451 11.5562 34.725 11.3361 34.4499 11.3361H14.3642Z" fill="#344154"/>
<path d="M33.3488 11.336H15.6294L8.47559 4.40232L11.3371 1.54077C12.3276 0.55025 13.5933 0 14.969 0C16.3448 0 17.6655 0.55025 18.6009 1.54077L19.8666 2.80647L20.0867 2.58634C21.2423 1.43073 22.8382 0.770353 24.489 0.770353C26.1399 0.770353 27.6807 1.43073 28.8913 2.58634L29.1115 2.80647L30.3772 1.54077C32.4132 -0.495302 35.6599 -0.495302 37.696 1.54077L40.5575 4.40232L33.3488 11.336ZM16.2897 9.6851H32.6884L38.1363 4.40232L36.4854 2.75145C35.1097 1.37573 32.8535 1.37573 31.5328 2.75145L29.1115 5.17268L27.7358 3.79695C26.8553 2.91649 25.7547 2.47631 24.5441 2.47631C23.3335 2.47631 22.1778 2.97152 21.3524 3.79695L19.9767 5.17268L17.5554 2.75145C16.895 2.0911 16.0146 1.70589 15.0791 1.70589C14.1436 1.70589 13.2631 2.0911 12.6028 2.75145L10.9519 4.40232L16.2897 9.6851Z" fill="#344154"/>
<path d="M25.4004 49H22.7637V34.4541H16.582V32.2568H31.582V34.4541H25.4004V49ZM31.582 30.0596H16.582V27.8623H31.582V30.0596Z" fill="#46C770"/>
</svg>
