<svg width="63" height="63" viewBox="0 0 63 63" fill="none" xmlns="http://www.w3.org/2000/svg">
<g clip-path="url(#clip0)">
<path d="M55.3567 12.7558L31.6785 0.138821C31.3272 -0.0486575 30.9062 -0.0460263 30.5576 0.145399L7.53462 12.7623C7.15703 12.9696 6.92285 13.3656 6.92285 13.7964V30.2774C6.93667 43.8252 14.9634 56.0816 27.3764 61.5093L30.5721 62.9019C30.8707 63.0321 31.2108 63.0328 31.5101 62.9032L35.111 61.3481C47.7543 56.0382 55.9796 43.6633 55.9809 29.9505V13.7964C55.9809 13.361 55.7408 12.9603 55.3567 12.7558ZM53.6233 29.9505C53.6207 42.7181 45.9604 54.2384 34.1881 59.1793L34.1802 59.1832L31.0444 60.537L28.3197 59.3483C16.7651 54.2963 9.29297 42.8884 9.27981 30.2774V14.4944L31.1319 2.51815L53.6233 14.5029V29.9505Z" fill="#393939"/>
<path d="M22.4342 29.5126C22.0112 29.0173 21.2672 28.9587 20.7719 29.3817C20.2765 29.804 20.218 30.5487 20.641 31.0433L26.8679 38.3352C27.2836 38.822 28.0118 38.8885 28.5078 38.4846L43.0101 26.6859C43.5153 26.2755 43.5916 25.5328 43.1804 25.0276C42.77 24.523 42.0273 24.4461 41.5221 24.8572L27.9131 35.9283L22.4342 29.5126Z" fill="#46C770"/>
</g>
<defs>
<clipPath id="clip0">
<rect width="63" height="63" fill="white"/>
</clipPath>
</defs>
</svg>
