<svg width="72" height="66" viewBox="0 0 72 66" fill="none" xmlns="http://www.w3.org/2000/svg">
<path d="M48.7478 27.1438L45.7595 21.6652C45.6973 21.5407 45.5728 21.4785 45.4482 21.4785H26.8338C26.7093 21.4785 26.5848 21.5407 26.5225 21.6652L23.5342 27.1438H31.6275H48.7478Z" fill="#46C770"/>
<path d="M51.6119 49.2447H50.1177C48.1255 49.2447 46.5069 47.626 46.5069 45.6338V43.4548H25.7756V45.6338C25.7756 47.626 24.157 49.2447 22.1648 49.2447H20.6707C18.6785 49.2447 17.0598 47.626 17.0598 45.6338V32.2488L14.9431 31.4395C14.3205 31.1905 13.8848 30.6301 13.8848 29.9453V27.7664C13.8848 26.8948 14.5696 26.21 15.4412 26.21H18.554C19.1143 26.21 19.6123 25.8987 19.8613 25.4629L22.9741 19.7976C23.7212 18.3657 25.2154 17.4941 26.834 17.4941H45.4485C47.0672 17.4941 48.5614 18.3657 49.3084 19.7976L52.4212 25.4629C52.6702 25.9609 53.1683 26.21 53.7286 26.21H56.8414C57.713 26.21 58.3978 26.8948 58.3978 27.7664V29.9453C58.3978 30.6301 57.962 31.1905 57.3395 31.4395L55.2227 32.2488V45.6338C55.2227 47.5637 53.6041 49.2447 51.6119 49.2447ZM23.908 41.5872H48.3746V45.6338C48.3746 46.5676 49.1839 47.377 50.1177 47.377H51.6119C52.5457 47.377 53.3551 46.5676 53.3551 45.6338V30.9414L56.5301 29.7585V28.0154H53.7286C52.4835 28.0154 51.3629 27.3306 50.8026 26.2722L47.6898 20.6069C47.254 19.7976 46.3823 19.2996 45.4485 19.2996H26.834C25.9002 19.2996 25.0908 19.7976 24.5928 20.6069L21.48 26.2722C20.9197 27.3306 19.7368 28.0154 18.554 28.0154H15.7524V29.7585L18.9275 30.9414V45.6338C18.9275 46.5676 19.7368 47.377 20.6707 47.377H22.1648C23.0987 47.377 23.908 46.5676 23.908 45.6338V41.5872Z" fill="#344154"/>
<path d="M28.2653 38.3501H20.9192C20.4211 38.3501 19.9854 37.9143 19.9854 37.4162C19.9854 36.9182 20.4211 36.4824 20.9192 36.4824H26.3977V36.2956C26.3977 35.6108 25.8997 35.0505 25.2771 34.9882L21.0437 34.3657C20.5456 34.3034 20.1721 33.8054 20.2343 33.3074C20.2966 32.8093 20.7947 32.4357 21.2927 32.498L25.5261 33.1206C27.0825 33.3696 28.2653 34.7392 28.2653 36.2956V38.3501Z" fill="#344154"/>
<path d="M51.3628 38.3502H44.0166V36.2957C44.0166 34.7393 45.1995 33.3697 46.7559 33.1206L50.9892 32.4981C51.4873 32.4358 51.9854 32.7471 52.0476 33.3074C52.1099 33.8055 51.7986 34.3035 51.2383 34.3658L47.0048 34.9883C46.32 35.1128 45.8843 35.6731 45.8843 36.2957V36.4825H51.3628C51.8608 36.4825 52.2966 36.9183 52.2966 37.4163C52.2966 37.9144 51.8608 38.3502 51.3628 38.3502Z" fill="#344154"/>
<path d="M40.8416 38.4116H31.5032C31.0051 38.4116 30.5693 37.9758 30.5693 37.4778C30.5693 36.9797 31.0051 36.5439 31.5032 36.5439H40.8416C41.3396 36.5439 41.7754 36.9797 41.7754 37.4778C41.7754 37.9758 41.3396 38.4116 40.8416 38.4116Z" fill="#344154"/>
<path d="M40.8413 38.4119C40.7791 38.4119 40.779 38.4119 40.7168 38.4119C40.2187 38.3496 39.8452 37.9139 39.9075 37.3536L40.2188 34.6765H32.1255L32.4368 37.3536C32.499 37.8516 32.1255 38.3496 31.6274 38.4119C31.1294 38.4741 30.6314 38.1006 30.5691 37.6025L30.0088 32.8711H42.3354L41.7752 37.6025C41.7129 38.1006 41.2771 38.4119 40.8413 38.4119Z" fill="#344154"/>
<path d="M24.8418 43.4546H22.0403C21.5422 43.4546 21.1064 43.0188 21.1064 42.5208C21.1064 42.0227 21.5422 41.5869 22.0403 41.5869H24.8418C25.3399 41.5869 25.7756 42.0227 25.7756 42.5208C25.7756 43.0188 25.3399 43.4546 24.8418 43.4546Z" fill="#344154"/>
<path d="M51.0515 43.4546H47.4407C46.9426 43.4546 46.5068 43.0188 46.5068 42.5208C46.5068 42.0227 46.9426 41.5869 47.4407 41.5869H51.0515C51.5495 41.5869 51.9853 42.0227 51.9853 42.5208C51.9853 43.0188 51.5495 43.4546 51.0515 43.4546Z" fill="#344154"/>
<path d="M24.8415 43.4546H21.2307C20.7327 43.4546 20.2969 43.0188 20.2969 42.5208C20.2969 42.0227 20.7327 41.5869 21.2307 41.5869H24.8415C25.3396 41.5869 25.7754 42.0227 25.7754 42.5208C25.7754 43.0188 25.3396 43.4546 24.8415 43.4546Z" fill="#344154"/>
<path d="M68.855 29.6961C68.357 29.6961 67.9212 29.2603 67.9212 28.7622C67.8589 21.6028 64.9952 14.8792 59.9524 9.83643C54.8474 4.73145 47.9993 1.86768 40.7776 1.86768C40.2795 1.86768 39.8438 1.43189 39.8438 0.933839C39.8438 0.435792 40.2795 0 40.7776 0C48.4973 0 55.7813 3.05053 61.2598 8.52906C66.676 13.9453 69.6643 21.1048 69.7889 28.7C69.7889 29.2603 69.3531 29.6961 68.855 29.6961Z" fill="#344154"/>
<path d="M66.1411 29.6654L68.5229 32.4441C68.7466 32.7052 69.1396 32.7354 69.4007 32.5117C69.4249 32.4909 69.4475 32.4684 69.4682 32.4441L71.85 29.6654C72.0738 29.4044 72.0435 29.0113 71.7825 28.7876C71.6696 28.6909 71.5259 28.6377 71.3773 28.6377H66.6138C66.2699 28.6377 65.9912 28.9164 65.9912 29.2603C65.9912 29.4089 66.0444 29.5526 66.1411 29.6654Z" fill="#344154"/>
<path d="M2.80124 35.4856C3.29929 35.4856 3.73508 35.9214 3.73508 36.4194C3.79733 43.5788 6.6611 50.3025 11.7038 55.3452C16.8088 60.4502 23.657 63.314 30.8787 63.314C31.3767 63.314 31.8125 63.7498 31.8125 64.2478C31.8125 64.7458 31.3767 65.1816 30.8787 65.1816C23.1589 65.1816 15.875 62.1311 10.3965 56.6526C4.9802 51.2363 1.99191 44.0769 1.8674 36.4817C1.8674 35.9214 2.30319 35.4856 2.80124 35.4856Z" fill="#344154"/>
<path d="M5.85891 35.3688L3.47714 32.59C3.25337 32.329 2.86035 32.2987 2.5993 32.5225C2.57509 32.5433 2.55252 32.5658 2.53177 32.59L0.149996 35.3688C-0.0737662 35.6298 -0.0435338 36.0228 0.217522 36.2466C0.330356 36.3433 0.474067 36.3965 0.622679 36.3965L5.38623 36.3965C5.73006 36.3965 6.00879 36.1178 6.00879 35.7739C6.00879 35.6253 5.95563 35.4816 5.85891 35.3688Z" fill="#344154"/>
</svg>
