<svg width="65" height="65" viewBox="0 0 65 65" fill="none" xmlns="http://www.w3.org/2000/svg">
<path d="M48 12L11 49M13.5 52L51 14.5M53.5 17.5L16.5 54.5" stroke="#46C770"/>
<path d="M32.5 5C17.3365 5 5 17.3365 5 32.5C5 47.6635 17.3365 60 32.5 60C47.6635 60 60 47.6635 60 32.5C60 17.3365 47.6635 5 32.5 5ZM32.5 58.1667C18.3476 58.1667 6.83333 46.6524 6.83333 32.5C6.83333 18.3476 18.3476 6.83333 32.5 6.83333C46.6524 6.83333 58.1667 18.3476 58.1667 32.5C58.1667 46.6524 46.6524 58.1667 32.5 58.1667Z" fill="#393939"/>
<path d="M0.25 32.5C0.25 14.7176 14.7176 0.25 32.5 0.25C50.2824 0.25 64.75 14.7176 64.75 32.5C64.75 50.2824 50.2824 64.75 32.5 64.75C14.7176 64.75 0.25 50.2824 0.25 32.5ZM1.91667 32.5C1.91667 49.3637 15.6363 63.0833 32.5 63.0833C49.3637 63.0833 63.0833 49.3637 63.0833 32.5C63.0833 15.6363 49.3637 1.91667 32.5 1.91667C15.6363 1.91667 1.91667 15.6363 1.91667 32.5Z" fill="#393939" stroke="white" stroke-width="0.5"/>
</svg>
