<svg width="55" height="55" viewBox="0 0 55 55" fill="none" xmlns="http://www.w3.org/2000/svg">
<path d="M32.6564 32.6562H11.172C10.9441 32.6562 10.7256 32.7469 10.5645 32.908L0.251953 43.2205L1.46711 44.4357L11.5278 34.375H31.7111C31.5323 35.3951 30.9712 36.9531 29.2189 36.9531H19.7658V38.6719H29.2189C32.6177 38.6719 33.5158 35.2988 33.5158 33.5156C33.5158 33.041 33.131 32.6562 32.6564 32.6562Z" fill="black"/>
<path d="M43.5765 26.8913C43.2409 26.5558 42.6969 26.5558 42.3613 26.8913L34.627 34.6256L35.8421 35.8408L42.901 28.7827C44.0646 30.3263 43.8283 32.5083 42.3613 33.7671L32.3006 43.8278H14.6095C14.3816 43.8278 14.1631 43.9185 14.002 44.0796L7.98633 50.0952L9.20148 51.3104L14.9653 45.5466H32.6564C32.8845 45.5462 33.103 45.4554 33.264 45.2939L43.5765 34.9814C46.7768 31.782 44.9755 28.2903 43.5765 26.8913Z" fill="black"/>
<path d="M27.5 0C12.3122 0 0 12.3122 0 27.5H1.71875C1.71875 13.2614 13.2614 1.71875 27.5 1.71875C41.7386 1.71875 53.2812 13.2614 53.2812 27.5C53.2812 41.7386 41.7386 53.2812 27.5 53.2812V55C42.6878 55 55 42.6878 55 27.5C55 12.3122 42.6878 0 27.5 0Z" fill="black"/>
<path d="M36.0938 16.3281H30.0781V18.0469H34.0192L25.4255 26.6406H21.4844V28.3594H25.7812C26.0092 28.3594 26.2277 28.2687 26.3888 28.1076L35.2344 19.262V22.3438H36.9531V17.1875C36.9531 16.7129 36.5683 16.3281 36.0938 16.3281Z" fill="#46C770"/>
<path d="M9.45328 26.6406C9.22533 26.6406 9.00683 26.7313 8.8457 26.8924L6.26758 29.4705L7.48273 30.6857L9.80906 28.3594H16.3283V26.6406H9.45328Z" fill="#46C770"/>
<path d="M19.7656 26.6406H18.0469V28.3594H19.7656V26.6406Z" fill="#46C770"/>
<path d="M6.95801 19.5999L8.5977 20.1155C11.0512 12.2184 18.3708 6.84697 26.6403 6.87512V5.15637C17.6196 5.12629 9.63507 10.9855 6.95801 19.5999Z" fill="#46C770"/>
</svg>
