<svg width="68" height="69" viewBox="0 0 68 69" fill="none" xmlns="http://www.w3.org/2000/svg">
<path d="M11.223 23.988L11.2231 23.9881C11.7713 24.5718 12.4989 25.3443 13.908 25.3443C15.3176 25.3443 16.0441 24.5724 16.5934 23.9886L16.5938 23.9882L11.223 23.988ZM11.223 23.988C10.996 23.7466 10.8222 23.5657 10.6433 23.4475C10.4579 23.325 10.2693 23.271 10.0161 23.271C8.74374 23.271 7.69032 24.2029 7.69032 25.3697C7.69032 25.8154 7.84458 26.2413 8.13422 26.601L8.13507 26.602L13.802 33.4508L13.832 33.4871H13.879H21.7339H21.7809L21.8109 33.4508L27.4879 26.5898L27.4887 26.5887C27.7686 26.2409 27.9226 25.815 27.9226 25.3697C27.9226 24.2029 26.8692 23.271 25.5968 23.271C25.342 23.271 25.1524 23.325 24.966 23.4475C24.7861 23.5658 24.6115 23.747 24.3833 23.989L24.3832 23.9891C23.835 24.5718 23.1074 25.3443 21.6972 25.3443C20.2869 25.3443 19.5582 24.5717 19.0101 23.9881L19.01 23.988M11.223 23.988H19.01M19.01 23.988C18.7829 23.7466 18.6088 23.5656 18.4293 23.4474C18.2433 23.325 18.054 23.271 17.7998 23.271C17.5461 23.271 17.3572 23.325 17.1719 23.4475M19.01 23.988L17.1719 23.4475M17.1719 23.4475C16.9931 23.5657 16.8199 23.7467 16.594 23.988L17.1719 23.4475ZM29.5499 39.6572L29.5499 39.6572L29.5528 39.6596C33.3293 42.789 35.5129 47.4228 35.5129 52.3499C35.5129 61.4744 28.0461 68.9 18.8682 68.9H16.7447C7.56679 68.9 0.1 61.4744 0.1 52.3499C0.1 47.4229 2.2835 42.7891 6.09129 39.634L6.09133 39.6341L6.09413 39.6316L11.8812 34.4588L11.953 34.3947L11.8916 34.3205L6.56499 27.8823C6.56486 27.8821 6.56472 27.8819 6.56459 27.8818C5.98003 27.1557 5.66452 26.2665 5.66452 25.3697C5.66452 23.1005 7.6113 21.2452 10.0161 21.2452C11.4252 21.2452 12.1516 22.0176 12.6999 22.6014L12.7 22.6015C12.927 22.8429 13.1008 23.0238 13.2797 23.142C13.4651 23.2644 13.6536 23.3185 13.9068 23.3185C14.1605 23.3185 14.3496 23.2645 14.5353 23.142C14.7146 23.0238 14.8883 22.8428 15.1149 22.6014C15.4932 22.1986 15.9602 21.715 16.6687 21.448L16.8138 21.3933L16.7042 21.2837L9.95218 14.5317C9.34099 13.9205 9.00323 13.1068 9.00323 12.2419C9.00323 11.3771 9.34099 10.5634 9.95218 9.95218C11.132 8.77235 13.1684 8.72475 14.4011 9.828L14.5677 9.97719V9.75348V5.56452C14.5677 2.55147 17.0192 0.1 20.0323 0.1H27.8226C29.6081 0.1 31.0613 1.5532 31.0613 3.33871C31.0613 5.12422 29.6081 6.57742 27.8226 6.57742H21.1452H21.0452V6.67742V9.75348V9.97733L21.2119 9.82797C22.4445 8.7237 24.482 8.77229 25.663 9.95221L25.663 9.95224C26.2741 10.5622 26.6108 11.3747 26.6108 12.2419C26.6108 13.1091 26.2741 13.9217 25.663 14.5328L18.9076 21.287L18.7985 21.3962L18.9427 21.4512C19.646 21.7193 20.1121 22.1999 20.488 22.6003C20.7151 22.8423 20.8892 23.0235 21.0689 23.1419C21.255 23.2645 21.4447 23.3185 21.6994 23.3185C21.9531 23.3185 22.1424 23.2645 22.3285 23.1421C22.5081 23.0239 22.6825 22.843 22.9096 22.6015L22.9097 22.6014C23.4579 22.0177 24.1854 21.2452 25.5968 21.2452C28.0016 21.2452 29.9484 23.1005 29.9484 25.3697C29.9484 26.2667 29.6328 27.1559 29.0583 27.8707C29.0582 27.8709 29.058 27.871 29.0579 27.8712L23.7213 34.3194L23.6599 34.3936L23.7317 34.4577L29.5499 39.6572ZM16.5935 5.56452V14.8785L13.0995 11.3844C12.8682 11.1531 12.5701 11.029 12.2419 11.029C11.9137 11.029 11.6157 11.1531 11.3844 11.3844C11.1531 11.6157 11.029 11.9137 11.029 12.2419C11.029 12.5701 11.1531 12.8682 11.3844 13.0995L17.7357 19.4508L17.8065 19.5215L17.8772 19.4508L24.2285 13.0995C24.4566 12.8714 24.5828 12.5666 24.5828 12.2419C24.5828 11.9172 24.4565 11.6135 24.2285 11.3855C23.763 10.9178 22.9786 10.9193 22.5134 11.3844L19.0194 14.8785V4.55161H27.8226C28.4921 4.55161 29.0355 4.00826 29.0355 3.33871C29.0355 2.66916 28.4921 2.12581 27.8226 2.12581H20.0323C18.1363 2.12581 16.5935 3.66855 16.5935 5.56452ZM13.78 35.5129H13.7418L13.7133 35.5383L7.41351 41.1684C4.04184 43.9627 2.12581 48.029 2.12581 52.3499C2.12581 60.3596 8.68502 66.8742 16.7447 66.8742H18.8682C26.9279 66.8742 33.4871 60.3596 33.4871 52.3499C33.4871 48.0292 31.5712 43.9629 28.2306 41.194L21.8996 35.5383L21.8711 35.5129H21.8329H13.78Z" fill="#393939" stroke="white" stroke-width="0.2"/>
<path d="M41.2777 13.3548C41.2777 6.04599 47.2237 0.1 54.5326 0.1C61.8414 0.1 67.7874 6.04599 67.7874 13.3548C67.7874 20.6637 61.8414 26.6097 54.5326 26.6097C47.2237 26.6097 41.2777 20.6637 41.2777 13.3548ZM43.3035 13.3548C43.3035 19.5466 48.3408 24.5839 54.5326 24.5839C60.7243 24.5839 65.7616 19.5466 65.7616 13.3548C65.7616 7.16306 60.7243 2.12581 54.5326 2.12581C48.3408 2.12581 43.3035 7.16306 43.3035 13.3548Z" fill="#393939" stroke="white" stroke-width="0.2"/>
<path d="M48.3152 18.136L59.3011 7.15022L60.7333 8.58245L49.7475 19.5683L48.3152 18.136Z" fill="#393939" stroke="white" stroke-width="0.2"/>
<path d="M55.7445 17.8065C55.7445 16.0209 57.1977 14.5677 58.9832 14.5677C60.7688 14.5677 62.222 16.0209 62.222 17.8065C62.222 19.592 60.7688 21.0452 58.9832 21.0452C57.1977 21.0452 55.7445 19.592 55.7445 17.8065ZM57.7703 17.8065C57.7703 18.476 58.3137 19.0194 58.9832 19.0194C59.6528 19.0194 60.1961 18.476 60.1961 17.8065C60.1961 17.1369 59.6528 16.5935 58.9832 16.5935C58.3137 16.5935 57.7703 17.1369 57.7703 17.8065Z" fill="#393939" stroke="white" stroke-width="0.2"/>
<path d="M50.0809 5.66451C51.8664 5.66451 53.3196 7.11771 53.3196 8.90322C53.3196 10.6887 51.8664 12.1419 50.0809 12.1419C48.2954 12.1419 46.8422 10.6887 46.8422 8.90322C46.8422 7.11771 48.2954 5.66451 50.0809 5.66451ZM50.0809 7.69032C49.4113 7.69032 48.868 8.23367 48.868 8.90322C48.868 9.57277 49.4113 10.1161 50.0809 10.1161C50.7504 10.1161 51.2938 9.57277 51.2938 8.90322C51.2938 8.23367 50.7504 7.69032 50.0809 7.69032Z" fill="#393939" stroke="white" stroke-width="0.2"/>
<path d="M45.565 46.8059L45.565 46.8059C44.9539 46.1959 44.6172 45.3834 44.6172 44.5162C44.6172 43.649 44.9539 42.8364 45.565 42.2253C45.565 42.2253 45.565 42.2253 45.565 42.2253L53.4193 34.3721L61.2736 42.2264C61.8847 42.8376 62.2225 43.6513 62.2225 44.5162C62.2225 45.3811 61.8858 46.1948 61.2736 46.8059L61.2735 46.806C60.0948 47.9857 58.0574 48.0334 56.8247 46.9301L56.658 46.7809V47.0046V51.1936C56.658 54.2066 54.2065 56.6581 51.1935 56.6581H43.4032C41.6176 56.6581 40.1645 55.2049 40.1645 53.4194C40.1645 51.6339 41.6176 50.1807 43.4032 50.1807H50.0806H50.1806V50.0807V47.0046V46.7806L50.0138 46.9302C48.7824 48.0344 46.7449 47.9858 45.565 46.8059ZM54.6322 41.8796L58.1263 45.3737C58.5916 45.839 59.376 45.839 59.8413 45.3737C60.0726 45.1424 60.1967 44.8444 60.1967 44.5162C60.1967 44.188 60.0726 43.8899 59.8413 43.6586L53.49 37.3073L53.4193 37.2366L53.3486 37.3073L46.9972 43.6586C46.7692 43.8867 46.643 44.1915 46.643 44.5162C46.643 44.8409 46.7693 45.1446 46.9972 45.3726C47.4627 45.8403 48.2472 45.8388 48.7123 45.3737L52.2064 41.8796V52.2065H43.4032C42.7336 52.2065 42.1903 52.7498 42.1903 53.4194C42.1903 54.0889 42.7336 54.6323 43.4032 54.6323H51.1935C53.0895 54.6323 54.6322 53.0896 54.6322 51.1936V41.8796Z" fill="#393939" stroke="white" stroke-width="0.2"/>
<path d="M18.2324 59.9626H16.2252V48.8897H11.5195V47.2171H22.9381V48.8897H18.2324V59.9626ZM22.9381 45.5445H11.5195V43.8718H22.9381V45.5445Z" fill="#46C770"/>
</svg>
