<svg width="61" height="53" viewBox="0 0 61 53" fill="none" xmlns="http://www.w3.org/2000/svg">
<path d="M30.0599 5.1167C27.5017 5.1167 25.4551 7.16331 25.4551 9.72157C25.4551 12.2798 27.5017 14.3264 30.0599 14.3264C32.6182 14.3264 34.6648 12.2798 34.6648 9.72157C34.6648 7.16331 32.6182 5.1167 30.0599 5.1167ZM30.0599 11.41C29.139 11.41 28.3715 10.6425 28.3715 9.72157C28.3715 8.8006 29.139 8.03311 30.0599 8.03311C30.9809 8.03311 31.7484 8.8006 31.7484 9.72157C31.7484 10.6425 30.9809 11.41 30.0599 11.41Z" fill="#F2DDDE"/>
<path d="M30.0601 28.0898C23.511 28.0898 18.1387 33.411 18.1387 40.0113C18.1387 46.6117 23.4598 51.9328 30.0601 51.9328C36.6605 51.9328 41.9817 46.6117 41.9817 40.0113C41.9817 33.411 36.6093 28.0898 30.0601 28.0898ZM37.6326 41.0858L36.3023 41.1881C36.0977 42.2626 35.6371 43.2859 34.9208 44.1046L35.6883 45.2302C35.9953 45.6395 35.893 46.2535 35.4325 46.5093L34.2046 47.328C33.7952 47.635 33.1813 47.5326 32.9254 47.0722L32.158 45.9977C31.0835 46.3558 29.9578 46.4582 28.9345 46.2535L28.3717 47.4815C28.1671 47.942 27.6042 48.1466 27.1437 47.942L25.8135 47.328C25.353 47.1233 25.1483 46.5605 25.353 46.1L25.9158 44.872C25.0971 44.1557 24.4831 43.2859 24.0738 42.2115L22.7435 42.3138C22.2319 42.3649 21.7714 41.9556 21.7202 41.444L21.6179 39.9602C21.5667 39.4485 21.9761 38.988 22.4877 38.9369L23.818 38.8345C24.0227 37.7601 24.4831 36.7368 25.1994 35.9181L24.432 34.7925C24.125 34.3832 24.2273 33.7692 24.6878 33.5134L25.9158 32.6947C26.3251 32.3877 26.9391 32.4901 27.1949 32.9505L27.9624 34.025C29.0368 33.6669 30.1625 33.5645 31.1858 33.7692L31.7486 32.5412C31.9533 32.0807 32.5161 31.8761 32.9766 32.0807L34.3069 32.6947C34.7674 32.8994 34.972 33.4622 34.7674 33.9227L34.2046 35.1506C35.0232 35.867 35.6372 36.7368 36.0465 37.8112L37.3768 37.7089C37.8884 37.6577 38.3489 38.0671 38.4001 38.5787L38.5024 40.0625C38.5024 40.5742 38.1443 41.0346 37.6326 41.0858Z" fill="#46C770"/>
<path d="M27.5006 48.7606C27.2448 48.7606 26.989 48.7094 26.7843 48.6071L25.454 47.9931C25.0447 47.7884 24.7377 47.4303 24.5842 47.021C24.4307 46.6116 24.4819 46.1512 24.6353 45.7418L24.9935 45.0255C24.4307 44.4115 23.919 43.7464 23.612 42.9789L22.8446 43.0301C21.9236 43.0812 21.105 42.4161 21.0026 41.4951L20.9003 40.0113C20.8492 39.5508 21.0026 39.1415 21.3096 38.7834C21.6166 38.4252 22.0259 38.2205 22.4864 38.1694L23.2539 38.1182C23.4586 37.2996 23.8167 36.5832 24.3284 35.9181L23.8679 35.3041C23.612 34.946 23.5097 34.4855 23.612 34.025C23.7144 33.5645 23.9702 33.2063 24.3284 32.9505L25.5563 32.1319C25.9145 31.876 26.375 31.7737 26.8355 31.876C27.296 31.9784 27.6541 32.2342 27.9099 32.5924L28.3704 33.2063C29.1891 33.0017 30.0077 32.9505 30.8263 33.0017L31.1845 32.2854C31.3892 31.876 31.7474 31.5691 32.1567 31.4156C32.566 31.2621 33.0265 31.2621 33.4358 31.4667L34.7661 32.0807C35.1754 32.2854 35.4824 32.6435 35.6359 33.0528C35.7894 33.4622 35.7382 33.9227 35.5847 34.332L35.2266 35.0483C35.7894 35.6623 36.301 36.3274 36.608 37.0949L37.3755 37.0437C38.2965 36.9926 39.1151 37.6577 39.2174 38.5787L39.3198 40.0625C39.371 40.523 39.2175 40.9323 38.9105 41.2904C38.6035 41.6486 38.1941 41.8533 37.7336 41.9044L36.9662 41.9556C36.7615 42.7743 36.4034 43.4906 35.8917 44.1557L36.3522 44.7697C36.8639 45.5372 36.7103 46.6116 35.8917 47.1233L34.6637 47.9419C34.3056 48.1978 33.8451 48.3001 33.3846 48.1978C32.9241 48.0954 32.566 47.8396 32.3101 47.4814L31.8496 46.8675C31.031 47.0721 30.2124 47.1233 29.3937 47.0721L29.0355 47.7884C28.7286 48.4024 28.1146 48.7606 27.5006 48.7606ZM24.5842 41.3416L24.7889 41.9044C25.0959 42.8254 25.6587 43.6441 26.4261 44.258L26.8866 44.6162L26.068 46.3558C26.068 46.407 26.068 46.4581 26.068 46.4581C26.068 46.5093 26.1191 46.5093 26.1703 46.5605L27.5006 47.1745C27.6029 47.2256 27.7053 47.1745 27.7053 47.0721L28.5239 45.3325L29.0868 45.4348C30.0589 45.5883 31.031 45.5372 31.9008 45.2302L32.4637 45.0255L33.5381 46.6116C33.5893 46.6628 33.5893 46.6628 33.6404 46.6628C33.6916 46.6628 33.6916 46.6628 33.7428 46.6116L34.9708 45.793C35.0219 45.7418 35.0731 45.6395 35.0219 45.5883L33.9475 44.0022L34.3056 43.5417C34.9196 42.8254 35.3289 41.9044 35.5336 40.9835L35.6359 40.4206L37.529 40.2671C37.5802 40.2671 37.6313 40.216 37.6313 40.216C37.6313 40.216 37.6825 40.1648 37.6825 40.1137L37.5802 38.6299C37.5802 38.5275 37.4778 38.4764 37.4267 38.4764L35.5336 38.6299L35.3289 38.067C35.0219 37.1461 34.4591 36.3274 33.6916 35.7134L33.2311 35.3553L34.0498 33.6157C34.0498 33.5645 34.0498 33.5133 34.0498 33.5133C34.0498 33.4622 33.9986 33.4622 33.9475 33.411L32.6171 32.797C32.5659 32.797 32.5148 32.797 32.5148 32.797C32.4636 32.797 32.4637 32.8482 32.4125 32.8994L31.5938 34.639L31.031 34.5366C30.0589 34.3832 29.0867 34.4343 28.2169 34.7413L27.6541 34.946L26.5797 33.3598C26.5285 33.3087 26.5284 33.3087 26.4773 33.3087C26.4261 33.3087 26.4261 33.3087 26.375 33.3598L25.147 34.1785C25.0958 34.2296 25.0958 34.2297 25.0958 34.2808C25.0958 34.332 25.0958 34.332 25.147 34.3831L26.2215 35.9693L25.8633 36.4298C25.2493 37.1461 24.84 38.067 24.6353 38.988L24.533 39.5508L22.6399 39.7043C22.5887 39.7043 22.5376 39.7555 22.5376 39.7555C22.5376 39.7555 22.4864 39.8067 22.4864 39.8578L22.5887 41.3416C22.5887 41.4439 22.6911 41.4951 22.7423 41.4951L24.5842 41.3416Z" fill="#344154"/>
<path d="M30.06 52.7002C23.0504 52.7002 17.3711 47.0209 17.3711 40.0112C17.3711 33.0016 23.0504 27.3223 30.06 27.3223C37.0697 27.3223 42.749 33.0016 42.749 40.0112C42.749 47.0209 37.0185 52.7002 30.06 52.7002ZM30.06 28.8572C23.9202 28.8572 18.9061 33.8714 18.9061 40.0112C18.9061 46.1511 23.9202 51.1653 30.06 51.1653C36.1999 51.1653 41.2141 46.1511 41.2141 40.0112C41.2141 33.8714 36.1999 28.8572 30.06 28.8572Z" fill="#344154"/>
<path d="M5.08992 26.9642C4.88526 26.9642 4.68061 26.913 4.52712 26.7595C4.22013 26.4525 4.22013 25.992 4.52712 25.685L15.6811 14.531C15.9881 14.224 16.4486 14.224 16.7556 14.531C17.0626 14.838 17.0626 15.2985 16.7556 15.6055L5.65273 26.7595C5.49923 26.913 5.29458 26.9642 5.08992 26.9642Z" fill="#344154"/>
<path d="M2.94149 24.8153C2.73683 24.8153 2.53218 24.7641 2.37868 24.6106C2.07169 24.3036 2.07169 23.8431 2.37868 23.5361L13.5327 12.3821C13.8397 12.0751 14.3002 12.0751 14.6072 12.3821C14.9142 12.6891 14.9142 13.1496 14.6072 13.4566L3.45314 24.6106C3.35081 24.7641 3.14615 24.8153 2.94149 24.8153Z" fill="#344154"/>
<path d="M0.793049 22.6663C0.588388 22.6663 0.383739 22.6152 0.230244 22.4617C-0.0767479 22.1547 -0.0767479 21.6942 0.230244 21.3872L11.3842 10.2332C11.6912 9.92618 12.1518 9.92618 12.4587 10.2332C12.7657 10.5402 12.7657 11.0006 12.4587 11.3076L1.3047 22.4617C1.20237 22.6152 0.99771 22.6663 0.793049 22.6663Z" fill="#344154"/>
<path d="M55.0291 26.9642C54.8245 26.9642 54.6198 26.913 54.4663 26.7595L43.3123 15.6055C43.0053 15.2985 43.0053 14.838 43.3123 14.531C43.6193 14.224 44.0797 14.224 44.3867 14.531L55.5408 25.685C55.8478 25.992 55.8478 26.4525 55.5408 26.7595C55.3873 26.913 55.1826 26.9642 55.0291 26.9642Z" fill="#344154"/>
<path d="M57.1775 24.8153C56.9728 24.8153 56.7682 24.7641 56.6147 24.6106L45.4607 13.4566C45.1537 13.1496 45.1537 12.6891 45.4607 12.3821C45.7677 12.0751 46.2282 12.0751 46.5352 12.3821L57.6892 23.5361C57.9961 23.8431 57.9961 24.3036 57.6892 24.6106C57.5357 24.7641 57.3822 24.8153 57.1775 24.8153Z" fill="#344154"/>
<path d="M59.326 22.6663C59.1213 22.6663 58.9167 22.6152 58.7632 22.4617L47.6091 11.3076C47.3022 11.0006 47.3022 10.5402 47.6091 10.2332C47.9161 9.92618 48.3766 9.92618 48.6836 10.2332L59.8377 21.3872C60.1446 21.6942 60.1446 22.1547 59.8377 22.4617C59.6842 22.6152 59.5307 22.6663 59.326 22.6663Z" fill="#344154"/>
<path d="M54.2617 16.8845L53.1873 15.7589L57.7922 11.154L48.1731 1.53496H11.8969L2.32904 11.154L6.93391 15.7589L5.8083 16.8845L0.128906 11.154L11.283 0H48.8382L59.9922 11.154L54.2617 16.8845Z" fill="#344154"/>
<path d="M18.9052 38.5788L7.85352 27.5271L17.5749 17.8057L28.6266 28.8574L27.2963 29.1644C23.3054 30.1877 20.2355 33.2576 19.2122 37.2485L18.9052 38.5788ZM10.0024 27.5271L18.1377 35.6623C19.4168 32.1831 22.1797 29.4202 25.659 28.141L17.5237 20.0058L10.0024 27.5271Z" fill="#344154"/>
<path d="M41.1628 38.5788L40.8558 37.2485C39.8325 33.2576 36.7626 30.1877 32.7717 29.1644L31.4414 28.8574L42.4931 17.8057L52.2145 27.5271L41.1628 38.5788ZM34.409 28.0899C37.8882 29.369 40.6511 32.1319 41.9303 35.6112L50.0656 27.4759L42.5442 19.9546L34.409 28.0899Z" fill="#344154"/>
<path d="M30.0599 15.0938C27.0923 15.0938 24.6875 12.6891 24.6875 9.72147C24.6875 6.75389 27.0923 4.34912 30.0599 4.34912C33.0274 4.34912 35.4322 6.75389 35.4322 9.72147C35.4322 12.6891 33.0274 15.0938 30.0599 15.0938ZM30.0599 5.88408C27.9621 5.88408 26.2225 7.6237 26.2225 9.72147C26.2225 11.8192 27.9621 13.5589 30.0599 13.5589C32.1576 13.5589 33.8972 11.8192 33.8972 9.72147C33.8972 7.6237 32.1576 5.88408 30.0599 5.88408Z" fill="#344154"/>
<path d="M30.0594 12.1772C28.7291 12.1772 27.6035 11.0516 27.6035 9.72132C27.6035 8.39103 28.7291 7.26538 30.0594 7.26538C31.3897 7.26538 32.5154 8.39103 32.5154 9.72132C32.5154 11.0516 31.3897 12.1772 30.0594 12.1772ZM30.0594 8.80034C29.5478 8.80034 29.1385 9.20967 29.1385 9.72132C29.1385 10.233 29.5478 10.6423 30.0594 10.6423C30.5711 10.6423 30.9804 10.233 30.9804 9.72132C30.9804 9.20967 30.5711 8.80034 30.0594 8.80034Z" fill="#344154"/>
<path d="M36.0963 21.2336C35.7382 21.2336 35.38 20.9266 35.3289 20.5685L33.8962 9.05629C33.845 8.64697 34.1521 8.23765 34.5614 8.18649C34.9707 8.13532 35.38 8.44231 35.4312 8.85163L36.8638 20.3638C36.915 20.7731 36.608 21.1825 36.1986 21.2336C36.1475 21.2336 36.0963 21.2336 36.0963 21.2336Z" fill="#344154"/>
<path d="M24.0211 21.2336C23.9699 21.2336 23.9699 21.2336 23.9187 21.2336C23.5094 21.1825 23.2025 20.7731 23.2536 20.3638L24.6862 8.85163C24.7374 8.44231 25.0956 8.13532 25.5561 8.18649C25.9654 8.23765 26.2723 8.64697 26.2212 9.05629L24.7886 20.5685C24.7374 20.9266 24.4304 21.2336 24.0211 21.2336Z" fill="#344154"/>
</svg>
