<svg width="72" height="66" viewBox="0 0 72 66" fill="none" xmlns="http://www.w3.org/2000/svg">
<path d="M48.7488 27.1435L45.7605 21.665C45.6982 21.5405 45.5737 21.4783 45.4492 21.4783H26.8348C26.7102 21.4783 26.5857 21.5405 26.5235 21.665L23.5352 27.1435H31.6284H48.7488Z" fill="#46C770"/>
<path d="M51.6119 49.2444H50.1177C48.1255 49.2444 46.5069 47.6258 46.5069 45.6336V43.4546H25.7756V45.6336C25.7756 47.6258 24.157 49.2444 22.1648 49.2444H20.6707C18.6785 49.2444 17.0598 47.6258 17.0598 45.6336V32.2485L14.9431 31.4392C14.3205 31.1902 13.8848 30.6299 13.8848 29.9451V27.7661C13.8848 26.8945 14.5696 26.2097 15.4412 26.2097H18.554C19.1143 26.2097 19.6123 25.8984 19.8613 25.4626L22.9741 19.7973C23.7212 18.3654 25.2154 17.4939 26.834 17.4939H45.4485C47.0672 17.4939 48.5614 18.3654 49.3084 19.7973L52.4212 25.4626C52.6702 25.9607 53.1683 26.2097 53.7286 26.2097H56.8414C57.713 26.2097 58.3978 26.8945 58.3978 27.7661V29.9451C58.3978 30.6299 57.962 31.1902 57.3395 31.4392L55.2227 32.2485V45.6336C55.2227 47.5635 53.6041 49.2444 51.6119 49.2444ZM23.908 41.5869H48.3746V45.6336C48.3746 46.5674 49.1839 47.3768 50.1177 47.3768H51.6119C52.5457 47.3768 53.3551 46.5674 53.3551 45.6336V30.9412L56.5301 29.7583V28.0152H53.7286C52.4835 28.0152 51.3629 27.3303 50.8026 26.272L47.6898 20.6067C47.254 19.7974 46.3823 19.2993 45.4485 19.2993H26.834C25.9002 19.2993 25.0908 19.7974 24.5928 20.6067L21.48 26.272C20.9197 27.3303 19.7368 28.0152 18.554 28.0152H15.7524V29.7583L18.9275 30.9412V45.6336C18.9275 46.5674 19.7368 47.3768 20.6707 47.3768H22.1648C23.0987 47.3768 23.908 46.5674 23.908 45.6336V41.5869Z" fill="#344154"/>
<path d="M28.2663 38.3497H20.9202C20.4221 38.3497 19.9863 37.9139 19.9863 37.4159C19.9863 36.9178 20.4221 36.482 20.9202 36.482H26.3986V36.2952C26.3986 35.6104 25.9006 35.0501 25.2781 34.9879L21.0446 34.3653C20.5466 34.3031 20.173 33.805 20.2353 33.307C20.2975 32.8089 20.7956 32.4354 21.2937 32.4976L25.527 33.1202C27.0834 33.3692 28.2663 34.7388 28.2663 36.2952V38.3497Z" fill="#344154"/>
<path d="M51.3618 38.3496H44.0156V36.2951C44.0156 34.7387 45.1985 33.3691 46.7549 33.12L50.9883 32.4975C51.4863 32.4352 51.9844 32.7465 52.0467 33.3068C52.1089 33.8049 51.7976 34.3029 51.2373 34.3652L47.0039 34.9877C46.3191 35.1122 45.8833 35.6725 45.8833 36.2951V36.4819H51.3618C51.8598 36.4819 52.2956 36.9177 52.2956 37.4157C52.2956 37.9138 51.8598 38.3496 51.3618 38.3496Z" fill="#344154"/>
<path d="M40.8406 38.4117H31.5022C31.0042 38.4117 30.5684 37.976 30.5684 37.4779C30.5684 36.9799 31.0042 36.5441 31.5022 36.5441H40.8406C41.3386 36.5441 41.7744 36.9799 41.7744 37.4779C41.7744 37.976 41.3386 38.4117 40.8406 38.4117Z" fill="#344154"/>
<path d="M40.8423 38.4118C40.7801 38.4118 40.78 38.4118 40.7178 38.4118C40.2197 38.3495 39.8462 37.9138 39.9085 37.3534L40.2198 34.6764H32.1265L32.4378 37.3534C32.5 37.8515 32.1265 38.3495 31.6284 38.4118C31.1304 38.474 30.6323 38.1005 30.5701 37.6024L30.0098 32.871H42.3364L41.7762 37.6024C41.7139 38.1005 41.2781 38.4118 40.8423 38.4118Z" fill="#344154"/>
<path d="M24.8408 43.4546H22.0393C21.5413 43.4546 21.1055 43.0188 21.1055 42.5208C21.1055 42.0227 21.5413 41.5869 22.0393 41.5869H24.8408C25.3389 41.5869 25.7747 42.0227 25.7747 42.5208C25.7747 43.0188 25.3389 43.4546 24.8408 43.4546Z" fill="#344154"/>
<path d="M51.0505 43.4546H47.4397C46.9417 43.4546 46.5059 43.0188 46.5059 42.5208C46.5059 42.0227 46.9417 41.5869 47.4397 41.5869H51.0505C51.5485 41.5869 51.9843 42.0227 51.9843 42.5208C51.9843 43.0188 51.5485 43.4546 51.0505 43.4546Z" fill="#344154"/>
<path d="M24.8415 43.4546H21.2307C20.7327 43.4546 20.2969 43.0188 20.2969 42.5208C20.2969 42.0227 20.7327 41.5869 21.2307 41.5869H24.8415C25.3396 41.5869 25.7754 42.0227 25.7754 42.5208C25.7754 43.0188 25.3396 43.4546 24.8415 43.4546Z" fill="#344154"/>
<path d="M68.855 29.6961C68.357 29.6961 67.9212 29.2603 67.9212 28.7622C67.8589 21.6028 64.9952 14.8792 59.9524 9.83643C54.8474 4.73145 47.9993 1.86768 40.7776 1.86768C40.2795 1.86768 39.8438 1.43189 39.8438 0.933839C39.8438 0.435792 40.2795 0 40.7776 0C48.4973 0 55.7813 3.05053 61.2598 8.52906C66.676 13.9453 69.6643 21.1048 69.7889 28.7C69.7889 29.2603 69.3531 29.6961 68.855 29.6961Z" fill="#344154"/>
<path d="M66.1421 29.6654L68.5238 32.4441C68.7476 32.7052 69.1406 32.7354 69.4017 32.5117C69.4259 32.4909 69.4485 32.4684 69.4692 32.4441L71.851 29.6654C72.0747 29.4044 72.0445 29.0113 71.7835 28.7876C71.6706 28.6909 71.5269 28.6377 71.3783 28.6377H66.6147C66.2709 28.6377 65.9922 28.9164 65.9922 29.2603C65.9922 29.4089 66.0453 29.5526 66.1421 29.6654Z" fill="#344154"/>
<path d="M2.80124 35.4859C3.29929 35.4859 3.73508 35.9217 3.73508 36.4198C3.79733 43.5792 6.6611 50.3028 11.7038 55.3456C16.8088 60.4506 23.657 63.3143 30.8787 63.3143C31.3767 63.3143 31.8125 63.7501 31.8125 64.2482C31.8125 64.7462 31.3767 65.182 30.8787 65.182C23.1589 65.182 15.875 62.1315 10.3965 56.653C4.9802 51.2367 1.99191 44.0773 1.8674 36.482C1.8674 35.9217 2.30319 35.4859 2.80124 35.4859Z" fill="#344154"/>
<path d="M5.85794 35.3693L3.47616 32.5905C3.2524 32.3295 2.85938 32.2992 2.59832 32.523C2.57412 32.5437 2.55154 32.5663 2.5308 32.5905L0.149019 35.3693C-0.0747427 35.6303 -0.0445103 36.0233 0.216545 36.2471C0.32938 36.3438 0.47309 36.397 0.621702 36.397L5.38525 36.397C5.72908 36.397 6.00781 36.1182 6.00781 35.7744C6.00781 35.6258 5.95465 35.4821 5.85794 35.3693Z" fill="#344154"/>
</svg>
