<svg width="68" height="63" viewBox="0 0 68 63" fill="none" xmlns="http://www.w3.org/2000/svg">
<path d="M48.7727 22.6102C48.4907 22.1591 48.0397 21.8208 47.4758 21.8208H43.5289C41.2171 24.4709 37.7776 26.1624 33.9435 26.1624C30.1093 26.1624 26.6698 24.4709 24.3581 21.8208H20.4111C19.8473 21.8208 19.3962 22.1027 19.1143 22.6102L14.6035 30.8424H28.305H53.1707L48.7727 22.6102Z" fill="#46C770"/>
<path d="M26.7273 46.9121H5.80859V57.005C5.80859 59.3168 7.66929 61.1775 9.98107 61.1775H12.2928C14.6046 61.1775 16.4653 59.3168 16.4653 57.005V54.6932H12.1237H16.4653H51.5366H55.8782H51.5366V57.005C51.5366 59.3168 53.3973 61.1775 55.7091 61.1775H58.0209C60.3326 61.1775 62.1933 59.3168 62.1933 57.005V46.9121H41.2746H26.7273Z" fill="#F2DDDE"/>
<path d="M21.1446 47.5887H10.3751C9.92399 47.5887 9.5293 47.194 9.5293 46.743C9.5293 46.2919 9.92399 45.8972 10.3751 45.8972H19.453V44.995C19.453 43.6418 18.4381 42.5141 17.1412 42.345L10.6006 41.3864C10.1495 41.33 9.81122 40.8789 9.8676 40.4279C9.92399 39.9768 10.3751 39.6385 10.8261 39.6949L17.3668 40.6534C19.5094 40.9917 21.1446 42.8524 21.1446 44.995V47.5887Z" fill="#393939"/>
<path d="M58.0199 62.0232H55.7081C52.9453 62.0232 50.6899 59.7678 50.6899 57.005V55.539H17.3101V57.005C17.3101 59.7678 15.0547 62.0232 12.2919 62.0232H9.9801C7.21725 62.0232 4.96185 59.7678 4.96185 57.005V38.2852L1.24046 36.932C0.507461 36.6501 0 35.9735 0 35.1841V31.801C0 30.7861 0.845769 29.9403 1.86069 29.9403H6.70978C7.7811 29.9403 8.73964 29.3764 9.2471 28.4179L14.0398 19.6219C15.1111 17.6484 17.1973 16.408 19.5091 16.408H21.8209V18.0995H19.5091C17.874 18.0995 16.3516 19.0017 15.5622 20.4677L10.7695 29.2637C9.9801 30.7297 8.40133 31.6882 6.70978 31.6882H1.86069C1.74792 31.6882 1.69154 31.7446 1.69154 31.8574V35.2405C1.69154 35.2969 1.74793 35.3532 1.80431 35.4096L6.6534 37.1575V57.005C6.6534 58.8093 8.1194 60.3317 9.9801 60.3317H12.2919C14.0962 60.3317 15.6186 58.8657 15.6186 57.005V53.8474H52.3814V57.005C52.3814 58.8093 53.8474 60.3317 55.7081 60.3317H58.0199C59.8242 60.3317 61.3466 58.8657 61.3466 57.005V37.1575L66.1957 35.4096C66.2521 35.4096 66.3085 35.2969 66.3085 35.2405V31.8574C66.3085 31.7446 66.2521 31.6882 66.1393 31.6882H61.2902C59.5987 31.6882 58.0763 30.7861 57.2305 29.2637L52.4378 20.4677C51.6484 19.0017 50.126 18.0995 48.4909 18.0995H46.1791V16.408H48.4909C50.7463 16.408 52.8325 17.6484 53.9602 19.6219L58.7529 28.4179C59.2604 29.3764 60.2189 29.9403 61.2902 29.9403H66.1393C67.1542 29.9403 68 30.7861 68 31.801V35.1841C68 35.9735 67.4925 36.6501 66.7595 36.932L63.0381 38.2852V57.005C63.0381 59.7678 60.7828 62.0232 58.0199 62.0232Z" fill="#393939"/>
<path d="M54.6928 31.6882H13.25L18.4374 22.2156C18.8321 21.4826 19.6215 21.0315 20.4672 21.0315H24.4142V22.723H20.4672C20.2417 22.723 20.0162 22.8358 19.9034 23.0613L16.1256 29.9967H51.8735L48.0394 23.005C47.9266 22.7794 47.7011 22.6666 47.4755 22.6666H43.5286V20.9751H47.4755C48.3213 20.9751 49.1107 21.4262 49.5054 22.1592L54.6928 31.6882Z" fill="#393939"/>
<path d="M57.5683 47.5887H46.7988V44.995C46.7988 42.8524 48.434 40.9917 50.5766 40.6534L57.1172 39.6949C57.5683 39.6385 58.0194 39.9204 58.0758 40.4279C58.1322 40.8789 57.8502 41.33 57.3428 41.3864L50.8021 42.3449C49.5053 42.5141 48.4904 43.6982 48.4904 44.995V45.8972H57.5683C58.0194 45.8972 58.4141 46.2919 58.4141 46.743C58.4141 47.2504 58.0758 47.5887 57.5683 47.5887Z" fill="#393939"/>
<path d="M41.2739 47.7579H26.7266C26.2756 47.7579 25.8809 47.3633 25.8809 46.9122C25.8809 46.4611 26.2756 46.0664 26.7266 46.0664H41.2739C41.725 46.0664 42.1197 46.4611 42.1197 46.9122C42.1197 47.3633 41.725 47.7579 41.2739 47.7579Z" fill="#393939"/>
<path d="M41.2725 47.7579C41.2161 47.7579 41.2161 47.7579 41.1597 47.7579C40.7087 47.7016 40.3704 47.3069 40.4268 46.7994L40.9906 42.0067H27.0636L27.6274 46.7994C27.6838 47.2505 27.3455 47.7016 26.8944 47.7579C26.4433 47.8143 25.9923 47.476 25.9359 47.0249L25.1465 40.3152H42.9077L42.1183 47.0249C42.0619 47.4196 41.6672 47.7579 41.2725 47.7579Z" fill="#393939"/>
<path d="M16.4647 55.539H12.1231C11.672 55.539 11.2773 55.1443 11.2773 54.6932C11.2773 54.2421 11.672 53.8474 12.1231 53.8474H16.4647C16.9158 53.8474 17.3105 54.2421 17.3105 54.6932C17.3105 55.1443 16.9158 55.539 16.4647 55.539Z" fill="#393939"/>
<path d="M55.8768 55.539H51.5352C51.0841 55.539 50.6895 55.1443 50.6895 54.6932C50.6895 54.2421 51.0841 53.8474 51.5352 53.8474H55.8768C56.3279 53.8474 56.7226 54.2421 56.7226 54.6932C56.7226 55.1443 56.3279 55.539 55.8768 55.539Z" fill="#393939"/>
<path d="M34.0011 27.0647C26.5583 27.0647 20.4688 20.9751 20.4688 13.5323C20.4688 6.08955 26.5583 0 34.0011 0C41.4439 0 47.5334 6.08955 47.5334 13.5323C47.5334 20.9751 41.4439 27.0647 34.0011 27.0647ZM34.0011 1.69154C27.4605 1.69154 22.1603 6.99171 22.1603 13.5323C22.1603 20.073 27.4605 25.3731 34.0011 25.3731C40.5417 25.3731 45.8419 20.073 45.8419 13.5323C45.8419 6.99171 40.5417 1.69154 34.0011 1.69154Z" fill="#393939"/>
</svg>
