<svg width="60" height="53" viewBox="0 0 60 53" fill="none" xmlns="http://www.w3.org/2000/svg">
<path d="M29.9217 5.09302C27.3751 5.09302 25.3379 7.13025 25.3379 9.67679C25.3379 12.2233 27.3751 14.2606 29.9217 14.2606C32.4682 14.2606 34.5054 12.2233 34.5054 9.67679C34.5054 7.13025 32.4682 5.09302 29.9217 5.09302ZM29.9217 11.3575C29.0049 11.3575 28.241 10.5935 28.241 9.67679C28.241 8.76003 29.0049 7.99606 29.9217 7.99606C30.8384 7.99606 31.6024 8.76003 31.6024 9.67679C31.6024 10.5935 30.8384 11.3575 29.9217 11.3575Z" fill="#46C770"/>
<path d="M29.9215 27.9609C23.4024 27.9609 18.0547 33.2577 18.0547 39.8278C18.0547 46.3979 23.3515 51.6947 29.9215 51.6947C36.4916 51.6947 41.7884 46.3979 41.7884 39.8278C41.7884 33.2577 36.4407 27.9609 29.9215 27.9609ZM37.4593 40.8974L36.1351 40.9992C35.9314 42.0688 35.473 43.0874 34.7599 43.9023L35.5239 45.0228C35.8295 45.4302 35.7276 46.0414 35.2693 46.296L34.047 47.1109C33.6395 47.4165 33.0284 47.3146 32.7737 46.8563L32.0097 45.7867C30.9402 46.1432 29.8197 46.2451 28.8011 46.0414L28.2408 47.2637C28.0371 47.7221 27.4769 47.9258 27.0185 47.7221L25.6943 47.1109C25.2359 46.9072 25.0322 46.3469 25.2359 45.8886L25.7961 44.6662C24.9812 43.9532 24.3701 43.0874 23.9626 42.0178L22.6385 42.1197C22.1292 42.1706 21.6708 41.7632 21.6198 41.2539L21.5179 39.7769C21.467 39.2676 21.8745 38.8092 22.3838 38.7583L23.708 38.6564C23.9117 37.5869 24.3701 36.5682 25.0831 35.7533L24.3191 34.6329C24.0136 34.2254 24.1154 33.6143 24.5738 33.3596L25.7961 32.5447C26.2036 32.2391 26.8148 32.341 27.0694 32.7994L27.8334 33.8689C28.9029 33.5124 30.0234 33.4105 31.042 33.6143L31.6023 32.3919C31.806 31.9335 32.3662 31.7298 32.8246 31.9335L34.1488 32.5447C34.6072 32.7484 34.8109 33.3087 34.6072 33.767L34.047 34.9894C34.8619 35.7024 35.473 36.5682 35.8805 37.6378L37.2047 37.5359C37.714 37.485 38.1723 37.8924 38.2233 38.4017L38.3251 39.8787C38.3251 40.388 37.9686 40.8464 37.4593 40.8974Z" fill="#46C770"/>
<path d="M27.3746 48.537C27.1199 48.537 26.8653 48.4861 26.6616 48.3843L25.3374 47.7731C24.9299 47.5694 24.6244 47.2128 24.4716 46.8054C24.3188 46.398 24.3697 45.9396 24.5225 45.5321L24.879 44.8191C24.3188 44.2079 23.8095 43.5458 23.5039 42.7819L22.7399 42.8328C21.8232 42.8837 21.0083 42.2216 20.9064 41.3049L20.8046 39.8279C20.7536 39.3695 20.9064 38.9621 21.212 38.6055C21.5176 38.249 21.925 38.0453 22.3834 37.9944L23.1474 37.9434C23.3511 37.1286 23.7076 36.4155 24.2169 35.7534L23.7585 35.1423C23.5039 34.7857 23.402 34.3274 23.5039 33.869C23.6057 33.4106 23.8604 33.0541 24.2169 32.7994L25.4393 31.9845C25.7958 31.7299 26.2542 31.628 26.7125 31.7299C27.1709 31.8317 27.5274 32.0864 27.7821 32.4429L28.2405 33.0541C29.0554 32.8504 29.8702 32.7994 30.6851 32.8504L31.0417 32.1373C31.2454 31.7299 31.6019 31.4243 32.0093 31.2715C32.4168 31.1187 32.8752 31.1187 33.2826 31.3224L34.6068 31.9336C35.0143 32.1373 35.3198 32.4938 35.4726 32.9013C35.6254 33.3087 35.5745 33.7671 35.4217 34.1746L35.0652 34.8876C35.6254 35.4988 36.1347 36.1609 36.4403 36.9248L37.2043 36.8739C38.121 36.823 38.9359 37.4851 39.0378 38.4018L39.1397 39.8788C39.1906 40.3372 39.0378 40.7446 38.7322 41.1011C38.4266 41.4577 38.0191 41.6614 37.5608 41.7123L36.7968 41.7633C36.5931 42.5781 36.2366 43.2912 35.7273 43.9533L36.1856 44.5644C36.695 45.3284 36.5422 46.3979 35.7273 46.9073L34.5049 47.7221C34.1484 47.9768 33.69 48.0787 33.2316 47.9768C32.7733 47.8749 32.4168 47.6203 32.1621 47.2638L31.7037 46.6526C30.8888 46.8563 30.074 46.9073 29.2591 46.8563L28.9025 47.5694C28.5969 48.1805 27.9858 48.537 27.3746 48.537ZM24.4716 41.1521L24.6753 41.7123C24.9809 42.6291 25.5411 43.444 26.3051 44.0551L26.7635 44.4116L25.9486 46.1433C25.9486 46.1942 25.9486 46.2452 25.9486 46.2452C25.9486 46.2961 25.9995 46.2961 26.0504 46.347L27.3746 46.9582C27.4765 47.0091 27.5783 46.9582 27.5783 46.8563L28.3932 45.1247L28.9535 45.2265C29.9212 45.3793 30.8889 45.3284 31.7547 45.0228L32.3149 44.8191L33.3845 46.3979C33.4354 46.4489 33.4354 46.4489 33.4863 46.4489C33.5372 46.4489 33.5373 46.4489 33.5882 46.3979L34.8105 45.5831C34.8615 45.5321 34.9124 45.4303 34.8615 45.3793L33.7919 43.8005L34.1484 43.3421C34.7596 42.6291 35.167 41.7123 35.3708 40.7956L35.4726 40.2353L37.3571 40.0825C37.408 40.0825 37.4589 40.0316 37.4589 40.0316C37.4589 40.0316 37.5098 39.9807 37.5098 39.9297L37.408 38.4528C37.408 38.3509 37.3061 38.3 37.2552 38.3L35.3708 38.4528L35.167 37.8925C34.8614 36.9758 34.3012 36.1609 33.5373 35.5497L33.0789 35.1932L33.8938 33.4615C33.8938 33.4106 33.8938 33.3597 33.8938 33.3597C33.8938 33.3087 33.8429 33.3087 33.7919 33.2578L32.4677 32.6466C32.4167 32.6466 32.3658 32.6466 32.3658 32.6466C32.3149 32.6466 32.3149 32.6976 32.264 32.7485L31.4491 34.4801L30.8888 34.3783C29.9211 34.2255 28.9535 34.2764 28.0876 34.582L27.5274 34.7857L26.4579 33.2069C26.4069 33.1559 26.4069 33.1559 26.356 33.1559C26.3051 33.1559 26.3051 33.1559 26.2541 33.2069L25.0318 34.0218C24.9809 34.0727 24.9809 34.0727 24.9809 34.1236C24.9809 34.1746 24.9809 34.1746 25.0318 34.2255L26.1013 35.8043L25.7448 36.2627C25.1337 36.9758 24.7262 37.8925 24.5225 38.8093L24.4206 39.3695L22.5362 39.5223C22.4852 39.5223 22.4343 39.5732 22.4343 39.5732C22.4343 39.5732 22.3834 39.6242 22.3834 39.6751L22.4853 41.1521C22.4853 41.2539 22.5871 41.3049 22.6381 41.3049L24.4716 41.1521Z" fill="#393939"/>
<path d="M29.9199 52.4587C22.9423 52.4587 17.2891 46.8054 17.2891 39.8279C17.2891 32.8503 22.9423 27.197 29.9199 27.197C36.8974 27.197 42.5507 32.8503 42.5507 39.8279C42.5507 46.8054 36.8464 52.4587 29.9199 52.4587ZM29.9199 28.7249C23.8082 28.7249 18.817 33.7162 18.817 39.8279C18.817 45.9395 23.8082 50.9308 29.9199 50.9308C36.0316 50.9308 41.0228 45.9395 41.0228 39.8279C41.0228 33.7162 36.0316 28.7249 29.9199 28.7249Z" fill="#393939"/>
<path d="M5.06676 26.8405C4.86304 26.8405 4.65932 26.7895 4.50653 26.6368C4.20095 26.3312 4.20095 25.8728 4.50653 25.5672L15.6094 14.4643C15.915 14.1587 16.3734 14.1587 16.6789 14.4643C16.9845 14.7699 16.9845 15.2283 16.6789 15.5338L5.62698 26.6368C5.47419 26.7895 5.27048 26.8405 5.06676 26.8405Z" fill="#393939"/>
<path d="M2.92809 24.7013C2.72436 24.7013 2.52065 24.6504 2.36786 24.4976C2.06228 24.192 2.06228 23.7336 2.36786 23.4281L13.4708 12.3251C13.7764 12.0196 14.2347 12.0196 14.5403 12.3251C14.8459 12.6307 14.8459 13.0891 14.5403 13.3947L3.43739 24.4976C3.33553 24.6504 3.13181 24.7013 2.92809 24.7013Z" fill="#393939"/>
<path d="M0.789415 22.5624C0.585692 22.5624 0.381981 22.5115 0.229189 22.3587C-0.0763962 22.0531 -0.0763962 21.5947 0.229189 21.2891L11.3321 10.1862C11.6376 9.88064 12.0961 9.88064 12.4017 10.1862C12.7072 10.4918 12.7072 10.9502 12.4017 11.2558L1.29872 22.3587C1.19686 22.5115 0.993138 22.5624 0.789415 22.5624Z" fill="#393939"/>
<path d="M54.7752 26.8405C54.5714 26.8405 54.3677 26.7895 54.2149 26.6368L43.112 15.5338C42.8064 15.2283 42.8064 14.7699 43.112 14.4643C43.4176 14.1587 43.876 14.1587 44.1815 14.4643L55.2845 25.5672C55.5901 25.8728 55.5901 26.3312 55.2845 26.6368C55.1317 26.7895 54.928 26.8405 54.7752 26.8405Z" fill="#393939"/>
<path d="M56.9157 24.7013C56.712 24.7013 56.5083 24.6504 56.3555 24.4976L45.2526 13.3947C44.947 13.0891 44.947 12.6307 45.2526 12.3251C45.5582 12.0196 46.0166 12.0196 46.3222 12.3251L57.425 23.4281C57.7306 23.7336 57.7306 24.192 57.425 24.4976C57.2722 24.6504 57.1194 24.7013 56.9157 24.7013Z" fill="#393939"/>
<path d="M59.0525 22.5624C58.8488 22.5624 58.6451 22.5115 58.4923 22.3587L47.3893 11.2558C47.0838 10.9502 47.0838 10.4918 47.3893 10.1862C47.6949 9.88064 48.1533 9.88064 48.4589 10.1862L59.5618 21.2891C59.8674 21.5947 59.8674 22.0531 59.5618 22.3587C59.409 22.5115 59.2562 22.5624 59.0525 22.5624Z" fill="#393939"/>
<path d="M54.0137 16.8072L52.9442 15.6867L57.5279 11.1029L47.9529 1.52792H11.843L2.31895 11.1029L6.90272 15.6867L5.78227 16.8072L0.128906 11.1029L11.2318 0H48.615L59.7179 11.1029L54.0137 16.8072Z" fill="#393939"/>
<path d="M18.8194 38.4018L7.81836 27.4007L17.4952 17.7239L28.4962 28.7249L27.1721 29.0305C23.1995 30.0491 20.1436 33.105 19.125 37.0776L18.8194 38.4018ZM9.95743 27.4007L18.0554 35.4987C19.3287 32.0354 22.0789 29.2852 25.5422 28.0119L17.4442 19.9139L9.95743 27.4007Z" fill="#393939"/>
<path d="M40.9737 38.4018L40.6682 37.0776C39.6495 33.105 36.5937 30.0491 32.6211 29.0305L31.2969 28.7249L42.2979 17.7239L51.9748 27.4007L40.9737 38.4018ZM34.2508 27.961C37.7141 29.2342 40.4644 31.9845 41.7377 35.4478L49.8357 27.3498L42.3488 19.863L34.2508 27.961Z" fill="#393939"/>
<path d="M29.92 15.0246C26.966 15.0246 24.5723 12.6308 24.5723 9.67683C24.5723 6.72285 26.966 4.3291 29.92 4.3291C32.874 4.3291 35.2677 6.72285 35.2677 9.67683C35.2677 12.6308 32.874 15.0246 29.92 15.0246ZM29.92 5.85703C27.8318 5.85703 26.1002 7.58867 26.1002 9.67683C26.1002 11.765 27.8318 13.4966 29.92 13.4966C32.0082 13.4966 33.7398 11.765 33.7398 9.67683C33.7398 7.58867 32.0082 5.85703 29.92 5.85703Z" fill="#393939"/>
<path d="M29.9212 12.1215C28.597 12.1215 27.4766 11.0011 27.4766 9.67686C27.4766 8.35266 28.597 7.23218 29.9212 7.23218C31.2454 7.23218 32.3659 8.35266 32.3659 9.67686C32.3659 11.0011 31.2454 12.1215 29.9212 12.1215ZM29.9212 8.7601C29.4119 8.7601 29.0045 9.16756 29.0045 9.67686C29.0045 10.1862 29.4119 10.5936 29.9212 10.5936C30.4305 10.5936 30.838 10.1862 30.838 9.67686C30.838 9.16756 30.4305 8.7601 29.9212 8.7601Z" fill="#393939"/>
<path d="M35.9319 21.1362C35.5754 21.1362 35.2189 20.8306 35.168 20.4741L33.7419 9.01468C33.691 8.60723 33.9966 8.19979 34.404 8.14886C34.8115 8.09793 35.2189 8.40351 35.2698 8.81096L36.6959 20.2704C36.7468 20.6778 36.4412 21.0853 36.0338 21.1362C35.9828 21.1362 35.9319 21.1362 35.9319 21.1362Z" fill="#393939"/>
<path d="M23.9121 21.1362C23.8612 21.1362 23.8611 21.1362 23.8102 21.1362C23.4027 21.0853 23.0972 20.6778 23.1481 20.2704L24.5742 8.81096C24.6251 8.40351 24.9816 8.09793 25.44 8.14886C25.8475 8.19979 26.153 8.60723 26.1021 9.01468L24.6761 20.4741C24.6251 20.8306 24.3195 21.1362 23.9121 21.1362Z" fill="#393939"/>
</svg>
