<svg width="46" height="53" viewBox="0 0 46 53" fill="none" xmlns="http://www.w3.org/2000/svg">
<path d="M44.0901 11.6965H40.3892C39.978 11.6965 39.6582 11.3767 39.6582 10.9655V1.41633C39.6582 1.00512 39.978 0.685303 40.3892 0.685303H44.0901C44.5013 0.685303 44.8211 1.00512 44.8211 1.41633V10.9655C44.8211 11.3767 44.5013 11.6965 44.0901 11.6965Z" fill="#46C770"/>
<path d="M1.41657 52.3147H5.11742C5.52863 52.3147 5.8485 51.9948 5.8485 51.5836V42.0345C5.8485 41.6233 5.52863 41.3035 5.11742 41.3035H1.41657C1.00536 41.3035 0.685547 41.6233 0.685547 42.0345V51.5836C0.685547 51.9948 1.00536 52.3147 1.41657 52.3147Z" fill="#46C770"/>
<path d="M22.7515 9.32074C21.0152 9.32074 19.6445 7.90434 19.6445 6.21382C19.6445 4.47762 21.0609 3.10693 22.7515 3.10693C24.442 3.10693 25.8583 4.52331 25.8583 6.21382C25.8583 7.90434 24.442 9.32074 22.7515 9.32074ZM22.7515 4.47762C21.792 4.47762 21.0152 5.25434 21.0152 6.21382C21.0152 7.17331 21.792 7.95005 22.7515 7.95005C23.7109 7.95005 24.4876 7.17331 24.4876 6.21382C24.4876 5.25434 23.7109 4.47762 22.7515 4.47762Z" fill="#393939"/>
<path d="M36.8723 5.52832H25.1758V6.89901H36.8723V5.52832Z" fill="#393939"/>
<path d="M20.3313 5.52832H8.63477V6.89901H20.3313V5.52832Z" fill="#393939"/>
<path d="M8.63456 9.77751C8.26905 9.77751 7.94922 9.45768 7.94922 9.09216V3.33525C7.94922 2.96973 8.26905 2.6499 8.63456 2.6499C9.00008 2.6499 9.31991 2.96973 9.31991 3.33525V9.09216C9.31991 9.45768 9.00008 9.77751 8.63456 9.77751Z" fill="#393939"/>
<path d="M36.8728 9.77751C36.5073 9.77751 36.1875 9.45768 36.1875 9.09216V3.33525C36.1875 2.96973 36.5073 2.6499 36.8728 2.6499C37.2384 2.6499 37.5582 2.96973 37.5582 3.33525V9.09216C37.5582 9.45768 37.2384 9.77751 36.8728 9.77751Z" fill="#393939"/>
<path d="M25.9059 51.4009H19.5551C18.7784 51.4009 18.1387 50.7613 18.1387 49.9845V43.6337C18.1387 42.8569 18.7784 42.2173 19.5551 42.2173H25.9059C26.6826 42.2173 27.3223 42.8569 27.3223 43.6337V49.9845C27.3223 50.7613 26.7283 51.4009 25.9059 51.4009ZM19.5551 43.588C19.5094 43.588 19.5094 43.6337 19.5094 43.6337V49.9845C19.5094 50.0302 19.5551 50.0302 19.5551 50.0302H25.9059C25.9516 50.0302 25.9516 49.9845 25.9516 49.9845V43.6337C25.9516 43.588 25.9059 43.588 25.9059 43.588H19.5551Z" fill="#393939"/>
<path d="M25.2223 43.5879H20.2422V41.3948C20.2422 40.1612 21.2473 39.156 22.4809 39.156H22.9836C24.2172 39.156 25.2223 40.1612 25.2223 41.3948V43.5879ZM21.6129 42.2172H23.8516V41.3948C23.8516 40.8922 23.4405 40.5267 22.9836 40.5267H22.4809C21.9783 40.5267 21.6129 40.9379 21.6129 41.3948V42.2172Z" fill="#393939"/>
<path d="M23.439 8.63525H22.0684V39.7956H23.439V8.63525Z" fill="#393939"/>
<path d="M44.0918 12.3819H40.391C39.6143 12.3819 38.9746 11.7422 38.9746 10.9655V1.41637C38.9746 0.639644 39.6143 0 40.391 0H44.0918C44.8686 0 45.5082 0.639644 45.5082 1.41637V10.9655C45.5082 11.7422 44.8686 12.3819 44.0918 12.3819ZM40.391 1.37069C40.3453 1.37069 40.3453 1.37069 40.391 1.37069L40.3453 10.9655C40.3453 11.0112 40.3453 11.0112 40.391 11.0112H44.0918C44.1375 11.0112 44.1375 11.0112 44.1375 10.9655V1.41637C44.1375 1.37068 44.1375 1.37069 44.0918 1.37069H40.391Z" fill="#393939"/>
<path d="M42.2185 5.07154C41.853 5.07154 41.5332 4.75171 41.5332 4.3862V0.685345C41.5332 0.319828 41.853 0 42.2185 0C42.5841 0 42.9039 0.319828 42.9039 0.685345V4.3862C42.9039 4.75171 42.5841 5.07154 42.2185 5.07154Z" fill="#393939"/>
<path d="M5.11722 12.3819H1.41637C0.639644 12.3819 0 11.7422 0 10.9655V1.41637C0 0.639644 0.639644 0 1.41637 0H5.11722C5.89394 0 6.53364 0.639644 6.53364 1.41637V10.9655C6.53364 11.7422 5.89394 12.3819 5.11722 12.3819ZM1.41637 1.37069C1.37068 1.37069 1.37068 1.37069 1.41637 1.37069L1.37069 10.9655C1.37069 11.0112 1.37068 11.0112 1.41637 11.0112H5.11722C5.16291 11.0112 5.16295 11.0112 5.16295 10.9655V1.41637C5.16295 1.37068 5.16291 1.37069 5.11722 1.37069H1.41637Z" fill="#393939"/>
<path d="M3.24394 5.07154C2.87842 5.07154 2.55859 4.75171 2.55859 4.3862V0.685345C2.55859 0.319828 2.87842 0 3.24394 0C3.60946 0 3.92928 0.319828 3.92928 0.685345V4.3862C3.92928 4.75171 3.65515 5.07154 3.24394 5.07154Z" fill="#393939"/>
<path d="M36.8255 46.1008H26.6367V47.4715H36.8255V46.1008Z" fill="#393939"/>
<path d="M18.8235 46.1008H8.63477V47.4715H18.8235V46.1008Z" fill="#393939"/>
<path d="M8.63456 50.35C8.26905 50.35 7.94922 50.0302 7.94922 49.6647V43.9078C7.94922 43.5422 8.26905 43.2224 8.63456 43.2224C9.00008 43.2224 9.31991 43.5422 9.31991 43.9078V49.6647C9.31991 50.0759 9.00008 50.35 8.63456 50.35Z" fill="#393939"/>
<path d="M36.8728 50.35C36.5073 50.35 36.1875 50.0302 36.1875 49.6647V43.9078C36.1875 43.5422 36.5073 43.2224 36.8728 43.2224C37.2384 43.2224 37.5582 43.5422 37.5582 43.9078V49.6647C37.5582 50.0759 37.2384 50.35 36.8728 50.35Z" fill="#393939"/>
<path d="M44.0918 53H40.391C39.6143 53 38.9746 52.3604 38.9746 51.5837V42.0345C38.9746 41.2578 39.6143 40.6182 40.391 40.6182H44.0918C44.8686 40.6182 45.5082 41.2578 45.5082 42.0345V51.5837C45.5082 52.3604 44.8686 53 44.0918 53ZM40.391 41.9889C40.3453 41.9889 40.3453 41.9889 40.391 41.9889L40.3453 51.5837C40.3453 51.6294 40.3453 51.6294 40.391 51.6294H44.0918C44.1375 51.6294 44.1375 51.6294 44.1375 51.5837V42.0345C44.1375 41.9888 44.1375 41.9889 44.0918 41.9889H40.391Z" fill="#393939"/>
<path d="M42.2185 45.6897C41.853 45.6897 41.5332 45.3699 41.5332 45.0044V41.3035C41.5332 40.938 41.853 40.6182 42.2185 40.6182C42.5841 40.6182 42.9039 40.938 42.9039 41.3035V45.0044C42.9039 45.3699 42.5841 45.6897 42.2185 45.6897Z" fill="#393939"/>
<path d="M5.11722 53H1.41637C0.639644 53 0 52.3604 0 51.5837V42.0345C0 41.2578 0.639644 40.6182 1.41637 40.6182H5.11722C5.89394 40.6182 6.53364 41.2578 6.53364 42.0345V51.5837C6.53364 52.3604 5.89394 53 5.11722 53ZM1.41637 41.9889C1.37068 41.9889 1.37068 41.9889 1.41637 41.9889L1.37069 51.5837C1.37069 51.6294 1.37068 51.6294 1.41637 51.6294H5.11722C5.16291 51.6294 5.16295 51.6294 5.16295 51.5837V42.0345C5.16295 41.9888 5.16291 41.9889 5.11722 41.9889H1.41637Z" fill="#393939"/>
<path d="M3.24394 45.6897C2.87842 45.6897 2.55859 45.3699 2.55859 45.0044V41.3035C2.55859 40.938 2.87842 40.6182 3.24394 40.6182C3.60946 40.6182 3.92928 40.938 3.92928 41.3035V45.0044C3.92928 45.3699 3.65515 45.6897 3.24394 45.6897Z" fill="#393939"/>
<path d="M22.7537 51.4008C22.3882 51.4008 22.0684 51.081 22.0684 50.7155V46.7862C22.0684 46.4207 22.3882 46.1008 22.7537 46.1008C23.1192 46.1008 23.439 46.4207 23.439 46.7862V50.7155C23.439 51.081 23.1192 51.4008 22.7537 51.4008Z" fill="#393939"/>
</svg>
