<svg width="13" height="52" viewBox="0 0 13 52" fill="none" xmlns="http://www.w3.org/2000/svg">
<path d="M6.76022 4.12366C6.76022 4.12366 4.875 4.94846 4.875 6.00888C4.875 7.03003 6.76022 7.89407 6.76022 7.89407V4.12366Z" fill="#F2DDDE"/>
<path d="M6.76069 14.6498H1.53711V25.8038H6.76069V14.6498Z" fill="#F2DDDE"/>
<path d="M6.76083 11.9396C3.46174 11.9396 0.791016 9.26889 0.791016 5.96979C0.791016 2.6707 3.46174 0 6.76083 0C10.0599 0 12.7306 2.6707 12.7306 5.96979C12.6913 9.26889 10.0207 11.9396 6.76083 11.9396ZM6.76083 1.21754C4.12941 1.21754 1.96926 3.37766 1.96926 6.00908C1.96926 8.6405 4.12941 10.8006 6.76083 10.8006C9.39225 10.8006 11.5524 8.6405 11.5524 6.00908C11.5131 3.33839 9.39225 1.21754 6.76083 1.21754Z" fill="#344154"/>
<path d="M6.76032 52C4.1289 52 1.96875 49.8399 1.96875 47.2085C1.96875 44.5771 4.1289 42.4169 6.76032 42.4169C9.39174 42.4169 11.5518 44.5771 11.5518 47.2085C11.5126 49.8399 9.39174 52 6.76032 52ZM6.76032 43.6345C4.7573 43.6345 3.147 45.2448 3.147 47.2478C3.147 49.2508 4.7573 50.8611 6.76032 50.8611C8.76334 50.8611 10.3736 49.2508 10.3736 47.2478C10.3343 45.2448 8.72406 43.6345 6.76032 43.6345Z" fill="#344154"/>
<path d="M6.76168 49.4074C5.58344 49.4074 4.60156 48.4255 4.60156 47.2473C4.60156 46.069 5.58344 45.0872 6.76168 45.0872C7.93993 45.0872 8.9218 46.069 8.9218 47.2473C8.9218 48.4255 7.93993 49.4074 6.76168 49.4074ZM6.76168 46.2261C6.21183 46.2261 5.77981 46.6582 5.77981 47.208C5.77981 47.7579 6.21183 48.1899 6.76168 48.1899C7.31153 48.1899 7.74356 47.7579 7.74356 47.208C7.74356 46.6974 7.31153 46.2261 6.76168 46.2261Z" fill="#344154"/>
<path d="M6.76145 8.44418C5.4261 8.44418 4.28711 7.34449 4.28711 5.96987C4.28711 4.59524 5.38683 3.49555 6.76145 3.49555C8.13607 3.49555 9.23574 4.59524 9.23574 5.96987C9.23574 7.34449 8.0968 8.44418 6.76145 8.44418ZM6.76145 4.71306C6.0545 4.71306 5.46536 5.30221 5.46536 6.00916C5.46536 6.7161 6.0545 7.30522 6.76145 7.30522C7.4684 7.30522 8.05749 6.7161 8.05749 6.00916C8.05749 5.30221 7.4684 4.71306 6.76145 4.71306Z" fill="#344154"/>
<path d="M11.4356 26.4324H2.0882C1.4598 26.4324 0.949219 25.9219 0.949219 25.2935V15.2391C0.949219 14.6107 1.4598 14.1001 2.0882 14.1001H2.91296V10.2904H4.09121V15.2783H2.12747V25.2542H11.3963V15.2783H9.43259V10.2904H10.6108V14.1001H11.4356C12.064 14.1001 12.5746 14.6107 12.5746 15.2391V25.2935C12.5746 25.9219 12.064 26.4324 11.4356 26.4324Z" fill="#344154"/>
<path d="M3.50123 30.3988C3.18703 30.3988 2.91211 30.1238 2.91211 29.8096V25.8429C2.91211 25.5287 3.18703 25.2537 3.50123 25.2537C3.81543 25.2537 4.09036 25.5287 4.09036 25.8429V29.8096C4.09036 30.1238 3.81543 30.3988 3.50123 30.3988Z" fill="#344154"/>
<path d="M10.0208 30.3987C9.70657 30.3987 9.43164 30.1238 9.43164 29.8096V25.8429C9.43164 25.5287 9.70657 25.2537 10.0208 25.2537C10.335 25.2537 10.6099 25.5287 10.6099 25.8429V29.8096C10.6099 30.1238 10.335 30.3987 10.0208 30.3987Z" fill="#344154"/>
<path d="M4.56178 43.9096C4.24758 43.9096 3.97266 43.6347 3.97266 43.3205V39.3537C3.97266 39.0395 4.24758 38.7646 4.56178 38.7646C4.87598 38.7646 5.1509 39.0395 5.1509 39.3537V43.3205C5.1509 43.674 4.87598 43.9096 4.56178 43.9096Z" fill="#344154"/>
<path d="M8.92116 43.9096C8.60696 43.9096 8.33203 43.6347 8.33203 43.3205V39.3537C8.33203 39.0395 8.60696 38.7646 8.92116 38.7646C9.23535 38.7646 9.51028 39.0395 9.51028 39.3537V43.3205C9.51028 43.674 9.27463 43.9096 8.92116 43.9096Z" fill="#344154"/>
<path d="M11.9855 30.3989H1.53834C1.22414 30.3989 0.949219 30.1239 0.949219 29.8098C0.949219 29.4956 1.22414 29.2206 1.53834 29.2206H11.9855C12.2997 29.2206 12.5746 29.4956 12.5746 29.8098C12.5746 30.1239 12.2997 30.3989 11.9855 30.3989Z" fill="#344154"/>
<path d="M11.9855 33.5799H1.53834C1.22414 33.5799 0.949219 33.3049 0.949219 32.9908C0.949219 32.6766 1.22414 32.4016 1.53834 32.4016H11.9855C12.2997 32.4016 12.5746 32.6766 12.5746 32.9908C12.5746 33.3049 12.2997 33.5799 11.9855 33.5799Z" fill="#344154"/>
<path d="M11.9855 36.7609H1.53834C1.22414 36.7609 0.949219 36.4859 0.949219 36.1718C0.949219 35.8576 1.22414 35.5826 1.53834 35.5826H11.9855C12.2997 35.5826 12.5746 35.8576 12.5746 36.1718C12.5746 36.4859 12.2997 36.7609 11.9855 36.7609Z" fill="#344154"/>
<path d="M11.9855 39.9429H1.53834C1.22414 39.9429 0.949219 39.6679 0.949219 39.3537C0.949219 39.0395 1.22414 38.7646 1.53834 38.7646H11.9855C12.2997 38.7646 12.5746 39.0395 12.5746 39.3537C12.5746 39.6679 12.2997 39.9429 11.9855 39.9429Z" fill="#344154"/>
<path d="M6.76107 15.2383H3.50123C3.18703 15.2383 2.91211 14.9634 2.91211 14.6492C2.91211 14.335 3.18703 14.0601 3.50123 14.0601H6.76107C7.07527 14.0601 7.35019 14.335 7.35019 14.6492C7.35019 15.0027 7.07527 15.2383 6.76107 15.2383Z" fill="#344154"/>
</svg>
