<svg width="65" height="43" viewBox="0 0 65 43" fill="none" xmlns="http://www.w3.org/2000/svg">
<path d="M26.7889 13.6601H50.2289L45.9767 5.8999C45.711 5.47469 45.2858 5.15576 44.7542 5.15576H31.9977H19.2413C18.7097 5.15576 18.2845 5.42153 18.0188 5.8999L13.7666 13.6601H26.7889Z" fill="#FCFCFC"/>
<path d="M9.77979 28.5959H19.1345V26.9482C19.1345 25.3004 17.912 23.8653 16.2643 23.6527L9.77979 22.7491V28.5959Z" fill="#FCFCFC"/>
<path d="M54.2683 28.5959H44.9136V26.9482C44.9136 25.3004 46.1361 23.8653 47.7838 23.6527L54.2683 22.7491V28.5959Z" fill="#FCFCFC"/>
<path d="M19.9322 29.393H9.78013C9.35491 29.393 8.98285 29.0209 8.98285 28.5957C8.98285 28.1705 9.35491 27.7984 9.78013 27.7984H18.3376V26.948C18.3376 25.6724 17.3809 24.6093 16.1584 24.4499L9.67382 23.5463C9.2486 23.4931 8.92969 23.0679 8.98285 22.6427C9.036 22.2175 9.46121 21.8986 9.88643 21.9517L16.371 22.8553C18.3908 23.1742 19.9322 24.9282 19.9322 26.948V29.393Z" fill="#344154"/>
<path d="M54.6935 43H52.5142C49.9098 43 47.7837 40.8739 47.7837 38.2695V36.8875H16.3177V38.2695C16.3177 40.8739 14.1916 43 11.5871 43H9.40791C6.80346 43 4.67738 40.8739 4.67738 38.2695V20.623L1.16934 19.3473C0.478367 19.0816 0 18.4438 0 17.6996V14.5105C0 13.5538 0.797278 12.7565 1.75401 12.7565H6.32509C7.33498 12.7565 8.23857 12.225 8.71694 11.3214L13.2349 3.02966C14.2447 1.16934 16.2114 0 18.3906 0H45.6576C47.7837 0 49.7503 1.16934 50.8134 3.02966L55.3313 11.3214C55.8096 12.225 56.7132 12.7565 57.7231 12.7565H62.2942C63.2509 12.7565 64.0482 13.5538 64.0482 14.5105V17.6996C64.0482 18.4438 63.5698 19.0816 62.8789 19.3473L59.3708 20.623V38.2695C59.424 40.8739 57.2979 43 54.6935 43ZM14.7231 35.293H49.3783V38.2695C49.3783 39.9703 50.7602 41.4054 52.5142 41.4054H54.6935C56.3943 41.4054 57.8294 40.0235 57.8294 38.2695V19.5599L62.4005 17.9122C62.4537 17.9122 62.5068 17.8059 62.5068 17.7528V14.5637C62.5068 14.4574 62.4536 14.4042 62.3473 14.4042H57.7763C56.1817 14.4042 54.7466 13.5538 53.9493 12.1187L49.4314 3.82694C48.6873 2.44498 47.2522 1.59456 45.7108 1.59456H18.3906C16.8492 1.59456 15.4141 2.44498 14.67 3.82694L10.152 12.1187C9.40791 13.5006 7.91966 14.4042 6.32509 14.4042H1.75401C1.64771 14.4042 1.59456 14.4574 1.59456 14.5637V17.7528C1.59456 17.8059 1.64771 17.8591 1.70086 17.9122L6.27194 19.5599V38.2695C6.27194 39.9703 7.65389 41.4054 9.40791 41.4054H11.5871C13.288 41.4054 14.7231 40.0235 14.7231 38.2695V35.293Z" fill="#344154"/>
<path d="M51.5575 14.4574H12.4907L17.3807 5.52782C17.7528 4.83684 18.4969 4.41162 19.2942 4.41162H44.754C45.5513 4.41162 46.2954 4.83684 46.6675 5.52782L51.5575 14.4574ZM15.2015 12.8628H48.8999L45.2855 6.27194C45.1792 6.05933 44.9666 5.95303 44.754 5.95303H19.2942C19.0816 5.95303 18.869 6.05933 18.7627 6.27194L15.2015 12.8628Z" fill="#344154"/>
<path d="M54.2683 29.393H44.1162V26.948C44.1162 24.9282 45.6576 23.1742 47.6774 22.8553L54.2151 21.9517C54.6403 21.8986 55.0655 22.2175 55.1187 22.6427C55.1718 23.0679 54.8529 23.4931 54.4277 23.5463L47.9432 24.4499C46.7207 24.6093 45.7639 25.7255 45.7639 26.948V27.7984H54.3214C54.7466 27.7984 55.1187 28.1705 55.1187 28.5957C55.0655 29.0741 54.7466 29.393 54.2683 29.393Z" fill="#344154"/>
<path d="M38.9075 29.5526H25.1943C24.769 29.5526 24.397 29.1805 24.397 28.7553C24.397 28.3301 24.769 27.958 25.1943 27.958H38.9075C39.3327 27.958 39.7048 28.3301 39.7048 28.7553C39.7048 29.2337 39.3327 29.5526 38.9075 29.5526Z" fill="#344154"/>
<path d="M38.9075 29.5526C38.8544 29.5526 38.8544 29.5526 38.8012 29.5526C38.376 29.4994 38.0571 29.1274 38.1103 28.649L38.6418 24.1311H25.5132L26.0447 28.649C26.0979 29.0742 25.779 29.4994 25.3538 29.5526C24.9286 29.6057 24.5033 29.2868 24.4502 28.8616L23.7061 22.5365H40.4489L39.7048 28.8616C39.6517 29.2868 39.2796 29.5526 38.9075 29.5526Z" fill="#344154"/>
<path d="M15.5204 36.8875H11.4277C11.0024 36.8875 10.6304 36.5155 10.6304 36.0902C10.6304 35.665 11.0024 35.293 11.4277 35.293H15.5204C15.9456 35.293 16.3176 35.665 16.3176 36.0902C16.3176 36.5155 15.9456 36.8875 15.5204 36.8875Z" fill="#344154"/>
<path d="M52.6737 36.8875H48.581C48.1558 36.8875 47.7837 36.5155 47.7837 36.0902C47.7837 35.665 48.1558 35.293 48.581 35.293H52.6737C53.0989 35.293 53.471 35.665 53.471 36.0902C53.471 36.5155 53.0989 36.8875 52.6737 36.8875Z" fill="#344154"/>
</svg>
