<svg width="74" height="59" viewBox="0 0 74 59" fill="none" xmlns="http://www.w3.org/2000/svg">
<path d="M64.5504 39.4007L61.909 34.5581C61.854 34.4481 61.7439 34.3931 61.6339 34.3931H45.1802C45.0702 34.3931 44.9601 34.4481 44.9051 34.5581L42.2637 39.4007H49.4174H64.5504Z" fill="#46C770"/>
<path d="M30.9281 2.14612L29.1121 3.96211L28.2867 3.13667C26.1956 1.04557 22.7838 1.04557 20.6927 3.13667L19.8672 3.96211L18.0513 2.14612C16.3454 0.440224 13.5939 0.440224 11.888 2.14612L9.63184 4.40237L15.9602 10.5106H24.4896H33.0191L39.3475 4.40237L37.0913 2.14612C35.3854 0.440224 32.634 0.440224 30.9281 2.14612Z" fill="#F2DDDE"/>
<path d="M33.3488 11.336H15.6294L8.47559 4.40232L11.3371 1.54077C12.3276 0.55025 13.5933 0 14.969 0C16.3448 0 17.6655 0.55025 18.6009 1.54077L19.8666 2.80647L20.0867 2.58634C21.2423 1.43073 22.8382 0.770353 24.489 0.770353C26.1399 0.770353 27.6807 1.43073 28.8913 2.58634L29.1115 2.80647L30.3772 1.54077C32.4132 -0.495302 35.6599 -0.495302 37.696 1.54077L40.5575 4.40232L33.3488 11.336ZM16.2897 9.6851H32.6884L38.1363 4.40232L36.4854 2.75145C35.1097 1.37573 32.8535 1.37573 31.5328 2.75145L29.1115 5.17268L27.7358 3.79695C26.8553 2.91649 25.7547 2.47631 24.5441 2.47631C23.3335 2.47631 22.1778 2.97152 21.3524 3.79695L19.9767 5.17268L17.5554 2.75145C16.895 2.0911 16.0146 1.70589 15.0791 1.70589C14.1436 1.70589 13.2631 2.0911 12.6028 2.75145L10.9519 4.40232L16.2897 9.6851Z" fill="#344154"/>
<path d="M67.082 58.936H65.7613C64.0003 58.936 62.5696 57.5053 62.5696 55.7443V53.8183H44.2449V55.7443C44.2449 57.5053 42.8142 58.936 41.0533 58.936H39.7326C37.9716 58.936 36.5408 57.5053 36.5408 55.7443V43.9131L34.6698 43.1977C34.1196 42.9776 33.7344 42.4823 33.7344 41.877V39.951C33.7344 39.1806 34.3397 38.5753 35.1101 38.5753H37.8616C38.3568 38.5753 38.797 38.3001 39.0172 37.9149L41.7686 32.9073C42.429 31.6416 43.7497 30.8712 45.1804 30.8712H61.6341C63.0648 30.8712 64.3856 31.6416 65.0459 32.9073L67.7974 37.9149C68.0175 38.3551 68.4577 38.5753 68.953 38.5753H71.7044C72.4748 38.5753 73.0801 39.1806 73.0801 39.951V41.877C73.0801 42.4823 72.695 42.9776 72.1447 43.1977L70.2737 43.9131V55.7443C70.2737 57.4502 68.8429 58.936 67.082 58.936ZM42.594 52.1674H64.2205V55.7443C64.2205 56.5698 64.9358 57.2852 65.7613 57.2852H67.082C67.9074 57.2852 68.6228 56.5698 68.6228 55.7443V42.7575L71.4293 41.7119V40.1711H68.953C67.8524 40.1711 66.8619 39.5658 66.3666 38.6303L63.6152 33.6227C63.23 32.9073 62.4595 32.4671 61.6341 32.4671H45.1804C44.355 32.4671 43.6396 32.9073 43.1993 33.6227L40.4479 38.6303C39.9526 39.5658 38.9071 40.1711 37.8616 40.1711H35.3852V41.7119L38.1917 42.7575V55.7443C38.1917 56.5698 38.9071 57.2852 39.7326 57.2852H41.0533C41.8787 57.2852 42.594 56.5698 42.594 55.7443V52.1674Z" fill="#344154"/>
<path d="M46.4458 49.3061H39.9524C39.5122 49.3061 39.127 48.9209 39.127 48.4806C39.127 48.0404 39.5122 47.6552 39.9524 47.6552H44.7949V47.4901C44.7949 46.8848 44.3547 46.3895 43.8044 46.3345L40.0624 45.7842C39.6222 45.7292 39.292 45.289 39.347 44.8487C39.402 44.4085 39.8423 44.0783 40.2825 44.1333L44.0245 44.6836C45.4002 44.9037 46.4458 46.1144 46.4458 47.4901V49.3061Z" fill="#344154"/>
<path d="M66.8616 49.3059H60.3682V47.4899C60.3682 46.1142 61.4137 44.9036 62.7895 44.6835L66.5314 44.1332C66.9716 44.0781 67.4119 44.3533 67.4669 44.8486C67.522 45.2888 67.2468 45.729 66.7515 45.784L63.0095 46.3343C62.4042 46.4444 62.019 46.9396 62.019 47.4899V47.655H66.8616C67.3018 47.655 67.687 48.0402 67.687 48.4805C67.687 48.9207 67.3018 49.3059 66.8616 49.3059Z" fill="#344154"/>
<path d="M57.5622 49.3611H49.3079C48.8676 49.3611 48.4824 48.9759 48.4824 48.5356C48.4824 48.0954 48.8676 47.7102 49.3079 47.7102H57.5622C58.0024 47.7102 58.3877 48.0954 58.3877 48.5356C58.3877 48.9759 58.0024 49.3611 57.5622 49.3611Z" fill="#344154"/>
<path d="M57.5614 49.3611C57.5064 49.3611 57.5063 49.3611 57.4513 49.3611C57.0111 49.3061 56.6809 48.9209 56.736 48.4256L57.0111 46.0594H49.8573L50.1325 48.4256C50.1875 48.8659 49.8573 49.3061 49.4171 49.3611C48.9768 49.4161 48.5366 49.0859 48.4816 48.6457L47.9863 44.4635H58.882L58.3868 48.6457C58.3318 49.0859 57.9466 49.3611 57.5614 49.3611Z" fill="#344154"/>
<path d="M43.4189 53.8184H40.9426C40.5024 53.8184 40.1172 53.4331 40.1172 52.9929C40.1172 52.5527 40.5024 52.1675 40.9426 52.1675H43.4189C43.8592 52.1675 44.2444 52.5527 44.2444 52.9929C44.2444 53.4331 43.8592 53.8184 43.4189 53.8184Z" fill="#344154"/>
<path d="M66.5864 53.8184H63.3948C62.9545 53.8184 62.5693 53.4331 62.5693 52.9929C62.5693 52.5527 62.9545 52.1675 63.3948 52.1675H66.5864C67.0266 52.1675 67.4119 52.5527 67.4119 52.9929C67.4119 53.4331 67.0266 53.8184 66.5864 53.8184Z" fill="#344154"/>
<path d="M43.4194 53.8184H40.2278C39.7875 53.8184 39.4023 53.4331 39.4023 52.9929C39.4023 52.5527 39.7875 52.1675 40.2278 52.1675H43.4194C43.8597 52.1675 44.2449 52.5527 44.2449 52.9929C44.2449 53.4331 43.8597 53.8184 43.4194 53.8184Z" fill="#344154"/>
<path d="M40.2277 58.9361H24.3793C15.1895 58.9361 8.53096 56.8449 4.45881 52.7728C1.43222 49.7462 -0.053555 45.6741 0.00147401 40.7215C0.0565031 35.7689 1.7624 30.7061 4.84402 26.579L14.5291 13.5371H33.7343V15.188H15.3546L6.16473 27.5695C3.24819 31.4766 1.65233 36.1541 1.5973 40.7765C1.54227 45.2889 2.918 48.9758 5.55939 51.6722C9.30137 55.4142 15.5747 57.3402 24.3243 57.3402H40.1726V58.9361H40.2277Z" fill="#344154"/>
<path d="M45.566 31.9718C44.8506 30.431 43.9702 28.8902 42.9797 27.5145L33.5146 14.8027L34.8354 13.8123L44.3003 26.524C45.4009 28.0097 46.3365 29.6056 47.1069 31.2564L45.566 31.9718Z" fill="#344154"/>
<path d="M34.3948 15.133H14.3092C13.0986 15.133 12.1631 14.1424 12.1631 12.9868V11.8863C12.1631 10.6756 13.1536 9.74011 14.3092 9.74011H34.3948C35.6054 9.74011 36.5409 10.7306 36.5409 11.8863V12.9868C36.596 14.1424 35.6054 15.133 34.3948 15.133ZM14.3642 11.336C14.0891 11.336 13.869 11.5561 13.869 11.8312V12.9318C13.869 13.207 14.0891 13.427 14.3642 13.427H34.4499C34.725 13.427 34.9451 13.207 34.9451 12.9318V11.8312C34.9451 11.5561 34.725 11.336 34.4499 11.336H14.3642Z" fill="#344154"/>
<path d="M33.3488 11.336H15.6294L8.47559 4.40232L11.3371 1.54077C12.3276 0.55025 13.5933 0 14.969 0C16.3448 0 17.6655 0.55025 18.6009 1.54077L19.8666 2.80647L20.0867 2.58634C21.2423 1.43073 22.8382 0.770353 24.489 0.770353C26.1399 0.770353 27.6807 1.43073 28.8913 2.58634L29.1115 2.80647L30.3772 1.54077C32.4132 -0.495302 35.6599 -0.495302 37.696 1.54077L40.5575 4.40232L33.3488 11.336ZM16.2897 9.6851H32.6884L38.1363 4.40232L36.4854 2.75145C35.1097 1.37573 32.8535 1.37573 31.5328 2.75145L29.1115 5.17268L27.7358 3.79695C26.8553 2.91649 25.7547 2.47631 24.5441 2.47631C23.3335 2.47631 22.1778 2.97152 21.3524 3.79695L19.9767 5.17268L17.5554 2.75145C16.895 2.0911 16.0146 1.70589 15.0791 1.70589C14.1436 1.70589 13.2631 2.0911 12.6028 2.75145L10.9519 4.40232L16.2897 9.6851Z" fill="#344154"/>
<path d="M24.4004 46H21.7637V31.4541H15.582V29.2568H30.582V31.4541H24.4004V46ZM30.582 27.0596H15.582V24.8623H30.582V27.0596Z" fill="#46C770"/>
</svg>
