<svg width="55" height="56" viewBox="0 0 55 56" fill="none" xmlns="http://www.w3.org/2000/svg">
<path d="M13.338 19.2517L13.2288 19.149C12.7901 19.6151 12.2268 20.2124 11.1301 20.2124C10.0343 20.2124 9.47016 19.6151 9.03251 19.1491L9.03243 19.149C8.85225 18.9574 8.7074 18.8059 8.55608 18.706C8.39497 18.5996 8.23034 18.5531 8.01562 18.5531C6.96598 18.5531 6.08437 19.3234 6.08437 20.3027C6.08437 20.676 6.21375 21.0322 6.45508 21.3319L6.45635 21.3335L10.9914 26.8144L11.0364 26.8687H11.107H17.393H17.4636L17.5086 26.8144L22.0517 21.3237L22.0517 21.3237L22.053 21.3221C22.2867 21.0317 22.4156 20.6754 22.4156 20.3027C22.4156 19.3234 21.534 18.5531 20.4844 18.5531C20.2685 18.5531 20.1031 18.5995 19.9412 18.7059C19.789 18.806 19.6435 18.9577 19.4624 19.1497L19.4622 19.1498C19.0245 19.615 18.4604 20.2124 17.3636 20.2124C16.2669 20.2124 15.7018 19.615 15.2642 19.1491L15.2641 19.149C15.0839 18.9574 14.9388 18.8058 14.7869 18.7059C14.6253 18.5995 14.4601 18.5531 14.2447 18.5531C14.0296 18.5531 13.8647 18.5995 13.7036 18.706C13.5523 18.8061 13.4078 18.9577 13.2285 19.1492L13.338 19.2517ZM13.338 19.2517C13.7032 18.8617 13.8661 18.7031 14.2447 18.7031C14.6241 18.7031 14.7879 18.8617 15.1549 19.2517M13.338 19.2517L13.3355 19.2544C12.8948 19.7227 12.2929 20.3624 11.1301 20.3624C9.96622 20.3624 9.36327 19.7204 8.92331 19.2519L8.92317 19.2517C8.55623 18.8617 8.39325 18.7031 8.01562 18.7031C7.03327 18.7031 6.23438 19.421 6.23438 20.3027C6.23438 20.6402 6.35105 20.9635 6.57192 21.2378L15.1549 19.2517M15.1549 19.2517C15.5948 19.7202 16.1987 20.3624 17.3636 20.3624C18.5273 20.3624 19.1302 19.7216 19.57 19.2542L19.5715 19.2526C19.9402 18.8617 20.1041 18.7031 20.4844 18.7031C21.4667 18.7031 22.2656 19.421 22.2656 20.3027C22.2656 20.6402 22.149 20.9635 21.9361 21.228L15.1549 19.2517ZM23.6014 31.7887L23.6013 31.7888L23.6056 31.7924C26.6118 34.2834 28.35 37.9719 28.35 41.8941C28.35 49.1572 22.4062 55.0687 15.0997 55.0687H13.4003C6.09376 55.0687 0.15 49.1572 0.15 41.8941C0.15 37.9721 1.88804 34.2836 4.91933 31.7719L4.9194 31.772L4.92359 31.7682L9.55484 27.6286L9.66248 27.5324L9.57045 27.4211L5.30828 22.2695C5.30807 22.2692 5.30786 22.269 5.30765 22.2687C4.84979 21.6999 4.60313 21.0038 4.60313 20.3027C4.60313 18.5287 6.12627 17.0719 8.01562 17.0719C9.1114 17.0719 9.67466 17.6691 10.1124 18.1352L10.1124 18.1353C10.2926 18.3268 10.4375 18.4783 10.5888 18.5782C10.7499 18.6847 10.9145 18.7311 11.1293 18.7311C11.3443 18.7311 11.5094 18.6847 11.6707 18.5783C11.8224 18.4783 11.9672 18.3268 12.147 18.1352C12.4497 17.813 12.8138 17.4371 13.3642 17.2297L13.5818 17.1477L13.4173 16.9832L8.01393 11.5798C7.53791 11.1038 7.275 10.4704 7.275 9.79688C7.275 9.12334 7.53791 8.48994 8.01393 8.01393C8.93174 7.09611 10.5192 7.05898 11.4781 7.91721L11.7281 8.14099V7.80544V4.45312C11.7281 2.08051 13.6586 0.15 16.0312 0.15H22.2656C23.6559 0.15 24.7875 1.28162 24.7875 2.67188C24.7875 4.06213 23.6559 5.19375 22.2656 5.19375H16.9219H16.7719V5.34375V7.80544V8.14121L17.022 7.91716C17.9808 7.05818 19.5691 7.09602 20.4879 8.01397L20.4879 8.01402C20.9638 8.489 21.2259 9.12141 21.2259 9.79688C21.2259 10.4723 20.9638 11.1048 20.4879 11.5807L15.0818 16.9859L14.918 17.1496L15.1344 17.2321C15.6808 17.4405 16.0443 17.8141 16.3449 18.1342C16.5252 18.3263 16.6703 18.4781 16.8223 18.5782C16.9841 18.6848 17.1496 18.7311 17.3654 18.7311C17.5804 18.7311 17.7457 18.6847 17.9073 18.5784C18.0593 18.4784 18.2046 18.327 18.3849 18.1353L18.385 18.1352C18.8226 17.6692 19.3867 17.0719 20.4844 17.0719C22.3737 17.0719 23.8969 18.5287 23.8969 20.3027C23.8969 21.004 23.6501 21.7001 23.2003 22.2599C23.2001 22.2601 23.1999 22.2604 23.1997 22.2607L18.9296 27.4202L18.8375 27.5315L18.9452 27.6277L23.6014 31.7887ZM13.2094 11.7379L10.5326 9.06114C10.3345 8.86299 10.0781 8.75625 9.79688 8.75625C9.5156 8.75625 9.25928 8.86299 9.06114 9.06114C8.86299 9.25928 8.75625 9.5156 8.75625 9.79688C8.75625 10.0781 8.86299 10.3345 9.06114 10.5326L14.1439 15.6154L14.25 15.7215L14.3561 15.6154L19.4389 10.5326C19.6345 10.3369 19.7429 10.0752 19.7429 9.79688C19.7429 9.51853 19.6345 9.25784 19.4391 9.0623C19.0392 8.66031 18.3669 8.6616 17.9674 9.06114L15.2906 11.7379V3.7125H22.2656C22.8401 3.7125 23.3062 3.24634 23.3062 2.67188C23.3062 2.09741 22.8401 1.63125 22.2656 1.63125H16.0312C14.4753 1.63125 13.2094 2.89719 13.2094 4.45312V11.7379ZM11.0277 28.35H10.9705L10.9278 28.3882L5.88707 32.8929C3.17362 35.1423 1.63125 38.4157 1.63125 41.8941C1.63125 48.3432 6.91217 53.5875 13.4003 53.5875H15.0997C21.5878 53.5875 26.8687 48.3432 26.8687 41.8941C26.8687 38.4159 25.3266 35.1424 22.6379 32.9134L17.5722 28.3881L17.5295 28.35H17.4723H11.0277Z" fill="#393939" stroke="white" stroke-width="0.3"/>
<path d="M33.1031 10.6875C33.1031 4.87708 37.8302 0.15 43.6406 0.15C49.451 0.15 54.1781 4.87708 54.1781 10.6875C54.1781 16.4979 49.451 21.225 43.6406 21.225C37.8302 21.225 33.1031 16.4979 33.1031 10.6875ZM34.5844 10.6875C34.5844 15.6812 38.6469 19.7437 43.6406 19.7437C48.6344 19.7437 52.6969 15.6812 52.6969 10.6875C52.6969 5.69375 48.6344 1.63125 43.6406 1.63125C38.6469 1.63125 34.5844 5.69375 34.5844 10.6875Z" fill="#393939" stroke="white" stroke-width="0.3"/>
<path d="M38.7644 14.5138L47.4571 5.8211L48.5043 6.86832L39.8116 15.561L38.7644 14.5138Z" fill="#393939" stroke="white" stroke-width="0.3"/>
<path d="M44.6813 14.25C44.6813 12.8597 45.8129 11.7281 47.2031 11.7281C48.5934 11.7281 49.725 12.8597 49.725 14.25C49.725 15.6403 48.5934 16.7719 47.2031 16.7719C45.8129 16.7719 44.6813 15.6403 44.6813 14.25ZM46.1625 14.25C46.1625 14.8245 46.6287 15.2906 47.2031 15.2906C47.7776 15.2906 48.2438 14.8245 48.2438 14.25C48.2438 13.6755 47.7776 13.2094 47.2031 13.2094C46.6287 13.2094 46.1625 13.6755 46.1625 14.25Z" fill="#393939" stroke="white" stroke-width="0.3"/>
<path d="M40.0781 4.60313C41.4684 4.60313 42.6 5.73475 42.6 7.125C42.6 8.51525 41.4684 9.64687 40.0781 9.64687C38.6879 9.64687 37.5563 8.51525 37.5563 7.125C37.5563 5.73475 38.6879 4.60313 40.0781 4.60313ZM40.0781 6.08438C39.5037 6.08438 39.0375 6.55053 39.0375 7.125C39.0375 7.69947 39.5037 8.16563 40.0781 8.16563C40.6526 8.16563 41.1188 7.69947 41.1188 7.125C41.1188 6.55053 40.6526 6.08438 40.0781 6.08438Z" fill="#393939" stroke="white" stroke-width="0.3"/>
<path d="M43.7906 33.6841L46.4674 36.3608C46.8671 36.7605 47.5392 36.7605 47.9389 36.3608C48.137 36.1627 48.2437 35.9063 48.2437 35.6251C48.2437 35.3438 48.137 35.0875 47.9389 34.8893L42.8561 29.8065L42.75 29.7005L42.6439 29.8065L37.5611 34.8893C37.3655 35.085 37.2571 35.3468 37.2571 35.6251C37.2571 35.9035 37.3655 36.1643 37.5611 36.3598C37.5611 36.3599 37.5611 36.3599 37.5611 36.3599L37.6672 36.2539C38.0083 36.5968 38.5854 36.5959 38.9265 36.2547L41.7094 33.4719V33.6841H43.7906Z" fill="#393939" stroke="white" stroke-width="0.3"/>
<path d="M14.5909 47.9864H12.9846V39.1251H9.21875V37.7865H18.3567V39.1251H14.5909V47.9864ZM18.3567 36.4479H9.21875V35.1094H18.3567V36.4479Z" fill="#46C770"/>
</svg>
