<svg width="55" height="57" viewBox="0 0 55 57" fill="none" xmlns="http://www.w3.org/2000/svg">
<path d="M13.338 20.1424L13.2288 20.0396C12.7901 20.5057 12.2268 21.103 11.1301 21.103C10.0343 21.103 9.47016 20.5057 9.03251 20.0397L9.03243 20.0396C8.85225 19.8481 8.7074 19.6966 8.55608 19.5966C8.39497 19.4902 8.23034 19.4438 8.01562 19.4438C6.96598 19.4438 6.08437 20.214 6.08437 21.1933C6.08437 21.5666 6.21375 21.9228 6.45508 22.2226L6.45635 22.2241L10.9914 27.705L11.0364 27.7594H11.107H17.393H17.4636L17.5086 27.705L22.0517 22.2143L22.0517 22.2143L22.053 22.2127C22.2867 21.9223 22.4156 21.566 22.4156 21.1933C22.4156 20.214 21.534 19.4438 20.4844 19.4438C20.2685 19.4438 20.1031 19.4901 19.9412 19.5966C19.789 19.6966 19.6435 19.8483 19.4624 20.0404L19.4622 20.0405C19.0245 20.5056 18.4604 21.103 17.3636 21.103C16.2669 21.103 15.7018 20.5056 15.2642 20.0397L15.2641 20.0396C15.0839 19.848 14.9388 19.6965 14.7869 19.5965C14.6253 19.4901 14.4601 19.4438 14.2447 19.4438C14.0296 19.4438 13.8647 19.4901 13.7036 19.5966C13.5523 19.6967 13.4078 19.8483 13.2285 20.0399L13.338 20.1424ZM13.338 20.1424C13.7032 19.7523 13.8661 19.5938 14.2447 19.5938C14.6241 19.5938 14.7879 19.7523 15.1549 20.1424M13.338 20.1424L13.3355 20.1451C12.8948 20.6133 12.2929 21.253 11.1301 21.253C9.96622 21.253 9.36327 20.611 8.92331 20.1425L8.92317 20.1424C8.55623 19.7523 8.39325 19.5938 8.01562 19.5938C7.03327 19.5938 6.23438 20.3116 6.23438 21.1933C6.23438 21.5309 6.35105 21.8542 6.57192 22.1285L15.1549 20.1424M15.1549 20.1424C15.5948 20.6108 16.1987 21.253 17.3636 21.253C18.5273 21.253 19.1302 20.6122 19.57 20.1448L19.5715 20.1433C19.9402 19.7523 20.1041 19.5938 20.4844 19.5938C21.4667 19.5938 22.2656 20.3116 22.2656 21.1933C22.2656 21.5309 22.149 21.8542 21.9361 22.1187L15.1549 20.1424ZM23.6014 32.6793L23.6013 32.6794L23.6056 32.683C26.6118 35.1741 28.35 38.8626 28.35 42.7847C28.35 50.0479 22.4062 55.9594 15.0997 55.9594H13.4003C6.09376 55.9594 0.15 50.0479 0.15 42.7847C0.15 38.8628 1.88804 35.1742 4.91933 32.6625L4.9194 32.6626L4.92359 32.6588L9.55484 28.5192L9.66248 28.423L9.57045 28.3118L5.30828 23.1601C5.30807 23.1599 5.30786 23.1596 5.30765 23.1593C4.84979 22.5905 4.60313 21.8944 4.60313 21.1933C4.60313 19.4194 6.12627 17.9625 8.01562 17.9625C9.1114 17.9625 9.67466 18.5597 10.1124 19.0258L10.1124 19.0259C10.2926 19.2174 10.4375 19.3689 10.5888 19.4689C10.7499 19.5753 10.9145 19.6217 11.1293 19.6217C11.3443 19.6217 11.5094 19.5753 11.6707 19.4689C11.8224 19.3689 11.9672 19.2174 12.147 19.0258C12.4497 18.7036 12.8138 18.3278 13.3642 18.1203L13.5818 18.0383L13.4173 17.8739L8.01393 12.4705C7.53791 11.9944 7.275 11.361 7.275 10.6875C7.275 10.014 7.53791 9.38056 8.01393 8.90455C8.93174 7.98674 10.5192 7.9496 11.4781 8.80783L11.7281 9.03162V8.69606V5.34375C11.7281 2.97114 13.6586 1.04063 16.0312 1.04063H22.2656C23.6559 1.04063 24.7875 2.17225 24.7875 3.5625C24.7875 4.95275 23.6559 6.08437 22.2656 6.08437H16.9219H16.7719V6.23438V8.69606V9.03184L17.022 8.80779C17.9808 7.94881 19.5691 7.98664 20.4879 8.9046L20.4879 8.90464C20.9638 9.37962 21.2259 10.012 21.2259 10.6875C21.2259 11.3629 20.9638 11.9954 20.4879 12.4713L15.0818 17.8765L14.918 18.0403L15.1344 18.1228C15.6808 18.3311 16.0443 18.7047 16.3449 19.0249C16.5252 19.2169 16.6703 19.3687 16.8223 19.4689C16.9841 19.5754 17.1496 19.6217 17.3654 19.6217C17.5804 19.6217 17.7457 19.5753 17.9073 19.469C18.0593 19.369 18.2046 19.2176 18.3849 19.0259L18.385 19.0258C18.8226 18.5599 19.3867 17.9625 20.4844 17.9625C22.3737 17.9625 23.8969 19.4194 23.8969 21.1933C23.8969 21.8946 23.6501 22.5907 23.2003 23.1505C23.2001 23.1508 23.1999 23.151 23.1997 23.1513L18.9296 28.3108L18.8375 28.4221L18.9452 28.5183L23.6014 32.6793ZM13.2094 12.6285L10.5326 9.95176C10.3345 9.75361 10.0781 9.64688 9.79688 9.64688C9.5156 9.64688 9.25928 9.75361 9.06114 9.95176C8.86299 10.1499 8.75625 10.4062 8.75625 10.6875C8.75625 10.9688 8.86299 11.2251 9.06114 11.4232L14.1439 16.506L14.25 16.6121L14.3561 16.506L19.4389 11.4232C19.6345 11.2276 19.7429 10.9658 19.7429 10.6875C19.7429 10.4092 19.6345 10.1485 19.4391 9.95293C19.0392 9.55094 18.3669 9.55223 17.9674 9.95176L15.2906 12.6285V4.60313H22.2656C22.8401 4.60313 23.3062 4.13697 23.3062 3.5625C23.3062 2.98803 22.8401 2.52188 22.2656 2.52188H16.0312C14.4753 2.52188 13.2094 3.78781 13.2094 5.34375V12.6285ZM11.0277 29.2406H10.9705L10.9278 29.2788L5.88707 33.7835C3.17362 36.0329 1.63125 39.3063 1.63125 42.7847C1.63125 49.2338 6.91217 54.4781 13.4003 54.4781H15.0997C21.5878 54.4781 26.8687 49.2338 26.8687 42.7847C26.8687 39.3066 25.3266 36.0331 22.6379 33.804L17.5722 29.2788L17.5295 29.2406H17.4723H11.0277Z" fill="#393939" stroke="white" stroke-width="0.3"/>
<path d="M33.1031 11.5781C33.1031 5.7677 37.8302 1.04063 43.6406 1.04063C49.451 1.04063 54.1781 5.7677 54.1781 11.5781C54.1781 17.3885 49.451 22.1156 43.6406 22.1156C37.8302 22.1156 33.1031 17.3885 33.1031 11.5781ZM34.5844 11.5781C34.5844 16.5719 38.6469 20.6344 43.6406 20.6344C48.6344 20.6344 52.6969 16.5719 52.6969 11.5781C52.6969 6.58438 48.6344 2.52188 43.6406 2.52188C38.6469 2.52188 34.5844 6.58438 34.5844 11.5781Z" fill="#393939" stroke="white" stroke-width="0.3"/>
<path d="M38.7644 15.4044L47.4571 6.71173L48.5043 7.75894L39.8116 16.4516L38.7644 15.4044Z" fill="#393939" stroke="white" stroke-width="0.3"/>
<path d="M44.6813 15.1406C44.6813 13.7504 45.8129 12.6188 47.2031 12.6188C48.5934 12.6188 49.725 13.7504 49.725 15.1406C49.725 16.5309 48.5934 17.6625 47.2031 17.6625C45.8129 17.6625 44.6813 16.5309 44.6813 15.1406ZM46.1625 15.1406C46.1625 15.7151 46.6287 16.1813 47.2031 16.1813C47.7776 16.1813 48.2438 15.7151 48.2438 15.1406C48.2438 14.5662 47.7776 14.1 47.2031 14.1C46.6287 14.1 46.1625 14.5662 46.1625 15.1406Z" fill="#393939" stroke="white" stroke-width="0.3"/>
<path d="M40.0781 5.49375C41.4684 5.49375 42.6 6.62537 42.6 8.01562C42.6 9.40588 41.4684 10.5375 40.0781 10.5375C38.6879 10.5375 37.5563 9.40588 37.5563 8.01562C37.5563 6.62537 38.6879 5.49375 40.0781 5.49375ZM40.0781 6.975C39.5037 6.975 39.0375 7.44116 39.0375 8.01562C39.0375 8.59009 39.5037 9.05625 40.0781 9.05625C40.6526 9.05625 41.1188 8.59009 41.1188 8.01562C41.1188 7.44116 40.6526 6.975 40.0781 6.975Z" fill="#393939" stroke="white" stroke-width="0.3"/>
<path d="M43.7906 34.5747L46.4674 37.2514C46.8671 37.6511 47.5392 37.6511 47.9389 37.2514C48.137 37.0533 48.2437 36.797 48.2437 36.5157C48.2437 36.2344 48.137 35.9781 47.9389 35.78L42.8561 30.6972L42.75 30.5911L42.6439 30.6972L37.5611 35.78C37.3655 35.9756 37.2571 36.2374 37.2571 36.5157C37.2571 36.7941 37.3655 37.0549 37.5611 37.2505C37.5611 37.2505 37.5611 37.2505 37.5611 37.2506L37.6672 37.1445C38.0083 37.4874 38.5854 37.4865 38.9265 37.1454L41.7094 34.3625V34.5747H43.7906Z" fill="#393939" stroke="white" stroke-width="0.3"/>
<path d="M14.5909 48.877H12.9846V40.0157H9.21875V38.6771H18.3567V40.0157H14.5909V48.877ZM18.3567 37.3386H9.21875V36H18.3567V37.3386Z" fill="#393939"/>
</svg>
