<svg width="76" height="40" viewBox="0 0 76 40" fill="none" xmlns="http://www.w3.org/2000/svg">
<path d="M7.10147 12.2715C6.89259 12.2715 6.68372 12.2193 6.52707 12.0626L4.7516 10.2872H2.03622C1.61846 10.2872 1.25293 9.92162 1.25293 9.50387C1.25293 9.08612 1.61846 8.72058 2.03622 8.72058H5.43047L7.6759 10.966C7.98921 11.2793 7.98921 11.7493 7.6759 12.0626C7.51924 12.2193 7.31034 12.2715 7.10147 12.2715Z" fill="#344154"/>
<path d="M45.1171 26.5274C42.3495 26.5274 40.1562 24.2819 40.1562 21.5665C40.1562 18.8511 42.4017 16.6057 45.1171 16.6057C47.8325 16.6057 50.0779 18.8511 50.0779 21.5665C50.0779 24.2819 47.8325 26.5274 45.1171 26.5274ZM45.1171 18.1723C43.2372 18.1723 41.7228 19.6867 41.7228 21.5665C41.7228 23.4464 43.2372 24.9608 45.1171 24.9608C46.997 24.9608 48.5113 23.4464 48.5113 21.5665C48.5113 19.6867 46.997 18.1723 45.1171 18.1723Z" fill="#344154"/>
<path d="M12.3241 26.5274C9.55649 26.5274 7.36328 24.2819 7.36328 21.5665C7.36328 18.8511 9.60871 16.6057 12.3241 16.6057C15.0917 16.6057 17.2849 18.8511 17.2849 21.5665C17.2849 24.2819 15.0917 26.5274 12.3241 26.5274ZM12.3241 18.1723C10.4442 18.1723 8.92986 19.6867 8.92986 21.5665C8.92986 23.4464 10.4442 24.9608 12.3241 24.9608C14.204 24.9608 15.7184 23.4464 15.7184 21.5665C15.7706 19.6867 14.204 18.1723 12.3241 18.1723Z" fill="#344154"/>
<path d="M53.107 23.2899H49.1906V21.7233H52.9504L52.8981 18.9556C52.8981 18.7468 52.8459 18.6945 52.7937 18.6945L51.2794 17.7024V15.7181V15.6658C51.2794 15.6136 51.2271 15.5614 51.1749 15.5092C50.1827 15.0392 47.2585 13.9426 41.671 13.6293C39.4778 13.5249 37.4412 12.9504 35.5613 12.0105L31.0183 9.76505C29.3473 8.92954 27.4673 8.51178 25.6397 8.51178H19.8433C16.1358 8.51178 12.5848 9.45174 9.55612 11.175C7.25848 12.4805 4.96082 13.1071 2.66317 13.0549V15.1436L2.50652 15.3525C2.50652 15.3525 1.56658 16.6058 1.56658 18.2768C1.56658 18.4334 1.61881 21.7755 4.12534 21.7755H8.1462V23.3421H4.12534C0.887741 23.3421 0 20.0523 0 18.329C0 16.5536 0.731057 15.1959 1.09659 14.6737V12.8982C1.09659 12.5327 1.25328 12.1671 1.51437 11.906C1.77547 11.6449 2.14098 11.5405 2.50652 11.5405C4.54307 11.645 6.63186 11.0705 8.72063 9.8695C11.9582 7.9896 15.8225 6.99744 19.7911 6.99744H25.5875C27.6762 6.99744 29.8172 7.51962 31.6971 8.45957L36.2402 10.705C37.9112 11.5405 39.7911 12.0627 41.7232 12.1671C47.3629 12.4804 50.4438 13.5771 51.8015 14.1515C52.4804 14.4648 52.8459 15.1436 52.7937 15.8225V16.9191L53.577 17.4413C54.0992 17.8068 54.3603 18.329 54.3603 19.0079L54.4125 21.9321C54.4125 22.2977 54.2559 22.6632 53.9948 22.9765C53.8381 23.1332 53.4726 23.2899 53.107 23.2899Z" fill="#344154"/>
<path d="M40.6786 21.7233H16.71V23.2898H40.6786V21.7233Z" fill="#344154"/>
<path d="M64.4912 6.47522V24.3864H74.1518L72.8985 17.3368C72.7418 16.5535 72.5852 15.7702 72.3763 14.987C71.123 10.0261 69.7131 7.62404 64.4912 6.47522Z" fill="#46C770"/>
<path d="M59.5301 6.7363H57.9635V2.08877C57.9635 1.82768 57.7546 1.56658 57.4413 1.56658C57.1802 1.56658 56.9191 1.77546 56.9191 2.08877V6.7363H55.3525V2.08877C55.3525 0.939947 56.2925 0 57.4413 0C58.5901 0 59.5301 0.939947 59.5301 2.08877V6.7363Z" fill="#344154"/>
<path d="M74.0996 23.6031H64.4912V25.1697H74.0996V23.6031Z" fill="#344154"/>
<path d="M14.1513 32.8982H4.64746V34.4648H14.1513V32.8982Z" fill="#344154"/>
<path d="M19.6868 40C16.3448 40 13.5771 37.2846 13.5771 33.8903C13.5771 30.5483 16.2926 27.7806 19.6868 27.7806C23.0288 27.7806 25.7965 30.496 25.7965 33.8903C25.7965 37.2846 23.0811 40 19.6868 40ZM19.6868 29.3994C17.1803 29.3994 15.1437 31.436 15.1437 33.9425C15.1437 36.449 17.1803 38.4856 19.6868 38.4856C22.1933 38.4856 24.2299 36.449 24.2299 33.9425C24.2299 31.436 22.1933 29.3994 19.6868 29.3994Z" fill="#344154"/>
<path d="M19.6869 35.1436C19.008 35.1436 18.4336 34.5692 18.4336 33.8904C18.4336 33.2115 19.008 32.6371 19.6869 32.6371C20.3657 32.6371 20.9401 33.2115 20.9401 33.8904C20.9401 34.6214 20.3657 35.1436 19.6869 35.1436ZM19.6869 33.577C19.5302 33.577 19.3735 33.7337 19.3735 33.8904C19.3735 34.047 19.5302 34.2037 19.6869 34.2037C19.8435 34.2037 20.0002 34.047 20.0002 33.8904C20.0002 33.7337 19.8957 33.577 19.6869 33.577Z" fill="#344154"/>
<path d="M34.1517 35.1436C33.4729 35.1436 32.8984 34.5692 32.8984 33.8904C32.8984 33.2115 33.4729 32.6371 34.1517 32.6371C34.8306 32.6371 35.405 33.2115 35.405 33.8904C35.3527 34.6214 34.8306 35.1436 34.1517 35.1436ZM34.1517 33.577C33.9951 33.577 33.8384 33.7337 33.8384 33.8904C33.8384 34.047 33.9951 34.2037 34.1517 34.2037C34.3084 34.2037 34.465 34.047 34.465 33.8904C34.465 33.7337 34.3084 33.577 34.1517 33.577Z" fill="#344154"/>
<path d="M64.2816 35.1436C63.6027 35.1436 63.0283 34.5692 63.0283 33.8904C63.0283 33.2115 63.6027 32.6371 64.2816 32.6371C64.9604 32.6371 65.5348 33.2115 65.5348 33.8904C65.5348 34.6214 64.9604 35.1436 64.2816 35.1436ZM64.2816 33.577C64.1249 33.577 63.9683 33.7337 63.9683 33.8904C63.9683 34.047 64.1249 34.2037 64.2816 34.2037C64.4382 34.2037 64.5949 34.047 64.5949 33.8904C64.5949 33.7337 64.4904 33.577 64.2816 33.577Z" fill="#344154"/>
<path d="M34.1517 40C30.8096 40 28.042 37.2846 28.042 33.8903C28.042 30.5483 30.7574 27.7806 34.1517 27.7806C37.4937 27.7806 40.2613 30.496 40.2613 33.8903C40.2091 37.2846 37.4937 40 34.1517 40ZM34.1517 29.3994C31.6451 29.3994 29.6086 31.436 29.6086 33.9425C29.6086 36.449 31.6451 38.4856 34.1517 38.4856C36.6582 38.4856 38.6947 36.449 38.6947 33.9425C38.6947 31.436 36.6582 29.3994 34.1517 29.3994Z" fill="#344154"/>
<path d="M75.1953 32.1149H68.4068L68.1979 31.6971C67.4146 30.2872 65.9003 29.3995 64.2815 29.3995C62.6627 29.3995 61.1483 30.2872 60.365 31.6971L60.1562 32.1149H38.3285L38.1196 31.6971C37.3363 30.2872 35.822 29.3995 34.2032 29.3995C32.5844 29.3995 31.07 30.2872 30.2867 31.6971L30.0778 32.1149H23.9682L23.7593 31.6971C22.976 30.2872 21.4617 29.3995 19.8429 29.3995C18.2241 29.3995 16.7097 30.2872 15.9264 31.6971L15.7175 32.1149H4.80371V25.0131H12.48V26.5797H6.37029V30.5483H14.7776C15.9264 28.8773 17.8063 27.8329 19.8429 27.8329C21.8794 27.8329 23.7593 28.8773 24.9081 30.5483H29.2423C30.3912 28.8773 32.2711 27.8329 34.3076 27.8329C36.3442 27.8329 38.2241 28.8773 39.3729 30.5483H59.4251C60.5739 28.8773 62.4538 27.8329 64.4904 27.8329C66.5269 27.8329 68.4068 28.8773 69.5556 30.5483H73.8898V30.2872C73.8898 23.9165 72.8454 17.6502 70.7567 11.5927C69.7123 8.8251 66.9447 7.57183 64.7515 7.57183H59.5295V22.1932C59.5295 24.5953 57.5452 26.5797 55.1431 26.5797H45.117V25.0131H55.1431C56.7097 25.0131 57.9629 23.7598 57.9629 22.1932V6.00525H64.4904C67.3102 6.00525 70.7045 7.57183 71.9577 11.0705C74.0987 17.2846 75.1953 23.7076 75.1953 30.2872V32.1149Z" fill="#344154"/>
<path d="M64.2815 40C60.9395 40 58.1719 37.2846 58.1719 33.8903C58.1719 30.5483 60.8873 27.7806 64.2815 27.7806C67.6235 27.7806 70.3912 30.496 70.3912 33.8903C70.3912 37.2846 67.6235 40 64.2815 40ZM64.2815 29.3994C61.775 29.3994 59.7385 31.436 59.7385 33.9425C59.7385 36.449 61.775 38.4856 64.2815 38.4856C66.788 38.4856 68.8246 36.449 68.8246 33.9425C68.8246 31.436 66.788 29.3994 64.2815 29.3994Z" fill="#344154"/>
</svg>
