<svg width="76" height="40" viewBox="0 0 76 40" fill="none" xmlns="http://www.w3.org/2000/svg">
<path d="M7.10195 12.2715C6.89308 12.2715 6.68421 12.2193 6.52755 12.0626L4.75209 10.2872H2.03671C1.61895 10.2872 1.25342 9.92162 1.25342 9.50387C1.25342 9.08612 1.61895 8.72058 2.03671 8.72058H5.43096L7.67638 10.966C7.9897 11.2793 7.9897 11.7493 7.67638 12.0626C7.51973 12.2193 7.31083 12.2715 7.10195 12.2715Z" fill="#344154"/>
<path d="M45.1176 26.5274C42.3499 26.5274 40.1567 24.2819 40.1567 21.5665C40.1567 18.8511 42.4022 16.6057 45.1176 16.6057C47.833 16.6057 50.0784 18.8511 50.0784 21.5665C50.0784 24.2819 47.833 26.5274 45.1176 26.5274ZM45.1176 18.1723C43.2377 18.1723 41.7233 19.6867 41.7233 21.5665C41.7233 23.4464 43.2377 24.9608 45.1176 24.9608C46.9975 24.9608 48.5118 23.4464 48.5118 21.5665C48.5118 19.6867 46.9975 18.1723 45.1176 18.1723Z" fill="#344154"/>
<path d="M12.3236 26.5274C9.556 26.5274 7.36279 24.2819 7.36279 21.5665C7.36279 18.8511 9.60822 16.6057 12.3236 16.6057C15.0912 16.6057 17.2845 18.8511 17.2845 21.5665C17.2845 24.2819 15.0912 26.5274 12.3236 26.5274ZM12.3236 18.1723C10.4437 18.1723 8.92937 19.6867 8.92937 21.5665C8.92937 23.4464 10.4437 24.9608 12.3236 24.9608C14.2035 24.9608 15.7179 23.4464 15.7179 21.5665C15.7701 19.6867 14.2035 18.1723 12.3236 18.1723Z" fill="#344154"/>
<path d="M53.107 23.2899H49.1906V21.7233H52.9504L52.8981 18.9556C52.8981 18.7468 52.8459 18.6945 52.7937 18.6945L51.2794 17.7024V15.7181V15.6658C51.2794 15.6136 51.2271 15.5614 51.1749 15.5092C50.1827 15.0392 47.2585 13.9426 41.671 13.6293C39.4778 13.5249 37.4412 12.9504 35.5613 12.0105L31.0183 9.76505C29.3473 8.92954 27.4673 8.51178 25.6397 8.51178H19.8433C16.1358 8.51178 12.5848 9.45174 9.55612 11.175C7.25848 12.4805 4.96082 13.1071 2.66317 13.0549V15.1436L2.50652 15.3525C2.50652 15.3525 1.56658 16.6058 1.56658 18.2768C1.56658 18.4334 1.61881 21.7755 4.12534 21.7755H8.1462V23.3421H4.12534C0.887741 23.3421 0 20.0523 0 18.329C0 16.5536 0.731057 15.1959 1.09659 14.6737V12.8982C1.09659 12.5327 1.25328 12.1671 1.51437 11.906C1.77547 11.6449 2.14098 11.5405 2.50652 11.5405C4.54307 11.645 6.63186 11.0705 8.72063 9.8695C11.9582 7.9896 15.8225 6.99744 19.7911 6.99744H25.5875C27.6762 6.99744 29.8172 7.51962 31.6971 8.45957L36.2402 10.705C37.9112 11.5405 39.7911 12.0627 41.7232 12.1671C47.3629 12.4804 50.4438 13.5771 51.8015 14.1515C52.4804 14.4648 52.8459 15.1436 52.7937 15.8225V16.9191L53.577 17.4413C54.0992 17.8068 54.3603 18.329 54.3603 19.0079L54.4125 21.9321C54.4125 22.2977 54.2559 22.6632 53.9948 22.9765C53.8381 23.1332 53.4726 23.2899 53.107 23.2899Z" fill="#344154"/>
<path d="M40.6786 21.7233H16.71V23.2898H40.6786V21.7233Z" fill="#344154"/>
<path d="M64.4907 6.47522V24.3864H74.1513L72.898 17.3368C72.7414 16.5535 72.5847 15.7702 72.3758 14.987C71.1226 10.0261 69.7127 7.62404 64.4907 6.47522Z" fill="#FCFCFC"/>
<path d="M59.5301 6.7363H57.9635V2.08877C57.9635 1.82768 57.7546 1.56658 57.4413 1.56658C57.1802 1.56658 56.9191 1.77546 56.9191 2.08877V6.7363H55.3525V2.08877C55.3525 0.939947 56.2925 0 57.4413 0C58.5901 0 59.5301 0.939947 59.5301 2.08877V6.7363Z" fill="#344154"/>
<path d="M74.0991 23.6031H64.4907V25.1697H74.0991V23.6031Z" fill="#344154"/>
<path d="M14.1513 32.8982H4.64746V34.4648H14.1513V32.8982Z" fill="#344154"/>
<path d="M19.6868 40C16.3448 40 13.5771 37.2846 13.5771 33.8903C13.5771 30.5483 16.2926 27.7806 19.6868 27.7806C23.0288 27.7806 25.7965 30.496 25.7965 33.8903C25.7965 37.2846 23.0811 40 19.6868 40ZM19.6868 29.3994C17.1803 29.3994 15.1437 31.436 15.1437 33.9425C15.1437 36.449 17.1803 38.4856 19.6868 38.4856C22.1933 38.4856 24.2299 36.449 24.2299 33.9425C24.2299 31.436 22.1933 29.3994 19.6868 29.3994Z" fill="#344154"/>
<path d="M19.6869 35.1436C19.008 35.1436 18.4336 34.5692 18.4336 33.8904C18.4336 33.2115 19.008 32.6371 19.6869 32.6371C20.3657 32.6371 20.9401 33.2115 20.9401 33.8904C20.9401 34.6214 20.3657 35.1436 19.6869 35.1436ZM19.6869 33.577C19.5302 33.577 19.3735 33.7337 19.3735 33.8904C19.3735 34.047 19.5302 34.2037 19.6869 34.2037C19.8435 34.2037 20.0002 34.047 20.0002 33.8904C20.0002 33.7337 19.8957 33.577 19.6869 33.577Z" fill="#344154"/>
<path d="M34.1517 35.1436C33.4729 35.1436 32.8984 34.5692 32.8984 33.8904C32.8984 33.2115 33.4729 32.6371 34.1517 32.6371C34.8306 32.6371 35.405 33.2115 35.405 33.8904C35.3527 34.6214 34.8306 35.1436 34.1517 35.1436ZM34.1517 33.577C33.9951 33.577 33.8384 33.7337 33.8384 33.8904C33.8384 34.047 33.9951 34.2037 34.1517 34.2037C34.3084 34.2037 34.465 34.047 34.465 33.8904C34.465 33.7337 34.3084 33.577 34.1517 33.577Z" fill="#344154"/>
<path d="M64.2821 35.1436C63.6032 35.1436 63.0288 34.5692 63.0288 33.8904C63.0288 33.2115 63.6032 32.6371 64.2821 32.6371C64.9609 32.6371 65.5353 33.2115 65.5353 33.8904C65.5353 34.6214 64.9609 35.1436 64.2821 35.1436ZM64.2821 33.577C64.1254 33.577 63.9687 33.7337 63.9687 33.8904C63.9687 34.047 64.1254 34.2037 64.2821 34.2037C64.4387 34.2037 64.5954 34.047 64.5954 33.8904C64.5954 33.7337 64.4909 33.577 64.2821 33.577Z" fill="#344154"/>
<path d="M34.1517 40C30.8096 40 28.042 37.2846 28.042 33.8903C28.042 30.5483 30.7574 27.7806 34.1517 27.7806C37.4937 27.7806 40.2613 30.496 40.2613 33.8903C40.2091 37.2846 37.4937 40 34.1517 40ZM34.1517 29.3994C31.6451 29.3994 29.6086 31.436 29.6086 33.9425C29.6086 36.449 31.6451 38.4856 34.1517 38.4856C36.6582 38.4856 38.6947 36.449 38.6947 33.9425C38.6947 31.436 36.6582 29.3994 34.1517 29.3994Z" fill="#344154"/>
<path d="M75.1958 32.1149H68.4073L68.1984 31.6971C67.4151 30.2872 65.9008 29.3995 64.282 29.3995C62.6632 29.3995 61.1488 30.2872 60.3655 31.6971L60.1567 32.1149H38.329L38.1201 31.6971C37.3368 30.2872 35.8225 29.3995 34.2037 29.3995C32.5849 29.3995 31.0705 30.2872 30.2872 31.6971L30.0783 32.1149H23.9687L23.7598 31.6971C22.9765 30.2872 21.4621 29.3995 19.8434 29.3995C18.2246 29.3995 16.7102 30.2872 15.9269 31.6971L15.718 32.1149H4.8042V25.0131H12.4804V26.5797H6.37078V30.5483H14.7781C15.9269 28.8773 17.8068 27.8329 19.8434 27.8329C21.8799 27.8329 23.7598 28.8773 24.9086 30.5483H29.2428C30.3916 28.8773 32.2715 27.8329 34.3081 27.8329C36.3447 27.8329 38.2246 28.8773 39.3734 30.5483H59.4256C60.5744 28.8773 62.4543 27.8329 64.4908 27.8329C66.5274 27.8329 68.4073 28.8773 69.5561 30.5483H73.8903V30.2872C73.8903 23.9165 72.8459 17.6502 70.7572 11.5927C69.7128 8.8251 66.9452 7.57183 64.7519 7.57183H59.53V22.1932C59.53 24.5953 57.5457 26.5797 55.1436 26.5797H45.1175V25.0131H55.1436C56.7102 25.0131 57.9634 23.7598 57.9634 22.1932V6.00525H64.4908C67.3107 6.00525 70.7049 7.57183 71.9582 11.0705C74.0992 17.2846 75.1958 23.7076 75.1958 30.2872V32.1149Z" fill="#344154"/>
<path d="M64.282 40C60.94 40 58.1724 37.2846 58.1724 33.8903C58.1724 30.5483 60.8877 27.7806 64.282 27.7806C67.624 27.7806 70.3917 30.496 70.3917 33.8903C70.3917 37.2846 67.624 40 64.282 40ZM64.282 29.3994C61.7755 29.3994 59.7389 31.436 59.7389 33.9425C59.7389 36.449 61.7755 38.4856 64.282 38.4856C66.7885 38.4856 68.8251 36.449 68.8251 33.9425C68.8251 31.436 66.7885 29.3994 64.282 29.3994Z" fill="#344154"/>
</svg>
