<svg width="61" height="53" viewBox="0 0 61 53" fill="none" xmlns="http://www.w3.org/2000/svg">
<path d="M30.0599 5.11658C27.5017 5.11658 25.4551 7.16319 25.4551 9.72145C25.4551 12.2797 27.5017 14.3263 30.0599 14.3263C32.6182 14.3263 34.6648 12.2797 34.6648 9.72145C34.6648 7.16319 32.6182 5.11658 30.0599 5.11658ZM30.0599 11.4099C29.139 11.4099 28.3715 10.6424 28.3715 9.72145C28.3715 8.80047 29.139 8.03299 30.0599 8.03299C30.9809 8.03299 31.7484 8.80047 31.7484 9.72145C31.7484 10.6424 30.9809 11.4099 30.0599 11.4099Z" fill="#F2DDDE"/>
<path d="M30.0592 28.0897C23.51 28.0897 18.1377 33.4109 18.1377 40.0112C18.1377 46.6115 23.4588 51.9327 30.0592 51.9327C36.6595 51.9327 41.9807 46.6115 41.9807 40.0112C41.9807 33.4109 36.6083 28.0897 30.0592 28.0897ZM37.6316 41.0857L36.3014 41.188C36.0967 42.2625 35.6362 43.2858 34.9199 44.1044L35.6873 45.2301C35.9943 45.6394 35.892 46.2534 35.4315 46.5092L34.2036 47.3279C33.7943 47.6348 33.1803 47.5325 32.9245 47.072L32.157 45.9976C31.0825 46.3557 29.9569 46.458 28.9335 46.2534L28.3707 47.4813C28.1661 47.9418 27.6033 48.1465 27.1428 47.9418L25.8125 47.3279C25.352 47.1232 25.1473 46.5604 25.352 46.0999L25.9148 44.8719C25.0961 44.1556 24.4822 43.2858 24.0729 42.2113L22.7426 42.3137C22.2309 42.3648 21.7704 41.9555 21.7193 41.4439L21.6169 39.96C21.5657 39.4484 21.9751 38.9879 22.4867 38.9367L23.817 38.8344C24.0217 37.76 24.4821 36.7366 25.1985 35.918L24.431 34.7924C24.124 34.383 24.2263 33.7691 24.6868 33.5132L25.9148 32.6946C26.3241 32.3876 26.9381 32.4899 27.1939 32.9504L27.9614 34.0249C29.0359 33.6667 30.1615 33.5644 31.1848 33.7691L31.7476 32.5411C31.9523 32.0806 32.5151 31.8759 32.9756 32.0806L34.3059 32.6946C34.7664 32.8993 34.9711 33.4621 34.7664 33.9226L34.2036 35.1505C35.0222 35.8668 35.6362 36.7366 36.0455 37.8111L37.3758 37.7088C37.8875 37.6576 38.348 38.0669 38.3991 38.5786L38.5014 40.0624C38.5014 40.574 38.1433 41.0345 37.6316 41.0857Z" fill="#46C770"/>
<path d="M27.5016 48.7605C27.2457 48.7605 26.99 48.7093 26.7853 48.607L25.455 47.993C25.0456 47.7883 24.7387 47.4302 24.5852 47.0208C24.4317 46.6115 24.4828 46.151 24.6363 45.7417L24.9945 45.0254C24.4317 44.4114 23.92 43.7463 23.613 42.9788L22.8455 43.0299C21.9246 43.0811 21.1059 42.416 21.0036 41.495L20.9013 40.0112C20.8501 39.5507 21.0036 39.1414 21.3106 38.7832C21.6176 38.4251 22.0269 38.2204 22.4874 38.1692L23.2549 38.1181C23.4595 37.2994 23.8177 36.5831 24.3293 35.918L23.8688 35.304C23.613 34.9458 23.5107 34.4854 23.613 34.0249C23.7153 33.5644 23.9712 33.2062 24.3293 32.9504L25.5573 32.1318C25.9155 31.8759 26.376 31.7736 26.8365 31.8759C27.2969 31.9783 27.6551 32.2341 27.9109 32.5922L28.3714 33.2062C29.1901 33.0016 30.0087 32.9504 30.8273 33.0016L31.1855 32.2852C31.3902 31.8759 31.7483 31.5689 32.1577 31.4154C32.567 31.2619 33.0275 31.262 33.4368 31.4666L34.7671 32.0806C35.1764 32.2852 35.4834 32.6434 35.6369 33.0527C35.7903 33.462 35.7392 33.9225 35.5857 34.3319L35.2276 35.0482C35.7904 35.6622 36.302 36.3273 36.609 37.0948L37.3765 37.0436C38.2975 36.9925 39.1161 37.6576 39.2184 38.5786L39.3208 40.0624C39.372 40.5229 39.2184 40.9322 38.9114 41.2903C38.6044 41.6485 38.1951 41.8532 37.7346 41.9043L36.9671 41.9555C36.7625 42.7741 36.4043 43.4904 35.8927 44.1556L36.3532 44.7696C36.8648 45.5371 36.7113 46.6115 35.8927 47.1232L34.6647 47.9418C34.3065 48.1976 33.8461 48.3 33.3856 48.1976C32.9251 48.0953 32.5669 47.8395 32.3111 47.4813L31.8506 46.8673C31.032 47.072 30.2134 47.1232 29.3947 47.072L29.0365 47.7883C28.7295 48.4023 28.1155 48.7605 27.5016 48.7605ZM24.5852 41.3415L24.7898 41.9043C25.0968 42.8253 25.6596 43.6439 26.4271 44.2579L26.8876 44.6161L26.069 46.3557C26.069 46.4068 26.069 46.458 26.069 46.458C26.069 46.5092 26.1201 46.5092 26.1713 46.5604L27.5016 47.1743C27.6039 47.2255 27.7062 47.1743 27.7062 47.072L28.5249 45.3324L29.0877 45.4347C30.0599 45.5882 31.032 45.537 31.9018 45.2301L32.4646 45.0254L33.5391 46.6115C33.5903 46.6627 33.5902 46.6627 33.6414 46.6627C33.6926 46.6627 33.6926 46.6627 33.7438 46.6115L34.9717 45.7929C35.0229 45.7417 35.0741 45.6394 35.0229 45.5882L33.9484 44.0021L34.3066 43.5416C34.9206 42.8253 35.3299 41.9043 35.5345 40.9833L35.6369 40.4205L37.53 40.267C37.5812 40.267 37.6323 40.2159 37.6323 40.2159C37.6323 40.2159 37.6835 40.1647 37.6835 40.1135L37.5812 38.6297C37.5812 38.5274 37.4788 38.4762 37.4276 38.4762L35.5345 38.6297L35.3299 38.0669C35.0229 37.1459 34.4601 36.3273 33.6926 35.7133L33.2321 35.3552L34.0507 33.6155C34.0507 33.5644 34.0507 33.5132 34.0507 33.5132C34.0507 33.4621 33.9996 33.462 33.9484 33.4109L32.6181 32.7969C32.5669 32.7969 32.5158 32.7969 32.5158 32.7969C32.4646 32.7969 32.4646 32.8481 32.4135 32.8992L31.5948 34.6388L31.032 34.5365C30.0598 34.383 29.0877 34.4342 28.2179 34.7412L27.6551 34.9458L26.5806 33.3597C26.5295 33.3085 26.5294 33.3085 26.4783 33.3085C26.4271 33.3085 26.4271 33.3085 26.376 33.3597L25.148 34.1784C25.0968 34.2295 25.0968 34.2295 25.0968 34.2807C25.0968 34.3319 25.0968 34.3319 25.148 34.383L26.2224 35.9691L25.8643 36.4296C25.2503 37.1459 24.841 38.0669 24.6363 38.9879L24.534 39.5507L22.6409 39.7042C22.5897 39.7042 22.5386 39.7554 22.5386 39.7554C22.5386 39.7554 22.4874 39.8065 22.4874 39.8577L22.5897 41.3415C22.5897 41.4438 22.6921 41.495 22.7432 41.495L24.5852 41.3415Z" fill="#344154"/>
<path d="M30.06 52.7002C23.0504 52.7002 17.3711 47.0209 17.3711 40.0112C17.3711 33.0016 23.0504 27.3223 30.06 27.3223C37.0697 27.3223 42.749 33.0016 42.749 40.0112C42.749 47.0209 37.0185 52.7002 30.06 52.7002ZM30.06 28.8572C23.9202 28.8572 18.9061 33.8714 18.9061 40.0112C18.9061 46.1511 23.9202 51.1653 30.06 51.1653C36.1999 51.1653 41.2141 46.1511 41.2141 40.0112C41.2141 33.8714 36.1999 28.8572 30.06 28.8572Z" fill="#344154"/>
<path d="M5.0909 26.964C4.88624 26.964 4.68159 26.9129 4.5281 26.7594C4.2211 26.4524 4.2211 25.9919 4.5281 25.6849L15.6821 14.5309C15.9891 14.2239 16.4495 14.2239 16.7565 14.5309C17.0635 14.8379 17.0635 15.2984 16.7565 15.6054L5.65371 26.7594C5.50021 26.9129 5.29556 26.964 5.0909 26.964Z" fill="#344154"/>
<path d="M2.94149 24.8151C2.73683 24.8151 2.53218 24.764 2.37868 24.6105C2.07169 24.3035 2.07169 23.843 2.37868 23.536L13.5327 12.382C13.8397 12.075 14.3002 12.075 14.6072 12.382C14.9142 12.689 14.9142 13.1495 14.6072 13.4565L3.45314 24.6105C3.35081 24.764 3.14615 24.8151 2.94149 24.8151Z" fill="#344154"/>
<path d="M0.793049 22.6662C0.588388 22.6662 0.383739 22.615 0.230244 22.4615C-0.0767479 22.1545 -0.0767479 21.6941 0.230244 21.3871L11.3842 10.2331C11.6912 9.92606 12.1518 9.92606 12.4587 10.2331C12.7657 10.54 12.7657 11.0005 12.4587 11.3075L1.3047 22.4615C1.20237 22.615 0.99771 22.6662 0.793049 22.6662Z" fill="#344154"/>
<path d="M55.0282 26.964C54.8235 26.964 54.6188 26.9129 54.4653 26.7594L43.3113 15.6054C43.0043 15.2984 43.0043 14.8379 43.3113 14.5309C43.6183 14.2239 44.0788 14.2239 44.3858 14.5309L55.5398 25.6849C55.8468 25.9919 55.8468 26.4524 55.5398 26.7594C55.3863 26.9129 55.1816 26.964 55.0282 26.964Z" fill="#344154"/>
<path d="M57.1775 24.8151C56.9728 24.8151 56.7682 24.764 56.6147 24.6105L45.4607 13.4565C45.1537 13.1495 45.1537 12.689 45.4607 12.382C45.7677 12.075 46.2282 12.075 46.5352 12.382L57.6892 23.536C57.9961 23.843 57.9961 24.3035 57.6892 24.6105C57.5357 24.764 57.3822 24.8151 57.1775 24.8151Z" fill="#344154"/>
<path d="M59.326 22.6662C59.1213 22.6662 58.9167 22.615 58.7632 22.4615L47.6091 11.3075C47.3022 11.0005 47.3022 10.54 47.6091 10.2331C47.9161 9.92606 48.3766 9.92606 48.6836 10.2331L59.8377 21.3871C60.1446 21.6941 60.1446 22.1545 59.8377 22.4615C59.6842 22.615 59.5307 22.6662 59.326 22.6662Z" fill="#344154"/>
<path d="M54.2608 16.8845L53.1863 15.7589L57.7912 11.154L48.1721 1.53496H11.8959L2.32806 11.154L6.93293 15.7589L5.80732 16.8845L0.12793 11.154L11.282 0H48.8373L59.9913 11.154L54.2608 16.8845Z" fill="#344154"/>
<path d="M18.9052 38.5786L7.85352 27.5269L17.5749 17.8055L28.6266 28.8572L27.2963 29.1642C23.3054 30.1875 20.2355 33.2574 19.2122 37.2483L18.9052 38.5786ZM10.0024 27.5269L18.1377 35.6622C19.4168 32.183 22.1797 29.4201 25.659 28.1409L17.5237 20.0056L10.0024 27.5269Z" fill="#344154"/>
<path d="M41.1628 38.5786L40.8558 37.2483C39.8325 33.2574 36.7626 30.1875 32.7717 29.1642L31.4414 28.8572L42.4931 17.8055L52.2145 27.5269L41.1628 38.5786ZM34.409 28.0898C37.8882 29.3689 40.6511 32.1318 41.9303 35.611L50.0656 27.4758L42.5442 19.9545L34.409 28.0898Z" fill="#344154"/>
<path d="M30.0599 15.0937C27.0923 15.0937 24.6875 12.6889 24.6875 9.72135C24.6875 6.75377 27.0923 4.349 30.0599 4.349C33.0274 4.349 35.4322 6.75377 35.4322 9.72135C35.4322 12.6889 33.0274 15.0937 30.0599 15.0937ZM30.0599 5.88396C27.9621 5.88396 26.2225 7.62357 26.2225 9.72135C26.2225 11.8191 27.9621 13.5587 30.0599 13.5587C32.1576 13.5587 33.8972 11.8191 33.8972 9.72135C33.8972 7.62357 32.1576 5.88396 30.0599 5.88396Z" fill="#344154"/>
<path d="M30.0594 12.1772C28.7291 12.1772 27.6035 11.0516 27.6035 9.72132C27.6035 8.39103 28.7291 7.26538 30.0594 7.26538C31.3897 7.26538 32.5154 8.39103 32.5154 9.72132C32.5154 11.0516 31.3897 12.1772 30.0594 12.1772ZM30.0594 8.80034C29.5478 8.80034 29.1385 9.20967 29.1385 9.72132C29.1385 10.233 29.5478 10.6423 30.0594 10.6423C30.5711 10.6423 30.9804 10.233 30.9804 9.72132C30.9804 9.20967 30.5711 8.80034 30.0594 8.80034Z" fill="#344154"/>
<path d="M36.0973 21.2336C35.7392 21.2336 35.381 20.9266 35.3298 20.5685L33.8972 9.05629C33.846 8.64697 34.153 8.23765 34.5624 8.18649C34.9717 8.13532 35.381 8.44231 35.4321 8.85163L36.8648 20.3638C36.916 20.7731 36.6089 21.1825 36.1996 21.2336C36.1485 21.2336 36.0973 21.2336 36.0973 21.2336Z" fill="#344154"/>
<path d="M24.0221 21.2336C23.9709 21.2336 23.9709 21.2336 23.9197 21.2336C23.5104 21.1825 23.2034 20.7731 23.2546 20.3638L24.6872 8.85163C24.7384 8.44231 25.0966 8.13532 25.557 8.18649C25.9664 8.23765 26.2733 8.64697 26.2221 9.05629L24.7896 20.5685C24.7384 20.9266 24.4314 21.2336 24.0221 21.2336Z" fill="#344154"/>
</svg>
