<svg width="61" height="53" viewBox="0 0 61 53" fill="none" xmlns="http://www.w3.org/2000/svg">
<path d="M30.0595 5.11658C27.5012 5.11658 25.4546 7.16319 25.4546 9.72145C25.4546 12.2797 27.5012 14.3263 30.0595 14.3263C32.6177 14.3263 34.6643 12.2797 34.6643 9.72145C34.6643 7.16319 32.6177 5.11658 30.0595 5.11658ZM30.0595 11.4099C29.1385 11.4099 28.371 10.6424 28.371 9.72145C28.371 8.80047 29.1385 8.03299 30.0595 8.03299C30.9804 8.03299 31.7479 8.80047 31.7479 9.72145C31.7479 10.6424 30.9804 11.4099 30.0595 11.4099Z" fill="#FCFCFC"/>
<path d="M30.0596 28.0897C23.5105 28.0897 18.1382 33.4109 18.1382 40.0112C18.1382 46.6115 23.4593 51.9327 30.0596 51.9327C36.66 51.9327 41.9812 46.6115 41.9812 40.0112C41.9812 33.4109 36.6088 28.0897 30.0596 28.0897ZM37.6321 41.0857L36.3018 41.188C36.0972 42.2625 35.6367 43.2858 34.9203 44.1044L35.6878 45.2301C35.9948 45.6394 35.8925 46.2534 35.432 46.5092L34.2041 47.3279C33.7948 47.6348 33.1808 47.5325 32.925 47.072L32.1575 45.9976C31.083 46.3557 29.9573 46.458 28.934 46.2534L28.3712 47.4813C28.1666 47.9418 27.6037 48.1465 27.1433 47.9418L25.813 47.3279C25.3525 47.1232 25.1478 46.5604 25.3525 46.0999L25.9153 44.8719C25.0966 44.1556 24.4827 43.2858 24.0733 42.2113L22.7431 42.3137C22.2314 42.3648 21.7709 41.9555 21.7198 41.4439L21.6174 39.96C21.5662 39.4484 21.9756 38.9879 22.4872 38.9367L23.8175 38.8344C24.0222 37.76 24.4826 36.7366 25.1989 35.918L24.4315 34.7924C24.1245 34.383 24.2268 33.7691 24.6873 33.5132L25.9153 32.6946C26.3246 32.3876 26.9386 32.4899 27.1944 32.9504L27.9619 34.0249C29.0364 33.6667 30.162 33.5644 31.1853 33.7691L31.7481 32.5411C31.9528 32.0806 32.5156 31.8759 32.9761 32.0806L34.3064 32.6946C34.7669 32.8993 34.9715 33.4621 34.7669 33.9226L34.2041 35.1505C35.0227 35.8668 35.6367 36.7366 36.046 37.8111L37.3763 37.7088C37.888 37.6576 38.3484 38.0669 38.3996 38.5786L38.5019 40.0624C38.5019 40.574 38.1438 41.0345 37.6321 41.0857Z" fill="#FCFCFC"/>
<path d="M27.5011 48.7605C27.2453 48.7605 26.9895 48.7093 26.7848 48.607L25.4545 47.993C25.0451 47.7883 24.7382 47.4302 24.5847 47.0208C24.4312 46.6115 24.4823 46.151 24.6358 45.7417L24.994 45.0254C24.4312 44.4114 23.9195 43.7463 23.6125 42.9788L22.8451 43.0299C21.9241 43.0811 21.1054 42.416 21.0031 41.495L20.9008 40.0112C20.8496 39.5507 21.0031 39.1414 21.3101 38.7832C21.6171 38.4251 22.0264 38.2204 22.4869 38.1692L23.2544 38.1181C23.4591 37.2994 23.8172 36.5831 24.3289 35.918L23.8684 35.304C23.6125 34.9458 23.5102 34.4854 23.6125 34.0249C23.7149 33.5644 23.9707 33.2062 24.3289 32.9504L25.5568 32.1318C25.915 31.8759 26.3755 31.7736 26.836 31.8759C27.2965 31.9783 27.6546 32.2341 27.9104 32.5922L28.3709 33.2062C29.1896 33.0016 30.0082 32.9504 30.8268 33.0016L31.185 32.2852C31.3897 31.8759 31.7478 31.5689 32.1572 31.4154C32.5665 31.2619 33.027 31.262 33.4363 31.4666L34.7666 32.0806C35.1759 32.2852 35.4829 32.6434 35.6364 33.0527C35.7899 33.462 35.7387 33.9225 35.5852 34.3319L35.2271 35.0482C35.7899 35.6622 36.3015 36.3273 36.6085 37.0948L37.376 37.0436C38.297 36.9925 39.1156 37.6576 39.2179 38.5786L39.3203 40.0624C39.3715 40.5229 39.2179 40.9322 38.9109 41.2903C38.604 41.6485 38.1946 41.8532 37.7341 41.9043L36.9666 41.9555C36.762 42.7741 36.4038 43.4904 35.8922 44.1556L36.3527 44.7696C36.8643 45.5371 36.7108 46.6115 35.8922 47.1232L34.6642 47.9418C34.3061 48.1976 33.8456 48.3 33.3851 48.1976C32.9246 48.0953 32.5664 47.8395 32.3106 47.4813L31.8501 46.8673C31.0315 47.072 30.2129 47.1232 29.3942 47.072L29.036 47.7883C28.729 48.4023 28.1151 48.7605 27.5011 48.7605ZM24.5847 41.3415L24.7894 41.9043C25.0963 42.8253 25.6591 43.6439 26.4266 44.2579L26.8871 44.6161L26.0685 46.3557C26.0685 46.4068 26.0685 46.458 26.0685 46.458C26.0685 46.5092 26.1196 46.5092 26.1708 46.5604L27.5011 47.1743C27.6034 47.2255 27.7058 47.1743 27.7058 47.072L28.5244 45.3324L29.0872 45.4347C30.0594 45.5882 31.0315 45.537 31.9013 45.2301L32.4641 45.0254L33.5386 46.6115C33.5898 46.6627 33.5897 46.6627 33.6409 46.6627C33.6921 46.6627 33.6921 46.6627 33.7433 46.6115L34.9713 45.7929C35.0224 45.7417 35.0736 45.6394 35.0224 45.5882L33.9479 44.0021L34.3061 43.5416C34.9201 42.8253 35.3294 41.9043 35.5341 40.9833L35.6364 40.4205L37.5295 40.267C37.5807 40.267 37.6318 40.2159 37.6318 40.2159C37.6318 40.2159 37.683 40.1647 37.683 40.1135L37.5807 38.6297C37.5807 38.5274 37.4783 38.4762 37.4271 38.4762L35.5341 38.6297L35.3294 38.0669C35.0224 37.1459 34.4596 36.3273 33.6921 35.7133L33.2316 35.3552L34.0503 33.6155C34.0503 33.5644 34.0503 33.5132 34.0503 33.5132C34.0503 33.4621 33.9991 33.462 33.9479 33.4109L32.6176 32.7969C32.5664 32.7969 32.5153 32.7969 32.5153 32.7969C32.4641 32.7969 32.4642 32.8481 32.413 32.8992L31.5943 34.6388L31.0315 34.5365C30.0594 34.383 29.0872 34.4342 28.2174 34.7412L27.6546 34.9458L26.5801 33.3597C26.529 33.3085 26.5289 33.3085 26.4778 33.3085C26.4266 33.3085 26.4266 33.3085 26.3755 33.3597L25.1475 34.1784C25.0963 34.2295 25.0963 34.2295 25.0963 34.2807C25.0963 34.3319 25.0963 34.3319 25.1475 34.383L26.2219 35.9691L25.8638 36.4296C25.2498 37.1459 24.8405 38.0669 24.6358 38.9879L24.5335 39.5507L22.6404 39.7042C22.5892 39.7042 22.5381 39.7554 22.5381 39.7554C22.5381 39.7554 22.4869 39.8065 22.4869 39.8577L22.5892 41.3415C22.5892 41.4438 22.6916 41.495 22.7427 41.495L24.5847 41.3415Z" fill="#344154"/>
<path d="M30.0595 52.7002C23.0499 52.7002 17.3706 47.0209 17.3706 40.0112C17.3706 33.0016 23.0499 27.3223 30.0595 27.3223C37.0692 27.3223 42.7486 33.0016 42.7486 40.0112C42.7486 47.0209 37.018 52.7002 30.0595 52.7002ZM30.0595 28.8572C23.9197 28.8572 18.9056 33.8714 18.9056 40.0112C18.9056 46.1511 23.9197 51.1653 30.0595 51.1653C36.1994 51.1653 41.2136 46.1511 41.2136 40.0112C41.2136 33.8714 36.1994 28.8572 30.0595 28.8572Z" fill="#344154"/>
<path d="M5.0909 26.964C4.88624 26.964 4.68159 26.9129 4.5281 26.7594C4.2211 26.4524 4.2211 25.9919 4.5281 25.6849L15.6821 14.5309C15.9891 14.2239 16.4495 14.2239 16.7565 14.5309C17.0635 14.8379 17.0635 15.2984 16.7565 15.6054L5.65371 26.7594C5.50021 26.9129 5.29556 26.964 5.0909 26.964Z" fill="#344154"/>
<path d="M2.94197 24.8151C2.73731 24.8151 2.53267 24.764 2.37917 24.6105C2.07218 24.3035 2.07218 23.843 2.37917 23.536L13.5332 12.382C13.8402 12.075 14.3007 12.075 14.6077 12.382C14.9147 12.689 14.9147 13.1495 14.6077 13.4565L3.45363 24.6105C3.3513 24.764 3.14664 24.8151 2.94197 24.8151Z" fill="#344154"/>
<path d="M0.793049 22.6662C0.588388 22.6662 0.383739 22.615 0.230244 22.4615C-0.0767479 22.1545 -0.0767479 21.6941 0.230244 21.3871L11.3842 10.2331C11.6912 9.92606 12.1518 9.92606 12.4587 10.2331C12.7657 10.54 12.7657 11.0005 12.4587 11.3075L1.3047 22.4615C1.20237 22.615 0.99771 22.6662 0.793049 22.6662Z" fill="#344154"/>
<path d="M55.0282 26.964C54.8235 26.964 54.6188 26.9129 54.4653 26.7594L43.3113 15.6054C43.0043 15.2984 43.0043 14.8379 43.3113 14.5309C43.6183 14.2239 44.0788 14.2239 44.3858 14.5309L55.5398 25.6849C55.8468 25.9919 55.8468 26.4524 55.5398 26.7594C55.3863 26.9129 55.1816 26.964 55.0282 26.964Z" fill="#344154"/>
<path d="M57.177 24.8151C56.9724 24.8151 56.7677 24.764 56.6142 24.6105L45.4602 13.4565C45.1532 13.1495 45.1532 12.689 45.4602 12.382C45.7672 12.075 46.2277 12.075 46.5347 12.382L57.6887 23.536C57.9957 23.843 57.9957 24.3035 57.6887 24.6105C57.5352 24.764 57.3817 24.8151 57.177 24.8151Z" fill="#344154"/>
<path d="M59.326 22.6662C59.1213 22.6662 58.9167 22.615 58.7632 22.4615L47.6091 11.3075C47.3022 11.0005 47.3022 10.54 47.6091 10.2331C47.9161 9.92606 48.3766 9.92606 48.6836 10.2331L59.8377 21.3871C60.1446 21.6941 60.1446 22.1545 59.8377 22.4615C59.6842 22.615 59.5307 22.6662 59.326 22.6662Z" fill="#344154"/>
<path d="M54.2608 16.8845L53.1863 15.7589L57.7912 11.154L48.1721 1.53496H11.8959L2.32806 11.154L6.93293 15.7589L5.80732 16.8845L0.12793 11.154L11.282 0H48.8373L59.9913 11.154L54.2608 16.8845Z" fill="#344154"/>
<path d="M18.9057 38.5786L7.854 27.5269L17.5754 17.8055L28.6271 28.8572L27.2968 29.1642C23.3059 30.1875 20.236 33.2574 19.2127 37.2483L18.9057 38.5786ZM10.0029 27.5269L18.1382 35.6622C19.4173 32.183 22.1802 29.4201 25.6595 28.1409L17.5242 20.0056L10.0029 27.5269Z" fill="#344154"/>
<path d="M41.1623 38.5786L40.8553 37.2483C39.832 33.2574 36.7621 30.1875 32.7712 29.1642L31.4409 28.8572L42.4926 17.8055L52.214 27.5269L41.1623 38.5786ZM34.4085 28.0898C37.8877 29.3689 40.6507 32.1318 41.9298 35.611L50.0651 27.4758L42.5437 19.9545L34.4085 28.0898Z" fill="#344154"/>
<path d="M30.0599 15.0937C27.0923 15.0937 24.6875 12.6889 24.6875 9.72135C24.6875 6.75377 27.0923 4.349 30.0599 4.349C33.0274 4.349 35.4322 6.75377 35.4322 9.72135C35.4322 12.6889 33.0274 15.0937 30.0599 15.0937ZM30.0599 5.88396C27.9621 5.88396 26.2225 7.62357 26.2225 9.72135C26.2225 11.8191 27.9621 13.5587 30.0599 13.5587C32.1576 13.5587 33.8972 11.8191 33.8972 9.72135C33.8972 7.62357 32.1576 5.88396 30.0599 5.88396Z" fill="#344154"/>
<path d="M30.0594 12.1772C28.7291 12.1772 27.6035 11.0516 27.6035 9.72132C27.6035 8.39103 28.7291 7.26538 30.0594 7.26538C31.3897 7.26538 32.5154 8.39103 32.5154 9.72132C32.5154 11.0516 31.3897 12.1772 30.0594 12.1772ZM30.0594 8.80034C29.5478 8.80034 29.1385 9.20967 29.1385 9.72132C29.1385 10.233 29.5478 10.6423 30.0594 10.6423C30.5711 10.6423 30.9804 10.233 30.9804 9.72132C30.9804 9.20967 30.5711 8.80034 30.0594 8.80034Z" fill="#344154"/>
<path d="M36.0973 21.2336C35.7392 21.2336 35.381 20.9266 35.3298 20.5685L33.8972 9.05629C33.846 8.64697 34.153 8.23765 34.5624 8.18649C34.9717 8.13532 35.381 8.44231 35.4321 8.85163L36.8648 20.3638C36.916 20.7731 36.6089 21.1825 36.1996 21.2336C36.1485 21.2336 36.0973 21.2336 36.0973 21.2336Z" fill="#344154"/>
<path d="M24.0221 21.2336C23.9709 21.2336 23.9709 21.2336 23.9197 21.2336C23.5104 21.1825 23.2034 20.7731 23.2546 20.3638L24.6872 8.85163C24.7384 8.44231 25.0966 8.13532 25.557 8.18649C25.9664 8.23765 26.2733 8.64697 26.2221 9.05629L24.7896 20.5685C24.7384 20.9266 24.4314 21.2336 24.0221 21.2336Z" fill="#344154"/>
</svg>
