<svg width="68" height="54" viewBox="0 0 68 54" fill="none" xmlns="http://www.w3.org/2000/svg">
<path d="M39.9617 2.93481H27.3421L24.8965 6.94569H42.4074L39.9617 2.93481Z" fill="#46C770"/>
<path d="M48.8146 49.5978L36.3418 45.1956V41.9185L49.9396 46.8098L48.8146 49.5978Z" fill="#46C770"/>
<path d="M28.1745 14.8695H22.9407C22.5494 14.8695 22.207 14.5271 22.207 14.1358C22.207 13.7445 22.5494 13.4021 22.9407 13.4021H26.7071V13.3532C26.7071 12.913 26.3647 12.5706 25.9734 12.4728L22.9896 12.0325C22.5983 11.9836 22.3049 11.5923 22.3538 11.201C22.4027 10.8097 22.794 10.5162 23.1853 10.5651L26.169 11.0054C27.294 11.1521 28.1745 12.1793 28.1745 13.3043V14.8695Z" fill="#344154"/>
<path d="M44.5602 22.5489H43.4841C42.0167 22.5489 40.8428 21.375 40.8428 19.9076V18.4402H26.3645V19.9076C26.3645 21.375 25.1906 22.5489 23.7232 22.5489H22.6472C21.1798 22.5489 20.0058 21.375 20.0058 19.9076V10.5163L18.5385 9.97825C18.0493 9.7826 17.7559 9.34239 17.7559 8.85326V7.33695C17.7559 6.70108 18.2939 6.16304 18.9298 6.16304H21.1309C21.4733 6.16304 21.8156 5.96739 21.9624 5.67391L24.1635 1.66304C24.7015 0.635866 25.7776 0 26.9515 0H40.1091C41.283 0 42.3591 0.635866 42.8972 1.66304L45.0982 5.67391C45.245 5.96739 45.5873 6.16304 45.9297 6.16304H48.1308C48.7667 6.16304 49.3048 6.70108 49.3048 7.33695V8.90217C49.3048 9.3913 49.0113 9.83152 48.5222 10.0272L47.0548 10.5652V19.9565C47.2015 21.375 46.0276 22.5489 44.5602 22.5489ZM24.946 17.0217H42.3591V19.9565C42.3591 20.5924 42.8971 21.1304 43.533 21.1304H44.6091C45.245 21.1304 45.783 20.5924 45.783 19.9565V9.53804L48.033 8.70651V7.63043H46.1254C45.245 7.63043 44.4134 7.1413 43.9732 6.35869L41.7721 2.34782C41.4787 1.80978 40.8917 1.46739 40.2558 1.46739H27.0982C26.4624 1.46739 25.9243 1.80978 25.5819 2.34782L23.3809 6.35869C22.9406 7.1413 22.1091 7.63043 21.2287 7.63043H19.3211V8.70651L21.5711 9.53804V19.9565C21.5711 20.5924 22.1091 21.1304 22.745 21.1304H23.8211C24.457 21.1304 24.995 20.5924 24.995 19.9565V17.0217H24.946Z" fill="#344154"/>
<path d="M42.4086 7.6793H24.8978C24.5065 7.6793 24.1641 7.33691 24.1641 6.94561C24.1641 6.55431 24.5065 6.21191 24.8978 6.21191H42.4086C42.7999 6.21191 43.1423 6.55431 43.1423 6.94561C43.1423 7.33691 42.8489 7.6793 42.4086 7.6793Z" fill="#344154"/>
<path d="M44.3646 14.8695H39.1309V13.3532C39.1309 12.1793 40.0113 11.201 41.1363 11.0543L44.12 10.6141C44.5113 10.5652 44.9026 10.8097 44.9515 11.2499C45.0004 11.6412 44.7559 12.0326 44.3157 12.0815L41.3319 12.5217C40.8917 12.5706 40.5982 12.9619 40.5982 13.4021V13.451H44.3646C44.7559 13.451 45.0983 13.7934 45.0983 14.1847C45.0983 14.5271 44.8048 14.8695 44.3646 14.8695Z" fill="#344154"/>
<path d="M36.9786 14.9674H30.3753C29.984 14.9674 29.6416 14.625 29.6416 14.2337C29.6416 13.8424 29.984 13.5 30.3753 13.5H36.9786C37.3699 13.5 37.7122 13.8424 37.7122 14.2337C37.7122 14.625 37.3699 14.9674 36.9786 14.9674Z" fill="#344154"/>
<path d="M36.9783 14.9675C36.9294 14.9675 36.9293 14.9675 36.8804 14.9675C36.4891 14.9186 36.1957 14.5762 36.2446 14.136L36.4402 12.3262H30.9131L31.1087 14.136C31.1576 14.5273 30.8641 14.9186 30.4728 14.9675C30.0815 15.0164 29.6902 14.7229 29.6413 14.3316L29.25 10.9077H38.1032L37.712 14.3316C37.6631 14.674 37.3207 14.9675 36.9783 14.9675Z" fill="#344154"/>
<path d="M25.6795 18.4891H23.723C23.3316 18.4891 22.9893 18.1467 22.9893 17.7554C22.9893 17.3641 23.3316 17.0217 23.723 17.0217H25.6795C26.0708 17.0217 26.4132 17.3641 26.4132 17.7554C26.4132 18.1467 26.1197 18.4891 25.6795 18.4891Z" fill="#344154"/>
<path d="M44.1687 18.4891H41.6253C41.234 18.4891 40.8916 18.1467 40.8916 17.7554C40.8916 17.3641 41.234 17.0217 41.6253 17.0217H44.1687C44.5601 17.0217 44.9024 17.3641 44.9024 17.7554C44.9024 18.1467 44.5601 18.4891 44.1687 18.4891Z" fill="#344154"/>
<path d="M25.6795 18.4891H23.136C22.7447 18.4891 22.4023 18.1467 22.4023 17.7554C22.4023 17.3641 22.7447 17.0217 23.136 17.0217H25.6795C26.0708 17.0217 26.4132 17.3641 26.4132 17.7554C26.4132 18.1467 26.1197 18.4891 25.6795 18.4891Z" fill="#344154"/>
<path d="M18.6358 49.5978L31.1086 45.1956V41.9185L17.5107 46.8098L18.6358 49.5978Z" fill="#46C770"/>
<path d="M30.9622 42.6521C30.6198 42.6521 30.3263 42.4565 30.2774 42.1141L29.1524 38.1032C28.1742 34.6793 25.7774 31.8912 22.5981 30.4239L19.81 29.1032C17.9513 28.2228 16.5818 26.6086 15.9948 24.6521L14.5763 19.7119L14.7231 18.7336C14.9187 17.413 14.2828 16.0923 13.1578 15.4076L13.1089 15.3586C12.7665 15.163 12.6687 14.6739 12.8644 14.3315C13.06 13.9891 13.5491 13.8912 13.8915 14.0869L13.9404 14.1358C15.5546 15.163 16.435 17.0217 16.1905 18.9293L16.0926 19.5652L17.4133 24.2119C17.8535 25.7771 18.9296 27.0489 20.397 27.7336L23.185 29.0543C26.8046 30.7173 29.4459 33.8478 30.5709 37.7119L31.6959 41.7228C31.7937 42.1141 31.5981 42.5054 31.2067 42.6521C31.1089 42.6521 31.06 42.6521 30.9622 42.6521Z" fill="#344154"/>
<path d="M19.6142 46.7119C19.3696 46.7119 19.0761 46.5651 18.9783 46.3206C18.0978 44.6086 16.4837 43.4347 14.6739 43.0434C14.4783 42.9945 14.2337 42.9456 14.0381 42.8966C10.7609 42.0651 7.82609 39.8151 6.06523 36.7336C3.81523 32.8206 0.489142 28.8097 0.440229 28.7608L0 28.2716L0.440229 27.7825C0.489142 27.7336 1.712 26.4619 3.71744 26.5597C5.4783 26.6575 7.1413 27.7336 8.80434 29.8369C10.663 32.2336 13.6468 33.5543 16.5326 33.3097C16.7283 33.3097 16.9239 33.2608 17.0707 33.2608C17.462 33.2119 17.8533 33.5053 17.9022 33.8966C17.9511 34.2879 17.6576 34.6793 17.2663 34.7282C17.0707 34.7771 16.8261 34.7771 16.6304 34.7771C13.2065 35.0706 9.83156 33.5543 7.63048 30.7662C6.30983 29.0543 4.94021 28.1249 3.66848 28.076C2.98369 28.0271 2.39679 28.2717 2.00548 28.4673C3.03265 29.739 5.47827 32.8695 7.28805 36.0488C8.90218 38.8369 11.4457 40.7934 14.3315 41.5271C14.5272 41.576 14.7228 41.6249 14.9185 41.6738C17.2174 42.1629 19.125 43.6303 20.25 45.6847C20.4457 46.0271 20.2989 46.4673 19.9565 46.6629C19.8587 46.7119 19.712 46.7119 19.6142 46.7119Z" fill="#344154"/>
<path d="M4.01058 28.0271C3.66819 28.0271 3.37471 27.7826 3.27689 27.4402L1.8584 20.8369L1.9073 20.6413L6.21167 7.38586L6.89646 7.5326C7.92364 7.77716 9.78231 9.19565 9.19535 12.5706L7.38559 20.6413L8.60842 25.6793C8.70624 26.0706 8.46163 26.4619 8.07033 26.5598C7.67902 26.6576 7.28775 26.413 7.18993 26.0217L5.86924 20.6902L7.77686 12.3261C8.07034 10.663 7.58124 9.7826 7.14103 9.3913L3.37469 20.9348L4.74428 27.1467C4.8421 27.538 4.59755 27.9293 4.20625 28.0271C4.10842 28.0271 4.0595 28.0271 4.01058 28.0271Z" fill="#344154"/>
<path d="M11.0056 25.875C10.6632 25.875 10.3697 25.6793 10.3208 25.3369L8.90233 20.3478L10.6632 11.25C11.2501 8.99999 10.4186 7.82607 9.78273 7.28803L8.95123 9.83151C8.80449 10.2228 8.41318 10.4185 8.02187 10.3206C7.63057 10.1739 7.43492 9.7826 7.53274 9.3913L8.85343 5.28259L9.58712 5.52716C10.8589 6.01629 13.011 7.87499 12.0817 11.5924L10.4186 20.2989L11.7392 24.9456C11.8371 25.3369 11.6414 25.7282 11.2501 25.875C11.1034 25.875 11.0545 25.875 11.0056 25.875Z" fill="#344154"/>
<path d="M13.9402 25.2391C13.5978 25.2391 13.3043 25.0434 13.2554 24.701L11.788 19.6141L12.8152 14.1847C13.1087 12.7173 12.4728 11.201 11.2989 10.3206L11.1521 10.2228C10.8098 9.9782 10.7608 9.53798 11.0054 9.19558C11.2499 8.85319 11.6902 8.80429 12.0326 9.04885L12.1793 9.14668C13.8423 10.3695 14.6739 12.4239 14.2826 14.4782L13.3043 19.5651L14.6739 24.3097C14.7717 24.701 14.576 25.0923 14.1847 25.2391C14.0869 25.2391 13.9891 25.2391 13.9402 25.2391Z" fill="#344154"/>
<path d="M19.9567 53.9999C19.6632 53.9999 19.3697 53.8043 19.2719 53.5597L16.6795 47.1032C16.5817 46.9075 16.6306 46.7119 16.6795 46.5162C16.7774 46.3206 16.924 46.1738 17.1197 46.1249L30.7175 41.2336C30.9621 41.1358 31.2067 41.1847 31.4023 41.3315C31.598 41.4782 31.6958 41.6739 31.6958 41.9184V45.1956C31.6958 45.5869 31.3534 45.9293 30.9621 45.9293C30.5708 45.9293 30.2284 45.5869 30.2284 45.1956V42.9456L18.3425 47.201L20.3969 52.3369L29.3479 49.5978C29.7393 49.4999 30.1306 49.6956 30.2773 50.0869C30.3751 50.4782 30.1795 50.8695 29.7882 51.0162L20.2012 53.951C20.1034 53.9999 20.0545 53.9999 19.9567 53.9999Z" fill="#344154"/>
<path d="M18.4894 50.3314C18.1959 50.3314 17.9024 50.1357 17.8046 49.8423C17.6578 49.451 17.8535 49.0597 18.2448 48.9129L30.7176 44.5108C31.1089 44.364 31.5002 44.5597 31.647 44.951C31.7937 45.3423 31.5981 45.7336 31.2068 45.8803L18.7339 50.2825C18.685 50.3314 18.5872 50.3314 18.4894 50.3314Z" fill="#344154"/>
<path d="M36.3431 42.6522C36.2942 42.6522 36.1963 42.6522 36.1474 42.6033C35.7561 42.5054 35.5115 42.0652 35.6583 41.6739L36.7833 37.6631C37.8594 33.8478 40.5496 30.7174 44.1692 29.0054L46.9572 27.6848C48.4246 27 49.5007 25.7283 49.9409 24.1631L51.2615 19.5163L51.1637 18.8805C50.9192 16.9728 51.7996 15.1141 53.4137 14.087L53.4626 14.0381C53.805 13.8424 54.2452 13.9402 54.4898 14.2826C54.6854 14.625 54.5876 15.0652 54.2452 15.3098L54.1963 15.3587C53.0713 16.0435 52.4355 17.3642 52.6311 18.6848L52.7778 19.6631L51.3593 24.6033C50.8213 26.5598 49.4029 28.1739 47.5442 29.0544L44.7561 30.375C41.5278 31.8424 39.1311 34.6794 38.2018 38.0543L37.0768 42.0652C36.9789 42.4565 36.6855 42.6522 36.3431 42.6522Z" fill="#344154"/>
<path d="M47.7401 46.7119C47.6423 46.7119 47.4955 46.663 47.3977 46.6141C47.0553 46.4184 46.9086 45.9782 47.1042 45.6358C48.2292 43.5326 50.1369 42.0652 52.4358 41.625C52.6314 41.5761 52.827 41.5271 53.0227 41.4782C55.9086 40.7445 58.501 38.7391 60.0662 36C61.876 32.8206 64.3216 29.6902 65.3488 28.4185C64.9575 28.2228 64.4195 27.9782 63.6858 28.0271C62.414 28.125 61.0445 29.0054 59.7238 30.7174C57.5227 33.5543 54.1477 35.0217 50.7238 34.7282C50.5282 34.7282 50.3325 34.6793 50.0879 34.6793C49.6966 34.6304 49.4032 34.2391 49.4521 33.8478C49.501 33.4565 49.8923 33.163 50.2836 33.2119C50.4792 33.2608 50.6749 33.2608 50.8216 33.2608C53.7075 33.5054 56.6912 32.1848 58.5499 29.788C60.164 27.6848 61.876 26.6087 63.6369 26.5109C65.6423 26.413 66.8651 27.6848 66.914 27.7337L67.3542 28.2228L66.914 28.7119C66.8651 28.7609 63.539 32.7717 61.289 36.6848C59.4792 39.8152 56.5933 42.0652 53.3162 42.8478C53.1205 42.8967 52.876 42.9456 52.6803 42.9945C50.8216 43.3858 49.2564 44.5598 48.376 46.2717C48.2292 46.5652 47.9847 46.7119 47.7401 46.7119Z" fill="#344154"/>
<path d="M63.2941 28.0272C63.2452 28.0272 63.1963 28.0272 63.1474 28.0272C62.7561 27.9294 62.5115 27.5381 62.6093 27.1468L63.9789 20.9348L60.2126 9.39133C59.7724 9.83155 59.3322 10.6631 59.6256 12.375L61.5333 20.6902L60.2126 26.0218C60.1148 26.4131 59.7235 26.6576 59.3322 26.5598C58.9409 26.462 58.6963 26.0707 58.7941 25.6794L60.017 20.6413L58.2072 12.6196C57.6202 9.19567 59.43 7.82611 60.5061 7.58155L61.1909 7.43481L65.5931 20.8859L64.1746 27.4891C63.93 27.8315 63.6365 28.0272 63.2941 28.0272Z" fill="#344154"/>
<path d="M56.3482 25.8749C56.2992 25.8749 56.2014 25.8749 56.1525 25.826C55.7612 25.7282 55.5166 25.288 55.6634 24.8967L56.984 20.2499L55.321 11.4945C54.3916 7.82603 56.5438 5.96734 57.8155 5.47821L58.5492 5.23364L59.8699 9.34233C60.0166 9.73364 59.772 10.1249 59.3807 10.2717C58.9894 10.4184 58.5981 10.1739 58.4514 9.78255L57.6199 7.23906C56.984 7.77711 56.1525 8.90211 56.7394 11.1521L58.5003 20.2499L57.0819 25.2391C56.9351 25.6793 56.6416 25.8749 56.3482 25.8749Z" fill="#344154"/>
<path d="M53.3646 25.2391C53.3156 25.2391 53.2178 25.2391 53.1689 25.1901C52.7776 25.0923 52.533 24.6521 52.6798 24.2608L54.0493 19.5162L53.071 14.4293C52.6797 12.4239 53.5113 10.3206 55.1743 9.09777L55.3211 8.99994C55.6635 8.75537 56.1037 8.85321 56.3482 9.14669C56.5928 9.48908 56.495 9.92928 56.2015 10.1738L56.0548 10.2717C54.8319 11.1521 54.2449 12.6684 54.5384 14.1358L55.5656 19.5652L54.0983 24.6521C54.0004 25.0434 53.7069 25.2391 53.3646 25.2391Z" fill="#344154"/>
<path d="M47.3484 54C47.2995 54 47.2017 54 47.1528 53.9511L37.5658 51.0163C37.1745 50.9185 36.9789 50.4783 37.0767 50.087C37.1745 49.6957 37.6147 49.5 38.0061 49.5978L46.9571 52.337L49.0115 47.2011L37.1256 42.9457V45.1957C37.1256 45.587 36.7832 45.9294 36.3919 45.9294C36.0006 45.9294 35.6582 45.587 35.6582 45.1957V41.9185C35.6582 41.6739 35.756 41.4783 35.9517 41.3316C36.1473 41.1848 36.3919 41.1848 36.6365 41.2337L50.2343 46.125C50.43 46.1739 50.5767 46.3207 50.6745 46.5163C50.7724 46.712 50.7724 46.9076 50.6745 47.1033L48.0821 53.5598C47.9354 53.8044 47.6419 54 47.3484 54Z" fill="#344154"/>
<path d="M48.8157 50.3315C48.7179 50.3315 48.669 50.3315 48.5711 50.2826L36.0983 45.8804C35.707 45.7337 35.5114 45.3424 35.6581 44.9511C35.8048 44.5598 36.1961 44.3641 36.5875 44.5109L49.0603 48.913C49.4516 49.0598 49.6472 49.4511 49.5005 49.8424C49.4027 50.1359 49.1092 50.3315 48.8157 50.3315Z" fill="#344154"/>
</svg>
