<svg width="51" height="51" viewBox="0 0 51 51" fill="none" xmlns="http://www.w3.org/2000/svg"><g clip-path="url(#a)"><path d="M49.662 39.345l-10.323-6.884a3.013 3.013 0 0 0-4.034.656l-3.007 3.866a1.285 1.285 0 0 1-1.648.346l-.572-.315c-1.896-1.034-4.255-2.32-9.009-7.075-4.753-4.755-6.042-7.116-7.076-9.009l-.313-.572a1.287 1.287 0 0 1 .34-1.654l3.863-3.006a3.015 3.015 0 0 0 .656-4.034L11.655 1.341a2.997 2.997 0 0 0-4.04-.909L3.3 3.025A6.089 6.089 0 0 0 .522 6.628c-1.554 5.664-.385 15.438 14.014 29.839 11.453 11.453 19.98 14.532 25.84 14.532 1.35.006 2.693-.17 3.995-.521a6.083 6.083 0 0 0 3.604-2.777l2.595-4.314a2.998 2.998 0 0 0-.908-4.042zm-.556 3.17l-2.59 4.317a4.393 4.393 0 0 1-2.592 2.009c-5.228 1.435-14.363.246-28.186-13.577S.726 12.307 2.161 7.078a4.399 4.399 0 0 1 2.012-2.595l4.317-2.59a1.3 1.3 0 0 1 1.753.394l3.74 5.615 3.138 4.707c.376.568.252 1.33-.284 1.75l-3.864 3.007a2.974 2.974 0 0 0-.788 3.817l.307.558c1.086 1.992 2.436 4.47 7.366 9.4 4.93 4.929 7.408 6.28 9.4 7.365l.558.308a2.975 2.975 0 0 0 3.817-.788l3.006-3.864a1.309 1.309 0 0 1 1.751-.284l10.322 6.884a1.3 1.3 0 0 1 .394 1.753z" fill="#393939"/><path d="M28.899 8.504c7.975.01 14.439 6.473 14.448 14.448a.85.85 0 1 0 1.7 0c-.01-8.914-7.234-16.138-16.148-16.147a.85.85 0 1 0 0 1.7z" fill="#46C770"/><path d="M28.899 13.604a9.36 9.36 0 0 1 9.348 9.348.85.85 0 0 0 1.7 0c-.007-6.099-4.95-11.041-11.048-11.048a.85.85 0 1 0 0 1.7z" fill="#46C770"/><path d="M28.899 18.703a4.255 4.255 0 0 1 4.25 4.25.85.85 0 1 0 1.699 0 5.956 5.956 0 0 0-5.95-5.95.85.85 0 1 0 0 1.7z" fill="#46C770"/></g><defs><clipPath id="a"><path fill="#fff" d="M0 0h51v51H0z"/></clipPath></defs></svg>