<svg width="75" height="57" viewBox="0 0 75 57" fill="none" xmlns="http://www.w3.org/2000/svg"><path d="M10.756 29.451h9.634v-1.697c0-1.697-1.259-3.175-2.956-3.394l-6.678-.93v6.021zm45.82 0h-9.635v-1.697c0-1.697 1.26-3.175 2.956-3.394l6.68-.93v6.021z" fill="#F2DDDE"/><path d="M21.212 30.273H10.756a.842.842 0 0 1-.821-.822c0-.437.383-.82.82-.82h8.814v-.877a2.6 2.6 0 0 0-2.244-2.572l-6.679-.931c-.438-.055-.766-.493-.711-.93.054-.439.492-.767.93-.712l6.679.93c2.08.329 3.668 2.135 3.668 4.215v2.519z" fill="#344154"/><path d="M57.014 44.287h-2.245a4.883 4.883 0 0 1-4.872-4.872V37.99H17.49v1.424a4.883 4.883 0 0 1-4.872 4.872h-2.245a4.883 4.883 0 0 1-4.872-4.872V21.24l-3.613-1.314c-.712-.273-1.204-.93-1.204-1.697v-3.284c0-.986.82-1.807 1.806-1.807h4.708A2.75 2.75 0 0 0 9.66 11.66l4.654-8.54C15.355 1.204 17.38 0 19.625 0h28.082c2.19 0 4.216 1.204 5.31 3.12l4.654 8.54a2.75 2.75 0 0 0 2.463 1.478h4.708c.985 0 1.806.821 1.806 1.807v3.284c0 .767-.492 1.424-1.204 1.697l-3.613 1.314v18.175c.055 2.682-2.135 4.872-4.817 4.872zm-41.167-7.938H51.54v3.066a3.236 3.236 0 0 0 3.23 3.23h2.245a3.236 3.236 0 0 0 3.23-3.23v-19.27l4.707-1.697c.055 0 .11-.11.11-.164v-3.285c0-.109-.055-.164-.164-.164H60.19c-1.643 0-3.12-.876-3.942-2.354l-4.653-8.54a4.36 4.36 0 0 0-3.832-2.299H19.625a4.36 4.36 0 0 0-3.832 2.3l-4.654 8.54a4.517 4.517 0 0 1-3.941 2.353H2.49c-.11 0-.164.055-.164.164v3.285c0 .055.055.11.11.164l4.707 1.697v19.27a3.236 3.236 0 0 0 3.23 3.23h2.245a3.236 3.236 0 0 0 3.23-3.23v-3.066z" fill="#344154"/><path d="M53.784 14.89H13.548l5.036-9.197c.383-.711 1.15-1.15 1.97-1.15h26.223c.82 0 1.587.439 1.97 1.15l5.037 9.197zM16.34 13.248h34.707L47.324 6.46a.602.602 0 0 0-.547-.329H20.555a.602.602 0 0 0-.547.329l-3.668 6.788zm40.236 17.025H46.12v-2.518c0-2.08 1.588-3.887 3.668-4.216l6.733-.93c.438-.055.876.273.93.711.056.438-.273.876-.71.931l-6.68.93c-1.258.165-2.244 1.314-2.244 2.573v.876h8.814c.438 0 .82.384.82.822-.054.492-.382.82-.875.82zm-15.821.164H26.632a.842.842 0 0 1-.822-.821c0-.438.384-.821.822-.821h14.123c.438 0 .821.383.821.82a.806.806 0 0 1-.82.822z" fill="#344154"/><path d="M40.755 30.437h-.11a.819.819 0 0 1-.711-.93l.547-4.654H26.96l.547 4.653c.055.438-.273.876-.711.93-.438.056-.876-.273-.931-.71l-.766-6.515h17.244l-.767 6.514a.823.823 0 0 1-.821.712zm-24.087 7.554h-4.215a.842.842 0 0 1-.821-.82c0-.439.383-.822.821-.822h4.215c.438 0 .821.383.821.821a.842.842 0 0 1-.82.821zm38.265 0h-4.215a.842.842 0 0 1-.822-.82c0-.439.384-.822.822-.822h4.215a.84.84 0 0 1 .82.821.842.842 0 0 1-.82.821z" fill="#344154"/><path d="M74.285 54.633l-14.99-14.991c3.113-3.458 5.026-8.016 5.026-13.024 0-10.753-8.748-19.502-19.502-19.502-10.753 0-19.502 8.75-19.502 19.503S34.067 46.12 44.82 46.12c5.008 0 9.566-1.914 13.024-5.028l14.99 14.991a1.023 1.023 0 0 0 1.452 0c.4-.401.4-1.05 0-1.451zM44.819 44.068c-9.62 0-17.449-7.828-17.449-17.45 0-9.621 7.829-17.449 17.45-17.449 9.62 0 17.449 7.828 17.449 17.45 0 9.621-7.829 17.449-17.45 17.449z" fill="#46C770"/><circle cx="44.751" cy="26.55" r="17.791" fill="#46C770" fill-opacity=".3"/></svg>