<svg width="73" height="50" viewBox="0 0 73 50" fill="none" xmlns="http://www.w3.org/2000/svg"><path d="M38.8 24.223h-5.864a.843.843 0 0 1-.822-.822c0-.439.384-.823.822-.823h4.22v-.054c0-.494-.384-.877-.822-.987l-3.343-.493c-.438-.055-.767-.493-.712-.932.054-.438.493-.767.931-.712l3.343.493c1.26.165 2.247 1.315 2.247 2.576v1.753z" fill="#344154"/><path d="M57.158 32.826h-1.205a2.947 2.947 0 0 1-2.96-2.959v-1.644h-16.22v1.644a2.947 2.947 0 0 1-2.96 2.96h-1.206a2.947 2.947 0 0 1-2.96-2.96V19.345l-1.643-.603c-.548-.219-.877-.712-.877-1.26v-1.754c0-.712.603-1.315 1.315-1.315h2.466c.384 0 .767-.22.932-.548l2.466-4.494a3.513 3.513 0 0 1 3.124-1.863h14.74c1.316 0 2.521.712 3.124 1.863l2.466 4.494c.165.329.548.548.932.548h2.466c.712 0 1.315.603 1.315 1.315v1.754c0 .548-.329 1.041-.877 1.26l-1.644.603v10.522c.11 1.644-1.205 2.96-2.795 2.96zM35.183 26.58h19.51v3.288c0 .712.602 1.315 1.315 1.315h1.205c.713 0 1.316-.602 1.316-1.315V18.194l2.52-.931v-1.151h-2.137a2.788 2.788 0 0 1-2.411-1.425l-2.466-4.494a1.935 1.935 0 0 0-1.7-.986h-14.74c-.713 0-1.316.383-1.7.986l-2.466 4.494a2.788 2.788 0 0 1-2.411 1.425H28.88v1.205l2.52.932v11.673c0 .712.603 1.315 1.316 1.315h1.205c.713 0 1.316-.603 1.316-1.315v-3.343h-.055z" fill="#344154"/><path d="M54.747 16.112h-19.62a.843.843 0 0 1-.821-.822c0-.439.383-.822.822-.822h19.619c.438 0 .822.383.822.822a.807.807 0 0 1-.822.822zm2.192 8.111h-5.864v-1.7c0-1.315.987-2.41 2.247-2.575l3.343-.493c.438-.055.877.219.932.712.054.439-.22.877-.713.932l-3.343.493c-.493.055-.822.493-.822.986v.055h4.22c.438 0 .822.384.822.822 0 .384-.384.768-.822.768zm-8.33.054h-7.398a.843.843 0 0 1-.822-.822c0-.438.383-.822.822-.822h7.398c.438 0 .822.384.822.822a.807.807 0 0 1-.822.822z" fill="#344154"/><path d="M48.609 24.277h-.11c-.438-.054-.767-.438-.712-.931l.22-2.028h-6.194l.22 2.028c.054.438-.274.877-.713.931-.438.055-.877-.274-.931-.712l-.439-3.836h9.92l-.44 3.836a.824.824 0 0 1-.821.712zm-12.605 3.946h-2.192a.843.843 0 0 1-.822-.822c0-.438.384-.822.822-.822h2.192c.439 0 .822.384.822.822a.807.807 0 0 1-.822.822zm20.661 0h-2.85a.843.843 0 0 1-.822-.822c0-.438.384-.822.822-.822h2.85c.438 0 .822.384.822.822 0 .493-.329.822-.822.822z" fill="#344154"/><path d="M36.004 28.223h-2.85a.843.843 0 0 1-.822-.822c0-.438.384-.822.822-.822h2.85c.438 0 .822.384.822.822a.807.807 0 0 1-.822.822zm-15.18-5.151h-9.48a.843.843 0 0 1-.822-.822c0-.439.383-.822.822-.822h9.48c.439 0 .822.383.822.822a.807.807 0 0 1-.822.822zm0 4.055h-9.48a.843.843 0 0 1-.822-.822c0-.438.383-.822.822-.822h9.48c.439 0 .822.384.822.822a.807.807 0 0 1-.822.822zm0 4.055h-9.48a.843.843 0 0 1-.822-.822c0-.438.383-.822.822-.822h9.48c.439 0 .822.384.822.822a.843.843 0 0 1-.822.822zm48.829 18.304H3.343A3.321 3.321 0 0 1 0 46.143V43.13c0-.438.384-.822.822-.822h71.352c.439 0 .822.384.822.822v3.014a3.321 3.321 0 0 1-3.343 3.343zm-68.009-5.48v2.192c0 .932.767 1.699 1.699 1.699h66.31c.932 0 1.7-.767 1.7-1.699v-2.192H1.643z" fill="#344154"/><path d="M67.516 44.006H5.48a.843.843 0 0 1-.822-.822V3.179A3.18 3.18 0 0 1 7.837 0H65.16a3.18 3.18 0 0 1 3.178 3.179v40.005a.843.843 0 0 1-.822.822zM6.302 42.362h60.392V3.179c0-.877-.712-1.535-1.534-1.535H7.837c-.877 0-1.535.712-1.535 1.535v39.183z" fill="#344154"/><path d="M21.098 8.385H11.07v9.645H21.1V8.385z" fill="#46C770"/></svg>