<svg width="72" height="68" viewBox="0 0 72 68" fill="none" xmlns="http://www.w3.org/2000/svg"><path d="M20.875 21.612a1.03 1.03 0 0 0 .72-1.267C18.79 10.18 27.502.508 37.928 2.272A1.03 1.03 0 0 0 38.272.24c-11.948-2.023-21.86 9.074-18.664 20.653.151.548.718.87 1.267.72zM51.76 13.73a1.03 1.03 0 0 0-2.033.343c1.767 10.436-7.922 19.133-18.072 16.332a1.03 1.03 0 1 0-.549 1.987C42.73 35.6 53.776 25.635 51.76 13.73zm-5.437-2.386a5.674 5.674 0 0 0 5.668-5.668A5.674 5.674 0 0 0 46.323.01a5.674 5.674 0 0 0-5.668 5.667 5.674 5.674 0 0 0 5.668 5.668zm0-9.274a3.61 3.61 0 0 1 3.607 3.606 3.61 3.61 0 0 1-3.607 3.607 3.61 3.61 0 0 1-3.607-3.607 3.61 3.61 0 0 1 3.607-3.606zM24.682 22.68a4.643 4.643 0 0 0-4.637 4.637 4.643 4.643 0 0 0 4.637 4.637 4.643 4.643 0 0 0 4.638-4.637 4.643 4.643 0 0 0-4.638-4.637zm0 7.213a2.58 2.58 0 0 1-2.576-2.576 2.58 2.58 0 0 1 2.576-2.576 2.58 2.58 0 0 1 2.577 2.576 2.58 2.58 0 0 1-2.577 2.576z" fill="#46C770"/><path d="M30.35 10.314c0 .569.461 1.03 1.03 1.03h8.244a1.03 1.03 0 1 0 0-2.06H31.38c-.569 0-1.03.46-1.03 1.03zm1.03 4.637h3.092v7.729a1.03 1.03 0 1 0 2.06 0v-7.73h3.092a1.03 1.03 0 1 0 0-2.061H31.38a1.03 1.03 0 0 0 0 2.061z" fill="#46C770"/><path d="M66.593 39.6a5.33 5.33 0 0 0-2.18.483 5.399 5.399 0 0 0-4.253-2.075c-.894 0-1.717.236-2.423.59l-2.284 1.344a5.399 5.399 0 0 0-4.139-1.934c-.895 0-1.716.236-2.423.59l-8.218 5c-1.994-.587-10.656-3.03-12.322-3.448a53.124 53.124 0 0 0-2.162-.504c-.299-.06-.564-.11-.8-.146a4.49 4.49 0 0 0-.664-.061 4.27 4.27 0 0 0-.495.037c-.623.082-1.51.27-2.554.514-2.136.5-4.863 1.225-6.37 1.633v-2.235c0-1.759-1.446-3.198-3.215-3.198H3.244c-1.768 0-3.217 1.439-3.217 3.198V64.18c0 1.76 1.449 3.199 3.217 3.199h8.846c1.77 0 3.215-1.44 3.215-3.199v-1.925a953.51 953.51 0 0 0 10.614 2.236c3.021.617 6.144 1.234 8.722 1.7 1.29.231 2.445.426 3.389.563.952.138 1.663.222 2.204.225.422-.002.82-.082 1.251-.198.802-.225 1.715-.606 2.759-1.111 3.635-1.763 8.857-5.065 13.782-8.333 4.916-3.263 9.515-6.486 11.768-8.03 1.412-.967 2.206-2.6 2.206-4.329-.002-2.969-2.42-5.377-5.407-5.377zM12.894 64.178c0 .433-.368.8-.804.8H3.244a.813.813 0 0 1-.805-.8v-24.79c0-.434.369-.8.805-.8h8.846c.436 0 .804.366.804.8v24.79zM68.43 47.33c-2.772 1.898-8.972 6.253-14.975 10.129-2.998 1.937-5.948 3.753-8.366 5.07-1.208.658-2.285 1.19-3.147 1.546a9.84 9.84 0 0 1-1.105.393c-.297.084-.52.112-.602.11-.263.003-.96-.066-1.853-.199-3.17-.461-9.1-1.64-14.206-2.698-2.555-.53-4.91-1.03-6.626-1.399-.996-.213-1.766-.38-2.244-.483V44.11l.915-.248c1.272-.343 3.213-.858 4.953-1.284.868-.213 1.69-.403 2.342-.539.325-.067.609-.12.827-.154.214-.036.38-.048.381-.046.005-.001.132.007.303.033.666.1 2.03.417 3.693.85 5.01 1.3 12.907 3.652 16.098 4.617 1.104.331 2.104.83 2.76 1.436.33.302.577.625.743.974.167.351.26.732.262 1.196 0 .941-.38 1.782-1 2.4a3.41 3.41 0 0 1-2.387.993l-3.112-.303-10.623-1.356a1.205 1.205 0 0 0-1.35 1.037 1.202 1.202 0 0 0 1.043 1.343l10.658 1.36 3.298.321h.06c3.217-.001 5.826-2.594 5.827-5.794a5.125 5.125 0 0 0-.496-2.226c-.478-.999-1.248-1.772-2.117-2.36-.873-.59-1.859-1.011-2.863-1.315-.482-.146-1.074-.324-1.741-.523l6.215-3.787a2.97 2.97 0 0 1 1.32-.327c.78-.001 1.483.3 2.016.786l-3.235 1.907a1.196 1.196 0 0 0-.421 1.644c.34.57 1.08.758 1.653.42l7.507-4.428a2.971 2.971 0 0 1 1.326-.33 2.98 2.98 0 0 1 2.123.892l-8.742 5.156a1.195 1.195 0 0 0-.421 1.644 1.21 1.21 0 0 0 1.652.419l10.496-6.19a2.99 2.99 0 0 1 1.324-.329c.83.001 1.572.331 2.116.874a2.96 2.96 0 0 1 .878 2.106c.001 1.004-.463 1.882-1.157 2.352z" fill="#344154"/></svg>