<svg width="68" height="69" viewBox="0 0 68 69" fill="none" xmlns="http://www.w3.org/2000/svg"><path d="M11.223 23.988c.548.584 1.276 1.356 2.685 1.356 1.41 0 2.136-.772 2.685-1.355l-5.37-.001zm0 0c-.227-.241-.4-.422-.58-.54a1.063 1.063 0 0 0-.627-.177c-1.272 0-2.326.932-2.326 2.099 0 .445.155.871.444 1.231l.001.001 5.667 6.849.03.036h7.949l.03-.036 5.677-6.861v-.001a1.94 1.94 0 0 0 .435-1.22c0-1.166-1.054-2.098-2.326-2.098-.255 0-.445.054-.631.177-.18.118-.355.299-.583.541-.548.583-1.276 1.355-2.686 1.355s-2.139-.772-2.687-1.356m-7.787 0h7.787m0 0c-.227-.241-.401-.422-.58-.54a1.07 1.07 0 0 0-.63-.177 1.06 1.06 0 0 0-.628.177m1.838.54l-1.838-.54m0 0c-.179.118-.352.299-.578.54l.578-.54zm12.378 16.21l.003.002a16.45 16.45 0 0 1 5.96 12.69c0 9.124-7.467 16.55-16.645 16.55h-2.123C7.567 68.9.1 61.474.1 52.35a16.47 16.47 0 0 1 5.991-12.716l.003-.002 5.787-5.173.072-.064-.061-.075-5.327-6.438a4.018 4.018 0 0 1-.9-2.512c0-2.27 1.946-4.125 4.351-4.125 1.41 0 2.136.773 2.684 1.356.227.242.4.423.58.541.185.122.374.177.627.177.254 0 .443-.054.628-.177.18-.118.353-.3.58-.54.378-.403.845-.887 1.554-1.154l.145-.055-.11-.11-6.752-6.751a3.219 3.219 0 0 1-.949-2.29c0-.865.338-1.679.95-2.29 1.179-1.18 3.215-1.227 4.448-.124l.167.15V5.564A5.47 5.47 0 0 1 20.032.1h7.79a3.243 3.243 0 0 1 3.24 3.239 3.243 3.243 0 0 1-3.24 3.238h-6.776v3.4l.167-.149c1.233-1.104 3.27-1.056 4.451.124.611.61.948 1.423.948 2.29s-.337 1.68-.948 2.29l-6.755 6.755-.11.11.145.054c.703.268 1.17.749 1.545 1.15.227.241.401.422.58.54.187.124.377.178.631.178s.443-.054.63-.177c.18-.118.354-.299.58-.54.549-.584 1.276-1.357 2.688-1.357 2.405 0 4.351 1.855 4.351 4.125 0 .897-.315 1.786-.89 2.5v.001L23.72 34.32l-.061.075.072.064 5.818 5.2zM16.593 5.564v9.314L13.1 11.384a1.193 1.193 0 0 0-.858-.355c-.328 0-.626.124-.858.355a1.2 1.2 0 0 0-.355.858c0 .328.124.626.355.857l6.352 6.352.07.07.071-.07L24.23 13.1c.228-.229.354-.533.354-.858 0-.325-.127-.629-.354-.857a1.226 1.226 0 0 0-1.716 0l-3.494 3.494V4.552h8.804a1.213 1.213 0 0 0 0-2.426h-7.79a3.443 3.443 0 0 0-3.44 3.439zM13.78 35.513h-.038l-.029.025-6.3 5.63c-3.37 2.795-5.286 6.862-5.286 11.182 0 8.01 6.559 14.524 14.619 14.524h2.123c8.06 0 14.62-6.514 14.62-14.524 0-4.32-1.917-8.387-5.257-11.156L21.9 35.538l-.029-.025H13.78zm27.498-22.158C41.278 6.046 47.224.1 54.533.1c7.308 0 13.254 5.946 13.254 13.255 0 7.309-5.946 13.255-13.254 13.255-7.31 0-13.255-5.946-13.255-13.255zm2.026 0c0 6.192 5.037 11.229 11.229 11.229 6.191 0 11.229-5.037 11.229-11.23 0-6.19-5.038-11.228-11.23-11.228-6.191 0-11.228 5.037-11.228 11.229z" fill="#393939" stroke="#fff" stroke-width=".2"/><path d="M48.315 18.136L59.301 7.15l1.432 1.432-10.985 10.986-1.433-1.432zm7.43-.33a3.243 3.243 0 0 1 3.238-3.238 3.243 3.243 0 0 1 3.239 3.239 3.243 3.243 0 0 1-3.239 3.238 3.243 3.243 0 0 1-3.238-3.239zm2.025 0a1.213 1.213 0 1 0 2.427 0 1.213 1.213 0 0 0-2.427 0zM50.08 5.665a3.243 3.243 0 0 1 3.24 3.238 3.243 3.243 0 0 1-3.24 3.239 3.243 3.243 0 0 1-3.238-3.239 3.243 3.243 0 0 1 3.239-3.238zm0 2.025a1.213 1.213 0 1 0 .002 2.427 1.213 1.213 0 0 0-.001-2.427zm-4.515 39.116a3.212 3.212 0 0 1-.948-2.29c0-.867.337-1.68.948-2.29l7.854-7.854 7.855 7.854a3.22 3.22 0 0 1 .948 2.29c0 .865-.336 1.679-.948 2.29-1.18 1.18-3.217 1.227-4.45.124l-.166-.15v4.414a5.47 5.47 0 0 1-5.465 5.464h-7.79a3.243 3.243 0 0 1-3.239-3.239 3.243 3.243 0 0 1 3.24-3.238h6.776V46.78l-.167.15c-1.232 1.103-3.27 1.055-4.449-.125zm9.067-4.926l3.494 3.494c.466.465 1.25.465 1.715 0 .232-.232.356-.53.356-.858 0-.328-.124-.626-.356-.857l-6.351-6.352-.07-.07-.071.07-6.352 6.352a1.205 1.205 0 0 0-.354.857c0 .325.126.629.354.857.466.467 1.25.466 1.715 0l3.494-3.493v10.326h-8.803a1.213 1.213 0 0 0 0 2.426h7.79a3.443 3.443 0 0 0 3.44-3.438V41.88z" fill="#393939" stroke="#fff" stroke-width=".2"/><path d="M18.232 59.963h-2.007V48.89H11.52v-1.673h11.42v1.673h-4.707v11.073zm4.706-14.419H11.52v-1.672h11.418v1.672z" fill="#46C770"/></svg>