<svg width="61" height="53" viewBox="0 0 61 53" fill="none" xmlns="http://www.w3.org/2000/svg"><path d="M30.06 5.117a4.586 4.586 0 0 0-4.605 4.605 4.586 4.586 0 0 0 4.605 4.604 4.586 4.586 0 0 0 4.605-4.604 4.586 4.586 0 0 0-4.605-4.605zm0 6.293a1.703 1.703 0 0 1-1.688-1.688c0-.921.767-1.689 1.688-1.689.92 0 1.688.768 1.688 1.689 0 .92-.767 1.688-1.688 1.688z" fill="#F2DDDE"/><path d="M30.06 28.09c-6.549 0-11.921 5.321-11.921 11.921A11.9 11.9 0 0 0 30.06 51.933 11.9 11.9 0 0 0 41.982 40.01c0-6.6-5.373-11.921-11.922-11.921zm7.573 12.996l-1.33.102c-.205 1.075-.666 2.098-1.382 2.917l.767 1.125c.307.41.205 1.024-.256 1.28l-1.227.818c-.41.307-1.024.205-1.28-.256l-.767-1.074c-1.075.358-2.2.46-3.224.256l-.562 1.227a.938.938 0 0 1-1.228.461l-1.33-.614a.938.938 0 0 1-.461-1.228l.563-1.228a6.559 6.559 0 0 1-1.842-2.66l-1.33.102c-.512.05-.973-.358-1.024-.87l-.102-1.484c-.051-.511.358-.972.87-1.023l1.33-.102c.205-1.075.665-2.098 1.381-2.917l-.767-1.126c-.307-.409-.205-1.023.256-1.279l1.228-.818c.41-.307 1.023-.205 1.279.255l.767 1.075c1.075-.358 2.2-.46 3.224-.256l.563-1.228a.938.938 0 0 1 1.228-.46l1.33.614c.46.204.665.767.46 1.228l-.562 1.228a6.56 6.56 0 0 1 1.842 2.66l1.33-.102c.511-.051.972.358 1.023.87l.102 1.483c0 .512-.358.973-.87 1.024z" fill="#46C770"/><path d="M27.5 48.76c-.255 0-.511-.05-.716-.153l-1.33-.614a1.795 1.795 0 0 1-.87-.972c-.153-.41-.102-.87.051-1.28l.358-.715c-.562-.615-1.074-1.28-1.381-2.047l-.767.051c-.921.051-1.74-.614-1.842-1.535l-.103-1.484c-.05-.46.103-.87.41-1.228a1.775 1.775 0 0 1 1.176-.614l.768-.05a5.887 5.887 0 0 1 1.074-2.2l-.46-.615a1.598 1.598 0 0 1-.256-1.279c.102-.46.358-.819.716-1.075l1.228-.818a1.597 1.597 0 0 1 1.28-.256c.46.102.818.358 1.074.716l.46.614c.82-.204 1.638-.256 2.456-.204l.358-.717a1.8 1.8 0 0 1 .973-.87c.409-.153.87-.153 1.279.052l1.33.614c.41.204.716.563.87.972.153.41.102.87-.051 1.279l-.358.716c.562.614 1.074 1.28 1.381 2.047l.768-.051c.92-.051 1.74.614 1.841 1.535l.103 1.483c.051.461-.102.87-.41 1.228a1.775 1.775 0 0 1-1.176.614l-.768.052a5.886 5.886 0 0 1-1.074 2.2l.46.614c.512.767.358 1.842-.46 2.353l-1.228.819a1.597 1.597 0 0 1-1.28.256 1.764 1.764 0 0 1-1.074-.717l-.46-.614c-.819.205-1.638.256-2.456.205l-.358.716a1.739 1.739 0 0 1-1.535.973zm-2.916-7.418l.205.562a5.06 5.06 0 0 0 1.637 2.354l.46.358-.818 1.74v.102c0 .051.051.051.102.102l1.33.614c.103.052.205 0 .205-.102l.819-1.74.563.103c.972.153 1.944.102 2.814-.205l.563-.204 1.074 1.586c.051.05.051.05.102.05.052 0 .052 0 .103-.05l1.228-.819c.05-.051.102-.154.05-.205l-1.074-1.586.359-.46c.614-.717 1.023-1.638 1.228-2.559l.102-.562 1.893-.154c.051 0 .102-.051.102-.051s.051-.051.051-.102l-.102-1.484c0-.102-.102-.154-.153-.154l-1.893.154-.205-.563a5.056 5.056 0 0 0-1.637-2.354l-.46-.358.818-1.74v-.102c0-.05-.051-.05-.102-.102l-1.33-.614h-.103c-.051 0-.051.051-.102.102l-.82 1.74-.562-.102c-.972-.154-1.944-.103-2.814.204l-.563.205-1.074-1.586c-.051-.051-.052-.051-.103-.051-.05 0-.05 0-.102.05l-1.228.82c-.051.05-.051.05-.051.102 0 .051 0 .051.051.102l1.075 1.586-.359.46c-.614.717-1.023 1.638-1.228 2.559l-.102.563-1.893.153c-.051 0-.102.051-.102.051s-.052.052-.052.103l.103 1.484c0 .102.102.153.153.153l1.842-.153z" fill="#344154"/><path d="M30.06 52.7c-7.01 0-12.689-5.68-12.689-12.689 0-7.01 5.68-12.689 12.689-12.689 7.01 0 12.689 5.68 12.689 12.69 0 7.009-5.73 12.688-12.689 12.688zm0-23.843c-6.14 0-11.154 5.014-11.154 11.154S23.92 51.165 30.06 51.165s11.154-5.014 11.154-11.154S36.2 28.857 30.06 28.857zM5.09 26.964c-.205 0-.41-.051-.563-.204a.742.742 0 0 1 0-1.075l11.154-11.154a.742.742 0 0 1 1.075 0 .742.742 0 0 1 0 1.074L5.653 26.76c-.154.154-.358.205-.563.205zm-2.149-2.149c-.204 0-.409-.05-.562-.204a.742.742 0 0 1 0-1.075l11.154-11.154a.742.742 0 0 1 1.074 0 .742.742 0 0 1 0 1.075L3.453 24.61c-.102.153-.307.204-.512.204zM.793 22.666c-.205 0-.41-.05-.563-.204a.742.742 0 0 1 0-1.075l11.154-11.154a.742.742 0 0 1 1.075 0 .742.742 0 0 1 0 1.075L1.305 22.462c-.103.153-.307.204-.512.204zm54.237 4.298c-.206 0-.41-.051-.564-.204L43.312 15.604a.742.742 0 0 1 0-1.074.742.742 0 0 1 1.075 0L55.54 25.685a.742.742 0 0 1-.512 1.28zm2.148-2.149c-.205 0-.41-.05-.563-.204L45.46 13.457a.742.742 0 0 1 0-1.075.742.742 0 0 1 1.074 0L57.69 23.536a.742.742 0 0 1 0 1.075.657.657 0 0 1-.511.204zm2.148-2.149c-.205 0-.41-.05-.563-.204L47.61 11.308a.742.742 0 0 1 0-1.075.742.742 0 0 1 1.075 0l11.154 11.154a.742.742 0 0 1 0 1.075.657.657 0 0 1-.512.204z" fill="#344154"/><path d="M54.262 16.884l-1.075-1.125 4.605-4.605-9.619-9.619H11.897l-9.568 9.619 4.605 4.605-1.126 1.125-5.68-5.73L11.284 0h37.555l11.154 11.154-5.73 5.73zM18.905 38.579L7.854 27.527l9.72-9.721 11.053 11.051-1.33.307a11.168 11.168 0 0 0-8.085 8.084l-.307 1.33zm-8.903-11.052l8.136 8.135a12.704 12.704 0 0 1 7.521-7.521l-8.135-8.135-7.522 7.521zm31.161 11.052l-.307-1.33a11.168 11.168 0 0 0-8.084-8.085l-1.33-.307 11.051-11.051 9.721 9.721L41.163 38.58zm-6.754-10.49a12.704 12.704 0 0 1 7.521 7.522l8.136-8.135-7.522-7.521-8.135 8.135z" fill="#344154"/><path d="M30.06 15.094a5.372 5.372 0 1 1 5.372-5.372 5.372 5.372 0 0 1-5.372 5.372zm0-9.21c-2.098 0-3.837 1.74-3.837 3.837 0 2.098 1.74 3.838 3.837 3.838 2.098 0 3.837-1.74 3.837-3.838 0-2.097-1.74-3.837-3.837-3.837z" fill="#344154"/><path d="M30.06 12.177c-1.33 0-2.456-1.125-2.456-2.456 0-1.33 1.125-2.456 2.455-2.456s2.456 1.126 2.456 2.456-1.125 2.456-2.456 2.456zm0-3.377a.917.917 0 0 0-.921.921c0 .512.409.921.92.921a.917.917 0 0 0 .921-.92.917.917 0 0 0-.92-.922zm6.036 12.434a.817.817 0 0 1-.767-.666L33.896 9.056c-.051-.409.256-.818.665-.87.41-.05.819.256.87.666l1.433 11.512c.051.41-.256.819-.665.87h-.103zm-12.075 0h-.102c-.41-.052-.716-.46-.665-.87l1.432-11.512a.765.765 0 0 1 .87-.666c.41.052.716.461.665.87L24.79 20.57a.775.775 0 0 1-.768.665z" fill="#344154"/></svg>