<svg width="68" height="63" viewBox="0 0 68 63" fill="none" xmlns="http://www.w3.org/2000/svg"><path d="M48.773 22.61c-.282-.45-.733-.79-1.297-.79h-3.947a12.699 12.699 0 0 1-9.586 4.342 12.698 12.698 0 0 1-9.585-4.341h-3.947c-.564 0-1.015.282-1.297.79l-4.51 8.231H53.17l-4.398-8.232z" fill="#46C770"/><path d="M26.727 46.912H5.81v10.093a4.163 4.163 0 0 0 4.172 4.172h2.312a4.163 4.163 0 0 0 4.172-4.172v-2.312h-4.341 43.753-4.341v2.312a4.163 4.163 0 0 0 4.172 4.172h2.312a4.163 4.163 0 0 0 4.172-4.172V46.912H26.727z" fill="#F2DDDE"/><path d="M21.145 47.589h-10.77a.867.867 0 0 1-.846-.846c0-.451.395-.846.846-.846h9.078v-.902a2.677 2.677 0 0 0-2.312-2.65l-6.54-.959c-.452-.056-.79-.507-.733-.958.056-.451.507-.79.958-.733l6.54.958c2.143.339 3.779 2.2 3.779 4.342v2.594z" fill="#393939"/><path d="M58.02 62.023h-2.312a5.03 5.03 0 0 1-5.018-5.018v-1.466H17.31v1.466a5.03 5.03 0 0 1-5.018 5.018H9.98a5.03 5.03 0 0 1-5.018-5.018v-18.72L1.24 36.932C.507 36.65 0 35.973 0 35.184v-3.383c0-1.015.846-1.86 1.86-1.86h4.85c1.071 0 2.03-.565 2.537-1.523l4.793-8.796c1.071-1.974 3.157-3.214 5.47-3.214h2.31v1.691h-2.31a4.49 4.49 0 0 0-3.948 2.369l-4.792 8.796a4.653 4.653 0 0 1-4.06 2.424H1.86c-.112 0-.168.057-.168.17v3.382c0 .057.056.113.112.17l4.85 1.748v19.847a3.333 3.333 0 0 0 3.326 3.327h2.312a3.333 3.333 0 0 0 3.327-3.327v-3.158H52.38v3.158a3.333 3.333 0 0 0 3.327 3.327h2.312a3.333 3.333 0 0 0 3.327-3.327V37.157l4.849-1.747c.056 0 .112-.113.112-.17v-3.383c0-.112-.056-.169-.169-.169H61.29c-1.691 0-3.214-.902-4.06-2.424l-4.792-8.796a4.49 4.49 0 0 0-3.947-2.369h-2.312v-1.691h2.312c2.255 0 4.342 1.24 5.47 3.214l4.792 8.796a2.833 2.833 0 0 0 2.537 1.522h4.85c1.014 0 1.86.846 1.86 1.861v3.383c0 .79-.507 1.466-1.24 1.748l-3.722 1.353v18.72a5.03 5.03 0 0 1-5.018 5.018z" fill="#393939"/><path d="M54.693 31.688H13.25l5.187-9.472c.395-.733 1.184-1.184 2.03-1.184h3.947v1.691h-3.947a.62.62 0 0 0-.564.338l-3.777 6.936h35.748l-3.835-6.992a.62.62 0 0 0-.564-.338H43.53v-1.692h3.946c.846 0 1.636.451 2.03 1.184l5.188 9.53zm2.875 15.901h-10.77v-2.594c0-2.143 1.636-4.003 3.779-4.342l6.54-.958c.451-.056.902.225.959.733.056.45-.226.902-.733.958l-6.54.959c-1.298.17-2.313 1.353-2.313 2.65v.902h9.078c.451 0 .846.395.846.846 0 .507-.338.846-.846.846zm-16.294.169H26.727a.867.867 0 0 1-.846-.846c0-.45.395-.846.846-.846h14.547c.451 0 .846.395.846.846a.867.867 0 0 1-.846.846z" fill="#393939"/><path d="M41.273 47.758h-.113c-.451-.056-.79-.451-.733-.959l.564-4.792H27.064l.563 4.792c.057.452-.281.903-.733.959-.45.056-.902-.282-.958-.733l-.79-6.71h17.762l-.79 6.71c-.056.395-.45.733-.846.733zm-24.808 7.781h-4.342a.867.867 0 0 1-.846-.846c0-.45.395-.846.846-.846h4.342c.45 0 .846.395.846.846a.867.867 0 0 1-.846.846zm39.412 0h-4.342a.867.867 0 0 1-.845-.846c0-.45.394-.846.845-.846h4.342c.45 0 .846.395.846.846a.867.867 0 0 1-.846.846zM34.001 27.065c-7.443 0-13.532-6.09-13.532-13.533C20.469 6.09 26.559 0 34 0c7.443 0 13.532 6.09 13.532 13.532 0 7.443-6.09 13.533-13.532 13.533zm0-25.373c-6.54 0-11.84 5.3-11.84 11.84 0 6.541 5.3 11.841 11.84 11.841s11.84-5.3 11.84-11.84c0-6.541-5.3-11.841-11.84-11.841z" fill="#393939"/></svg>