<svg width="1397" height="269" viewBox="0 0 1397 269" fill="none" xmlns="http://www.w3.org/2000/svg">
<path fill-rule="evenodd" clip-rule="evenodd" d="M0 225.396L52.05 71.5332H94.4069L146.423 225.396H106.66L97.1034 194.269L48.364 194.269L38.8413 225.396H0ZM88.3997 166.145L72.5629 114.948L56.7259 166.145H88.3997ZM195.469 225.396H159.256L159.256 64.6387H195.469L195.469 225.396ZM267.793 227.717C253.049 227.717 242.308 224.691 235.573 218.638C228.747 212.563 225.334 202.631 225.334 188.842L225.334 134.608L211.681 134.608V109.419H225.334V76.175L261.513 76.175V109.419L296.463 109.419V134.608H261.649V175.804C261.649 179.899 261.649 183.449 261.649 186.487C261.671 189.296 262.227 192.076 263.288 194.678C264.289 197.119 266.095 199.143 268.407 200.412C271.74 202.023 275.43 202.751 279.125 202.529C281.705 202.434 284.263 202.009 286.736 201.266C289.023 200.742 291.244 199.963 293.357 198.945H296.463V224.406C292.349 225.505 288.164 226.315 283.937 226.83C278.536 227.489 273.097 227.786 267.657 227.717H267.793ZM419.438 109.419L360.937 267.924H322.061L339.673 222.598L297.112 109.419H335.1L359.435 182.152L382.235 109.419H419.438ZM541.695 225.465H505.517V167.954C505.517 163.278 505.346 158.636 504.936 153.96C504.806 150.449 504.079 146.987 502.786 143.72C501.704 141.269 499.795 139.276 497.393 138.089C494.405 136.833 491.177 136.251 487.939 136.382C484.85 136.414 481.79 136.979 478.894 138.055C475.421 139.387 472.129 141.153 469.099 143.311V225.396L432.92 225.396V109.35L469.099 109.35V122.184C474.389 117.583 480.21 113.63 486.437 110.409C492.239 107.543 498.637 106.092 505.107 106.176C516.951 106.176 525.995 109.896 532.412 117.405C538.829 124.914 541.832 135.665 541.832 149.83L541.695 225.465Z" fill="#F3F3F3"/>
<path fill-rule="evenodd" clip-rule="evenodd" d="M1309.19 13.782L1382.26 1.01702C1383.35 0.919384 1384.43 1.2445 1385.28 1.92487C1386.13 2.60525 1386.69 3.58819 1386.83 4.66887L1395.95 50.5755C1396.09 51.0933 1396.13 51.6346 1396.06 52.1675C1395.99 52.7004 1395.82 53.2139 1395.55 53.6782C1395.28 54.1426 1394.92 54.5482 1394.49 54.8711C1394.06 55.194 1393.57 55.4278 1393.05 55.5585L1320.01 68.3235C1319.29 68.3235 1295.19 55.2514 1279.63 46.6845C1285.87 39.1415 1309.15 13.9527 1309.19 13.782Z" fill="#F3F3F3" stroke="#F3F3F3" stroke-width="0.57" stroke-miterlimit="22.93"/>
<path fill-rule="evenodd" clip-rule="evenodd" d="M1312.89 56.8922C1312.57 55.7448 1312.72 54.5191 1313.3 53.4791C1314.09 52.5246 1315.23 51.9235 1316.47 51.8067C1317.68 51.4414 1318.99 51.5511 1320.12 52.1137C1320.61 52.486 1321.01 52.9534 1321.31 53.4874C1321.61 54.0214 1321.8 54.611 1321.86 55.2198C1322.18 56.3672 1322.03 57.5929 1321.45 58.6329C1320.62 59.5797 1319.46 60.187 1318.21 60.3394C1317.01 60.6956 1315.71 60.5734 1314.59 59.9982C1313.64 59.2293 1313.02 58.1124 1312.89 56.8922ZM1332.58 39.2462L1328.11 17.061C1328.11 16.6855 1327.84 16.5148 1327.49 16.5831L1318.72 18.358V21.7711L1320.84 22.1806C1321.11 22.2005 1321.37 22.2953 1321.59 22.454C1321.74 22.6909 1321.83 22.9596 1321.86 23.2389L1328.69 57.3701L1335.92 55.9364L1334.18 47.3011L1336.09 44.2296L1345.89 53.9228L1354.15 52.2845L1339.75 38.6321L1347.9 24.7063L1339.68 26.345L1332.55 38.905L1332.58 39.2462ZM1355.24 47.1649L1366.13 27.0616L1352.24 29.8602L1351.15 24.3993L1374.05 19.7916L1375.04 24.6384L1364.15 44.8096L1378.93 41.8402L1380.02 47.3011L1356.13 52.0796L1355.24 47.1649Z" fill="white"/>
<path fill-rule="evenodd" clip-rule="evenodd" d="M636.9 229.359C613.827 229.359 595.521 222.374 581.983 208.403C568.444 194.432 561.618 174.795 561.504 149.492C561.504 125.077 568.33 105.623 581.983 91.1282C595.635 76.6338 613.964 69.3752 636.968 69.3525C642.491 69.3314 648.009 69.6732 653.487 70.3762C658.218 71.0561 662.903 72.0253 667.515 73.2776C671.42 74.4685 675.25 75.8932 678.983 77.544C683.113 79.3189 686.458 80.9571 688.984 82.1517V118.877H685.093C683.216 117.239 680.895 115.463 678.062 113.006C675.001 110.529 671.786 108.249 668.437 106.18C664.702 103.915 660.745 102.04 656.627 100.583C652.239 99.0512 647.623 98.2778 642.975 98.2956C637.739 98.2412 632.536 99.1315 627.616 100.924C622.589 102.958 618.069 106.068 614.373 110.037C610.124 114.604 606.9 120.027 604.919 125.942C602.314 133.526 601.067 141.509 601.233 149.527C601 157.726 602.296 165.898 605.055 173.623C607.223 179.532 610.647 184.9 615.09 189.357C618.877 193.099 623.447 195.955 628.469 197.72C633.188 199.419 638.164 200.297 643.18 200.314C648.148 200.33 653.081 199.475 657.754 197.788C661.848 196.394 665.765 194.527 669.427 192.225C672.614 190.324 675.65 188.179 678.506 185.808C681.134 183.624 683.42 181.678 685.332 179.971H688.745V216.116L678.949 220.587C675.227 222.266 671.396 223.692 667.481 224.854C662.993 226.227 658.436 227.366 653.829 228.267C648.091 229.127 642.291 229.504 636.49 229.393L636.9 229.359ZM773.424 196.116V171.78L758.68 173.418C754.884 173.831 751.156 174.726 747.587 176.081C744.714 177.004 742.166 178.733 740.249 181.064C738.398 183.691 737.485 186.865 737.655 190.074C737.655 195.535 739.088 199.289 741.989 201.303C745.87 203.604 750.356 204.675 754.857 204.375C758.184 204.339 761.465 203.594 764.482 202.191C767.798 200.71 770.826 198.653 773.424 196.116ZM773.424 214.102C770.933 216.184 768.714 218.027 766.598 219.7C764.152 221.623 761.509 223.282 758.714 224.649C755.692 226.153 752.539 227.375 749.294 228.301C745.1 229.273 740.797 229.698 736.494 229.564C731.767 229.717 727.06 228.886 722.671 227.123C718.282 225.361 714.307 222.705 710.998 219.325C707.622 215.893 704.974 211.814 703.214 207.333C701.455 202.852 700.619 198.061 700.759 193.248C700.414 185.922 702.204 178.653 705.913 172.326C709.561 166.796 714.696 162.407 720.726 159.663C728.118 156.23 736.01 153.995 744.106 153.042C753.184 151.779 762.912 150.823 773.356 150.141V149.492C773.601 146.836 773.062 144.166 771.807 141.813C770.551 139.459 768.633 137.525 766.291 136.249C759.626 133.411 752.396 132.15 745.164 132.563C740.112 132.684 735.098 133.464 730.248 134.884C724.548 136.454 718.97 138.439 713.558 140.823H710.486V112.767C713.9 111.743 719.838 110.515 727.859 109.115C735.824 107.694 743.899 106.986 751.99 106.999C771.968 106.999 786.519 110.321 795.644 116.965C804.791 123.791 809.296 133.792 809.296 147.479V226.56H773.629V214.273L773.424 214.102ZM914.284 144.714H911.28C909.333 144.088 907.315 143.71 905.273 143.588C902.369 143.314 899.452 143.189 896.535 143.212C892.498 143.257 888.484 143.819 884.589 144.885C880.444 145.956 876.364 147.267 872.37 148.81V226.39H836.191V110.344L872.609 110.344V126.966C874.282 125.464 876.569 123.553 879.436 121.266C881.964 119.21 884.645 117.35 887.456 115.702C890.368 114.025 893.444 112.652 896.638 111.607C899.841 110.535 903.192 109.971 906.57 109.934H910.461C911.928 109.934 913.26 109.934 914.42 110.242L914.284 144.714Z" fill="#F3F3F3"/>
<path fill-rule="evenodd" clip-rule="evenodd" d="M1027.97 119.213C1027.83 114.813 1027.21 110.441 1026.13 106.174C1023.3 104.4 1011.62 104.946 1008.18 105.936C1006.93 106.313 1005.78 106.939 1004.78 107.776C1003.78 108.613 1002.97 109.643 1002.38 110.805C1001.79 111.966 1001.45 113.234 1001.36 114.533C1001.28 115.831 1001.46 117.133 1001.9 118.36C1003.16 120.373 1005.82 119.964 1008.93 120.032C1018.48 120.305 1018.45 118.257 1018.62 128.531C1014.87 131.024 1011.52 134.074 1008.69 137.575C1005.89 140.374 1004.32 146.313 1002.78 150.647C999.576 159.897 997.289 157.713 995.958 162.764C993.296 173.618 992.886 204.984 994.115 215.462C994.65 220.93 995.539 226.357 996.777 231.709C999.269 241.163 995.275 240.754 995.241 247.648C996.231 248.433 997.084 248.911 998.381 249.901C1000.29 266.967 996.368 269.049 1022.51 268.537C1029.61 268.537 1036.68 268.537 1043.81 268.537C1047.53 268.537 1049.68 268.537 1051.05 265.123C1052 262.106 1052.54 258.97 1052.65 255.806C1058.45 253.929 1056.71 257.41 1062.89 253.041C1065.69 251.095 1070.88 251.812 1075.11 251.881L1127.81 252.87C1136.68 252.87 1145.83 252.87 1154.67 252.87C1174.91 253.587 1210.88 252.188 1233.68 251.744C1237.57 251.744 1243.27 250.822 1246.14 252.665C1254.13 257.888 1250.99 253.792 1256.72 255.635C1257.81 265.157 1257.5 268.025 1265.08 268.23C1272.66 268.434 1279.62 268.229 1286.89 268.4C1312.7 268.878 1309.04 267.274 1310.99 249.764C1312.29 248.775 1313.14 248.297 1314.13 247.512C1314.13 240.924 1310.14 240.686 1312.52 231.948C1316.48 217.203 1316.79 195.223 1315.29 180.171C1314.78 174.983 1314.5 167.884 1313.51 163.105C1312.52 158.327 1309.83 159.692 1306.69 150.955C1305.29 146.961 1303.27 140.135 1300.92 137.746C1297.98 134.168 1294.53 131.041 1290.68 128.462C1290.68 118.223 1290.68 120.237 1299.86 119.998C1305.12 119.998 1310.27 120.919 1306.93 110.578C1304.26 102.386 1284.02 105.151 1283.04 106.107C1281.92 110.369 1281.29 114.742 1281.16 119.144C1280.44 118.837 1274.06 107.233 1272.97 105.492C1269.89 100.407 1266.99 96.2425 1263.72 91.8396C1255.25 80.3033 1246.65 68.1184 1231.33 67.9478C1227.91 67.9478 1224.26 66.8554 1221.09 66.48C1209.76 65.2171 1164.19 63.4766 1154.36 63.7156C1136.37 64.1934 1105.52 64.7738 1088.08 66.4462C1084.66 66.7534 1081.25 67.8113 1077.84 67.9478C1061.97 68.5963 1055.24 77.9141 1044.9 91.8396C1041.73 96.1742 1038.76 100.407 1035.82 105.219C1034.8 106.926 1028.18 118.872 1027.46 119.213H1027.97ZM1084.73 176.724C1077.63 181.4 1069.1 179.898 1059.61 179.625C1051.93 179.42 1011.83 176.826 1007.08 174.71C1003.06 172.901 1005.11 168.123 1005.65 163.856C1006.2 159.59 1006.2 155.324 1009.06 153.378C1019.68 146.347 1047.02 144.606 1057.87 147.303C1064.7 148.975 1069.89 156.04 1073.3 160.443C1077.5 165.568 1081.3 171.012 1084.66 176.724H1084.73ZM1069.27 217.886C1069.75 219.183 1068.21 219.866 1066.92 221.299C1065.82 222.367 1064.79 223.507 1063.84 224.712C1050.94 240.003 1056.51 239.32 1040.84 237.341C1034.56 236.556 1025.41 235.088 1021.11 231.914C1016.81 228.74 1012.41 215.462 1020.57 215.462C1030.19 215.462 1037.05 216.759 1045.93 217.101C1050.33 217.101 1066.4 217.101 1069.27 218.022V217.886ZM1136.75 213.893C1153.06 212.766 1172.14 213.892 1188.76 214.131C1208.87 214.507 1219.48 213.005 1232.04 223.688C1236.46 228.219 1240.3 233.274 1243.48 238.74C1246.58 243.382 1243.24 244.44 1238.43 244.542C1233.61 244.645 1230.13 244.849 1225.76 244.918C1208.25 245.157 1191.12 245.566 1173.58 245.737C1164.43 245.737 1077.12 245.532 1068.25 244.44C1062.96 243.791 1065.93 239.15 1067.6 236.658C1073.64 227.648 1076.41 222.664 1087.46 217.442C1098.52 212.22 1122.72 214.883 1136.75 214.029V213.893ZM1240.37 217.886C1241.5 217.442 1272.11 216.452 1277.06 216.043C1283 215.565 1291.98 213.619 1293.14 218.022C1293.6 220.502 1293.42 223.058 1292.61 225.448C1291.8 227.838 1290.4 229.981 1288.53 231.675C1284.07 234.192 1279.15 235.772 1274.06 236.317C1268.43 237.329 1262.72 237.843 1256.99 237.853C1255.73 237.443 1246.99 225.463 1244.09 222.323C1241.19 219.183 1239.93 219.319 1240.47 217.784L1240.37 217.886ZM1224.94 176.724C1228.35 170.912 1232.21 165.378 1236.48 160.17C1239.89 155.767 1245.12 148.975 1251.7 147.303C1260.64 146.05 1269.7 145.924 1278.67 146.927C1287.13 148.088 1294.5 149.385 1300.51 153.378C1303.51 155.358 1303.51 159.999 1303.92 164.3C1304.33 168.6 1306.52 173.208 1302.08 174.846C1296.35 176.962 1257.71 179.42 1249.42 179.625C1240 179.898 1231.8 181.366 1224.81 176.724H1224.94ZM1125.96 173.311C1135.9 172.594 1147.98 173.891 1157.13 173.311C1167.36 172.594 1178.63 173.311 1188.76 173.311C1214.43 173.686 1213.85 171.911 1209.24 180.649C1204.64 189.386 1196.48 188.226 1184.67 188.226C1163.03 188.226 1141.49 188.226 1119.82 188.226C1107.16 188.226 1102.52 187.066 1098.62 177.372C1096.75 172.696 1098.97 173.55 1109.72 173.55C1114.67 173.55 1121.08 173.55 1125.93 173.55L1125.96 173.311ZM1034.97 120.373C1034.42 115.936 1046.64 96.7886 1049.31 92.6587C1051.99 88.446 1054.95 84.4205 1058.18 80.6103C1061.93 76.1391 1064.8 74.4326 1072.75 73.7841C1100.06 72.0775 1126.82 69.5518 1154.84 70.371C1169.07 70.7464 1183.27 70.7464 1197.37 71.1901C1210.44 71.5655 1223.75 73.1016 1236.89 73.9207C1245.22 74.4327 1247.81 76.2417 1251.7 80.747C1257.47 87.5732 1275.39 114.434 1274.67 120.237C1271.26 122.762 1265.49 121.158 1260.71 120.714C1242.9 119.178 1233.89 119.69 1216.14 119.417C1174.81 118.837 1134.8 118.837 1093.54 119.417C1075.42 119.69 1066.61 119.179 1048.42 120.783C1043.74 121.295 1038.38 123.001 1034.97 120.339V120.373Z" fill="#F3F3F3"/>
</svg>
