<svg width="190" height="38" viewBox="0 0 190 38" fill="none" xmlns="http://www.w3.org/2000/svg">
<path fill-rule="evenodd" clip-rule="evenodd" d="M0 31.3785L7.0465 10.5486H12.7807L19.8226 31.3785H14.4395L13.1458 27.1645H6.54749L5.25831 31.3785H0ZM11.9675 23.3571L9.82351 16.4261L7.67952 23.3571H11.9675ZM26.4625 31.3785H21.56V9.61523H26.4625V31.3785ZM36.2537 31.6927C34.2576 31.6927 32.8036 31.283 31.8918 30.4636C30.9676 29.6411 30.5056 28.2965 30.5056 26.4298V19.0876H28.6573V15.6775H30.5056V11.177H35.4034V15.6775H40.135V19.0876H35.4219V24.6647C35.4219 25.2192 35.4219 25.6997 35.4219 26.1109C35.4249 26.4913 35.5001 26.8677 35.6437 27.2199C35.7792 27.5503 36.0238 27.8243 36.3368 27.9962C36.788 28.2142 37.2875 28.3128 37.7877 28.2827C38.1371 28.2698 38.4833 28.2124 38.8181 28.1117C39.1277 28.0408 39.4284 27.9354 39.7145 27.7975H40.135V31.2445C39.578 31.3932 39.0114 31.5028 38.4392 31.5726C37.7081 31.6619 36.9717 31.702 36.2352 31.6927H36.2537ZM56.7832 15.6775L48.8634 37.1358H43.6005L45.9847 30.9996L40.2228 15.6775H45.3656L48.6601 25.5241L51.7467 15.6775H56.7832ZM73.3344 31.3878H68.4365V23.602C68.4365 22.9689 68.4134 22.3405 68.358 21.7074C68.3403 21.2322 68.2418 20.7635 68.0669 20.3213C67.9204 19.9894 67.662 19.7196 67.3368 19.5589C66.9323 19.3889 66.4953 19.31 66.0569 19.3279C65.6387 19.3321 65.2244 19.4087 64.8324 19.5543C64.3621 19.7346 63.9166 19.9737 63.5063 20.2658V31.3785H58.6084V15.6683H63.5063V17.4056C64.2225 16.7828 65.0105 16.2477 65.8536 15.8115C66.639 15.4236 67.5051 15.2272 68.3811 15.2385C69.9844 15.2385 71.2089 15.7422 72.0776 16.7587C72.9463 17.7753 73.3529 19.2308 73.3529 21.1484L73.3344 31.3878Z" fill="#2B7F2F"/>
<path fill-rule="evenodd" clip-rule="evenodd" d="M177.234 2.73042L187.127 1.0023C187.274 0.989086 187.421 1.0331 187.536 1.12521C187.651 1.21732 187.727 1.35039 187.746 1.49669L188.98 7.7115C189 7.7816 189.005 7.85488 188.995 7.92702C188.986 7.99917 188.962 8.06868 188.926 8.13155C188.889 8.19441 188.84 8.24932 188.782 8.29303C188.724 8.33674 188.658 8.3684 188.587 8.3861L178.699 10.1142C178.602 10.1142 175.34 8.34452 173.233 7.18474C174.078 6.16358 177.23 2.75353 177.234 2.73042Z" fill="black" stroke="black" stroke-width="0.57" stroke-miterlimit="22.93"/>
<path fill-rule="evenodd" clip-rule="evenodd" d="M177.738 8.56643C177.696 8.4111 177.715 8.24517 177.794 8.10437C177.902 7.97516 178.056 7.89378 178.224 7.87796C178.388 7.82852 178.564 7.84337 178.718 7.91953C178.784 7.96993 178.839 8.0332 178.879 8.1055C178.92 8.17779 178.945 8.25761 178.954 8.34003C178.996 8.49536 178.977 8.66129 178.898 8.80209C178.785 8.93027 178.629 9.01248 178.459 9.03312C178.296 9.08134 178.121 9.0648 177.969 8.98693C177.84 8.88284 177.757 8.73163 177.738 8.56643ZM180.405 6.17754L179.799 3.17411C179.799 3.12328 179.762 3.10017 179.716 3.10942L178.529 3.3497V3.81176L178.815 3.86721C178.852 3.86989 178.887 3.88273 178.917 3.90421C178.937 3.93629 178.95 3.97266 178.954 4.01048L179.878 8.63113L180.857 8.43704L180.622 7.268L180.88 6.85219L182.207 8.16444L183.325 7.94266L181.375 6.0944L182.479 4.20913L181.366 4.43097L180.4 6.13134L180.405 6.17754ZM183.473 7.24956L184.947 4.52799L183.066 4.90686L182.918 4.16756L186.019 3.54379L186.153 4.19994L184.679 6.9307L186.679 6.52871L186.827 7.268L183.593 7.91491L183.473 7.24956Z" fill="white"/>
<path fill-rule="evenodd" clip-rule="evenodd" d="M86.2212 31.9144C83.0976 31.9144 80.6194 30.9687 78.7866 29.0773C76.9537 27.186 76.0296 24.5275 76.0142 21.1021C76.0142 17.7968 76.9383 15.163 78.7866 13.2008C80.6348 11.2386 83.1161 10.2559 86.2304 10.2528C86.9781 10.25 87.7252 10.2962 88.4668 10.3914C89.1073 10.4834 89.7415 10.6147 90.3659 10.7842C90.8945 10.9454 91.413 11.1383 91.9185 11.3618C92.4776 11.6021 92.9304 11.8238 93.2723 11.9856V16.9574H92.7456C92.4914 16.7356 92.1772 16.4953 91.7937 16.1626C91.3794 15.8273 90.9441 15.5186 90.4907 15.2385C89.9851 14.9319 89.4493 14.678 88.8919 14.4807C88.2979 14.2734 87.6728 14.1687 87.0437 14.1711C86.3348 14.1637 85.6304 14.2843 84.9644 14.5269C84.2838 14.8023 83.6719 15.2234 83.1716 15.7606C82.5963 16.3789 82.1599 17.1131 81.8916 17.9138C81.5391 18.9406 81.3701 20.0214 81.3926 21.1067C81.3611 22.2168 81.5366 23.323 81.9101 24.3689C82.2036 25.1688 82.6671 25.8955 83.2686 26.499C83.7813 27.0055 84.3999 27.3921 85.0799 27.6311C85.7187 27.8612 86.3924 27.9799 87.0714 27.9823C87.744 27.9845 88.4118 27.8688 89.0444 27.6403C89.5987 27.4516 90.129 27.1988 90.6247 26.8872C91.0562 26.6299 91.4672 26.3394 91.8538 26.0185C92.2096 25.7228 92.5191 25.4593 92.7779 25.2283H93.24V30.1216L91.9138 30.7269C91.4099 30.9542 90.8912 31.1471 90.3613 31.3045C89.7536 31.4904 89.1367 31.6446 88.513 31.7665C87.7363 31.883 86.9511 31.934 86.1657 31.9191L86.2212 31.9144ZM104.704 27.4139V24.1194L102.708 24.3412C102.194 24.3971 101.689 24.5182 101.206 24.7016C100.817 24.8265 100.472 25.0607 100.213 25.3762C99.962 25.732 99.8384 26.1616 99.8614 26.5961C99.8614 27.3354 100.055 27.8436 100.448 28.1162C100.973 28.4277 101.581 28.5727 102.19 28.5321C102.641 28.5272 103.085 28.4264 103.493 28.2364C103.942 28.0359 104.352 27.7575 104.704 27.4139ZM104.704 29.849C104.367 30.1308 104.066 30.3803 103.78 30.6068C103.448 30.8671 103.091 31.0917 102.712 31.2768C102.303 31.4803 101.876 31.6458 101.437 31.7712C100.869 31.9028 100.287 31.9602 99.7043 31.9421C99.0643 31.9628 98.427 31.8503 97.8328 31.6117C97.2386 31.3731 96.7005 31.0135 96.2526 30.5559C95.7955 30.0914 95.437 29.5392 95.1988 28.9325C94.9606 28.3258 94.8475 27.6772 94.8664 27.0257C94.8197 26.0339 95.0621 25.0499 95.5641 24.1933C96.0581 23.4446 96.7531 22.8505 97.5695 22.479C98.5703 22.0142 99.6387 21.7117 100.735 21.5827C101.964 21.4117 103.281 21.2823 104.695 21.1899V21.1021C104.728 20.7425 104.655 20.3811 104.485 20.0624C104.315 19.7438 104.055 19.482 103.738 19.3093C102.836 18.925 101.857 18.7543 100.878 18.8103C100.194 18.8266 99.5152 18.9322 98.8587 19.1244C98.0869 19.337 97.3318 19.6057 96.5992 19.9284H96.1833V16.1303C96.6454 15.9916 97.4494 15.8253 98.5352 15.6359C99.6135 15.4435 100.707 15.3476 101.802 15.3494C104.507 15.3494 106.477 15.7991 107.712 16.6986C108.95 17.6227 109.56 18.9766 109.56 20.8295V31.5355H104.732V29.8721L104.704 29.849ZM123.773 20.4552H123.367C123.103 20.3705 122.83 20.3193 122.553 20.3027C122.16 20.2657 121.765 20.2488 121.371 20.2519C120.824 20.258 120.28 20.334 119.753 20.4783C119.192 20.6234 118.64 20.8008 118.099 21.0097V31.5124H113.201V15.8022H118.131V18.0525C118.358 17.8492 118.667 17.5904 119.056 17.2808C119.398 17.0025 119.761 16.7507 120.141 16.5276C120.536 16.3005 120.952 16.1147 121.384 15.9732C121.818 15.8281 122.272 15.7517 122.729 15.7468H123.256C123.454 15.7468 123.635 15.7468 123.792 15.7883L123.773 20.4552Z" fill="black"/>
<path fill-rule="evenodd" clip-rule="evenodd" d="M139.165 17.0035C139.146 16.4078 139.062 15.816 138.915 15.2384C138.532 14.9981 136.952 15.0721 136.485 15.2061C136.316 15.2572 136.16 15.3419 136.025 15.4552C135.89 15.5685 135.78 15.708 135.7 15.8652C135.621 16.0224 135.574 16.1941 135.563 16.3699C135.551 16.5457 135.576 16.7219 135.635 16.888C135.806 17.1606 136.166 17.1051 136.587 17.1144C137.88 17.1514 137.876 16.8741 137.899 18.2649C137.391 18.6025 136.938 19.0154 136.554 19.4894C136.175 19.8683 135.963 20.6723 135.755 21.2591C135.321 22.5113 135.011 22.2156 134.831 22.8995C134.47 24.3688 134.415 28.6152 134.581 30.0337C134.654 30.7739 134.774 31.5086 134.942 32.2332C135.279 33.5131 134.738 33.4576 134.734 34.391C134.868 34.4973 134.983 34.562 135.159 34.696C135.418 37.0063 134.886 37.2882 138.426 37.2189C139.387 37.2189 140.343 37.2189 141.309 37.2189C141.813 37.2189 142.104 37.2189 142.289 36.7568C142.418 36.3482 142.491 35.9238 142.506 35.4954C143.291 35.2412 143.056 35.7125 143.892 35.1211C144.271 34.8577 144.973 34.9547 145.546 34.964L152.68 35.098C153.882 35.098 155.12 35.098 156.317 35.098C159.057 35.195 163.927 35.0055 167.014 34.9455C167.54 34.9455 168.312 34.8207 168.7 35.0702C169.781 35.7772 169.356 35.2227 170.133 35.4722C170.28 36.7614 170.239 37.1496 171.265 37.1773C172.29 37.205 173.233 37.1772 174.217 37.2004C177.71 37.265 177.216 37.0479 177.479 34.6775C177.655 34.5435 177.771 34.4788 177.905 34.3725C177.905 33.4807 177.364 33.4484 177.687 32.2655C178.223 30.2694 178.265 27.2937 178.062 25.256C177.992 24.5536 177.955 23.5925 177.821 22.9456C177.687 22.2988 177.322 22.4836 176.897 21.3007C176.708 20.7601 176.435 19.8359 176.116 19.5125C175.718 19.0282 175.251 18.6048 174.73 18.2557C174.73 16.8695 174.73 17.1421 175.973 17.1098C176.685 17.1098 177.382 17.2345 176.93 15.8345C176.569 14.7255 173.829 15.0998 173.695 15.2292C173.545 15.8062 173.459 16.3982 173.441 16.9942C173.344 16.9527 172.48 15.3816 172.332 15.146C171.916 14.4575 171.523 13.8938 171.08 13.2977C169.934 11.7359 168.769 10.0864 166.695 10.0633C166.233 10.0633 165.738 9.91538 165.309 9.86455C163.775 9.69359 157.606 9.45797 156.275 9.49031C153.84 9.555 149.663 9.63357 147.302 9.85999C146.84 9.90157 146.378 10.0448 145.916 10.0633C143.767 10.1511 142.857 11.4125 141.457 13.2977C141.027 13.8845 140.625 14.4575 140.228 15.109C140.089 15.3401 139.193 16.9573 139.096 17.0035H139.165ZM146.849 24.7893C145.888 25.4223 144.733 25.219 143.448 25.182C142.409 25.1543 136.979 24.8032 136.337 24.5167C135.792 24.2718 136.069 23.6249 136.143 23.0473C136.217 22.4697 136.217 21.8922 136.605 21.6288C138.042 20.6769 141.743 20.4413 143.213 20.8063C144.137 21.0327 144.839 21.9892 145.301 22.5852C145.87 23.2791 146.385 24.016 146.84 24.7893H146.849ZM144.756 30.3618C144.821 30.5374 144.613 30.6298 144.437 30.8239C144.288 30.9684 144.149 31.1228 144.021 31.286C142.275 33.356 143.028 33.2636 140.907 32.9956C140.057 32.8893 138.818 32.6906 138.236 32.2609C137.654 31.8312 137.058 30.0337 138.162 30.0337C139.465 30.0337 140.394 30.2093 141.595 30.2555C142.192 30.2555 144.368 30.2555 144.756 30.3803V30.3618ZM153.891 29.8212C156.1 29.6687 158.683 29.8212 160.933 29.8535C163.654 29.9043 165.091 29.701 166.792 31.1473C167.389 31.7607 167.909 32.445 168.34 33.185C168.76 33.8134 168.307 33.9567 167.656 33.9705C167.004 33.9844 166.533 34.0121 165.942 34.0213C163.571 34.0537 161.252 34.1091 158.877 34.1322C157.638 34.1322 145.819 34.1045 144.617 33.9566C143.901 33.8689 144.303 33.2405 144.53 32.9032C145.347 31.6833 145.722 31.0087 147.219 30.3018C148.716 29.5948 151.992 29.9552 153.891 29.8397V29.8212ZM167.919 30.3618C168.072 30.3018 172.217 30.1677 172.887 30.1123C173.691 30.0476 174.906 29.7842 175.063 30.3803C175.125 30.716 175.101 31.062 174.991 31.3856C174.882 31.7091 174.692 31.9993 174.439 32.2285C173.836 32.5694 173.169 32.7832 172.48 32.8569C171.717 32.994 170.944 33.0636 170.17 33.0649C169.999 33.0094 168.816 31.3876 168.423 30.9625C168.03 30.5374 167.859 30.5559 167.933 30.3479L167.919 30.3618ZM165.831 24.7893C166.292 24.0026 166.814 23.2533 167.393 22.5483C167.855 21.9522 168.562 21.0327 169.453 20.8063C170.663 20.6367 171.89 20.6196 173.104 20.7555C174.25 20.9126 175.248 21.0882 176.061 21.6288C176.468 21.8968 176.468 22.5252 176.523 23.1074C176.578 23.6896 176.874 24.3133 176.273 24.5351C175.497 24.8216 170.267 25.1543 169.144 25.182C167.868 25.219 166.76 25.4177 165.812 24.7893H165.831ZM152.431 24.3272C153.775 24.2302 155.411 24.4058 156.65 24.3272C158.036 24.2302 159.561 24.3272 160.933 24.3272C164.408 24.378 164.329 24.1378 163.705 25.3207C163.081 26.5036 161.977 26.3464 160.378 26.3464C157.449 26.3464 154.533 26.3464 151.599 26.3464C149.885 26.3464 149.256 26.1894 148.73 24.8771C148.476 24.2441 148.776 24.3596 150.231 24.3596C150.901 24.3596 151.77 24.3596 152.426 24.3596L152.431 24.3272ZM140.112 17.1606C140.038 16.5599 141.692 13.9677 142.053 13.4086C142.416 12.8383 142.817 12.2933 143.254 11.7775C143.763 11.1722 144.151 10.9412 145.227 10.8534C148.924 10.6223 152.546 10.2804 156.34 10.3913C158.267 10.4421 160.189 10.4421 162.097 10.5022C163.867 10.553 165.669 10.761 167.448 10.8719C168.575 10.9412 168.927 11.1861 169.453 11.796C170.234 12.7201 172.66 16.3566 172.563 17.1421C172.101 17.484 171.32 17.2668 170.673 17.2068C168.261 16.9988 167.041 17.0682 164.639 17.0312C159.043 16.9526 153.628 16.9526 148.041 17.0312C145.588 17.0682 144.396 16.9989 141.933 17.216C141.3 17.2853 140.574 17.5164 140.112 17.156V17.1606Z" fill="#2B7F2F"/>
</svg>
