<svg width="1158" height="624" viewBox="0 0 1158 624" fill="none" xmlns="http://www.w3.org/2000/svg">
<path fill-rule="evenodd" clip-rule="evenodd" d="M105.353 407.928L70.1085 457.961L133.239 582.075C133.239 582.075 166.813 575.876 167.068 574.345C167.339 572.716 187.38 555.336 190.146 554.953C191.859 554.716 210.669 549.506 216.51 550.271C221.537 550.929 239.783 565.751 239.361 566.173C238.099 571.474 242.683 576.774 247.107 582.075C249.389 587.724 250.961 590.53 252.529 593.323C259.035 594.69 262.346 593.824 267.707 590.871L268.022 437.793L339.673 414.134L410.758 471.47C410.758 471.47 433.014 501.013 435.338 501.013C437.661 501.013 465.5 495.105 465.5 495.105C465.567 495.016 503.147 497.067 502.568 498.228C500.973 501.427 515.345 490.518 515.345 490.518C521.455 497.005 526.979 503.687 534.077 509.844L541.459 527.388L549.569 520.86L546.494 563.07H561.212C561.212 563.07 562.782 578.56 562.761 581.687C562.734 585.758 565.86 598.753 565.86 598.753C565.86 598.753 580.893 600.944 585.225 598.753C589.713 596.483 602.214 598.255 601.104 597.977L606.914 604.571C605.352 607.112 602.985 609.193 603.815 613.103C604.091 614.759 616.444 626.528 618.92 620.86C620.442 617.379 617.546 611.552 617.371 611.552C616.291 608.168 622.827 605.732 622.406 604.958C621.84 603.916 624.559 596.46 630.152 596.426C633.177 596.407 630.152 587.117 632.863 587.117C635.575 587.117 639.835 582.851 639.835 582.851L649.13 576.257C652.716 575.722 656.156 575.095 656.876 572.766C656.876 572.766 662.14 571.024 663.461 568.112C669.696 554.367 671.095 561.123 675.854 561.519C672.567 559.093 681.503 551.846 685.15 552.986C686.629 553.448 680.889 549.883 680.889 549.883C681.297 550.495 687.057 545.93 685.924 543.289C684.435 539.816 687.887 536.675 689.797 537.472L692.121 532.042L697.156 530.102L702.191 530.49C702.972 528.58 710.715 531.576 714.972 530.878C717.17 530.518 732.605 533.25 731.626 535.532C732.409 534.053 735.896 536.161 736.661 540.575C736.926 542.103 744.069 539.524 747.586 540.402C751.102 541.281 750.992 545.617 750.992 545.617L754.865 546.004C756.058 545.645 753.238 540.02 753.352 537.307C753.467 534.593 754.872 532.048 756.163 527.975C757.726 523.049 756.35 519.862 756.915 519.862L764.089 516.892C774.507 511.778 782.048 512.245 786.624 518.467C794.14 524.645 798.255 524.693 804.052 527.775L815.672 528.939L819.815 523.05L840.072 525.448L852.466 522.345L857.888 525.06C857.888 523.332 878.415 525.543 880.739 527.388C882.658 528.911 895.069 526.404 895.069 526.404L908.332 531.587L913.66 530.49C913.562 533.423 913.576 536.213 915.984 535.92C915.984 535.92 918.308 539.799 919.857 540.575C921.406 541.35 920.017 544.365 921.406 543.677C924.468 542.162 936.711 543.865 936.124 544.453C935.25 545.328 942.531 558.593 943.87 556.089C944.623 554.679 940.384 537.472 940.384 535.532C940.384 533.593 943.549 528.504 943.549 528.504C948.515 528.743 950.224 526.536 952.39 524.672C952.39 524.672 944.777 522.369 946.326 520.817C947.876 519.266 955.102 515.364 955.102 515.364L958.975 517.691C958.249 503.082 950.602 488.198 946.26 473.589L946.581 460.676C946.581 460.676 946.606 457.552 946.581 454.083C946.559 451.089 951.437 451.289 950.227 448.88C948.377 445.197 941.268 445.119 941.268 445.119C941.268 445.119 937.286 448.265 935.736 446.714C934.187 445.162 931.914 441.719 931.914 441.719C935.245 439.06 936.946 435.423 945.419 435.854C948.53 433.089 954.295 431.205 963.294 430.15C969.733 429.395 975.702 426.343 981.051 423.83C984.297 419.28 990.583 433.738 991.121 431.975C992.024 429.018 1002.14 427.294 1005.84 432.751C1005.84 432.751 1012.81 425.382 1010.1 421.115C1007.39 416.849 1001.19 419.564 1000.42 415.685C999.642 411.807 1004.29 405.989 1004.68 403.662C1005.06 401.335 1008.55 384.269 1008.55 384.269C1008.55 384.269 1013.97 371.082 1015.13 367.591C1016.3 364.101 1019.39 356.344 1019.39 356.344C1020.57 352.001 1017.73 342.933 1024.43 345.096L1047.28 355.956C1050.89 353.81 1058.34 354.464 1065.87 355.18C1065.87 355.18 1068.84 365.999 1070.52 362.549C1073.23 356.99 1087.17 350.713 1087.17 351.689C1088.67 352.333 1100.01 339.139 1095.31 338.89C1092.56 338.744 1089 323.815 1089.5 319.885C1089.88 316.807 1095.02 299.665 1094.53 297.39C1093.91 294.478 1101.76 292.774 1108.77 293.691C1112.85 294.225 1117.65 288.592 1120.87 287.305C1125.52 285.445 1125.42 275.33 1124.35 273.343C1120.68 266.482 1134.36 262.35 1140.62 267.525C1144.8 270.982 1137.14 259.38 1137.14 259.38C1137.14 259.38 1132.47 256.245 1130.55 257.053C1128.35 257.978 1124.91 249.336 1125.13 248.908C1124.14 247.05 1122.15 246.205 1119.71 245.805C1120.06 244.819 1119.64 243.444 1122.03 243.478C1124.18 242.702 1124.78 241.926 1125.13 241.151C1125.48 238.603 1124.25 237.637 1122.42 237.272C1121.13 236.467 1119.84 236.391 1118.54 239.211C1117.93 242.447 1116.36 244.598 1112.84 244.551C1110.78 242.256 1110.28 252.444 1109.25 251.623C1107.68 250.374 1095.65 246.728 1094.92 246.581C1090.85 243.583 1086.16 244.909 1081.36 246.969C1082.08 240.277 1077.83 235.006 1074.3 230.839C1074.84 229.539 1077.77 227.973 1075.55 225.637C1069.9 223.61 1066.92 219.355 1057.35 220.594C1057.21 221.103 1051.16 213.917 1052.32 207.407C1053.39 201.351 1048.76 201.046 1046.91 200.15C1044.36 198.907 1047.28 194.608 1047.28 194.608C1041.47 191.732 1035.66 188.075 1029.85 187.239C1025.75 186.152 1025.04 187.697 1024.13 189.093C1022.72 190.368 1023.51 192.603 1016.68 191.505C1008.06 188.738 1010.18 196.127 1007.39 198.875C1007.39 197.158 991.184 197.093 996.156 200.038C999.293 201.897 986.403 195.974 981.826 196.547C981.693 198.343 978.996 198.037 974.854 196.547C978.421 185.532 971.491 188.262 965.946 189.178C965.495 185.408 971.213 176.302 963.622 178.706L958.114 175.211C955.542 172.367 953.893 175.994 952.003 177.93C949.534 178.262 945.53 177.399 949.292 182.585L948.13 189.178C943.236 191.185 936.785 192.802 938.835 196.547C938.835 196.547 902.041 132.164 899.717 127.509C897.393 122.855 883.063 101.523 883.063 101.523L872.218 86.0088L838.135 62.7375C839.92 62.7375 835.156 55.8462 836.379 54.6827C838.262 52.8905 843.116 57.5996 845.107 55.7562C847.01 53.9939 849.153 48.0858 848.205 47.6112C848.58 44.8735 847.725 43.0592 846.656 41.4055C844.298 43.6864 842.58 46.3515 838.523 47.6112H830.777V51.4898C823.064 52.6106 819.549 55.6 814.897 58.0833L810.637 56.5319C807.81 56.7728 805.957 57.5988 806.764 60.0226C807.745 61.1042 809.913 62.0868 806.764 63.5133C805.222 62.6821 797.863 71.1549 797.856 70.8825C797.758 67.2248 788.173 68.9432 788.173 68.9432C787.521 70.9302 788.372 73.1052 785.074 74.761C782.514 73.6776 780.904 73.8312 781.976 77.476C780.706 76.7224 782.136 81.2288 781.976 83.6817C781.726 87.5099 774.277 78.7532 774.277 78.7532C772.325 76.6943 770.372 77.5031 768.42 77.476C763.467 75.2715 761.723 77.8881 758.738 78.6396C758.738 78.0472 753.69 86.2674 753.315 84.4574C752.607 81.0326 748.917 80.7782 748.28 79.8031C746.402 76.9255 748.438 77.7052 749.348 74.761C749.804 73.2875 751.755 64.2002 757.188 67.3918L759.9 68.1675C759.97 64.1404 761.506 61.8758 763.385 60.0226C761.356 60.6226 757.33 54.6504 757.576 62.7375C752.826 63.8249 748.356 62.5943 742.929 62.3262L741.696 58.0833C739.25 55.7882 735.044 56.4307 731.626 55.7562L728.528 58.4711C734.404 59.9731 734.123 62.0623 732.401 64.289C728.908 62.9048 729.762 64.4235 729.302 65.0647C727.336 65.0457 723.698 65.9398 725.429 63.9011C724.356 61.627 725.114 60.4535 725.817 59.2468C728.378 59.5842 725.918 56.6897 723.493 53.8169L724.655 51.1019C720.992 49.1723 719.643 46.7792 717.683 44.5084L715.747 45.6719C716.482 48.2576 714.581 50.8433 719.233 53.429C719.154 54.9016 719.065 56.3642 716.134 54.9804C705.052 47.5059 707.195 52.8342 706.451 55.3683C705.965 57.9559 702.838 57.5677 699.48 56.9197C697.357 51.6557 694.146 52.6594 690.572 55.7562C688.816 56.5806 687.797 51.8282 685.381 48.6847C685.381 48.6847 692.898 49.0623 691.347 46.8355C687.877 41.8547 693.352 31.8326 693.67 33.6484C694.182 36.5722 684.062 27.5867 685.537 16.9707C685.926 14.1669 678.077 8.84018 680.889 8.43789C679.757 6.23731 677.669 6.19134 675.08 7.27432C672.48 4.87123 666.738 11.8802 664.165 13.0216C658.005 15.7538 651.144 5.59129 651.72 6.7453C648.57 5.8321 644.749 2.3994 642.933 6.49862C640.036 0.743004 638.173 3.27114 636.349 6.11076C634.375 1.209 630.822 2.2389 627.441 2.62007C628.678 4.67054 629.894 6.71406 628.99 8.05003C626.68 4.95701 624.276 2.70788 621.244 6.11076L619.695 11.5407C615.337 12.0061 608.1 8.54088 607.301 13.8679C607.301 13.8679 613.885 13.48 611.562 16.9707C609.238 20.4614 605.365 22.4007 605.365 22.4007C605.066 21.7265 595.488 18.0569 595.295 24.7278C595.259 25.973 588.236 21.4942 583.617 25.8757C580.88 28.472 570.331 29.3581 569.345 30.1577C561.939 31.9809 555.261 31.6173 546.882 36.3634C545.087 28.2705 541.108 33.736 537.586 36.3634C532.839 34.4663 528.848 35.8505 525.192 38.6906C523.258 41.7934 524.282 44.8962 525.58 47.9991L520.932 48.7748C518.374 44.235 515.266 42.9993 511.25 47.2234C505.387 47.6522 499.112 47.9988 494.983 48.7748C493.266 49.4796 488.053 47.656 492.272 52.6533L485.687 54.2047C485.335 48.857 478.868 51.8183 473.681 53.0412C470.379 53.7517 467.511 54.8429 467.097 58.0833L457.414 57.3076C454.669 55.2653 445.832 61.6681 451.604 67.3918C454.215 69.9807 444.911 61.5504 444.911 61.5504C441.312 61.9661 436.782 57.4097 434.176 63.1254L427.979 62.7375C424.014 59.3587 422.096 62.1287 419.458 62.7375C417.576 61.7699 416.805 60.5798 416.747 59.2468L412.099 62.7375C409.942 63.7021 403.327 63.0723 410.55 67.3918L414.036 68.5554C413.334 67.7523 411.12 72.7533 409.388 74.761C407.11 77.4029 403.579 73.9853 403.579 73.9853C405.198 76.0988 406.033 79.7827 409.69 77.8168C409.846 76.9299 410.705 82.4961 413.261 80.5789C416.209 78.368 424.647 78.4757 424.106 80.191C423.587 81.1263 423.138 83.2882 421.395 84.4574C417.95 86.6677 416.312 84.3556 414.239 83.1332C412.728 84.2873 411.153 85.4013 412.487 88.3359C412.487 88.3359 410.617 93.4233 415.585 92.6023C417.879 92.2233 421.587 93.3883 424.756 95.4305C427.58 97.2508 430.69 96.8688 430.69 96.8688C433.401 97.291 436.112 97.7603 438.823 99.9716C438.391 101.824 438.938 104.166 436.5 105.014L425.655 104.238C425.022 103.128 416.184 101.699 416.36 105.402C416.452 107.339 411.188 102.158 411.188 102.158C407.315 106.036 402.099 112.155 399.569 113.793C398.451 114.745 397.507 115.783 398.544 117.813C400.253 119.485 403.427 118.712 403.191 123.631C407.279 125.721 408.027 129.484 410.163 132.551C402.763 133.51 399.835 136.459 395.445 138.757C390.86 139.838 386.09 140.749 385.763 145.738C382.595 144.985 378.769 143.383 378.016 145.738L380.728 151.168C391.444 151.2 396.1 152.984 390.41 157.762L394.283 160.477H405.902C405.575 163.018 404.064 165.651 408.226 167.846L418.296 167.07C420.428 169.351 421.451 170.798 424.88 174.052L426.43 176.767L423.331 179.094L417.909 194.608C416.542 193.364 397.028 203.182 398.544 203.529C400.654 204.011 384.379 197.324 383.051 198.875C383.101 194.145 383.242 189.222 377.242 197.323C376.852 199.78 376.679 202.236 374.531 204.692L368.721 207.795C368.721 207.795 361.133 209.392 363.299 208.183C373.828 202.306 358.138 201.261 355.94 201.977L346.645 198.875C344.154 198.875 336.334 189.268 340.835 188.402C346.189 187.373 338.606 182.395 334.638 182.197C335.014 180.218 329.596 179.094 329.926 182.16C330.044 183.266 330.695 185.059 329.603 184.912C327.169 184.583 314.716 180.51 315.273 184.136C317.368 191.294 315.916 192.681 312.174 190.342C309.474 195.635 305.001 187.913 301.33 186.075C290.462 182.329 284.383 182.341 287 189.178C287 189.178 282.658 178.393 281.19 183.748C279.474 190.008 276.252 192.476 275.768 191.505H272.669L271.12 199.65C267.023 201.454 262.599 203.011 259.888 205.856C260.792 203.001 245.044 199.333 248.269 201.977C249.779 203.215 235.437 185.058 233.551 185.687C231.134 186.203 227.806 185.883 227.018 188.193L232.002 192.281C229.862 196.841 230.932 200.437 232.39 203.917C232.107 204.539 224.005 211.219 224.643 203.141C224.864 200.353 222.701 199.052 224.256 197.323C228.234 192.899 225.245 191.903 221.545 191.505C219.471 191.283 216.51 185.687 216.51 185.687L212.637 181.033C213.052 176.879 208.419 179.182 204.891 176.767C199.225 172.888 201.66 170.248 201.73 170.177C200.105 166.118 195.609 166.915 194.309 167.096C190.514 166.382 186.472 165.482 185.502 166.89C184.728 167.331 179.147 168.004 177.768 166.033C176.482 164.197 175.814 174.247 171.105 167.799C170.672 167.206 167.524 156.5 166.935 156.598C166.748 149.73 160.801 156.961 157.64 157.374C155.394 156.175 146.927 162.797 152.217 166.295C154.57 167.85 142.922 166.683 140.598 166.683C138.274 166.683 131.505 165.156 134.789 164.743C144.185 163.563 138.325 157.912 133.239 156.986L127.042 158.15C120.124 149.955 122.382 155.545 123.944 160.089C122.898 161.162 124.431 163.096 120.458 163.192C118.909 155.059 117.36 161.32 115.811 167.846C111.879 167.782 110.262 170.904 109.226 174.828C108.412 173.874 98.44 177.827 96.4453 182.197C95.0694 185.211 89.1416 179.548 89.1416 181.045C81.7018 182.687 82.5357 187.968 84.7402 193.123C78.3825 194.945 72.8964 197.204 70.8831 201.202C63.8348 203.327 63.3932 201.589 63.5243 204.434C61.9852 204.048 67.9755 224.375 70.4958 226.541C73.2901 228.943 56.735 236.647 54.1391 235.352C51.1577 233.866 49.5376 224.81 46.4829 223.697C46.4829 223.697 41.0606 212.837 37.9622 210.898C34.8637 208.959 34.0891 208.571 34.0891 208.571C31.6614 211.068 32.0136 216.627 26.343 215.552C23.6301 219.572 25.1759 223.979 26.343 228.352L15.4985 236.109L12.7873 255.889C21.6926 261.061 22.2765 267.622 9.30158 276.445L2.33008 295.062L20.1461 300.105C20.7084 307.215 19.3142 314.326 22.47 321.437L26.7303 324.927C29.4509 324.434 28.2175 321.678 28.6669 319.885L34.0891 320.661C35.4271 323.597 43.0313 321.513 47.6448 321.824L58.8767 336.951C62.6196 341.477 65.0886 347.279 68.172 352.465L73.2029 364.806C73.2402 366.696 71.7375 366.823 69.2212 365.79L65.0736 366.816C62.6826 364.411 59.9701 360.396 60.0386 370.306C61.9079 373.263 63.4756 373.501 64.9836 373.201L81.7277 381.554L99.1564 397.456L105.353 407.928Z" fill="white" stroke="#E5E5E5" stroke-width="3" stroke-linecap="round" stroke-linejoin="round"/>
<path d="M1141.97 268.073C1143.36 266.945 1143.94 265.06 1146.44 264.963C1148.17 264.665 1150.32 263.011 1151.93 263.509L1154.27 263.844C1153.89 265.859 1154.37 268.164 1154.76 270.436L1154.64 272.924C1152.88 272.62 1151.9 273.043 1151.66 274.167C1151.43 275.204 1151.36 276.183 1152.28 276.779C1153.24 278.534 1154.28 280.218 1156.38 281.008" stroke="#E5E5E5" stroke-width="3" stroke-linejoin="round"/>
<path d="M1154.07 263.916L1156.81 263.51" stroke="#E5E5E5" stroke-width="3" stroke-linejoin="round"/>
<path d="M289.289 430.611C286.496 417.338 285.608 396.529 280.566 391.502L272.648 391.099L266.877 387.47L262.314 386.664L260.167 380.078L255.604 379.675C254.471 378.239 253.882 375.17 252.114 375.643L246.612 380.213L235.742 381.422L223.261 382.094L216.685 380.75L212.122 381.019L211.316 383.169L209.169 389.217L205.411 392.846C203.846 394.425 202.28 395.117 200.714 395.265L182.462 394.593" stroke="#E5E5E5" stroke-linejoin="round"/>
<path d="M280.565 391.905L279.491 384.782C275.627 381.447 276.252 377.549 274.929 373.896C274.929 373.896 262.385 369.706 261.642 369.864C259.293 370.364 252.244 366.008 252.785 365.698C252.785 365.698 248.088 360.994 247.819 360.457C247.551 359.919 240.438 346.614 240.438 346.614L240.841 338.819L243.122 319.869C243.8 314.71 241.601 312.433 240.304 309.252C237.851 305.749 239.336 303.231 239.499 300.382C234 294.486 238.014 292.823 238.291 289.496C239.347 287.077 237.926 284.658 237.351 282.239C235.951 281.613 233.129 282.128 233.325 280.223L230.373 278.342C227.771 279.109 227.72 282.859 227.152 286.002C222.325 284.162 216.799 280.455 212.926 281.164L211.181 263.693L208.9 264.633C207.17 264.004 205.255 263.259 200.714 260.87L197.627 264.365L194.809 268.531L188.233 269.875L180.583 268.128C177.594 270.325 177.128 273.154 176.959 276.057L173.202 284.792C171.7 286.081 172.514 288.363 173.47 290.706L167.028 291.915C160.244 289.288 156.29 289.494 150.924 288.287C151.487 286.826 150.535 284.986 149.716 283.18C147.553 282.448 143.549 282.085 139.651 281.701C128.862 287.969 117.804 294.102 108.381 301.054C105.921 304.348 103.46 305.817 101 307.774C95.4527 309.721 89.9056 309.854 84.3585 310.059L85.2979 313.553C74.1508 310.27 63.0986 307.13 53.3573 305.96C39.7409 302.232 30.7617 302.726 20.8799 302.398" stroke="#E5E5E5" stroke-linejoin="round"/>
<path d="M200.379 260.904C201.325 258.977 202.547 257.417 202.751 254.252C202.911 252.684 203.993 251.393 201.802 249.12C201.802 249.12 205.883 246.269 207.971 245.509C210.058 244.748 217.081 245.699 217.081 245.699C217.081 245.699 216.322 248.93 218.409 247.98C220.497 247.029 225.052 244.748 225.052 244.748C225.707 244.561 224.695 243.391 223.344 242.468C221.658 241.315 224.651 236.898 225.527 236.386C226.346 235.907 229.038 229.163 227.899 227.643C226.76 226.122 223.913 224.892 223.913 222.511C223.913 222.511 224.103 216.239 224.483 214.909C224.862 213.578 225.811 207.116 225.811 207.116" stroke="#E5E5E5" stroke-linejoin="round"/>
<path d="M547.985 545.902L551.402 545.427C565.332 533.791 579.401 522.252 595.813 512.356C596.372 512.356 598.084 509.03 596.003 507.7C594.814 506.939 594.675 505.799 594.39 504.849C594.105 503.899 595.149 501.238 595.149 500.477C595.149 499.717 598.722 497.859 597.616 496.961C595.86 495.536 597.75 489.834 597.806 489.834L601.412 492.4C601.412 492.4 601.697 482.802 601.887 482.231C602.076 481.661 604.354 479.19 604.354 479.19L602.076 476.72L597.616 473.584C595.848 472.947 595.968 470.419 595.623 468.357C593.077 467.572 590.591 466.941 587.557 464.936L587.842 459.234L588.032 437.472L588.696 430.914L584.331 430.439L579.491 426.448L578.827 423.027L580.155 420.081C582.511 415.931 581.547 411.782 582.243 407.632L583.951 405.351L582.812 402.405C579.952 402.067 580.182 399.517 578.922 398.034C578.922 398.034 578.827 391.477 578.447 391.096C578.068 390.716 577.498 389.481 577.498 389.481C573.924 388.763 571.131 389.35 568.293 389.861L535.744 388.911C530.843 384.694 525.401 381.291 521.414 375.701L517.903 376.177L500.157 366.768L485.069 361.352C477.601 358.373 477.604 359.134 473.871 358.026C473.275 358.026 465.041 350.043 465.235 350.423C465.512 350.965 454.607 352.989 454.607 352.989C452.982 350.75 457.264 349.694 458.593 348.047C456.679 347.485 455.075 347.387 452.709 346.147L451.191 340.065L444.548 331.512L441.416 331.322C438.912 327.25 437.399 323.089 432.306 319.253C426.612 319.442 421.046 319.887 415.604 320.583L406.399 345.196C404.309 346.718 399.661 346.208 399.377 345.767C398.963 345.122 389.698 343.486 389.698 343.486C389.37 347.932 389.039 352.381 388.464 357.075L381.442 357.931C370.074 370.353 360.165 383.14 351.834 396.323C347.121 397.4 344.084 398.477 342.914 399.554C340.837 404.257 339.678 409.265 339.118 414.474" stroke="#E5E5E5" stroke-linejoin="round"/>
<path d="M458.117 347.958C465.714 342.33 472.699 336.242 481.2 331.293C487.443 326.692 494.103 322.439 498.915 316.644C493.214 314.094 491.837 309.62 490.595 305.086C491.306 305.442 485.252 293.948 481.335 292.05C480.809 291.795 464.156 284.066 464.156 282.911L465.096 276.863C464.317 276.03 465.014 274.951 461.472 274.579L458.117 277.132C452.504 273.689 449.32 268.748 446.978 263.289L444.563 261.542L444.294 259.795L449.662 260.198C449.33 256.264 446.101 253.489 443.355 250.522L446.71 242.189C446.71 242.189 450.468 239.77 450.602 238.964C450.736 238.158 451.004 236.545 451.004 235.739C451.004 234.932 455.567 230.766 455.567 230.766C456.971 232.171 458.474 232.88 460.13 232.513L461.07 229.288L451.944 213.429C449.337 210.428 448.075 207.426 447.247 204.425L445.502 198.511L440.805 200.258L440.268 196.63C440.268 196.63 441.744 194.883 442.281 194.076C442.818 193.27 446.576 192.598 446.576 192.598C446.576 192.598 440.939 188.566 440.939 187.088C440.939 185.609 440.402 182.384 440.402 182.384L438.121 180.771L437.45 181.174L434.9 183.594C434.005 183.918 433.11 182.141 432.216 180.368C432.434 179.003 434.109 178.262 432.082 175.933L430.471 173.514L425.774 177.008" stroke="#E5E5E5" stroke-linejoin="round"/>
<path d="M682.775 550.222C682.239 549.953 679.018 543.771 679.018 543.771C678.564 544.095 675.02 542.718 676.065 541.62C677.281 540.344 673.179 538.329 673.113 538.395C672.146 538.468 671.485 539.342 668.281 533.557C668.281 534.593 661.921 531.187 662.913 530.734C664.893 529.831 664.729 522.914 663.853 522.94C663.853 522.94 659.836 517.352 660.095 516.489C660.45 515.303 658.703 512.482 657.679 512.994C655.667 512.311 653.152 512.004 651.774 510.844C646.302 511.126 644.703 507.853 643.454 504.259C643.016 503.273 642.649 502.288 642.917 501.302C645.135 497.983 646.647 494.765 647.614 491.626C648.927 487.993 650.514 484.542 649.761 479.53L653.116 473.348V468.51C649.802 457.579 648.315 446.648 646.54 435.718C646.646 435.698 642.886 423.174 641.44 422.278C640.46 421.671 638.793 410.6 637.683 410.183V405.748C634.342 402.522 632.392 399.297 631.375 396.071H578.767" stroke="#E5E5E5" stroke-linejoin="round"/>
<path d="M818.187 524.955C814.677 524.446 812.031 520.042 809.196 516.489C806.923 517.753 803.978 509.536 805.035 507.484C805.784 506.031 808.122 502.377 808.122 502.377C807.873 501.703 807.838 500.06 806.109 498.345L798.191 495.926C796.096 494.941 797.135 493.955 797.386 492.97C800.108 490.95 803.895 489.464 803.962 486.115L806.243 473.482L791.615 462.462L788.26 463.268C786.616 462.919 784.99 462.449 783.697 459.64C782.405 456.954 782.995 455.211 783.026 453.189L784.1 450.232C782.071 447.224 780.575 447.419 778.866 446.335C777.254 444.231 774.691 443.079 772.021 442.034L769.606 440.421C771.643 437.448 771.341 433.89 770.545 430.207C770.545 430.207 767.324 419.59 767.324 419.053C767.324 418.515 766.116 408.435 766.116 408.435C766.601 403.997 767.402 399.716 770.008 396.34L631.107 395.937" stroke="#E5E5E5" stroke-linejoin="round"/>
<path d="M1000.16 415.63L996.689 415.233C995.736 413.949 996.045 410.771 996.093 407.983C989.332 398.578 983.806 389.42 978.342 380.275C980.178 378.338 980.552 376.109 981.118 373.919C978.052 374.49 976.01 376.086 973.68 377.395C970.449 373.923 963.519 371.068 953.945 368.655L942.738 363.987C942.371 362.299 941.286 360.611 939.069 358.922L936.491 358.525C932.1 359.805 928.452 361.383 925.383 363.193L919.234 363.094L911.697 350.381C909.36 352.595 903.823 352.006 899.598 352.566C899.642 348.874 897.824 348.165 895.235 348.693C892.049 346.605 888.423 343.193 885.714 342.536L881.053 347.005C879.259 345.371 877.73 345.066 876.193 344.721C875.854 345.846 874.88 346.972 873.218 348.097C870.706 347.177 868.193 345.971 865.681 346.31L866.276 369.152C863.199 371.377 860.585 372.213 857.747 373.72L849.516 373.422C845.288 372.81 840.341 372.143 835.334 369.549L832.161 369.35C828.855 366.801 824.061 367.535 820.756 366.867C816.912 365.992 812.497 366.261 807.863 366.967C800.818 368.005 793.326 373.956 786.045 377.593C780.208 383.922 772.063 390.096 769.781 396.661" stroke="#E5E5E5" stroke-linejoin="round"/>
<path d="M865.51 346.432C865.205 348.896 861.946 347.907 858.677 346.907C857.509 349.333 856.441 351.884 852.319 350.613C852.319 351.825 847.094 346.027 846.72 345.101C846.128 343.636 847.961 342.388 848.048 342.44L848.523 336.739C848.523 336.739 853.383 336.125 852.699 336.358C851.243 336.855 852.645 327.366 852.983 327.14C851.625 324.99 853.539 320.498 853.837 317.162L857.064 312.506C857.835 310.967 860.579 310.614 862.473 309.75L858.962 307.849L855.735 308.324L853.553 306.139L853.268 303.288C853.418 303.288 857.165 302.147 856.684 302.147C856.305 302.147 856.494 300.057 856.494 300.057C854.787 300.752 853.859 300.669 852.888 300.627C850.799 299.361 848.458 298.348 847.574 295.875C847.592 293.564 850.347 292.819 851.939 291.409H855.64L860.006 286.277C860.971 283.839 861.631 281.432 860.1 279.245L854.596 279.055L850.611 280.48C848.54 278.715 847.146 276.543 846.34 274.018L853.363 269.266L842.924 259.573C840.542 257.197 839.328 254.822 839.223 252.446C844.446 251.029 848.833 249.11 852.793 246.934C855.279 246.624 856.434 244.792 857.159 242.468C857.22 239.997 857.374 237.526 856.21 235.055L856.969 231.919L866.079 227.548C868.372 224.845 871.93 222.488 871.678 219.09L874.24 219.185L874.525 221.276C880.84 224.02 886.909 226.518 891.227 227.263L895.877 225.362C897.933 223.453 900.608 221.7 901.76 219.565C901.76 219.565 901.765 216.984 902.424 216.049C903.11 215.077 899.676 209.914 898.534 209.587C898.785 205.989 899.793 202.088 898.913 198.943L893.599 194.192C892.435 194.325 889.567 192.752 887.241 191.721L883.065 184.309C883.065 184.309 882.712 183.068 882.781 182.598C883.126 180.221 889.281 177.254 889.139 178.036L893.314 178.512C897.934 175.758 901.765 171.426 905.936 167.773C905.936 167.773 907.074 169.579 907.074 169.199C907.074 168.818 914.666 162.356 914.666 162.356L916.374 156.654" stroke="#E5E5E5" stroke-linejoin="round"/>
<path d="M871.595 219.255L869.484 216.704C871.625 213.358 870.066 211.102 869.048 208.686C867.392 208.244 866.291 207.108 865.408 205.698C862.385 204.808 861.042 205.602 859.295 205.989C858.161 203.498 855.062 202.32 852.89 200.523C851.264 200.912 849.149 201.055 848.595 201.981L846.121 204.532C845.272 206.573 844.422 208.52 843.573 211.31C842.512 212.404 843.747 213.754 844.301 215.027C843.435 216.864 842.224 217.862 840.007 216.412C837.599 214.856 835.471 216.667 833.238 217.214C831.144 220.571 828.902 219.503 826.615 217.068L819.919 220.494C815.382 220.87 810.845 221.033 806.308 221.223C802.865 223.362 798.391 224.882 796.701 228.074L794.59 228.147L792.261 223.118C793.886 222.461 795.389 221.561 796.628 220.13L799.612 220.057L800.704 218.453L795.39 210.363C793.341 210.656 790.721 208.24 790.805 207.885C790.913 207.43 786.656 208.103 786.656 208.103C784.741 206.937 784.763 205.188 786.729 202.855L786.22 201.616C783.866 201.953 781.513 202.112 779.16 201.106L768.169 202.928C765.048 202.475 765.325 199.418 765.404 196.514C766.323 195.311 766.091 193.53 768.388 193.016C770.242 191.291 768.797 189.566 768.315 187.841C769.151 184.723 769.825 181.573 768.752 178.074C764.159 177.998 761.735 176.474 758.78 175.304C758.78 175.304 760.818 172.097 761.037 171.66C761.255 171.222 763.948 169.838 763.948 169.838C763.948 169.838 764.185 167.689 764.53 167.214C764.856 166.765 769.959 166.021 771.736 166.412C772.604 166.603 775.884 165.319 775.884 165.319C776.479 164.833 776.757 164.347 775.812 163.861C775.812 163.861 770.062 161.893 769.698 161.893C769.334 161.893 764.166 161.82 764.166 161.82C762.449 158.552 763.2 156.272 763.293 153.73L768.897 150.887L768.606 122.534C768.606 122.534 767.442 122.17 767.442 121.878C767.442 121.586 767.442 118.962 767.442 118.962L762.347 118.234C762.347 118.234 759.945 116.484 759.872 115.61C759.799 114.735 761.692 113.642 761.692 113.642L764.53 114.152C765.076 115.243 765.244 116.995 766.495 116.849L768.169 116.703C768.169 116.703 769.843 111.455 769.698 110.872C769.552 110.289 767.733 106.426 767.733 106.426C766.662 106.58 765.315 106.388 764.967 107.446L761.983 111.82C761.983 111.82 758.416 112.84 758.344 112.476C758.271 112.111 757.325 108.904 757.325 108.904C756.732 108.429 759.87 105.476 760.018 105.478C760.381 105.483 758.344 103.219 758.344 103.219L755.505 104.604L754.777 103.365L762.201 98.6999C762.201 98.6999 762.634 96.49 762.419 96.8777C762.237 97.2072 760.056 95.231 759.726 94.1809C759.529 93.5513 755.796 97.388 755.796 97.388L752.375 96.5862C752.156 94.8369 752.572 93.0876 753.321 91.3383C753.321 91.3383 756.306 92.3588 756.306 92.0672C756.306 91.7757 756.524 89.4433 756.524 89.1517C756.524 88.8602 752.812 84.2683 752.812 84.2683" stroke="#E5E5E5" stroke-linejoin="round"/>
<path d="M767.46 122.254L755.199 119.204C754.67 117.313 753.307 115.699 749.59 114.871L738.932 112.865C738.932 112.865 736.929 107.809 736.929 107.408C736.929 107.007 736.994 103.228 736.769 102.834C736.044 101.569 733.016 101.342 733.243 101.871L729.316 103.877L723.306 103.476L717.777 107.328L708.722 107.408C705.788 105.941 705.009 104.743 703.673 103.476C704.857 100.106 704.425 96.7352 704.795 93.3648C703.961 90.8673 702.395 89.348 700.949 87.6673C698.768 87.0996 697.879 87.5017 696.461 87.5068L692.615 90.7969L687.006 89.7537L684.441 86.1426L675.386 86.3031C673.534 88.015 671.456 89.7269 668.334 91.4389C665.696 89.7782 663.843 86.1516 661.603 83.4944L656.715 83.2537L653.51 80.6055C653.572 79.2068 654.543 77.4183 653.269 76.5931L646.378 74.1055L642.451 77.8771L642.692 81.408C641.224 83.2228 640.603 81.9272 639.727 81.5685L639.647 78.8401L634.197 75.3894L631.633 77.9573L627.146 76.5931L618.171 85.6611C618.545 89.4105 622.602 91.8193 625.062 94.8093V101.229L620.975 103.797L623.86 110.217L618.972 111.18L613.443 115.674L611.92 119.766L607.673 119.686C605.881 120.385 605.515 121.475 606.071 122.816L602.224 122.655L601.904 124.822C603.299 125.295 604.319 125.821 604.227 126.507C600.694 128.459 598.606 133.791 592.768 130.359C591.673 129.803 590.578 128.637 589.483 127.229L582.191 127.951L582.351 136.458C580.496 135.761 579.384 134.469 576.581 134.532C571.917 135.435 566.932 134.083 562.077 133.649C560.877 134.25 561.809 130.653 562.558 130.279C562.879 130.118 561.158 129.664 560.394 129.877C559.626 130.092 552.925 131.347 553.343 132.044L548.855 127.149H546.852L547.413 112.062L550.298 108.451C550.298 108.451 557.75 107.89 557.75 107.569C557.75 107.248 557.109 105.562 557.109 105.562L548.695 105.241C548.695 105.241 547.813 101.55 548.134 101.069C548.454 100.587 551.179 99.0624 551.179 99.0624L557.349 99.2229L557.51 96.334L553.423 95.371L553.102 83.0932C553.102 83.0932 549.451 82.416 549.096 82.3709C548.225 82.2606 549.504 75.3011 551.179 75.1487L550.538 70.6548C550.164 71.0562 549.385 71.0519 547.733 70.1734L546.531 61.9881L552.541 58.4573L556.147 58.2165C555.475 56.3835 554.627 55.0811 553.743 53.8832L551.339 53.8029C551.339 53.8029 549.576 52.198 549.496 51.877C549.416 51.556 552.541 49.7905 552.541 49.7905C549.562 46.056 549.474 40.2945 548.454 35.1855" stroke="#E5E5E5" stroke-linecap="round" stroke-linejoin="round"/>
<path d="M491.681 305.052L498.229 299.151L496.264 293.773L506.217 291.806L502.027 284.331L509.884 283.413L511.194 273.577L532.41 278.167C537.328 277.289 539.777 274.213 541.577 270.56H548.125L548.518 273.314L556.376 261.642C561.795 261.007 562.094 257.978 562.4 254.954L566.067 249.183C574.306 245.945 576.239 239.307 580.342 233.839C581.121 228.628 587.549 226.56 591.212 222.954C589.436 219.268 592.028 218.316 595.796 218.101L600.903 216.003L604.701 211.413C605.288 208.78 602.438 207.868 601.165 206.167L597.76 208.134C593.774 208.788 586.645 208.01 586.104 210.232L581.914 213.117L576.675 209.839L578.509 205.773L572.746 200.396L569.603 203.019L563.317 201.183L556.376 201.576L549.173 194.888H546.947L544.458 190.691H540.791L538.565 195.675C536.923 194.757 535.59 193.839 532.279 192.921L534.243 184.527L529.529 179.675C530.106 179.675 529.48 174.035 529.136 173.511C528.618 172.72 532.672 172.462 532.672 172.462L531.362 169.576L533.196 163.937C529.931 161.126 527.175 158.4 525.993 155.937C529.198 154.032 533.311 153.036 537.91 152.527C539.587 148.942 540.07 145.358 540.006 141.773L543.804 137.97L543.935 130.757L547.209 126.56" stroke="#E5E5E5" stroke-linecap="round" stroke-linejoin="round"/>
<path d="M758.975 175.216L756.748 174.167L751.248 173.773C750.202 175.831 748.269 176.334 744.438 173.511C744.438 173.511 749.298 182.892 749.022 182.298C748.192 180.514 754.232 177.674 756.225 180.068L751.641 185.576L745.093 186.888C746.158 188.934 746.542 190.468 744.831 190.429L739.33 192.527L734.354 191.74C732.519 192.686 731.606 194.248 731.866 196.593L725.448 198.56L724.401 200.527L726.496 202.888L726.103 205.904L720.472 204.724L717.46 205.642L718.9 209.052L716.543 211.15C712.692 208.67 709.107 207.097 706.983 210.495L703.971 210.757L706.852 206.822L707.114 203.15L705.804 202.757L707.245 200.921C713.54 198.417 707.585 198.744 705.542 198.167C702.834 196.771 700.3 195.027 694.541 199.74L694.41 201.708L689.565 203.675C687.488 204.214 687.197 206.093 686.422 207.609C684.369 209.277 682.494 209.701 680.79 208.921L678.695 210.101C678.652 213.085 679.723 216.348 678.433 219.019L675.945 220.593C669.357 225.278 668.622 225.454 666.253 226.888L661.932 225.314C661.932 225.314 663.315 218.689 662.586 217.839C659.07 213.737 650.213 218.925 650.014 219.544C649.636 220.721 646.609 218.232 646.609 218.232C642.687 206.663 636.11 216.895 630.632 218.101L624.476 215.609L625.524 196.855C623.012 192.398 618.269 196.435 614.13 198.167L607.713 201.97C605.259 201.54 603.269 200.026 599.855 201.839L600.51 206.035" stroke="#E5E5E5" stroke-linecap="round" stroke-linejoin="round"/>
<path fill-rule="evenodd" clip-rule="evenodd" d="M769.724 430.746L766.488 421.628L763.238 420.495L760.361 413.856L756.595 408.834L752.477 406.541L755.141 401.693L754.58 398.145L758.869 393.864L761.804 392.177L759.083 386.948L760.57 383.329L769.556 382.113L770.13 377.677L774.444 375.829L781.623 370.201L784.929 363.009L788.576 361.071L792.581 361.612L798.809 360.718L806.933 363.551L810.006 366.05L811.87 362.135L817.097 361.105L823.193 361.234L828.043 360.5L832.986 364.293L836.682 367.223L841.462 364.396L845.871 367.075L850.587 367.365L854.372 369.612L860.556 369.059L869.675 366.818L879.021 368.081L882.805 370.328L887.012 371.938L889.607 364.997L896.635 363.169L900.842 364.778L899.324 360.754L905.42 360.883L909.759 361.469L911.768 366.949L907.297 367.387L905.325 374.759L901.547 377.721L892.781 377.231L889.153 376.394L881.325 379.156L876.319 378.479L874.87 376.548L864.857 375.195L861.696 373.379L855.556 373.591L850.329 374.621L846.166 372.67L830.101 370.847L824.496 372.174L818.489 371.362L813.394 371.368C811.793 369.767 809.583 367.136 810.812 370.325L806.297 371.104L803.652 373.177L797.581 375.482L792.82 375.533L789.696 386.569L784.985 391.489L779.733 390.085L775.463 391.591L775.022 395.004L776.521 401.803L774.524 406.742L770.859 411.455L770.267 418.667L769.724 430.746Z" fill="white" stroke="white" stroke-width="1.05154"/>
<path fill-rule="evenodd" clip-rule="evenodd" d="M416.484 391.143L412.393 388.278L410.581 383.925L408.971 378.556L407.553 380.384L404.081 382.246L399.592 378.626L399.339 375.238L395.989 377.547L388.613 375.821L386.639 371.752L387.213 369.29L391.123 367.452L395.827 364.484L400.64 367.536L402.492 371.159L408.188 371.472L409.913 366.727L406.52 364.487L406.624 362.586L409.391 362.885L411.577 368.432L411.069 372.364L414.827 375.945L418.438 376.877L421.409 378.801L424.062 378.507L427.808 374.313L425.37 381.366L424.342 384.096L422.493 385.754L419.492 387.056L416.484 391.143Z" fill="white" stroke="white"/>
</svg>
