<svg width="50" height="50" viewBox="0 0 50 50" fill="none" xmlns="http://www.w3.org/2000/svg"><g clip-path="url(#a)"><path d="M47.615 29.287h-.748v-6.74a3.164 3.164 0 0 0-1.342-2.585v-.918a2.417 2.417 0 0 0-2.414-2.414h-.559l2.138-3.137a2.31 2.31 0 0 0-.607-3.206L29.578.402a2.29 2.29 0 0 0-1.73-.36 2.293 2.293 0 0 0-1.477.967l-12.52 18.372h-3.483l.84-8.51a.252.252 0 0 1 .159-.21 5.416 5.416 0 0 0 2.642-2.148.25.25 0 0 1 .237-.11l5.464.539a.713.713 0 0 0 .14-1.418l-5.464-.54a1.668 1.668 0 0 0-1.579.764 3.982 3.982 0 0 1-1.943 1.579 1.667 1.667 0 0 0-1.074 1.405l-.854 8.649h-.909l1.33-13.458a.883.883 0 0 1 .965-.791l11.042 1.09a.713.713 0 0 0 .14-1.418l-11.042-1.09a2.31 2.31 0 0 0-2.523 2.07L6.867 16.63H5.042a2.417 2.417 0 0 0-2.414 2.414v.626a3.17 3.17 0 0 0-1.847 2.877v24.287A3.17 3.17 0 0 0 3.948 50H43.7a3.17 3.17 0 0 0 3.166-3.166v-6.74h.748c.884 0 1.602-.718 1.602-1.601v-7.604c0-.884-.718-1.602-1.602-1.602zm-4.504-11.232a.99.99 0 0 1 .99.989v.363a3.176 3.176 0 0 0-.4-.026h-3.023l.903-1.326h1.53zM27.549 1.812a.877.877 0 0 1 .731-.386c.175 0 .347.052.495.153l14.505 9.885a.884.884 0 0 1 .233 1.226l-4.56 6.69H37.86l2.235-3.28a1.666 1.666 0 0 0 .078-1.766 3.982 3.982 0 0 1-.477-2.458 1.666 1.666 0 0 0-.72-1.599l-7.52-5.124a1.666 1.666 0 0 0-1.752-.086 3.983 3.983 0 0 1-2.462.455 1.687 1.687 0 0 0-1.616.718L16.67 19.38h-1.094L27.549 1.813zm.314 12.098a5.879 5.879 0 0 0-5.857 5.47h-3.612l8.408-12.338a.254.254 0 0 1 .241-.11 5.417 5.417 0 0 0 3.348-.618.251.251 0 0 1 .261.016l7.52 5.125a.252.252 0 0 1 .11.237 5.416 5.416 0 0 0 .65 3.342c.045.08.04.184-.015.264l-2.782 4.083H33.72a5.88 5.88 0 0 0-5.857-5.47zm4.428 5.47h-8.857a4.453 4.453 0 0 1 4.428-4.045 4.453 4.453 0 0 1 4.429 4.046zm-28.238-.336a.99.99 0 0 1 .99-.99h1.683l-.13 1.327H4.053v-.337zm-1.847 3.503c0-.96.781-1.742 1.742-1.742H43.7c.96 0 1.741.782 1.741 1.742v1.977H2.206v-1.977zm43.236 24.287c0 .96-.781 1.742-1.741 1.742H3.948c-.96 0-1.742-.782-1.742-1.742v-1.977h3.842a.712.712 0 1 0 0-1.425H2.206V25.95h43.236v3.338h-6.774a5.41 5.41 0 0 0-4.86 3.045l-.01.018-.02.047a5.378 5.378 0 0 0-.27.689v.002a5.41 5.41 0 0 0 5.16 7.007h6.774v3.337H10.61a.712.712 0 1 0 0 1.425h34.832v1.977zm2.35-8.341a.176.176 0 0 1-.177.176h-8.947a3.982 3.982 0 0 1-3.737-5.345 4.041 4.041 0 0 1 .24-.528 3.982 3.982 0 0 1 3.497-2.084h8.947c.098 0 .177.08.177.177v7.604z" fill="#393939"/><path d="M38.836 31.8a2.894 2.894 0 0 0-2.89 2.89 2.894 2.894 0 0 0 2.89 2.891 2.894 2.894 0 0 0 2.89-2.89 2.894 2.894 0 0 0-2.89-2.891zm0 4.356a1.467 1.467 0 0 1-1.466-1.466c0-.808.658-1.465 1.466-1.465.808 0 1.466.657 1.466 1.465 0 .809-.658 1.466-1.466 1.466z" fill="#46C770"/></g><defs><clipPath id="a"><path fill="#fff" d="M0 0h50v50H0z"/></clipPath></defs></svg>