<svg width="55" height="55" viewBox="0 0 55 55" fill="none" xmlns="http://www.w3.org/2000/svg"><path d="M27.5 0C12.336 0 0 12.336 0 27.5 0 42.663 12.336 55 27.5 55 42.663 55 55 42.663 55 27.5 55 12.336 42.663 0 27.5 0zm0 53.167c-14.152 0-25.667-11.515-25.667-25.667 0-14.152 11.515-25.667 25.667-25.667 14.152 0 25.667 11.515 25.667 25.667 0 14.152-11.515 25.667-25.667 25.667z" fill="#393939"/><path d="M27.5 5.5a.916.916 0 0 0-.917.917V27.5h-13.75a.916.916 0 1 0 0 1.833h14.666c.506 0 .917-.41.917-.916v-22a.916.916 0 0 0-.917-.917z" fill="#46C770"/></svg>