<svg width="21" height="20" viewBox="0 0 21 20" fill="none" xmlns="http://www.w3.org/2000/svg"><g clip-path="url(#a)" fill="#46C770"><path d="M16.07 6.452l1.088-.636a8.935 8.935 0 0 0-11.639-3.55V.717H4.26V4.5h3.78V3.239H6.43a7.677 7.677 0 0 1 9.64 3.213zM4.575 16.28a7.688 7.688 0 0 1-1.814-9.788l-1.092-.63a8.966 8.966 0 0 0 1.927 11.253h-1.54v1.261h3.778v-3.784H4.575v1.688zm13.203-7.637l-2.671 2.676.89.892 1.07-1.072a7.702 7.702 0 0 1-7.631 6.884v1.262c4.675-.013 8.554-3.627 8.903-8.296l1.22 1.222.891-.892-2.672-2.676z"/></g><defs><clipPath id="a"><path fill="#fff" transform="translate(.48)" d="M0 0h19.969v20H0z"/></clipPath></defs></svg>