<svg width="30" height="20" viewBox="0 0 30 20" fill="none" xmlns="http://www.w3.org/2000/svg"><path d="M25.321 2.979a2.25 2.25 0 0 0-1.99-1.192h-3.16V6.02c0 .471.414.853.885.853h6.346l-2.081-3.894zM7.055 19.935a2.704 2.704 0 0 0 2.702-2.706 2.704 2.704 0 0 0-2.702-2.706 2.704 2.704 0 0 0-2.701 2.706 2.704 2.704 0 0 0 2.701 2.706zm15.276-5.412a2.704 2.704 0 0 0-2.702 2.706 2.704 2.704 0 0 0 2.702 2.706 2.707 2.707 0 0 0 0-5.413z" fill="#46C770"/><path d="M29.426 9.755L28.03 7.972h-6.975c-1.076 0-1.982-.874-1.982-1.952V.814a.796.796 0 0 0-.824-.813H1.834c-.47 0-.875.342-.875.813V15.86c0 .471.404.84.875.84H3.29a3.8 3.8 0 0 1 4.276-3.258A3.802 3.802 0 0 1 10.82 16.7h7.748a3.8 3.8 0 0 1 4.277-3.257 3.802 3.802 0 0 1 3.252 3.257h2.943c.47 0 .875-.369.875-.84v-4.715a2.287 2.287 0 0 0-.488-1.39z" fill="#46C770"/></svg>