<svg width="23" height="23" viewBox="0 0 23 23" fill="none" xmlns="http://www.w3.org/2000/svg"><g clip-path="url(#a)" fill="#46C770"><path d="M20.98 2.74H2.021c-.31 0-.602.077-.866.203l10.3 10.3 2.308-2.22 8.082-8.08a1.998 1.998 0 0 0-.867-.203zm1.818 1.156L15.193 11.5l7.605 7.604c.126-.263.202-.555.202-.866V4.762c0-.311-.076-.603-.202-.866zm-22.595 0A1.998 1.998 0 0 0 0 4.762v13.476c0 .311.076.603.202.866L7.807 11.5.203 3.896z"/><path d="M14.24 12.453l-2.31 2.219a.672.672 0 0 1-.952 0l-2.22-2.22-7.604 7.605c.264.126.555.203.867.203h18.957c.31 0 .602-.077.866-.203l-7.605-7.604z"/></g><defs><clipPath id="a"><path fill="#fff" d="M0 0h23v23H0z"/></clipPath></defs></svg>