<svg width="23" height="23" viewBox="0 0 23 23" fill="none" xmlns="http://www.w3.org/2000/svg"><path d="M16.774 0H6.226A6.233 6.233 0 0 0 0 6.226v10.548A6.233 6.233 0 0 0 6.226 23h10.548A6.233 6.233 0 0 0 23 16.774V6.226A6.233 6.233 0 0 0 16.774 0zM11.5 17.789A6.296 6.296 0 0 1 5.211 11.5 6.296 6.296 0 0 1 11.5 5.211a6.296 6.296 0 0 1 6.289 6.289 6.296 6.296 0 0 1-6.289 6.289zm6.44-11.095a1.86 1.86 0 0 1-1.86-1.858 1.86 1.86 0 0 1 1.86-1.859 1.86 1.86 0 0 1 1.858 1.859 1.86 1.86 0 0 1-1.859 1.858z" fill="#46C770"/><path d="M11.5 6.56a4.946 4.946 0 0 0-4.941 4.94 4.946 4.946 0 0 0 4.94 4.94 4.946 4.946 0 0 0 4.94-4.94 4.946 4.946 0 0 0-4.94-4.94zm6.44-2.234a.51.51 0 1 0 0 1.021.51.51 0 0 0 0-1.021z" fill="#46C770"/></svg>