<svg width="23" height="22" viewBox="0 0 23 22" fill="none" xmlns="http://www.w3.org/2000/svg"><path d="M20.663 16.18c.49.47.488 1.229-.002 1.698l-2.872 2.747c-9.031 0-16.352-7.002-16.352-15.64l.006.003L4.33 2.227a1.299 1.299 0 0 1 1.78 0l3.245 3.109c.491.47.49 1.232 0 1.7l-2.886 2.76 6.289 6.017 2.882-2.757c.491-.47 1.29-.47 1.78.003l3.243 3.12zm.9-5.18h-2.516c0-3.981-3.385-7.219-7.547-7.219V1.375c5.548 0 10.063 4.318 10.063 9.625zm-5.032 0h-2.515c0-1.327-1.129-2.406-2.516-2.406V6.188c2.775 0 5.031 2.158 5.031 4.812z" fill="#46C770"/></svg>