<svg width="96" height="52" viewBox="0 0 96 52" fill="none" xmlns="http://www.w3.org/2000/svg"><path d="M9.068 15.666c-.266 0-.533-.066-.733-.266l-2.267-2.267H2.602c-.534 0-1-.466-1-1 0-.533.466-1 1-1h4.333L9.802 14c.4.4.4 1 0 1.4-.2.2-.467.266-.734.266zM57.6 33.867c-3.532 0-6.332-2.867-6.332-6.334 0-3.466 2.866-6.333 6.333-6.333s6.333 2.867 6.333 6.333c0 3.467-2.866 6.334-6.333 6.334zm0-10.667a4.325 4.325 0 0 0-4.332 4.333c0 2.4 1.933 4.333 4.333 4.333 2.4 0 4.333-1.933 4.333-4.333 0-2.4-1.933-4.333-4.333-4.333zM15.732 33.867c-3.534 0-6.334-2.867-6.334-6.334 0-3.466 2.867-6.333 6.334-6.333 3.533 0 6.333 2.867 6.333 6.333 0 3.467-2.8 6.334-6.333 6.334zm0-10.667a4.325 4.325 0 0 0-4.334 4.333c0 2.4 1.934 4.333 4.334 4.333 2.4 0 4.333-1.933 4.333-4.333.067-2.4-1.933-4.333-4.333-4.333z" fill="#393939"/><path d="M67.8 29.733h-5v-2h4.8l-.067-3.533c0-.267-.067-.334-.133-.334L65.466 22.6V20c0-.067-.066-.134-.133-.2-1.266-.6-5-2-12.133-2.4-2.8-.133-5.4-.867-7.8-2.067l-5.8-2.867c-2.133-1.066-4.533-1.6-6.867-1.6h-7.4c-4.733 0-9.266 1.2-13.133 3.4-2.933 1.667-5.867 2.467-8.8 2.4v2.667l-.2.267S2 21.2 2 23.333c0 .2.067 4.467 3.267 4.467H10.4v2H5.267C1.133 29.8 0 25.6 0 23.4c0-2.267.933-4 1.4-4.667v-2.267c0-.466.2-.933.533-1.266.334-.333.8-.467 1.267-.467 2.6.134 5.267-.6 7.933-2.133 4.134-2.4 9.067-3.667 14.134-3.667h7.4c2.666 0 5.4.667 7.8 1.867l5.8 2.866a17.895 17.895 0 0 0 7 1.867c7.2.4 11.133 1.8 12.866 2.534A2.166 2.166 0 0 1 67.4 20.2v1.4l1 .666c.666.467 1 1.134 1 2L69.466 28c0 .466-.2.933-.533 1.333-.2.2-.667.4-1.133.4z" fill="#393939"/><path d="M51.934 27.733h-30.6v2h30.6v-2z" fill="#393939"/><path d="M82.334 8.267v22.866h12.333l-1.6-9c-.2-1-.4-2-.666-3-1.6-6.333-3.4-9.4-10.067-10.866z" fill="#46C770"/><path d="M76 8.6h-2V2.667A.668.668 0 0 0 73.332 2a.668.668 0 0 0-.667.667V8.6h-2V2.667A2.676 2.676 0 0 1 73.333 0c1.466 0 2.666 1.2 2.666 2.667V8.6zm18.6 21.533H82.335v2h12.267v-2zM18.067 42H5.934v2h12.133v-2z" fill="#393939"/><path d="M25.134 51.066c-4.267 0-7.8-3.466-7.8-7.8 0-4.266 3.467-7.8 7.8-7.8 4.267 0 7.8 3.467 7.8 7.8 0 4.334-3.467 7.8-7.8 7.8zm0-13.533c-3.2 0-5.8 2.6-5.8 5.8 0 3.2 2.6 5.8 5.8 5.8 3.2 0 5.8-2.6 5.8-5.8 0-3.2-2.6-5.8-5.8-5.8z" fill="#393939"/><path d="M25.133 44.867c-.866 0-1.6-.734-1.6-1.6 0-.867.734-1.6 1.6-1.6.867 0 1.6.733 1.6 1.6 0 .933-.733 1.6-1.6 1.6zm0-2c-.2 0-.4.2-.4.4s.2.4.4.4.4-.2.4-.4-.133-.4-.4-.4zm18.467 2c-.867 0-1.6-.734-1.6-1.6 0-.867.733-1.6 1.6-1.6.867 0 1.6.733 1.6 1.6-.067.933-.733 1.6-1.6 1.6zm0-2c-.2 0-.4.2-.4.4s.2.4.4.4.4-.2.4-.4-.2-.4-.4-.4zm38.465 2c-.867 0-1.6-.734-1.6-1.6 0-.867.733-1.6 1.6-1.6.867 0 1.6.733 1.6 1.6 0 .933-.734 1.6-1.6 1.6zm0-2c-.2 0-.4.2-.4.4s.2.4.4.4.4-.2.4-.4-.133-.4-.4-.4z" fill="#393939"/><path d="M43.599 51.066c-4.267 0-7.8-3.466-7.8-7.8 0-4.266 3.467-7.8 7.8-7.8 4.267 0 7.8 3.467 7.8 7.8-.067 4.334-3.534 7.8-7.8 7.8zm0-13.533c-3.2 0-5.8 2.6-5.8 5.8 0 3.2 2.6 5.8 5.8 5.8 3.2 0 5.8-2.6 5.8-5.8 0-3.2-2.6-5.8-5.8-5.8z" fill="#393939"/><path d="M96 41h-8.667l-.267-.533a5.746 5.746 0 0 0-5-2.934c-2.067 0-4 1.133-5 2.934l-.267.533H48.933l-.267-.533a5.746 5.746 0 0 0-5-2.934c-2.067 0-4 1.133-5 2.934l-.267.533h-7.8l-.266-.533a5.746 5.746 0 0 0-5-2.934c-2.067 0-4 1.133-5 2.934l-.267.533H6.133v-9.067h9.8v2h-7.8V39h10.733c1.467-2.133 3.867-3.467 6.467-3.467 2.6 0 5 1.334 6.466 3.467h5.534c1.466-2.133 3.866-3.467 6.466-3.467s5 1.334 6.467 3.467h25.6c1.467-2.133 3.867-3.467 6.467-3.467 2.6 0 5 1.334 6.466 3.467h5.534v-.334a72.91 72.91 0 0 0-4-23.866c-1.334-3.533-4.867-5.133-7.667-5.133h-6.667v18.666c0 3.067-2.533 5.6-5.6 5.6H57.6v-2h12.8c2 0 3.6-1.6 3.6-3.6V7.667h8.334c3.6 0 7.933 2 9.533 6.466C94.6 22.067 96 30.267 96 38.667V41z" fill="#393939"/><path d="M82.067 51.066c-4.266 0-7.8-3.466-7.8-7.8 0-4.266 3.467-7.8 7.8-7.8 4.267 0 7.8 3.467 7.8 7.8 0 4.334-3.533 7.8-7.8 7.8zm0-13.533c-3.2 0-5.8 2.6-5.8 5.8 0 3.2 2.6 5.8 5.8 5.8 3.2 0 5.8-2.6 5.8-5.8 0-3.2-2.6-5.8-5.8-5.8z" fill="#393939"/></svg>