<svg width="65" height="65" viewBox="0 0 65 65" fill="none" xmlns="http://www.w3.org/2000/svg"><g clip-path="url(#a)"><path d="M9.532 59.36a.802.802 0 0 1 1.604 0v.064a.802.802 0 1 1-1.604 0v-.064z" fill="#000" stroke="#fff" stroke-width=".3"/><mask id="b" fill="#fff"><path d="M64.83 14.42L56.81.477A.952.952 0 0 0 55.472.15l-5.933 3.792-18.714 2.384a5.302 5.302 0 0 0-3.267 1.707l-6.235 6.904a3.935 3.935 0 0 0-1.017 2.643 3.946 3.946 0 0 0 4.4 3.916 3.946 3.946 0 0 0 4.862.627l.066-.038c.523.42 1.138.694 1.783.81-3.945 1.982-6.659 6.067-6.659 10.774 0 3.948 1.909 7.458 4.851 9.658l-6.205 3.6-1.678-.21 2.934-2.102a3.951 3.951 0 0 0 1.567-3.992 3.92 3.92 0 0 0-4.537-3.095l-.772.133a22.79 22.79 0 0 0-9.94 4.364l-4.41 3.388-6.087 3.89A.952.952 0 0 0 .17 50.58l8.02 13.943a.952.952 0 0 0 1.339.327l5.932-3.792 4.149-.53a.952.952 0 0 0-.241-1.888l-3.732.476-2.759-4.797-4.529-7.873 3.79-2.911a20.877 20.877 0 0 1 9.106-3.998l.772-.133a2.027 2.027 0 0 1 2.345 1.6 2.042 2.042 0 0 1-.81 2.064l-4.912 3.518a.952.952 0 0 0 .437 1.719l13.168 1.645a.951.951 0 0 0 .612-.13l6.835-4.144a2.041 2.041 0 0 1 3.098 1.744c0 .505-.187.99-.526 1.366l-6.235 6.905a3.397 3.397 0 0 1-2.093 1.094l-10.8 1.375a.952.952 0 1 0 .24 1.889l10.797-1.375a5.303 5.303 0 0 0 3.267-1.707l6.235-6.904a3.936 3.936 0 0 0 1.017-2.643c0-.881-.3-1.747-.843-2.437a3.924 3.924 0 0 0-.99-.894c3.587-2.09 6.003-5.978 6.003-10.42 0-2.504-.774-4.916-2.2-6.936a22.563 22.563 0 0 0 5.73-2.617.952.952 0 1 0-1.025-1.605 20.68 20.68 0 0 1-7.613 2.952l-.772.133a2.027 2.027 0 0 1-2.345-1.6 2.042 2.042 0 0 1 .81-2.064l4.912-3.518a.952.952 0 0 0-.437-1.719L32.755 15.05a.955.955 0 0 0-.612.13l-6.835 4.144a2.041 2.041 0 0 1-3.098-1.744c0-.505.187-.99.526-1.366l6.235-6.905a3.397 3.397 0 0 1 2.093-1.094l18.299-2.33 2.35 4.084 4.938 8.585-2.28 1.751a.952.952 0 0 0 1.16 1.51l2.901-2.228 6.086-3.89a.952.952 0 0 0 .312-1.277zM9.342 62.708l-7.07-12.29 4.507-2.88 3.942 6.852 3.128 5.438-4.507 2.88zm22.206-41.733l5.896-3.42 1.029.128-5.29 3.069a2.04 2.04 0 0 1-1.634.223zM31.45 44.46c.229.114.46.221.697.32l-4.59 2.664-1.03-.128 4.923-2.856zm.702 3.558l-1.474-.184 3.978-2.307c.437.079.882.134 1.334.165l-3.838 2.326zm10.465-20.486c.228 0 .46-.02.693-.06l.771-.134c.191-.033.382-.069.572-.107a10.11 10.11 0 0 1 2.306 6.437c0 5.596-4.552 10.148-10.148 10.148s-10.148-4.552-10.148-10.148c0-5.595 4.552-10.147 10.149-10.147.636 0 1.266.06 1.883.176.007.227.032.454.078.68a3.92 3.92 0 0 0 3.844 3.155zm-2.278-7.148c-.53.38-.95.883-1.233 1.453a12.075 12.075 0 0 0-3.778-.13l6.268-3.634 1.677.21-2.934 2.101zm-7.492-3.404l1.474.184-5.716 3.315a2.035 2.035 0 0 1-1.806.167l6.048-3.666zm25.373.482l-3.942-6.853-3.128-5.438 4.507-2.88 7.07 12.29-4.507 2.88z"/></mask><path d="M64.83 14.42L56.81.477A.952.952 0 0 0 55.472.15l-5.933 3.792-18.714 2.384a5.302 5.302 0 0 0-3.267 1.707l-6.235 6.904a3.935 3.935 0 0 0-1.017 2.643 3.946 3.946 0 0 0 4.4 3.916 3.946 3.946 0 0 0 4.862.627l.066-.038c.523.42 1.138.694 1.783.81-3.945 1.982-6.659 6.067-6.659 10.774 0 3.948 1.909 7.458 4.851 9.658l-6.205 3.6-1.678-.21 2.934-2.102a3.951 3.951 0 0 0 1.567-3.992 3.92 3.92 0 0 0-4.537-3.095l-.772.133a22.79 22.79 0 0 0-9.94 4.364l-4.41 3.388-6.087 3.89A.952.952 0 0 0 .17 50.58l8.02 13.943a.952.952 0 0 0 1.339.327l5.932-3.792 4.149-.53a.952.952 0 0 0-.241-1.888l-3.732.476-2.759-4.797-4.529-7.873 3.79-2.911a20.877 20.877 0 0 1 9.106-3.998l.772-.133a2.027 2.027 0 0 1 2.345 1.6 2.042 2.042 0 0 1-.81 2.064l-4.912 3.518a.952.952 0 0 0 .437 1.719l13.168 1.645a.951.951 0 0 0 .612-.13l6.835-4.144a2.041 2.041 0 0 1 3.098 1.744c0 .505-.187.99-.526 1.366l-6.235 6.905a3.397 3.397 0 0 1-2.093 1.094l-10.8 1.375a.952.952 0 1 0 .24 1.889l10.797-1.375a5.303 5.303 0 0 0 3.267-1.707l6.235-6.904a3.936 3.936 0 0 0 1.017-2.643c0-.881-.3-1.747-.843-2.437a3.924 3.924 0 0 0-.99-.894c3.587-2.09 6.003-5.978 6.003-10.42 0-2.504-.774-4.916-2.2-6.936a22.563 22.563 0 0 0 5.73-2.617.952.952 0 1 0-1.025-1.605 20.68 20.68 0 0 1-7.613 2.952l-.772.133a2.027 2.027 0 0 1-2.345-1.6 2.042 2.042 0 0 1 .81-2.064l4.912-3.518a.952.952 0 0 0-.437-1.719L32.755 15.05a.955.955 0 0 0-.612.13l-6.835 4.144a2.041 2.041 0 0 1-3.098-1.744c0-.505.187-.99.526-1.366l6.235-6.905a3.397 3.397 0 0 1 2.093-1.094l18.299-2.33 2.35 4.084 4.938 8.585-2.28 1.751a.952.952 0 0 0 1.16 1.51l2.901-2.228 6.086-3.89a.952.952 0 0 0 .312-1.277zM9.342 62.708l-7.07-12.29 4.507-2.88 3.942 6.852 3.128 5.438-4.507 2.88zm22.206-41.733l5.896-3.42 1.029.128-5.29 3.069a2.04 2.04 0 0 1-1.634.223zM31.45 44.46c.229.114.46.221.697.32l-4.59 2.664-1.03-.128 4.923-2.856zm.702 3.558l-1.474-.184 3.978-2.307c.437.079.882.134 1.334.165l-3.838 2.326zm10.465-20.486c.228 0 .46-.02.693-.06l.771-.134c.191-.033.382-.069.572-.107a10.11 10.11 0 0 1 2.306 6.437c0 5.596-4.552 10.148-10.148 10.148s-10.148-4.552-10.148-10.148c0-5.595 4.552-10.147 10.149-10.147.636 0 1.266.06 1.883.176.007.227.032.454.078.68a3.92 3.92 0 0 0 3.844 3.155zm-2.278-7.148c-.53.38-.95.883-1.233 1.453a12.075 12.075 0 0 0-3.778-.13l6.268-3.634 1.677.21-2.934 2.101zm-7.492-3.404l1.474.184-5.716 3.315a2.035 2.035 0 0 1-1.806.167l6.048-3.666zm25.373.482l-3.942-6.853-3.128-5.438 4.507-2.88 7.07 12.29-4.507 2.88z" fill="#000" stroke="#fff" stroke-width=".6" mask="url(#b)"/><path d="M53.864 5.64a.802.802 0 1 1 1.604 0v.063a.802.802 0 0 1-1.604 0V5.64z" fill="#000" stroke="#fff" stroke-width=".3"/><path d="M37.703 40h-1.406v-7.57H33v-1.143h8v1.143h-3.297V40zM41 30.143h-8V29h8v1.143z" fill="#46C770"/></g><defs><clipPath id="a"><path fill="#fff" d="M0 0h65v65H0z"/></clipPath></defs></svg>