<svg width="69" height="55" viewBox="0 0 69 55" fill="none" xmlns="http://www.w3.org/2000/svg"><path d="M40.703 2.99H27.849l-2.49 4.084h17.835L40.703 2.99zm9.017 47.527l-12.704-4.484v-3.338l13.85 4.982-1.146 2.84z" fill="#46C770"/><path d="M28.696 15.144h-5.33a.766.766 0 0 1-.748-.747c0-.398.349-.747.748-.747h3.836v-.05c0-.448-.35-.797-.748-.897l-3.039-.448c-.398-.05-.697-.449-.647-.847.05-.399.448-.697.847-.648l3.039.449c1.145.15 2.042 1.195 2.042 2.341v1.594z" fill="#393939"/><path d="M45.385 22.967h-1.096a2.679 2.679 0 0 1-2.69-2.69v-1.495H26.852v1.494a2.679 2.679 0 0 1-2.69 2.69h-1.096a2.679 2.679 0 0 1-2.69-2.69v-9.565l-1.495-.548a1.229 1.229 0 0 1-.797-1.146V7.473c0-.648.548-1.196 1.196-1.196h2.241c.35 0 .698-.199.847-.498l2.242-4.085A3.193 3.193 0 0 1 27.45 0h13.401c1.196 0 2.292.648 2.84 1.694l2.242 4.085c.15.299.498.498.847.498h2.242c.647 0 1.196.548 1.196 1.196v1.594c0 .498-.3.947-.798 1.146l-1.494.548v9.565c.15 1.445-1.046 2.64-2.541 2.64zm-19.978-5.63h17.736v2.99c0 .647.548 1.195 1.196 1.195h1.096c.648 0 1.195-.548 1.195-1.196V9.715l2.292-.847V7.772H46.98a2.535 2.535 0 0 1-2.192-1.295L42.545 2.39a1.76 1.76 0 0 0-1.544-.896H27.6c-.648 0-1.196.348-1.545.896l-2.242 4.086a2.535 2.535 0 0 1-2.192 1.295h-1.943v1.096l2.292.847v10.611c0 .648.548 1.196 1.196 1.196h1.096c.647 0 1.195-.548 1.195-1.196v-2.989h-.05z" fill="#393939"/><path d="M43.193 7.822H25.358a.766.766 0 0 1-.748-.748c0-.398.35-.747.748-.747h17.835c.399 0 .747.349.747.747a.734.734 0 0 1-.747.748zm1.993 7.323h-5.33v-1.544c0-1.196.896-2.192 2.042-2.342l3.04-.448c.398-.05.796.2.846.648.05.398-.2.797-.648.847l-3.039.448c-.448.05-.747.448-.747.897v.05h3.836c.399 0 .748.348.748.747 0 .348-.3.697-.748.697zm-7.524.1h-6.725a.766.766 0 0 1-.748-.748c0-.398.35-.747.748-.747h6.725c.399 0 .748.349.748.747a.766.766 0 0 1-.748.748z" fill="#393939"/><path d="M37.663 15.245h-.1a.745.745 0 0 1-.647-.847l.2-1.843h-5.63l.2 1.843c.049.399-.25.797-.648.847-.4.05-.798-.249-.847-.647l-.399-3.488h9.017l-.398 3.488a.796.796 0 0 1-.748.647zm-11.507 3.586h-1.993a.766.766 0 0 1-.747-.747c0-.398.349-.747.747-.747h1.993c.399 0 .747.349.747.747a.734.734 0 0 1-.747.747zm18.83 0h-2.59a.766.766 0 0 1-.748-.747c0-.398.35-.747.748-.747h2.59c.399 0 .748.349.748.747a.766.766 0 0 1-.748.747z" fill="#393939"/><path d="M26.154 18.831h-2.59a.766.766 0 0 1-.748-.747c0-.398.35-.747.748-.747h2.59c.399 0 .748.349.748.747a.734.734 0 0 1-.748.747z" fill="#393939"/><path d="M18.98 50.516l12.705-4.484v-3.338l-13.85 4.982 1.146 2.84z" fill="#46C770"/><path d="M31.536 43.441c-.349 0-.648-.2-.698-.548l-1.146-4.085a12.315 12.315 0 0 0-6.675-7.822l-2.84-1.345a7.322 7.322 0 0 1-3.886-4.533l-1.445-5.032.15-.997a3.41 3.41 0 0 0-1.595-3.387l-.05-.05c-.348-.2-.448-.697-.249-1.046.2-.349.698-.449 1.047-.25l.05.05a5.022 5.022 0 0 1 2.291 4.883l-.1.648 1.346 4.732a5.605 5.605 0 0 0 3.039 3.587l2.84 1.345c3.686 1.694 6.376 4.883 7.522 8.818l1.146 4.086a.79.79 0 0 1-.498.946h-.25zm-11.558 4.135c-.25 0-.548-.15-.648-.399-.897-1.743-2.54-2.939-4.384-3.337-.2-.05-.448-.1-.648-.15-3.338-.847-6.327-3.139-8.12-6.277-2.292-3.986-5.68-8.07-5.73-8.12l-.448-.5.448-.498c.05-.05 1.296-1.345 3.338-1.246 1.794.1 3.488 1.196 5.181 3.338 1.894 2.441 4.933 3.787 7.872 3.537.2 0 .399-.05.548-.05.398-.05.797.25.847.648.05.399-.25.797-.648.847-.199.05-.448.05-.647.05-3.488.299-6.925-1.245-9.167-4.085-1.345-1.744-2.74-2.69-4.036-2.74-.697-.05-1.295.2-1.693.398 1.046 1.296 3.537 4.484 5.38 7.722 1.644 2.84 4.235 4.833 7.174 5.58l.598.15c2.341.498 4.284 1.992 5.43 4.085.2.349.05.797-.299.996-.1.05-.249.05-.348.05z" fill="#393939"/><path d="M4.086 28.545c-.35 0-.648-.249-.748-.598l-1.444-6.725.05-.2 4.383-13.5.698.149c1.046.249 2.94 1.694 2.341 5.131l-1.843 8.22 1.246 5.132a.743.743 0 1 1-1.445.349l-1.345-5.43 1.943-8.52c.299-1.694-.2-2.59-.648-2.989L3.438 21.321l1.395 6.327c.1.399-.15.798-.548.897h-.2z" fill="#393939"/><path d="M11.209 26.353c-.349 0-.648-.2-.697-.548l-1.445-5.082 1.793-9.266c.598-2.292-.249-3.487-.896-4.036l-.847 2.591a.79.79 0 0 1-.947.498.79.79 0 0 1-.498-.946l1.345-4.185.747.249c1.296.498 3.488 2.391 2.541 6.178l-1.694 8.867 1.345 4.733a.79.79 0 0 1-.498.947h-.249z" fill="#393939"/><path d="M14.198 25.706c-.348 0-.647-.2-.697-.549l-1.494-5.18 1.046-5.53c.299-1.495-.349-3.04-1.545-3.936l-.15-.1c-.348-.25-.398-.698-.149-1.046.25-.349.698-.399 1.047-.15l.15.1a5.456 5.456 0 0 1 2.141 5.43l-.996 5.181 1.395 4.833a.79.79 0 0 1-.498.947h-.25zm6.128 29.293c-.299 0-.598-.2-.697-.448l-2.64-6.577c-.1-.199-.05-.398 0-.597.099-.2.248-.35.447-.399l13.85-4.982a.7.7 0 0 1 .698.1c.2.15.299.349.299.598v3.337a.766.766 0 0 1-.748.748.766.766 0 0 1-.747-.748V43.74l-12.106 4.334 2.092 5.231 9.117-2.79c.399-.1.798.1.947.498a.79.79 0 0 1-.498.947l-9.765 2.99c-.1.049-.15.049-.249.049z" fill="#393939"/><path d="M18.831 51.262a.75.75 0 0 1-.697-.498c-.15-.398.05-.797.448-.947l12.704-4.483c.398-.15.797.05.947.448.149.399-.05.797-.449.947L19.08 51.212c-.05.05-.15.05-.249.05zm18.187-7.82c-.05 0-.15 0-.2-.05a.728.728 0 0 1-.498-.946l1.146-4.085c1.096-3.886 3.836-7.075 7.523-8.818l2.84-1.346a5.605 5.605 0 0 0 3.038-3.587l1.346-4.732-.1-.648a5.021 5.021 0 0 1 2.292-4.882l.05-.05c.348-.2.797-.1 1.046.249.199.349.1.797-.25 1.046l-.05.05a3.41 3.41 0 0 0-1.593 3.388l.149.996-1.445 5.032c-.548 1.993-1.992 3.637-3.886 4.533l-2.84 1.346a12.156 12.156 0 0 0-6.675 7.821l-1.146 4.085c-.1.399-.399.598-.747.598zm11.608 4.135c-.1 0-.25-.05-.35-.1-.348-.199-.497-.647-.298-.996 1.146-2.142 3.089-3.637 5.43-4.085l.598-.15c2.94-.747 5.58-2.79 7.174-5.58 1.843-3.238 4.334-6.426 5.38-7.721-.398-.2-.946-.449-1.693-.4-1.296.1-2.69.997-4.036 2.741-2.242 2.89-5.68 4.384-9.166 4.085-.2 0-.399-.05-.648-.05-.399-.05-.698-.448-.648-.846.05-.4.449-.698.847-.648.2.05.399.05.548.05 2.94.249 5.978-1.096 7.872-3.538 1.644-2.142 3.387-3.238 5.18-3.337 2.043-.1 3.289 1.195 3.339 1.245l.448.498-.448.498c-.05.05-3.438 4.135-5.73 8.121-1.843 3.188-4.782 5.48-8.12 6.277-.2.05-.448.1-.648.15a6.36 6.36 0 0 0-4.384 3.338c-.15.299-.398.448-.647.448z" fill="#393939"/><path d="M64.469 28.545h-.15a.743.743 0 0 1-.548-.897l1.395-6.327L61.33 9.564c-.448.448-.897 1.295-.598 3.039l1.943 8.47-1.345 5.43a.742.742 0 1 1-1.445-.35l1.246-5.13-1.844-8.17C58.69 9.364 60.533 7.97 61.63 7.72l.697-.15 4.484 13.7-1.445 6.726c-.249.349-.548.548-.896.548z" fill="#393939"/><path d="M57.394 26.354c-.05 0-.15 0-.2-.05a.728.728 0 0 1-.498-.947l1.346-4.732-1.694-8.918c-.947-3.737 1.245-5.63 2.54-6.128l.748-.249 1.345 4.185c.15.398-.1.797-.498.946-.399.15-.797-.1-.947-.498l-.847-2.59c-.648.548-1.495 1.694-.897 3.985l1.794 9.267-1.445 5.081c-.15.449-.448.648-.747.648z" fill="#393939"/><path d="M54.353 25.707c-.05 0-.15 0-.2-.05a.728.728 0 0 1-.498-.947l1.395-4.832-.996-5.181c-.399-2.043.448-4.185 2.142-5.43l.15-.1c.348-.25.797-.15 1.046.149a.772.772 0 0 1-.15 1.046l-.15.1a3.908 3.908 0 0 0-1.544 3.936l1.046 5.53-1.494 5.18c-.1.4-.399.599-.747.599zM48.226 55c-.05 0-.15 0-.2-.05l-9.764-2.989c-.398-.1-.598-.548-.498-.946.1-.399.548-.598.947-.498l9.117 2.79 2.092-5.232-12.106-4.334v2.292a.766.766 0 0 1-.747.747.766.766 0 0 1-.748-.747v-3.338c0-.249.1-.448.3-.598.199-.15.448-.15.697-.1l13.85 4.983c.199.05.348.199.448.398.1.2.1.399 0 .598l-2.64 6.576c-.15.25-.449.448-.748.448z" fill="#393939"/><path d="M49.72 51.263c-.1 0-.149 0-.248-.05L36.767 46.73c-.398-.15-.597-.548-.448-.947.15-.398.548-.598.947-.448l12.704 4.483c.398.15.598.549.448.947a.75.75 0 0 1-.697.498z" fill="#393939"/></svg>