<svg width="53" height="57" viewBox="0 0 53 57" fill="none" xmlns="http://www.w3.org/2000/svg"><path d="M31.5 20.396h3.003a.704.704 0 0 0 0-1.407H31.5a.703.703 0 1 0 0 1.407zm-13.224 0h10.532a.703.703 0 1 0 0-1.407H18.276a.703.703 0 1 0 0 1.407zm-7.225 0h4.48a.704.704 0 0 0 0-1.407h-4.48a.703.703 0 1 0 0 1.407zm16.084 4.794H14.661a.703.703 0 1 0 0 1.407h12.474a.704.704 0 0 0 0-1.408zm-16.084 1.407h1.306a.704.704 0 0 0 0-1.408h-1.306a.703.703 0 1 0 0 1.408zm0 6.584h8.356a.703.703 0 1 0 0-1.407H11.05a.703.703 0 1 0 0 1.407zm3.378 4.679H11.05a.703.703 0 1 0 0 1.407h3.378a.704.704 0 1 0 0-1.407z" fill="#46C770"/><path d="M51.824 15.585a3.007 3.007 0 0 0-4.159-.86l-.764.501H46.9l-1.345.886V5.762A3.006 3.006 0 0 0 42.55 2.76H27.147a4.84 4.84 0 0 0-8.74 0H3.002A3.006 3.006 0 0 0 0 5.762v47.826a3.007 3.007 0 0 0 3.003 3.002H42.55a3.007 3.007 0 0 0 3.003-3.002v-28.8l6.093-4.003a3.006 3.006 0 0 0 .86-4.159l-.683-1.041zm-26.118 20.56l-.831-1.266L48.69 19.231l.832 1.266-23.816 15.648zm13.108 6.1h-3.701a3.006 3.006 0 0 0-3.003 3.002v3.604H7.186a.447.447 0 0 1-.446-.446v-37.46c0-.247.2-.446.446-.447h3.161v1.932c0 .388.315.704.704.704h23.452a.704.704 0 0 0 .704-.704v-1.932h3.16c.247 0 .447.2.447.447v9.595L21.91 31.648a.548.548 0 0 0-.05.037.692.692 0 0 0-.116.117l-.012.015a.652.652 0 0 0-.038.056l-.007.01-3.196 5.508-.95.623a.703.703 0 1 0 .773 1.176l.95-.624 6.324-.747.01-.002.035-.007a.656.656 0 0 0 .238-.091c.007-.004.014-.007.02-.012l12.924-8.49v13.027zm-.966 1.407l-4.331 4.33v-2.735c0-.881.715-1.595 1.596-1.596h2.735zM24.29 36.554l-3.96.468 2.002-3.45.98 1.491.978 1.49zm-.19-2.852l-.831-1.266L45.243 18l.001-.001 1.841-1.21.832 1.267-23.815 15.647zM42.55 4.165a1.6 1.6 0 0 1 1.596 1.596v11.274l-3.926 2.58v-8.671a1.856 1.856 0 0 0-1.853-1.854h-3.161V6.91a.703.703 0 0 0-.704-.703H27.62V4.842c0-.226-.016-.452-.048-.676h14.98zM22.777 1.408a3.439 3.439 0 0 1 3.435 3.435v2.069c0 .388.316.703.704.703H33.8v4.111H11.754v-4.11h6.884a.704.704 0 0 0 .704-.704v-2.07a3.44 3.44 0 0 1 3.435-3.434zm21.37 52.18a1.598 1.598 0 0 1-1.596 1.595H3.003a1.598 1.598 0 0 1-1.596-1.595V5.762a1.598 1.598 0 0 1 1.596-1.596h14.98a4.9 4.9 0 0 0-.048.676v1.366H11.05a.703.703 0 0 0-.704.704v2.18h-3.16a1.856 1.856 0 0 0-1.853 1.853v37.46a1.855 1.855 0 0 0 1.853 1.853h25.182a2.38 2.38 0 0 0 .279-.02.702.702 0 0 0 .696-.22c.183-.1.351-.223.498-.37l5.77-5.77c.392-.39.611-.92.61-1.472V28.292l3.925-2.58v27.876zm6.727-33.979l-.177.116-2.436-3.708.177-.116a1.595 1.595 0 0 1 2.21.457l.683 1.041a1.598 1.598 0 0 1-.457 2.21z" fill="#000"/></svg>