<svg width="52" height="52" viewBox="0 0 52 52" fill="none" xmlns="http://www.w3.org/2000/svg"><g clip-path="url(#a)" stroke="#fff" stroke-width=".25"><path d="M26.568 10.01l-.003-.126h-.027c-.292 0-.572-.127-.771-.355l-1.411-1.611a.636.636 0 1 1 .957-.838l1.115 1.273.1.113.093-.118 2.17-2.76a.636.636 0 0 1 1 .786l-2.445 3.11a1.03 1.03 0 0 1-.782.4l.004.125zm0 0c.34-.01.66-.173.876-.448l-2.037-2.565A.761.761 0 0 0 24.262 8l1.41 1.611a1.15 1.15 0 0 0 .896.398z" fill="#46C770"/><path d="M32.609 5.347h12.988a.636.636 0 1 1 0 1.272H32.61a.636.636 0 1 1 0-1.272zm0 3.265h12.988a.636.636 0 1 1 0 1.273H32.61a.636.636 0 1 1 0-1.273z" fill="#000"/><path d="M29.683 14.67a.636.636 0 0 0-.893.107l-2.17 2.76-.092.118-.1-.113-1.115-1.274a.636.636 0 0 0-.898-.06l5.268-1.538zm0 0a.636.636 0 0 1 .107.894l-2.444 3.109a1.03 1.03 0 0 1-.782.4l.004.125m3.115-4.528l-5.327 2.437m2.212 2.09c.34-.008.66-.172.876-.447l-.876.448zm0 0l-.003-.124h-.027c-.292 0-.572-.128-.771-.355l-1.411-1.611m0 0a.636.636 0 0 1 .06-.898l-.06.898z" fill="#46C770"/><path d="M32.609 14.534h12.988a.636.636 0 1 1 0 1.273H32.61a.636.636 0 1 1 0-1.273zm0 3.266h12.988a.636.636 0 1 1 0 1.272H32.61a.636.636 0 1 1 0-1.272z" fill="#000"/><path d="M29.683 23.858a.636.636 0 0 1 .107.893l-2.444 3.11a1.03 1.03 0 0 1-.782.4h-.026c-.292 0-.572-.128-.771-.356l-1.411-1.61a.636.636 0 1 1 .957-.838v-.001l1.115 1.273.1.113.093-.118 2.17-2.76a.636.636 0 0 1 .892-.106z" fill="#46C770"/><path d="M32.609 23.722h12.988a.636.636 0 1 1 0 1.272H32.61a.636.636 0 1 1 0-1.272zm0 3.266h12.988a.636.636 0 1 1 0 1.273H32.61a.636.636 0 1 1 0-1.273z" fill="#000"/><path d="M25.673 37.176a1.15 1.15 0 0 0 .894.398l-.894-.398zm0 0l-1.411-1.611 1.41 1.61zm4.01-4.13a.636.636 0 0 1 .107.894l-2.444 3.109c-.195.247-.48.392-.782.4h-.026c-.292 0-.572-.128-.771-.356l-1.411-1.61a.636.636 0 1 1 .957-.838l1.115 1.273.1.113.093-.118 2.17-2.76a.636.636 0 0 1 .892-.107z" fill="#46C770"/><path d="M32.609 32.91h12.988a.636.636 0 1 1 0 1.273H32.61a.636.636 0 1 1 0-1.273zm12.988 3.267a.636.636 0 1 1 0 1.272H32.61a.636.636 0 1 1 0-1.272h12.988z" fill="#000"/><path d="M25.673 46.363a1.15 1.15 0 0 0 .894.398c.34-.009.66-.172.877-.447l-1.771.05zm0 0l-1.411-1.61 1.41 1.61zm4.01-4.13a.636.636 0 0 1 .107.894l-2.444 3.11c-.195.247-.48.391-.782.4h-.026c-.292 0-.572-.128-.771-.356l-1.411-1.61a.636.636 0 1 1 .957-.838v-.001l1.115 1.273.1.113.093-.118 2.17-2.76a.636.636 0 0 1 .892-.106z" fill="#46C770"/><path d="M32.609 42.098h5.18a.636.636 0 1 1 0 1.272h-5.18a.636.636 0 1 1 0-1.272zm0 3.266h5.18a.636.636 0 1 1 0 1.273h-5.18a.636.636 0 1 1 0-1.273z" fill="#000"/><path d="M48.943 43.42h-5.096a2.359 2.359 0 0 0-2.356 2.357v4.808H16.716l.123-.192a3.154 3.154 0 0 0 .499-1.704V35.706l.182.095c.381.197.814.309 1.273.309a2.699 2.699 0 0 0 2.695-2.695V26.05a9.764 9.764 0 0 0-1.986-5.934 9.93 9.93 0 0 0-5.03-3.504.346.346 0 0 1-.242-.332v-.666l.075-.033a7.024 7.024 0 0 0 4.2-6.423 7.024 7.024 0 0 0-4.338-6.482l-.077-.032v-.868a.38.38 0 0 1 .378-.379h25.969a.636.636 0 1 0 0-1.272H14.468c-.91 0-1.65.74-1.65 1.651v.494l-.147-.025a7.026 7.026 0 0 0-1.18-.101 7.022 7.022 0 0 0-7.015 7.014c0 2.976 1.864 5.524 4.486 6.541l.08.031v.551c0 .15-.096.288-.242.332a9.82 9.82 0 0 0-2.921 1.442.636.636 0 0 0-.144.888l43.208 24.478zm0 0v-.124m0 .125v-.125m0 0V1.776a.379.379 0 0 0-.378-.379h-4.601a.636.636 0 1 1 0-1.272h4.601c.91 0 1.65.74 1.65 1.651v42.38a.636.636 0 0 1-.198.461 72739.02 72739.02 0 0 0-6.77 6.418c-.073.07-.144.14-.213.21a5.206 5.206 0 0 1-.405.378c-.21.168-.445.23-.708.246a4.127 4.127 0 0 1-.41.001l-.097-.004a9.417 9.417 0 0 0-.338-.008H14.17a3.163 3.163 0 0 1-2.438-1.147l-.096-.116-.096.116a3.163 3.163 0 0 1-2.438 1.147 3.172 3.172 0 0 1-3.169-3.169V35.676m43.01 7.62l-43.01-7.62m3.233-17.844a1.627 1.627 0 0 0 1.148-1.55v-.207l.143.02a7.044 7.044 0 0 0 2.352-.048l.148-.029v.263c0 .71.474 1.349 1.149 1.551a8.647 8.647 0 0 1 4.38 3.052 8.503 8.503 0 0 1 1.73 5.167v7.364c0 .784-.638 1.423-1.423 1.423-.728 0-1.353-.544-1.454-1.231l-.001-.01v-8.505a.636.636 0 1 0-1.273 0V48.69c0 1.046-.85 1.896-1.895 1.896a1.898 1.898 0 0 1-1.896-1.896V34.956a.636.636 0 1 0-1.272 0l-.004 13.733c0 1.046-.85 1.896-1.896 1.896a1.898 1.898 0 0 1-1.896-1.896V24.961a.636.636 0 1 0-1.272 0l-.006 8.386 3.238-15.515zm0 0a8.534 8.534 0 0 0-2.543 1.255m2.543-1.255l-2.543 1.255m-.69 16.589l-.185.102m.185-.102l-.185.102m0 0a2.621 2.621 0 0 1-1.27.332 2.699 2.699 0 0 1-2.695-2.695V26.05c0-1.854.518-3.66 1.497-5.223a.636.636 0 0 1 .877-.201m1.591 15.151l-1.59-15.151m2.465-1.54a.636.636 0 0 1-.888-.144l.888.144zM4.36 21.503a8.555 8.555 0 0 0-1.303 4.547v7.365c0 .784.638 1.423 1.423 1.423.778 0 1.449-.698 1.449-1.491l-1.57-11.844zm0 0a.636.636 0 0 0-.202-.877m.202.877l-.202-.877m38.606 28.808v.293l.212-.203 4.801-4.616.224-.215h-4.153c-.598 0-1.084.486-1.084 1.084v3.657zM5.748 9.158A5.748 5.748 0 0 0 11.49 14.9a5.748 5.748 0 0 0 5.742-5.742 5.748 5.748 0 0 0-5.742-5.742 5.748 5.748 0 0 0-5.742 5.742z" fill="#000"/><path d="M11.399 12.263a.636.636 0 0 0-.891-.125l.89.125zm0 0a.264.264 0 0 0 .213.106.264.264 0 0 0 .211-.105l-.1-.076.1.076a.636.636 0 0 1 1.013.77c-.293.386-.74.607-1.225.607-.479 0-.939-.229-1.228-.612m1.016-.766l-1.016.766m0 0a.636.636 0 0 1 .125-.89l-.125.89z" fill="#000"/></g><defs><clipPath id="a"><path fill="#fff" d="M0 0h52v52H0z"/></clipPath></defs></svg>