<svg width="70" height="47" viewBox="0 0 70 47" fill="none" xmlns="http://www.w3.org/2000/svg"><path d="M36.772 22.957h-5.557a.799.799 0 0 1-.78-.779.8.8 0 0 1 .78-.78h3.999v-.051c0-.468-.364-.831-.78-.935l-3.167-.467c-.416-.052-.728-.468-.676-.883.052-.416.468-.727.883-.675l3.168.467c1.195.156 2.13 1.246 2.13 2.441v1.662z" fill="#393939"/><path d="M54.17 31.11h-1.142a2.793 2.793 0 0 1-2.804-2.804v-1.558H34.85v1.558a2.793 2.793 0 0 1-2.805 2.804h-1.142a2.793 2.793 0 0 1-2.805-2.804v-9.972l-1.558-.572a1.279 1.279 0 0 1-.831-1.194v-1.662c0-.675.571-1.247 1.247-1.247h2.337c.363 0 .727-.207.883-.519l2.337-4.259a3.329 3.329 0 0 1 2.96-1.766h13.971c1.247 0 2.39.675 2.96 1.766l2.338 4.259c.156.312.52.52.883.52h2.337c.675 0 1.247.57 1.247 1.246v1.662c0 .52-.312.987-.831 1.194l-1.558.572v9.972c.103 1.558-1.143 2.804-2.65 2.804zm-20.826-5.92h18.49v3.116c0 .675.57 1.246 1.246 1.246h1.143c.675 0 1.246-.571 1.246-1.246V17.243l2.39-.883v-1.09h-2.026c-.935 0-1.818-.52-2.285-1.35L51.21 9.66a1.834 1.834 0 0 0-1.61-.935H35.63c-.675 0-1.246.364-1.61.935l-2.337 4.26a2.642 2.642 0 0 1-2.285 1.35H27.37v1.142l2.39.883v11.063c0 .675.57 1.246 1.246 1.246h1.142c.675 0 1.247-.571 1.247-1.246v-3.169h-.052z" fill="#393939"/><path d="M51.886 15.27H33.293a.799.799 0 0 1-.78-.779.8.8 0 0 1 .78-.78h18.593a.8.8 0 0 1 .78.78.765.765 0 0 1-.78.779zm2.076 7.686h-5.558v-1.61c0-1.247.935-2.285 2.13-2.441l3.168-.468c.416-.052.83.208.883.675.052.416-.208.831-.675.883l-3.168.468c-.468.052-.78.467-.78.935v.052h4c.415 0 .779.363.779.779 0 .363-.364.727-.78.727zm-7.894.052h-7.012a.799.799 0 0 1-.779-.779.8.8 0 0 1 .78-.779h7.011c.416 0 .779.364.779.78a.765.765 0 0 1-.779.778z" fill="#393939"/><path d="M46.07 23.01h-.105a.777.777 0 0 1-.675-.884l.208-1.922H39.63l.208 1.922c.052.416-.26.831-.675.883-.416.052-.831-.26-.883-.675l-.416-3.636h9.401l-.416 3.636a.78.78 0 0 1-.779.675zm-11.948 3.738h-2.077a.799.799 0 0 1-.78-.78.8.8 0 0 1 .78-.779h2.077a.8.8 0 0 1 .78.78.766.766 0 0 1-.78.779zm19.581 0h-2.701a.799.799 0 0 1-.78-.78.8.8 0 0 1 .78-.779h2.7a.8.8 0 0 1 .78.78c0 .467-.312.779-.78.779z" fill="#393939"/><path d="M34.124 26.748h-2.7a.799.799 0 0 1-.78-.78.8.8 0 0 1 .78-.779h2.7a.8.8 0 0 1 .78.78.766.766 0 0 1-.78.779zm-14.387-4.882h-8.985a.799.799 0 0 1-.78-.78c0-.415.364-.778.78-.778h8.985c.415 0 .779.363.779.779a.765.765 0 0 1-.78.779zm0 3.844h-8.985a.799.799 0 0 1-.78-.78.8.8 0 0 1 .78-.779h8.985a.8.8 0 0 1 .779.78.765.765 0 0 1-.78.778zm0 3.843h-8.985a.799.799 0 0 1-.78-.779.8.8 0 0 1 .78-.779h8.985a.8.8 0 0 1 .779.78.799.799 0 0 1-.78.778zM66.013 46.9H3.168A3.148 3.148 0 0 1 0 43.73v-2.856a.8.8 0 0 1 .78-.78h67.622a.8.8 0 0 1 .779.78v2.856a3.148 3.148 0 0 1-3.168 3.169zM1.558 41.706v2.077c0 .883.727 1.61 1.61 1.61h62.845c.883 0 1.61-.727 1.61-1.61v-2.077H1.558z" fill="#393939"/><path d="M63.988 41.706H5.195a.799.799 0 0 1-.779-.78V3.013A3.015 3.015 0 0 1 7.428 0h54.327a3.014 3.014 0 0 1 3.012 3.012v37.915a.799.799 0 0 1-.779.779zM5.974 40.148H63.21V3.012c0-.83-.675-1.454-1.454-1.454H7.428c-.83 0-1.454.675-1.454 1.454v37.136z" fill="#393939"/><path d="M19.997 7.947h-9.505v9.141h9.505v-9.14z" fill="#46C770"/></svg>