<svg width="60" height="49" viewBox="0 0 60 49" fill="none" xmlns="http://www.w3.org/2000/svg"><path d="M25.57 25.078h17.413l-3.121-5.75a1.041 1.041 0 0 0-.876-.547H20.04a.975.975 0 0 0-.876.548l-3.121 5.75h9.527zM7.064.821l5.093 5.147h34.55L51.8.931 7.064.82z" fill="#46C770"/><path d="M20.698 37.015h-7.775a.842.842 0 0 1-.821-.82c0-.439.383-.822.82-.822h6.134v-.384c0-.82-.603-1.533-1.424-1.642l-4.545-.657c-.438-.055-.766-.493-.712-.931.055-.438.493-.767.931-.712l4.545.657c1.588.22 2.847 1.643 2.847 3.285v2.026z" fill="#393939"/><path d="M46.27 48.843h-1.643a3.727 3.727 0 0 1-3.723-3.724v-2.573H18.016v2.573a3.727 3.727 0 0 1-3.724 3.724H12.65a3.727 3.727 0 0 1-3.724-3.724V30.445l-2.464-.877c-.602-.219-.985-.82-.985-1.423v-2.41c0-.82.711-1.533 1.533-1.533h3.395c.657 0 1.259-.383 1.588-.93l3.34-6.188c.821-1.478 2.354-2.41 3.997-2.41h20.26c1.697 0 3.23.932 3.997 2.41l3.34 6.188c.328.602.93.93 1.588.93h3.395c.821 0 1.533.712 1.533 1.533v2.41a1.48 1.48 0 0 1-.986 1.423l-2.464.877v14.674a3.727 3.727 0 0 1-3.723 3.724zm-29.897-7.94h26.173v4.216c0 1.15.931 2.08 2.081 2.08h1.643c1.15 0 2.08-.93 2.08-2.08V29.295l3.45-1.26v-2.19h-3.285c-1.26 0-2.41-.712-3.012-1.807l-3.34-6.187a2.907 2.907 0 0 0-2.573-1.534H19.33a2.91 2.91 0 0 0-2.574 1.534l-3.34 6.187c-.602 1.095-1.752 1.807-3.011 1.807H7.119v2.19l3.45 1.26v15.824c0 1.15.93 2.08 2.08 2.08h1.643a2.08 2.08 0 0 0 2.081-2.08v-4.216z" fill="#393939"/><path d="M44.352 25.9H14.565l3.832-6.954a1.848 1.848 0 0 1 1.643-.986h18.946a1.91 1.91 0 0 1 1.642.986l3.724 6.954zm-26.995-1.643h24.257l-2.464-4.545c-.055-.055-.11-.11-.164-.11H20.04c-.055 0-.164.055-.164.11l-2.519 4.545zm28.639 12.758h-7.775V34.99c0-1.642 1.204-3.011 2.847-3.285l4.545-.657c.438-.055.876.219.93.712.055.438-.218.876-.711.93l-4.545.658a1.653 1.653 0 0 0-1.424 1.642v.384h6.133c.438 0 .821.383.821.821a.842.842 0 0 1-.82.821zm-11.446.109H24.367a.842.842 0 0 1-.821-.821c0-.438.383-.822.821-.822h10.185c.438 0 .821.384.821.822a.842.842 0 0 1-.821.821z" fill="#393939"/><path d="M24.367 37.124a.83.83 0 0 1-.821-.712l-.548-4.928H35.92l-.547 4.928c-.055.438-.438.767-.931.712a.819.819 0 0 1-.712-.93l.384-3.122h-9.309l.383 3.121c.055.439-.273.877-.711.931h-.11zm-7.173 5.422h-3.066a.842.842 0 0 1-.821-.821c0-.438.383-.822.821-.822h3.066c.438 0 .822.384.822.822a.842.842 0 0 1-.822.821zm28.472 0h-3.942a.842.842 0 0 1-.822-.821c0-.438.384-.822.822-.822h3.942c.438 0 .821.384.821.822a.842.842 0 0 1-.82.821z" fill="#393939"/><path d="M17.193 42.546h-3.942a.842.842 0 0 1-.821-.821c0-.438.383-.822.821-.822h3.942c.438 0 .822.384.822.822a.842.842 0 0 1-.822.821z" fill="#393939"/><path d="M58.48 48.842a.842.842 0 0 1-.822-.821V4.819a3.178 3.178 0 0 0-3.176-3.176H4.82a3.178 3.178 0 0 0-3.176 3.176V48.02a.842.842 0 0 1-.822.821.842.842 0 0 1-.821-.821V4.819C0 2.19 2.135 0 4.819 0h49.663c2.629 0 4.819 2.135 4.819 4.819V48.02a.806.806 0 0 1-.822.821z" fill="#393939"/><path d="M46.706 6.79h-34.55a.842.842 0 0 1-.822-.821c0-.438.383-.822.821-.822h34.551c.438 0 .822.384.822.822a.806.806 0 0 1-.822.821z" fill="#393939"/><path d="M47.09 6.79H11.827L6.461 1.424a.794.794 0 0 1 0-1.15.794.794 0 0 1 1.15 0l4.873 4.873h33.894L51.197.329a.794.794 0 0 1 1.15 0 .794.794 0 0 1 0 1.15l-5.257 5.31zm-25.407 5.475c-.109 0-.273-.055-.383-.11-.383-.219-.547-.712-.383-1.095l1.26-2.464c.218-.383.711-.547 1.095-.383.383.219.547.712.383 1.095l-1.26 2.464c-.11.329-.383.493-.712.493zm7.777-.001a.842.842 0 0 1-.821-.821V8.979c0-.438.383-.822.821-.822.438 0 .821.384.821.822v2.464a.842.842 0 0 1-.821.82zm7.774 0c-.274 0-.602-.165-.712-.438l-1.26-2.464c-.218-.384-.054-.876.384-1.095.383-.22.876-.055 1.095.383l1.26 2.464c.218.383.054.876-.384 1.095-.164 0-.274.055-.383.055z" fill="#393939"/></svg>