<svg width="84" height="54" viewBox="0 0 84 54" fill="none" xmlns="http://www.w3.org/2000/svg"><path d="M69.645 46.343v5.149c0 .858.66 1.518 1.519 1.518h10.298c.858 0 1.519-.66 1.519-1.518v-5.15H69.645z" fill="#46C770"/><path d="M.99 7.592v5.149c0 .858.66 1.518 1.519 1.518H12.74c.858 0 1.518-.66 1.518-1.518v-5.15H.99zm22.841 0v5.149c0 .858.66 1.518 1.518 1.518h10.233c.858 0 1.518-.66 1.518-1.518v-5.15H23.831zm22.907 0v5.149c0 .858.66 1.518 1.519 1.518h10.232c.858 0 1.518-.66 1.518-1.518v-5.15H46.738zM.99 46.343v5.149c0 .858.66 1.518 1.519 1.518H12.74c.858 0 1.518-.66 1.518-1.518v-5.15H.99zm22.841 0v5.149c0 .858.66 1.518 1.518 1.518h10.233c.858 0 1.518-.66 1.518-1.518v-5.15H23.831zm22.907 0v5.149c0 .858.66 1.518 1.519 1.518h10.232c.858 0 1.518-.66 1.518-1.518v-5.15H46.738z" fill="#CDCDCD"/><path d="M12.807 15.25H2.443A2.437 2.437 0 0 1 0 12.806V2.443A2.437 2.437 0 0 1 2.443 0h10.364a2.437 2.437 0 0 1 2.442 2.443v10.364a2.437 2.437 0 0 1-2.442 2.442zM2.443 1.913a.451.451 0 0 0-.463.463V12.74c0 .264.198.462.463.462h10.364a.451.451 0 0 0 .462-.462V2.377a.451.451 0 0 0-.462-.463H2.443zM12.807 54H2.443A2.437 2.437 0 0 1 0 51.558V41.194a2.437 2.437 0 0 1 2.443-2.443h10.364a2.437 2.437 0 0 1 2.442 2.443v10.364A2.437 2.437 0 0 1 12.807 54zM2.443 40.665a.451.451 0 0 0-.463.462v10.365c0 .264.198.462.463.462h10.364a.451.451 0 0 0 .462-.462V41.128a.451.451 0 0 0-.462-.463H2.443zM35.714 15.25H25.35a2.437 2.437 0 0 1-2.443-2.443V2.443A2.437 2.437 0 0 1 25.35 0h10.364a2.437 2.437 0 0 1 2.443 2.443v10.364c0 1.32-1.123 2.442-2.443 2.442zM25.35 1.913a.451.451 0 0 0-.462.463V12.74c0 .264.198.462.462.462h10.364a.451.451 0 0 0 .462-.462V2.377a.451.451 0 0 0-.462-.463H25.35zM35.714 54H25.35a2.437 2.437 0 0 1-2.443-2.442V41.194a2.437 2.437 0 0 1 2.443-2.443h10.364a2.437 2.437 0 0 1 2.443 2.443v10.364c0 1.32-1.123 2.442-2.443 2.442zM25.35 40.665a.451.451 0 0 0-.462.462v10.365c0 .264.198.462.462.462h10.364a.451.451 0 0 0 .462-.462V41.128a.451.451 0 0 0-.462-.463H25.35zM58.621 15.25H48.257a2.437 2.437 0 0 1-2.442-2.443V2.443A2.437 2.437 0 0 1 48.257 0h10.364a2.437 2.437 0 0 1 2.443 2.443v10.364c0 1.32-1.122 2.442-2.443 2.442zM48.257 1.913a.451.451 0 0 0-.462.463V12.74c0 .264.198.462.462.462h10.364a.451.451 0 0 0 .462-.462V2.377a.451.451 0 0 0-.462-.463H48.257zM58.621 54H48.257a2.437 2.437 0 0 1-2.442-2.442V41.194a2.437 2.437 0 0 1 2.442-2.443h10.364a2.437 2.437 0 0 1 2.443 2.443v10.364c0 1.32-1.122 2.442-2.443 2.442zM48.257 40.665a.451.451 0 0 0-.462.462v10.365c0 .264.198.462.462.462h10.364a.451.451 0 0 0 .462-.462V41.128a.451.451 0 0 0-.462-.463H48.257zM81.529 54H71.164a2.437 2.437 0 0 1-2.442-2.442V41.194a2.437 2.437 0 0 1 2.442-2.443H81.53a2.437 2.437 0 0 1 2.442 2.443v10.364c0 1.32-1.122 2.442-2.442 2.442zm-10.43-13.335a.451.451 0 0 0-.463.462v10.365c0 .264.198.462.462.462h10.365a.451.451 0 0 0 .462-.462V41.128a.451.451 0 0 0-.462-.463H71.098z" fill="#393939"/><path d="M77.304 39.675h-1.98V27.331H7.591v-1.98h69.712v14.324z" fill="#393939"/><path d="M8.582 14.26h-1.98v25.416h1.98V14.26zm22.908 0h-1.981v25.416h1.98V14.26zm22.907 0h-1.981v25.416h1.98V14.26zM8.582 6.47h-1.98v2.244h1.98V6.469zm0 38.75h-1.98v2.245h1.98V45.22zM31.49 6.47h-1.981v2.244h1.98V6.469zm0 38.75h-1.981v2.245h1.98V45.22zM54.397 6.47h-1.981v2.244h1.98V6.469zm0 38.75h-1.981v2.245h1.98V45.22zm22.907 0h-1.98v2.245h1.98V45.22z" fill="#393939"/></svg>