<svg width="61" height="61" viewBox="0 0 61 61" fill="none" xmlns="http://www.w3.org/2000/svg"><path d="M58.269 58.45a5.568 5.568 0 0 0 0-7.89l-34.84-34.84a11.374 11.374 0 0 0-2.913-11.168C17.663 1.7 13.658.668 9.956 1.457l1.76 1.76 5.037 5.038-1.82 6.858L58.268 58.45z" fill="#46C770"/><path d="M2.367 59.482c-.243 0-.486-.06-.668-.243a.88.88 0 0 1 0-1.275L14.384 45.28a.88.88 0 0 1 1.275 0 .88.88 0 0 1 0 1.275L2.974 59.239c-.122.182-.365.243-.607.243z" fill="#393939"/><path d="M6.009 60.999c-1.639 0-3.156-.607-4.249-1.76A5.971 5.971 0 0 1 0 54.99a5.97 5.97 0 0 1 1.76-4.248l20.455-20.455a.88.88 0 0 1 1.274 0 .88.88 0 0 1 0 1.275L3.035 52.016c-.79.79-1.214 1.82-1.214 2.974 0 1.093.425 2.185 1.214 2.974.789.79 1.82 1.214 2.974 1.214a4.228 4.228 0 0 0 2.974-1.214L29.437 37.51a.88.88 0 0 1 1.275 0 .88.88 0 0 1 0 1.274L10.258 59.24C9.104 60.332 7.587 61 6.008 61zm30.106-31.744c-.242 0-.485-.06-.667-.242a.88.88 0 0 1 0-1.275L50.56 12.625l-2.246-2.246-15.113 15.113a.88.88 0 0 1-1.275 0 .88.88 0 0 1 0-1.274l15.72-15.72c.183-.183.425-.243.668-.243.243 0 .486.121.668.242l3.52 3.52a.88.88 0 0 1 0 1.275l-15.72 15.72c-.182.183-.425.243-.668.243z" fill="#393939"/><path d="M51.653 13.717l-4.37-4.37 2.064-5.22L55.902 0 61 5.098l-4.127 6.555-5.22 2.064zm-2.245-4.855l2.67 2.67 3.581-1.396 3.035-4.795-3.035-3.035-4.795 3.035-1.456 3.52zM54.322 61c-1.76 0-3.4-.669-4.613-1.883L15.234 24.642c-4.128.972-8.498-.303-11.532-3.277C.727 18.39-.548 14.142.363 10.015l.364-1.639 7.587 7.587 5.827-1.578 1.578-5.827L8.132.971l1.64-.364c4.126-.91 8.375.303 11.35 3.338a12.317 12.317 0 0 1 3.277 11.532l34.475 34.475c1.214 1.214 1.881 2.853 1.881 4.613 0 1.76-.667 3.4-1.881 4.613C57.66 60.271 56.082 61 54.322 61zM15.78 22.578l35.203 35.203c.91.91 2.064 1.396 3.339 1.396 1.274 0 2.427-.485 3.338-1.396.91-.91 1.396-2.063 1.396-3.338s-.486-2.428-1.396-3.338L22.457 15.902l.12-.485c1.033-3.642 0-7.587-2.67-10.258-2.124-2.124-4.977-3.217-7.95-3.035l5.887 5.888-2.125 7.83-7.89 2.063-5.888-5.887c-.182 2.974.91 5.826 3.035 7.95a10.502 10.502 0 0 0 10.258 2.672l.546-.061z" fill="#393939"/><path d="M58.268 59.36c-.243 0-.486-.06-.668-.243l-9.893-9.893a.88.88 0 0 1 0-1.275.88.88 0 0 1 1.274 0l9.894 9.894a.88.88 0 0 1 0 1.274.927.927 0 0 1-.607.243z" fill="#393939"/></svg>