<svg width="87" height="29" viewBox="0 0 87 29" fill="none" xmlns="http://www.w3.org/2000/svg"><path d="M85.603 19.062c0-.698-.28-1.187-.698-1.466l-1.816-1.188v-2.513a1.555 1.555 0 0 0-.838-1.536c-1.955-.908-6.842-2.584-15.71-3.072-3.212-.21-6.424-.978-9.286-2.444l-7.262-3.631c-2.863-1.397-6.005-2.165-9.217-2.165h-2.513v23.81h26.463a7.365 7.365 0 0 1-.14-3.281c.559-3.492 3.491-6.285 7.052-6.634 4.818-.489 8.868 3.282 8.868 7.96a8.83 8.83 0 0 1-.21 1.955h4.4c.558 0 1.047-.489 1.047-1.047l-.14-4.748z" fill="#46C770"/><path d="M72.477 28.139a5.304 5.304 0 0 1-5.307-5.307 5.304 5.304 0 0 1 5.306-5.307 5.304 5.304 0 0 1 5.307 5.307c0 2.933-2.444 5.306-5.306 5.306zm0-8.519c-1.746 0-3.212 1.466-3.212 3.212 0 1.745 1.466 3.212 3.212 3.212 1.745 0 3.211-1.466 3.211-3.212 0-1.746-1.466-3.212-3.212-3.212zm-54.043 8.519a5.304 5.304 0 0 1-5.307-5.307 5.304 5.304 0 0 1 5.307-5.307 5.304 5.304 0 0 1 5.306 5.307 5.304 5.304 0 0 1-5.306 5.306zm0-8.519c-1.746 0-3.212 1.466-3.212 3.212 0 1.745 1.466 3.212 3.212 3.212 1.745 0 3.211-1.466 3.211-3.212a3.203 3.203 0 0 0-3.211-3.212z" fill="#393939"/><path d="M84.626 25.835H78.9l.35-1.327c.14-.558.21-1.117.21-1.676a6.99 6.99 0 0 0-2.305-5.167 6.91 6.91 0 0 0-5.377-1.745c-3.072.349-5.655 2.723-6.144 5.795-.14.978-.14 1.885.14 2.863l.349 1.326H24.997l.349-1.326c.14-.559.21-1.117.21-1.676 0-1.955-.838-3.84-2.305-5.167a6.91 6.91 0 0 0-5.376-1.745c-3.072.349-5.656 2.723-6.145 5.795-.14.977-.14 1.885.14 2.863l.35 1.326H6.353C1.327 25.974 0 20.807 0 18.084c0-2.862 1.257-5.027 1.746-5.795V9.356c0-.558.21-1.047.628-1.466.419-.35.908-.559 1.466-.559 3.282.21 6.703-.698 10.125-2.723C19.132 1.606 25.276 0 31.63 0h9.287c3.351 0 6.703.768 9.705 2.304l7.262 3.631c2.723 1.396 5.725 2.165 8.937 2.374 9.007.489 13.965 2.234 16.06 3.212.977.419 1.535 1.466 1.466 2.513v1.886l1.396.908c.768.488 1.187 1.326 1.187 2.373L87 23.88c0 .558-.21 1.117-.628 1.466-.699.28-1.187.489-1.746.489zm-3.212-2.095h3.142l-.07-4.678c0-.42-.14-.559-.279-.629l-2.304-1.536v-3.142c0-.21-.07-.349-.28-.489-1.605-.768-6.353-2.513-15.36-3.002-3.422-.21-6.704-1.047-9.706-2.583L49.295 4.05c-2.723-1.327-5.725-2.095-8.728-2.095h-9.146c-6.005 0-11.73 1.466-16.618 4.33C11.102 8.448 7.33 9.425 3.63 9.286v3.49l-.21.28s-1.536 2.025-1.536 4.818c0 .21.07 5.795 4.26 5.795h3.281c-.07-.768-.07-1.606.07-2.374.628-3.98 3.98-7.122 7.96-7.54 2.583-.28 5.097.558 7.052 2.303 1.885 1.746 3.003 4.19 3.003 6.703 0 .28 0 .629-.07.908H63.4c-.07-.768-.07-1.606.07-2.374.628-3.98 3.98-7.122 7.96-7.54 2.583-.28 5.096.558 7.052 2.303 1.885 1.746 3.002 4.19 3.002 6.703 0 .35 0 .699-.07.978z" fill="#393939"/><path d="M10.822 8.169c-.28 0-.558-.07-.768-.28L7.122 4.958h-4.47A1.074 1.074 0 0 1 1.606 3.91c0-.559.49-1.048 1.048-1.048H7.96l3.492 3.491a1.012 1.012 0 0 1 0 1.467c-.14.279-.35.349-.629.349zM39.241.978h-2.094v23.81h2.094V.978z" fill="#393939"/></svg>