<svg width="51" height="51" viewBox="0 0 51 51" fill="none" xmlns="http://www.w3.org/2000/svg"><path d="M51 21.24a.865.865 0 0 0-.008-.108l-.002-.007a.832.832 0 0 0-.06-.211l-.004-.01a.847.847 0 0 0-.05-.093l-.013-.022a.814.814 0 0 0-.049-.068l-.016-.02a.827.827 0 0 0-.072-.075l-.014-.012-.049-.041-3.063-2.324v-4.648a.85.85 0 0 0-.85-.85h-6.398L26.014 1.873a.85.85 0 0 0-1.028 0L10.648 12.751H4.25a.85.85 0 0 0-.85.85v4.648L.337 20.573c-.015.01-.028.023-.042.035a.855.855 0 0 0-.092.092l-.02.025a.805.805 0 0 0-.044.061l-.017.027a.841.841 0 0 0-.047.089l-.008.019a.866.866 0 0 0-.055.192l-.004.023a.842.842 0 0 0-.007.1L0 21.25v27.2c0 .47.38.85.85.85h49.3c.47 0 .85-.38.85-.85V21.24zm-2.258.01l-1.142.867v-1.733l1.142.866zM25.5 3.617l12.039 9.134H13.46L25.5 3.617zm20.4 10.834v8.956L30.816 34.85H20.183L5.1 23.408V14.45h40.8zm-17.325 22.1L25.5 38.882l-3.076-2.333h6.151zM3.4 22.117l-1.143-.867 1.143-.867v1.734zM49.3 47.6H1.7V22.962l23.287 17.666a.85.85 0 0 0 1.026 0L49.3 22.962V47.6z" fill="#000"/><path d="M39.95 17.85h3.4a.85.85 0 1 0 0-1.7h-3.4a.85.85 0 1 0 0 1.7zm-32.1-.15h3.4a.85.85 0 1 0 0-1.7h-3.4a.85.85 0 1 0 0 1.7zm32 28h3.4a.85.85 0 1 0 0-1.7h-3.4a.85.85 0 1 0 0 1.7z" fill="#46C770"/></svg>