<svg width="63" height="63" viewBox="0 0 63 63" fill="none" xmlns="http://www.w3.org/2000/svg"><path d="M31.5.911v5.355c13.956 0 25.291 11.335 25.291 25.29 0 .855-.057 1.71-.114 2.507l-15.152-3.531c-.512-5.07-4.785-9.057-9.968-9.057v5.98a4.06 4.06 0 0 1 4.044 4.045 4.06 4.06 0 0 1-4.044 4.044V62.09c16.918 0 30.646-13.728 30.646-30.646S48.418.911 31.5.911zm3.076 55.71V41.07c2.392-.74 4.386-2.393 5.64-4.557l15.094 3.474c-3.133 8.886-11.108 15.437-20.734 16.633z" fill="#46C770"/><path d="M31.5 63C14.127 63 0 48.873 0 31.5 0 14.127 14.127 0 31.5 0 48.873 0 63 14.127 63 31.5 63 48.873 48.873 63 31.5 63zm0-61.234c-16.405 0-29.791 13.329-29.791 29.79 0 16.406 13.329 29.792 29.791 29.792 16.405 0 29.791-13.329 29.791-29.791S47.905 1.766 31.5 1.766zm-2.165 55.823l-.968-.114c-9.74-1.197-18.17-7.918-21.475-17.146l-.341-.911 16.633-3.874.341.57a8.982 8.982 0 0 0 5.184 4.158l.57.171v17.146h.056zM8.83 40.614c3.19 7.86 10.367 13.67 18.74 14.98V41.64c-2.107-.797-3.93-2.278-5.183-4.215L8.83 40.614zm24.892 16.975V40.5l.57-.17c2.165-.684 3.988-2.165 5.184-4.16l.341-.569 16.633 3.874-.341.911c-3.304 9.228-11.735 16.006-21.475 17.146l-.912.057zm1.71-15.893v13.956c8.373-1.367 15.55-7.12 18.74-14.981l-13.557-3.133c-1.253 1.88-3.076 3.304-5.184 4.158zm21.987-6.607l-16.69-3.874-.057-.626c-.456-4.728-4.386-8.26-9.114-8.26-4.728 0-8.658 3.532-9.114 8.26l-.057.626-16.69 3.874-.114-.969c-.114-.854-.114-1.766-.114-2.62 0-14.411 11.735-26.146 26.146-26.146 14.41 0 26.145 11.736 26.145 26.146 0 .854-.057 1.709-.114 2.62l-.228.969zM31.5 7.063C18.057 7.063 7.063 18 7.063 31.5c0 .456 0 .968.057 1.481l13.614-3.133c.798-5.297 5.355-9.228 10.766-9.228s9.968 3.93 10.766 9.228l13.614 3.133c.057-.513.057-.968.057-1.481C55.937 18.057 45 7.063 31.5 7.063z" fill="#393939"/><path d="M31.498 36.399a4.898 4.898 0 1 1 0-9.798 4.898 4.898 0 0 1 4.9 4.899c.056 2.734-2.166 4.899-4.9 4.899zm0-8.089a3.185 3.185 0 0 0-3.19 3.19 3.185 3.185 0 0 0 3.19 3.19 3.185 3.185 0 0 0 3.19-3.19c.057-1.766-1.424-3.19-3.19-3.19zm14.756-10.709c-.228 0-.456-.057-.626-.228-3.76-3.76-8.773-5.867-14.127-5.867-5.354 0-10.367 2.108-14.127 5.867a.826.826 0 0 1-1.196 0 .826.826 0 0 1 0-1.196c4.101-4.101 9.57-6.38 15.323-6.38 5.81 0 11.221 2.279 15.323 6.38a.826.826 0 0 1 0 1.196c-.114.171-.342.228-.57.228z" fill="#393939"/></svg>