<svg width="53" height="74" viewBox="0 0 53 74" fill="none" xmlns="http://www.w3.org/2000/svg"><path d="M30.94 4.941h-1.86v-.235c0-1.647-1.426-2.941-3.1-2.941-1.736 0-3.1 1.353-3.1 2.94v.236h-1.86v-.235C21.02 2.118 23.252 0 25.98 0c2.728 0 4.96 2.118 4.96 4.706v.235z" fill="#393939"/><path d="M17.422 6v8.118c0 .764.682 1.411 1.488 1.411h.558c.744 0 1.364-.529 1.426-1.176v-.176c.31-2.412 2.48-4.236 5.084-4.236 2.542 0 4.713 1.824 5.085 4.236v.176a1.435 1.435 0 0 0 1.426 1.176c.806 0 1.488-.647 1.488-1.411V6c0-.588-.496-1.059-1.116-1.059H18.538c-.62 0-1.116.47-1.116 1.059z" fill="#46C770"/><path d="M47.122 74H4.898C2.232 74 0 71.941 0 69.353v-57.47c0-2.53 2.17-4.648 4.898-4.648h12.525V9H4.898C3.224 9 1.86 10.294 1.86 11.882v57.53c0 1.588 1.364 2.882 3.038 2.882h42.224c1.675 0 3.039-1.294 3.039-2.882v-57.47c0-1.59-1.364-2.883-3.039-2.883H33.978V7.294h13.144c2.667 0 4.899 2.059 4.899 4.647v57.47C51.959 71.942 49.789 74 47.122 74z" fill="#393939"/><path d="M37.76 60.53h8.37l-8.37 7.94v-7.94z" fill="#46C770"/><path d="M35.59 68.47H5.828V12.883h10.23v1.765h-8.37v52.059H33.73v-10h10.54v-42.06h-8.308v-1.765H46.13v45.589H35.59v10z" fill="#393939"/><path d="M16.865 42.588l-2.914-2.764 1.302-1.236 1.612 1.471 3.969-4 1.364 1.235-5.333 5.294zm2.829-20.111l-5.524 5.24 1.315 1.248 5.524-5.24-1.315-1.248z" fill="#393939"/><path d="M15.491 22.488l-1.315 1.248 5.524 5.241 1.315-1.248-5.524-5.24zm4.207 27.045l-5.524 5.241 1.315 1.248 5.524-5.24-1.315-1.249z" fill="#393939"/><path d="M15.495 49.546l-1.315 1.248 5.524 5.24 1.315-1.248-5.524-5.24zM40.301 27.47H24.305v1.765H40.3v-1.764zm0 13.295H24.305v1.764H40.3v-1.764z" fill="#393939"/></svg>