<svg width="74" height="59" viewBox="0 0 74 59" fill="none" xmlns="http://www.w3.org/2000/svg"><path d="M64.55 39.401l-2.64-4.841a.302.302 0 0 0-.275-.165H45.18c-.11 0-.22.055-.275.165l-2.641 4.84H64.55z" fill="#46C770"/><path d="M30.928 2.147l-1.816 1.816-.825-.826a5.38 5.38 0 0 0-7.594 0l-.826.826-1.816-1.816a4.351 4.351 0 0 0-6.163 0L9.632 4.403l6.328 6.108h17.06l6.327-6.108-2.256-2.256a4.35 4.35 0 0 0-6.163 0z" fill="#F2DDDE"/><path d="M33.349 11.336h-17.72L8.476 4.402l2.861-2.861C12.327.55 13.593 0 14.97 0a4.99 4.99 0 0 1 3.632 1.54l1.266 1.266.22-.22A6.249 6.249 0 0 1 24.489.77c1.65 0 3.192.66 4.402 1.816l.22.22 1.266-1.265a5.148 5.148 0 0 1 7.319 0l2.861 2.861-7.208 6.934zm-17.06-1.65h16.4l5.447-5.284-1.65-1.65c-1.376-1.376-3.633-1.376-4.953 0l-2.422 2.42-1.375-1.375a4.408 4.408 0 0 0-3.192-1.32 4.54 4.54 0 0 0-3.192 1.32l-1.375 1.376-2.422-2.422a3.5 3.5 0 0 0-2.476-1.045 3.5 3.5 0 0 0-2.476 1.045l-1.651 1.651 5.338 5.283zm50.793 49.25h-1.32a3.194 3.194 0 0 1-3.192-3.192v-1.926H44.245v1.926a3.194 3.194 0 0 1-3.192 3.192h-1.32a3.194 3.194 0 0 1-3.192-3.192V43.913l-1.871-.715c-.55-.22-.936-.716-.936-1.321V39.95c0-.77.606-1.376 1.376-1.376h2.752a1.34 1.34 0 0 0 1.155-.66l2.752-5.008c.66-1.265 1.98-2.036 3.411-2.036h16.454c1.43 0 2.752.77 3.412 2.036l2.751 5.008c.22.44.66.66 1.156.66h2.751c.77 0 1.376.605 1.376 1.376v1.926c0 .605-.385 1.1-.935 1.32l-1.871.716v11.831c0 1.706-1.431 3.192-3.192 3.192zm-24.488-6.769h21.627v3.577c0 .826.715 1.541 1.54 1.541h1.321c.825 0 1.54-.715 1.54-1.54V42.756l2.807-1.045V40.17h-2.476c-1.1 0-2.091-.605-2.586-1.54l-2.752-5.008c-.385-.716-1.156-1.156-1.98-1.156H45.18c-.825 0-1.54.44-1.98 1.156l-2.752 5.007c-.495.936-1.54 1.541-2.586 1.541h-2.477v1.54l2.807 1.046v12.987c0 .826.715 1.541 1.54 1.541h1.321c.826 0 1.541-.715 1.541-1.54v-3.578z" fill="#344154"/><path d="M46.446 49.306h-6.494a.846.846 0 0 1-.825-.826c0-.44.385-.825.825-.825h4.843v-.165c0-.606-.44-1.1-.99-1.156l-3.743-.55c-.44-.055-.77-.495-.715-.936.055-.44.495-.77.935-.715l3.743.55c1.375.22 2.42 1.431 2.42 2.807v1.816zm20.416 0h-6.494V47.49c0-1.376 1.046-2.587 2.421-2.807l3.742-.55c.44-.055.88.22.936.715.055.44-.22.88-.716.936l-3.742.55c-.605.11-.99.605-.99 1.156v.165h4.843c.44 0 .825.385.825.825 0 .44-.385.826-.825.826zm-9.3.054h-8.254a.846.846 0 0 1-.826-.825c0-.44.386-.825.826-.825h8.254c.44 0 .826.385.826.825 0 .44-.386.826-.826.826z" fill="#344154"/><path d="M57.561 49.361h-.11c-.44-.055-.77-.44-.715-.935l.275-2.366h-7.154l.276 2.366c.054.44-.276.88-.716.935-.44.056-.88-.275-.935-.715l-.496-4.182h10.896l-.495 4.182a.827.827 0 0 1-.826.715zm-14.142 4.458h-2.476a.846.846 0 0 1-.826-.826c0-.44.385-.825.826-.825h2.476c.44 0 .825.385.825.825 0 .44-.385.826-.825.826zm23.167 0h-3.191a.846.846 0 0 1-.826-.826c0-.44.386-.825.826-.825h3.191c.44 0 .826.385.826.825 0 .44-.385.826-.826.826z" fill="#344154"/><path d="M43.42 53.819h-3.192a.846.846 0 0 1-.826-.826c0-.44.386-.825.826-.825h3.191c.44 0 .826.385.826.825 0 .44-.385.826-.826.826z" fill="#344154"/><path d="M40.228 58.936H24.379c-9.19 0-15.848-2.091-19.92-6.163C1.432 49.746-.054 45.674 0 40.72c.057-4.95 1.762-10.014 4.844-14.14l9.685-13.042h19.205v1.651h-18.38L6.165 27.57c-2.916 3.907-4.512 8.584-4.567 13.206-.055 4.513 1.321 8.2 3.962 10.896 3.742 3.742 10.016 5.668 18.765 5.668h15.849v1.596h.055z" fill="#344154"/><path d="M45.566 31.972a27.659 27.659 0 0 0-2.586-4.457l-9.465-12.712 1.32-.99 9.465 12.71a27.473 27.473 0 0 1 2.807 4.733l-1.541.715z" fill="#344154"/><path d="M34.395 15.133H14.309c-1.21 0-2.146-.99-2.146-2.146v-1.1c0-1.211.99-2.147 2.146-2.147h20.086c1.21 0 2.146.99 2.146 2.146v1.101c.055 1.156-.936 2.146-2.146 2.146zm-20.03-3.797a.493.493 0 0 0-.496.495v1.1c0 .276.22.496.495.496H34.45c.275 0 .495-.22.495-.495v-1.1a.493.493 0 0 0-.495-.496H14.364z" fill="#344154"/><path d="M33.349 11.336h-17.72L8.476 4.402l2.861-2.861C12.327.55 13.593 0 14.97 0a4.99 4.99 0 0 1 3.632 1.54l1.266 1.266.22-.22A6.249 6.249 0 0 1 24.489.77c1.65 0 3.192.66 4.402 1.816l.22.22 1.266-1.265a5.148 5.148 0 0 1 7.319 0l2.861 2.861-7.208 6.934zm-17.06-1.65h16.4l5.447-5.284-1.65-1.65c-1.376-1.376-3.633-1.376-4.953 0l-2.422 2.42-1.375-1.375a4.408 4.408 0 0 0-3.192-1.32 4.54 4.54 0 0 0-3.192 1.32l-1.375 1.376-2.422-2.422a3.5 3.5 0 0 0-2.476-1.045 3.5 3.5 0 0 0-2.476 1.045l-1.651 1.651 5.338 5.283z" fill="#344154"/><path d="M25.4 49h-2.636V34.454h-6.182v-2.197h15v2.197H25.4V49zm6.182-18.94h-15v-2.198h15v2.198z" fill="#46C770"/></svg>