<svg width="63" height="63" viewBox="0 0 63 63" fill="none" xmlns="http://www.w3.org/2000/svg"><g clip-path="url(#a)"><path d="M55.357 12.756L31.679.139a1.176 1.176 0 0 0-1.121.006L7.535 12.762a1.179 1.179 0 0 0-.612 1.034v16.481A34.125 34.125 0 0 0 27.376 61.51l3.196 1.393c.299.13.639.13.938.001l3.601-1.555a34.058 34.058 0 0 0 20.87-31.397V13.796c0-.435-.24-.836-.624-1.04zM53.623 29.95a31.706 31.706 0 0 1-19.435 29.228l-.008.004-3.136 1.354-2.724-1.189a31.764 31.764 0 0 1-19.04-29.07V14.493L31.132 2.518l22.491 11.985V29.95z" fill="#393939"/><path d="M22.434 29.513a1.179 1.179 0 0 0-1.793 1.53l6.227 7.292a1.178 1.178 0 0 0 1.64.15l14.502-11.8a1.178 1.178 0 1 0-1.488-1.828L27.913 35.928l-5.479-6.415z" fill="#46C770"/></g><defs><clipPath id="a"><path fill="#fff" d="M0 0h63v63H0z"/></clipPath></defs></svg>