<svg width="65" height="65" viewBox="0 0 65 65" fill="none" xmlns="http://www.w3.org/2000/svg"><path d="M48 12L11 49m2.5 3L51 14.5m2.5 3l-37 37" stroke="#46C770"/><path d="M32.5 5C17.337 5 5 17.337 5 32.5S17.337 60 32.5 60 60 47.663 60 32.5 47.663 5 32.5 5zm0 53.167c-14.152 0-25.667-11.515-25.667-25.667 0-14.152 11.515-25.667 25.667-25.667 14.152 0 25.667 11.515 25.667 25.667 0 14.152-11.515 25.667-25.667 25.667z" fill="#393939"/><path d="M.25 32.5C.25 14.718 14.718.25 32.5.25S64.75 14.718 64.75 32.5 50.282 64.75 32.5 64.75.25 50.282.25 32.5zm1.667 0c0 16.864 13.72 30.583 30.583 30.583 16.864 0 30.583-13.72 30.583-30.583 0-16.864-13.72-30.583-30.583-30.583-16.864 0-30.583 13.72-30.583 30.583z" fill="#393939" stroke="#fff" stroke-width=".5"/></svg>