<svg width="55" height="55" viewBox="0 0 55 55" fill="none" xmlns="http://www.w3.org/2000/svg"><path d="M32.656 32.656H11.172a.86.86 0 0 0-.607.252L.252 43.221l1.215 1.215 10.06-10.061h20.184c-.179 1.02-.74 2.578-2.492 2.578h-9.453v1.719h9.453c3.399 0 4.297-3.373 4.297-5.156a.86.86 0 0 0-.86-.86z" fill="#000"/><path d="M43.577 26.891a.86.86 0 0 0-1.216 0l-7.734 7.735 1.215 1.215 7.059-7.058a3.663 3.663 0 0 1-.54 4.984l-10.06 10.06H14.609a.86.86 0 0 0-.607.253l-6.016 6.015 1.215 1.215 5.764-5.763h17.691a.86.86 0 0 0 .608-.253L43.577 34.98c3.2-3.199 1.398-6.69 0-8.09z" fill="#000"/><path d="M27.5 0C12.312 0 0 12.312 0 27.5h1.719C1.719 13.261 13.26 1.719 27.5 1.719c14.239 0 25.781 11.542 25.781 25.781 0 14.239-11.542 25.781-25.781 25.781V55C42.688 55 55 42.688 55 27.5S42.688 0 27.5 0z" fill="#000"/><path d="M36.094 16.328h-6.016v1.719h3.941l-8.593 8.594h-3.942v1.718h4.297a.86.86 0 0 0 .608-.251l8.845-8.846v3.082h1.72v-5.157a.86.86 0 0 0-.86-.859zM9.453 26.64a.86.86 0 0 0-.607.252l-2.578 2.579 1.215 1.215 2.326-2.327h6.52v-1.718H9.452zm10.313 0h-1.72v1.72h1.72v-1.72zM6.958 19.6l1.64.515A18.826 18.826 0 0 1 26.64 6.876v-1.72A20.539 20.539 0 0 0 6.958 19.6z" fill="#46C770"/></svg>