<svg width="95" height="16" viewBox="0 0 95 16" fill="none" xmlns="http://www.w3.org/2000/svg">
<path d="M11.3591 0H9.08586C6.78277 0 4.45883 1.70069 4.45883 5.50019C4.45883 7.46825 5.29293 9.00103 6.82193 9.87275L4.02343 14.9381C3.89074 15.1777 3.88727 15.4492 4.01411 15.6643C4.13796 15.8745 4.36443 16 4.61968 16H6.03533C6.35693 16 6.60768 15.8446 6.72793 15.5723L9.35183 10.44H9.54333V15.3603C9.54333 15.7071 9.83593 16 10.1823 16H11.419C11.8074 16 12.0785 15.7288 12.0785 15.3405V0.700094C12.0786 0.287906 11.7828 0 11.3591 0ZM9.54333 8.16019H9.20552C7.89568 8.16019 7.11371 7.091 7.11371 5.30009C7.11371 3.07325 8.10152 2.27984 9.02602 2.27984H9.54333V8.16019Z" fill="#D7143A"/>
<path d="M22.6191 8.41113V5.97949H21.2764C20.8434 5.97949 20.5049 6.08691 20.2607 6.30176C20.0199 6.51335 19.8994 6.8112 19.8994 7.19531C19.8994 7.57943 20.0199 7.87891 20.2607 8.09375C20.5016 8.30534 20.8402 8.41113 21.2764 8.41113H22.6191ZM21.457 9.39746L19.6846 12H18.2686L20.1826 9.22656C19.7074 9.0931 19.3265 8.8457 19.04 8.48438C18.7568 8.11979 18.6152 7.68848 18.6152 7.19043C18.6152 6.52311 18.8382 5.98438 19.2842 5.57422C19.7334 5.16081 20.3258 4.9541 21.0615 4.9541H23.8691V12H22.6191V9.39746H21.457ZM31.1543 12H29.8994V8.94336H26.4717V12H25.2119V4.9541H26.4717V7.88379H29.8994V4.9541H31.1543V12ZM34.3428 9.17773C34.3135 9.61068 34.2646 9.96061 34.1963 10.2275C34.1279 10.4912 34.0173 10.7142 33.8643 10.8965V10.9355H36.9404V6.01367H34.543L34.3428 9.17773ZM33.1074 12V13.3916H31.96V10.9355H32.4629C32.7005 10.7858 32.8714 10.5677 32.9756 10.2812C33.0798 9.99154 33.1465 9.59766 33.1758 9.09961L33.4297 4.9541H38.1953V10.9355H39.0742V13.3916H37.9316V12H33.1074ZM44.5381 10.9355V12H39.9775V4.9541H44.5381V6.01855H41.2373V7.92285H44.3574V8.92383H41.2373V10.9355H44.5381ZM48.2344 8.30371L51.5205 12H49.9092L47.0381 8.78711H46.999V12H45.7393V4.9541H46.999V8.03516H47.0381L49.7969 4.9541H51.252L48.2344 8.30371ZM55.0361 12.1416C54.0303 12.1416 53.2327 11.8128 52.6436 11.1553C52.0544 10.4977 51.7598 9.60417 51.7598 8.47461C51.7598 7.35156 52.0544 6.46126 52.6436 5.80371C53.236 5.1429 54.0335 4.8125 55.0361 4.8125C55.8304 4.8125 56.5059 5.03711 57.0625 5.48633C57.6191 5.93229 57.9495 6.5166 58.0537 7.23926H56.8086C56.7044 6.83236 56.4912 6.50846 56.1689 6.26758C55.8467 6.02669 55.4691 5.90625 55.0361 5.90625C54.4307 5.90625 53.9473 6.139 53.5859 6.60449C53.2279 7.06673 53.0488 7.6901 53.0488 8.47461C53.0488 9.26562 53.2279 9.89225 53.5859 10.3545C53.944 10.8167 54.429 11.0479 55.041 11.0479C55.4837 11.0479 55.8597 10.9404 56.1689 10.7256C56.4814 10.5075 56.6947 10.2048 56.8086 9.81738H58.0586C57.9251 10.54 57.5898 11.1081 57.0527 11.5215C56.5189 11.9349 55.8467 12.1416 55.0361 12.1416ZM63.6055 8.30371L66.8916 12H65.2803L62.4092 8.78711H62.3701V12H61.1104V4.9541H62.3701V8.03516H62.4092L65.168 4.9541H66.623L63.6055 8.30371ZM72.248 12L71.6475 10.1787H69.0547L68.4541 12H67.1553L69.6553 4.9541H71.0762L73.5762 12H72.248ZM70.334 6.19922L69.3477 9.20703H71.3496L70.3682 6.19922H70.334ZM74.4307 4.9541H77.1699C77.873 4.9541 78.4443 5.1722 78.8838 5.6084C79.3232 6.04134 79.543 6.60938 79.543 7.3125C79.543 8.01237 79.3167 8.5804 78.8643 9.0166C78.415 9.4528 77.8324 9.6709 77.1162 9.6709H75.6904V12H74.4307V4.9541ZM75.6904 5.98438V8.65527H76.833C77.2855 8.65527 77.637 8.53809 77.8877 8.30371C78.1383 8.06934 78.2637 7.73893 78.2637 7.3125C78.2637 6.88932 78.1383 6.56217 77.8877 6.33105C77.6403 6.09993 77.2904 5.98438 76.8379 5.98438H75.6904ZM83.4736 12H82.2188V6.01855H80.1094V4.9541H85.5781V6.01855H83.4736V12ZM86.54 12V4.9541H87.7998V7.41016H89.2939C90.0101 7.41016 90.5928 7.62337 91.042 8.0498C91.4945 8.47298 91.7207 9.02474 91.7207 9.70508C91.7207 10.3887 91.501 10.9421 91.0615 11.3652C90.6221 11.7884 90.0508 12 89.3477 12H86.54ZM87.7998 10.9648H89.0156C89.4648 10.9648 89.8132 10.8558 90.0605 10.6377C90.3079 10.4196 90.4316 10.1087 90.4316 9.70508C90.4316 9.29818 90.3079 8.98568 90.0605 8.76758C89.8132 8.54622 89.4632 8.43555 89.0107 8.43555H87.7998V10.9648ZM93.8105 12H92.5508V4.9541H93.8105V12Z" fill="#D7143A"/>
</svg>
