<svg width="91" height="17" viewBox="0 0 91 17" fill="none" xmlns="http://www.w3.org/2000/svg">
<g clip-path="url(#clip0)">
<path d="M16.996 15.7943L15.6605 8.43611C15.6472 8.36266 15.6016 8.29904 15.5363 8.26275L12.1748 6.39308C12.1311 6.36878 12.0822 6.35911 12.0342 6.36283L12.6458 14.2522L12.6253 14.2613L16.6483 16.0662C16.681 16.0808 16.7158 16.088 16.7505 16.088C16.8053 16.088 16.8596 16.07 16.9043 16.0351C16.9772 15.9781 17.0125 15.8854 16.996 15.7943Z" fill="#44C868"/>
<path d="M8.50018 8.18055L5.06215 6.38987C5.02095 6.36838 4.97526 6.35962 4.93027 6.36264C4.94219 6.36191 4.95418 6.36198 4.96606 6.36291L4.35449 14.2522L8.39801 16.0663C8.43065 16.0809 8.46548 16.0881 8.50018 16.0881V8.18055Z" fill="#44C868"/>
<path d="M4.96586 6.36283C4.91782 6.35911 4.86891 6.36878 4.82528 6.39305L1.46369 8.26272C1.39841 8.29901 1.35286 8.36259 1.33955 8.43607L0.00401352 15.7943C-0.0125217 15.8853 0.0228065 15.978 0.0957539 16.035C0.140479 16.07 0.194766 16.088 0.249551 16.088C0.284182 16.088 0.319012 16.0808 0.351717 16.0662L4.35283 14.2712L4.96586 6.36283Z" fill="#4CE166"/>
<path d="M12.0341 6.36255C12.001 6.36511 11.9683 6.3739 11.938 6.38971L8.5 8.18036V16.088C8.5 16.088 8.5 16.088 8.50003 16.088C8.53473 16.088 8.56959 16.0807 8.6022 16.0661L12.6457 14.2521L12.0341 6.36255Z" fill="#4CE166"/>
<path d="M0.934877 10.6659L0.663574 12.1607L4.68096 10.0388L4.77423 8.83554L4.7897 8.63599L0.934877 10.6659Z" fill="#FFDB56"/>
<path d="M4.71704 9.57227L4.68088 10.0388L0.663495 12.1607L0.00401352 15.7942C-0.0125217 15.8853 0.0228065 15.978 0.0957539 16.035C0.140479 16.07 0.194766 16.088 0.249551 16.088C0.284182 16.088 0.319012 16.0808 0.351717 16.0661L4.35283 14.2711L4.71704 9.57227Z" fill="#A8EEFC"/>
<path d="M8.50177 9.16667L4.79038 8.63599L4.68164 10.0388L8.50078 15.8387V13.7297L6.22181 10.1412L8.50177 10.4139V9.16667Z" fill="#FFBB24"/>
<path d="M15.272 8.11546L13.6572 7.21729L12.1284 7.57449L12.1475 7.82138L12.223 8.79537L15.272 8.11546Z" fill="#FFBB24"/>
<path d="M12.3587 10.5444L12.214 8.67677L12.1285 7.57446L8.50146 9.16662V10.4138L10.8707 9.3835L12.3587 10.5444Z" fill="#FFDB56"/>
<path d="M16.9959 15.7942L16.6605 13.9459L12.2227 8.79541L12.3583 10.5445L16.9094 16.0304C16.9786 15.973 17.012 15.883 16.9959 15.7942Z" fill="#FFBB24"/>
<path d="M8.51571 0.911865C6.59115 0.911865 5.02539 2.47633 5.02539 4.39933C5.02539 5.58887 5.59014 6.86599 6.70401 8.19519C7.5221 9.17146 8.32907 9.79937 8.36304 9.82563C8.408 9.86039 8.46185 9.87776 8.51574 9.87776C8.5696 9.87776 8.62349 9.86039 8.66844 9.82563C8.70238 9.79937 9.50938 9.17146 10.3275 8.19519C11.4413 6.86599 12.0061 5.5889 12.0061 4.39933C12.006 2.47633 10.4403 0.911865 8.51571 0.911865ZM9.80831 4.3993C9.80831 5.11257 9.22958 5.69083 8.51571 5.69083C7.80184 5.69083 7.22311 5.1126 7.22311 4.3993C7.22311 3.68599 7.80184 3.10776 8.51571 3.10776C9.22958 3.10776 9.80831 3.68603 9.80831 4.3993Z" fill="#FF4A4A"/>
<path d="M8.51661 0.911865C8.36407 0.911865 8.21383 0.92176 8.06641 0.940818C9.77913 1.16218 11.1066 2.62874 11.1066 4.39933C11.1066 5.58887 10.5418 6.86599 9.42794 8.19519C8.90183 8.82299 8.38071 9.3064 8.06644 9.57873C8.24089 9.72987 8.35185 9.81627 8.36394 9.82563C8.4089 9.86039 8.46275 9.87776 8.51664 9.87776C8.5705 9.87776 8.62439 9.86039 8.66934 9.82563C8.70328 9.79937 9.51028 9.17146 10.3284 8.19519C11.4422 6.86599 12.007 5.5889 12.007 4.39933C12.0069 2.47633 10.4412 0.911865 8.51661 0.911865Z" fill="#E7343F"/>
<path d="M8.6022 16.0661L10.1058 15.3916L8.5 13.7297V16.088C8.5 16.088 8.5 16.088 8.50003 16.088C8.53473 16.088 8.56956 16.0808 8.6022 16.0661Z" fill="#FFDB56"/>
<path d="M15.6604 8.43602C15.6471 8.36258 15.6015 8.29896 15.5362 8.26267L15.2716 8.11548L12.2227 8.79538L16.6605 13.9459L15.6604 8.43602Z" fill="#1EA4E9"/>
<path d="M8.50021 16.088C8.50024 16.088 8.50024 16.088 8.50021 16.088V15.8387L4.68111 10.0388L4.35449 14.2521L8.39801 16.0662C8.43065 16.0808 8.46548 16.088 8.50021 16.088Z" fill="#1EA4E9"/>
</g>
<path d="M27.7871 10.0605C27.7871 11.0176 27.5153 11.7663 26.9717 12.3066C26.4313 12.847 25.6794 13.1172 24.7158 13.1172C23.6872 13.1172 22.8734 12.79 22.2744 12.1357C21.6787 11.4782 21.3809 10.583 21.3809 9.4502C21.3809 8.33366 21.6771 7.45312 22.2695 6.80859C22.8652 6.16081 23.6725 5.83691 24.6914 5.83691C25.4922 5.83691 26.1709 6.05339 26.7275 6.48633C27.2842 6.91927 27.6195 7.48893 27.7334 8.19531H26.4541C26.3337 7.79167 26.1188 7.47591 25.8096 7.24805C25.5003 7.02018 25.1292 6.90625 24.6963 6.90625C24.0615 6.90625 23.5651 7.12923 23.207 7.5752C22.849 8.02116 22.6699 8.64128 22.6699 9.43555C22.6699 10.2461 22.8538 10.8841 23.2217 11.3496C23.5928 11.8151 24.0957 12.0479 24.7305 12.0479C25.2611 12.0479 25.694 11.8949 26.0293 11.5889C26.3678 11.2829 26.542 10.8825 26.5518 10.3877L26.5566 10.2705H24.8574V9.30859H27.7871V10.0605ZM31.9229 5.83691C32.9482 5.83691 33.7604 6.16406 34.3594 6.81836C34.9616 7.47266 35.2627 8.3597 35.2627 9.47949C35.2627 10.5993 34.9616 11.4863 34.3594 12.1406C33.7604 12.7917 32.9482 13.1172 31.9229 13.1172C30.8942 13.1172 30.0788 12.7917 29.4766 12.1406C28.8776 11.4863 28.5781 10.5993 28.5781 9.47949C28.5781 8.3597 28.8776 7.47266 29.4766 6.81836C30.0788 6.16406 30.8942 5.83691 31.9229 5.83691ZM33.4219 7.60938C33.0508 7.14388 32.5511 6.91113 31.9229 6.91113C31.2946 6.91113 30.7949 7.14225 30.4238 7.60449C30.0527 8.06673 29.8672 8.69173 29.8672 9.47949C29.8672 10.264 30.0527 10.8874 30.4238 11.3496C30.7949 11.8118 31.2946 12.043 31.9229 12.043C32.5511 12.043 33.0508 11.8118 33.4219 11.3496C33.793 10.8874 33.9785 10.264 33.9785 9.47949C33.9785 8.69499 33.793 8.07161 33.4219 7.60938ZM39.374 5.83691C40.3994 5.83691 41.2116 6.16406 41.8105 6.81836C42.4128 7.47266 42.7139 8.3597 42.7139 9.47949C42.7139 10.5993 42.4128 11.4863 41.8105 12.1406C41.2116 12.7917 40.3994 13.1172 39.374 13.1172C38.3454 13.1172 37.5299 12.7917 36.9277 12.1406C36.3288 11.4863 36.0293 10.5993 36.0293 9.47949C36.0293 8.3597 36.3288 7.47266 36.9277 6.81836C37.5299 6.16406 38.3454 5.83691 39.374 5.83691ZM40.873 7.60938C40.502 7.14388 40.0023 6.91113 39.374 6.91113C38.7458 6.91113 38.2461 7.14225 37.875 7.60449C37.5039 8.06673 37.3184 8.69173 37.3184 9.47949C37.3184 10.264 37.5039 10.8874 37.875 11.3496C38.2461 11.8118 38.7458 12.043 39.374 12.043C40.0023 12.043 40.502 11.8118 40.873 11.3496C41.2441 10.8874 41.4297 10.264 41.4297 9.47949C41.4297 8.69499 41.2441 8.07161 40.873 7.60938ZM49.8867 10.0605C49.8867 11.0176 49.6149 11.7663 49.0713 12.3066C48.5309 12.847 47.779 13.1172 46.8154 13.1172C45.7868 13.1172 44.973 12.79 44.374 12.1357C43.7783 11.4782 43.4805 10.583 43.4805 9.4502C43.4805 8.33366 43.7767 7.45312 44.3691 6.80859C44.9648 6.16081 45.7721 5.83691 46.791 5.83691C47.5918 5.83691 48.2705 6.05339 48.8271 6.48633C49.3838 6.91927 49.7191 7.48893 49.833 8.19531H48.5537C48.4333 7.79167 48.2184 7.47591 47.9092 7.24805C47.5999 7.02018 47.2288 6.90625 46.7959 6.90625C46.1611 6.90625 45.6647 7.12923 45.3066 7.5752C44.9486 8.02116 44.7695 8.64128 44.7695 9.43555C44.7695 10.2461 44.9535 10.8841 45.3213 11.3496C45.6924 11.8151 46.1953 12.0479 46.8301 12.0479C47.3607 12.0479 47.7936 11.8949 48.1289 11.5889C48.4674 11.2829 48.6416 10.8825 48.6514 10.3877L48.6562 10.2705H46.957V9.30859H49.8867V10.0605ZM55.375 11.9355V13H50.917V5.9541H52.1768V11.9355H55.375ZM60.8389 11.9355V13H56.2783V5.9541H60.8389V7.01855H57.5381V8.92285H60.6582V9.92383H57.5381V11.9355H60.8389ZM71.2051 13H70.0723V8H70.0381L68.002 12.9414H67.1426L65.1064 8H65.0723V13H63.9346V5.9541H65.3945L67.5527 11.2715H67.5918L69.75 5.9541H71.2051V13ZM77.0547 13L76.4541 11.1787H73.8613L73.2607 13H71.9619L74.4619 5.9541H75.8828L78.3828 13H77.0547ZM75.1406 7.19922L74.1543 10.207H76.1562L75.1748 7.19922H75.1406ZM79.1396 5.9541H81.8789C82.582 5.9541 83.1533 6.1722 83.5928 6.6084C84.0322 7.04134 84.252 7.60938 84.252 8.3125C84.252 9.01237 84.0257 9.5804 83.5732 10.0166C83.124 10.4528 82.5413 10.6709 81.8252 10.6709H80.3994V13H79.1396V5.9541ZM80.3994 6.98438V9.65527H81.542C81.9945 9.65527 82.346 9.53809 82.5967 9.30371C82.8473 9.06934 82.9727 8.73893 82.9727 8.3125C82.9727 7.88932 82.8473 7.56217 82.5967 7.33105C82.3493 7.09993 81.9993 6.98438 81.5469 6.98438H80.3994ZM84.8867 11.0176H86.1074C86.1465 11.3398 86.3125 11.6003 86.6055 11.7988C86.8984 11.9941 87.2614 12.0918 87.6943 12.0918C88.1175 12.0918 88.4626 11.9974 88.7295 11.8086C88.9997 11.6198 89.1348 11.3789 89.1348 11.0859C89.1348 10.832 89.0371 10.627 88.8418 10.4707C88.6465 10.3112 88.3275 10.1794 87.8848 10.0752L86.9717 9.86035C86.3239 9.71061 85.8421 9.47786 85.5264 9.16211C85.2139 8.84635 85.0576 8.4362 85.0576 7.93164C85.0576 7.3099 85.3018 6.80534 85.79 6.41797C86.2783 6.0306 86.9082 5.83691 87.6797 5.83691C88.4544 5.83691 89.0778 6.02897 89.5498 6.41309C90.0251 6.79395 90.2708 7.29525 90.2871 7.91699H89.0859C89.0566 7.58822 88.915 7.33105 88.6611 7.14551C88.4072 6.95671 88.0768 6.8623 87.6699 6.8623C87.2728 6.8623 86.9505 6.95182 86.7031 7.13086C86.459 7.3099 86.3369 7.5459 86.3369 7.83887C86.3369 8.07324 86.4313 8.26367 86.6201 8.41016C86.8122 8.55664 87.1247 8.68197 87.5576 8.78613L88.3682 8.97168C89.0811 9.13444 89.5986 9.37207 89.9209 9.68457C90.2432 9.99707 90.4043 10.4154 90.4043 10.9395C90.4043 11.6068 90.1536 12.1374 89.6523 12.5312C89.1543 12.9219 88.4788 13.1172 87.626 13.1172C86.8122 13.1172 86.1579 12.93 85.6631 12.5557C85.1715 12.1781 84.9128 11.6654 84.8867 11.0176Z" fill="#1EA4E9"/>
<defs>
<clipPath id="clip0">
<rect width="17" height="17" fill="white"/>
</clipPath>
</defs>
</svg>
