<svg width="95" height="16" viewBox="0 0 95 16" fill="none" xmlns="http://www.w3.org/2000/svg"><path d="M11.36 0H9.085C6.783 0 4.459 1.7 4.459 5.5c0 1.968.834 3.501 2.363 4.373l-2.799 5.065a.726.726 0 0 0-.009.726c.124.21.35.336.606.336h1.415c.322 0 .573-.155.693-.428l2.624-5.132h.191v4.92c0 .347.293.64.64.64h1.236a.63.63 0 0 0 .66-.66V.7c0-.412-.296-.7-.72-.7zM9.542 8.16h-.337c-1.31 0-2.092-1.069-2.092-2.86 0-2.227.988-3.02 1.912-3.02h.517v5.88zm13.078.251V5.98h-1.344c-.433 0-.771.108-1.015.323-.241.211-.362.51-.362.893 0 .384.12.684.362.899.24.211.58.317 1.015.317h1.343zm-1.163.986L19.685 12h-1.416l1.914-2.773a2.16 2.16 0 0 1-1.143-.743 2.047 2.047 0 0 1-.425-1.294c0-.667.223-1.206.67-1.616.448-.413 1.04-.62 1.776-.62h2.808V12h-1.25V9.397h-1.162zM31.154 12H29.9V8.943h-3.427V12h-1.26V4.954h1.26v2.93H29.9v-2.93h1.255V12zm3.189-2.822c-.03.433-.078.783-.147 1.05a1.68 1.68 0 0 1-.332.668v.04h3.076V6.013h-2.397l-.2 3.164zM33.107 12v1.392H31.96v-2.457h.503c.237-.15.408-.367.513-.654.104-.29.17-.683.2-1.181l.254-4.146h4.765v5.981h.88v2.457h-1.143V12h-4.825zm11.431-1.065V12h-4.56V4.954h4.56V6.02h-3.3v1.904h3.12v1h-3.12v2.012h3.3zm3.696-2.631L51.52 12h-1.61l-2.872-3.213H47V12h-1.26V4.954H47v3.081h.04l2.758-3.08h1.455l-3.018 3.349zm6.802 3.838c-1.006 0-1.803-.33-2.392-.987-.59-.657-.884-1.55-.884-2.68 0-1.123.294-2.014.884-2.671.592-.661 1.39-.992 2.392-.992.794 0 1.47.225 2.026.674a2.65 2.65 0 0 1 .992 1.753h-1.245a1.7 1.7 0 0 0-.64-.971 1.84 1.84 0 0 0-1.133-.362c-.605 0-1.089.233-1.45.698-.358.463-.537 1.086-.537 1.87 0 .792.179 1.418.537 1.88.358.463.843.694 1.455.694.443 0 .819-.108 1.128-.322.312-.219.526-.521.64-.909h1.25c-.134.723-.47 1.291-1.006 1.704-.534.414-1.206.62-2.017.62zm8.57-3.838L66.891 12H65.28l-2.87-3.213h-.04V12h-1.26V4.954h1.26v3.081h.04l2.758-3.08h1.455l-3.018 3.349zM72.248 12l-.6-1.821h-2.593l-.6 1.821h-1.3l2.5-7.046h1.421l2.5 7.046h-1.328zm-1.914-5.8l-.986 3.007h2.002l-.982-3.008h-.034zm4.097-1.246h2.739c.703 0 1.274.218 1.714.654.44.433.659 1.001.659 1.705 0 .7-.226 1.267-.679 1.704-.449.436-1.032.654-1.748.654H75.69V12h-1.26V4.954zm1.26 1.03v2.671h1.142c.453 0 .804-.117 1.055-.351.25-.235.376-.565.376-.992 0-.423-.126-.75-.376-.981-.248-.231-.598-.347-1.05-.347H75.69zM83.473 12h-1.255V6.019h-2.11V4.954h5.47V6.02h-2.105V12zm3.066 0V4.954h1.26V7.41h1.494c.716 0 1.299.213 1.748.64.453.423.679.975.679 1.655 0 .684-.22 1.237-.66 1.66-.439.423-1.01.635-1.713.635H86.54zm1.26-1.035h1.216c.449 0 .797-.11 1.044-.327.248-.218.372-.53.372-.933 0-.407-.124-.72-.371-.937-.248-.222-.598-.332-1.05-.332H87.8v2.529zM93.81 12h-1.26V4.954h1.26V12z" fill="#D7143A"/></svg>