<svg width="91" height="17" viewBox="0 0 91 17" fill="none" xmlns="http://www.w3.org/2000/svg"><g clip-path="url(#a)"><path d="M16.996 15.794l-1.335-7.358a.25.25 0 0 0-.125-.173l-3.361-1.87a.249.249 0 0 0-.14-.03l.61 7.89-.02.008 4.023 1.805a.25.25 0 0 0 .348-.272zM8.5 8.18L5.062 6.39a.249.249 0 0 0-.096-.027l-.612 7.89 4.044 1.813a.25.25 0 0 0 .102.022V8.181z" fill="#44C868"/><path d="M4.966 6.363a.249.249 0 0 0-.14.03l-3.362 1.87a.25.25 0 0 0-.124.173L.004 15.794a.249.249 0 0 0 .348.272l4-1.795.614-7.908zm7.068 0a.249.249 0 0 0-.096.027L8.5 8.18v7.908a.25.25 0 0 0 .102-.022l4.044-1.814-.612-7.89z" fill="#4CE166"/><path d="M.935 10.666L.664 12.16l4.017-2.122.093-1.203.016-.2-3.855 2.03z" fill="#FFDB56"/><path d="M4.717 9.572l-.036.467L.663 12.16l-.659 3.633a.25.25 0 0 0 .348.272l4-1.795.365-4.699z" fill="#A8EEFC"/><path d="M8.502 9.167L4.79 8.636l-.108 1.403 3.819 5.8v-2.11l-2.28-3.588 2.28.273V9.167zm6.77-1.052l-1.615-.898-1.529.357.02.247.075.974 3.049-.68z" fill="#FFBB24"/><path d="M12.359 10.544l-.145-1.867-.085-1.103L8.5 9.167v1.247l2.37-1.03 1.488 1.16z" fill="#FFDB56"/><path d="M16.996 15.794l-.335-1.848-4.438-5.15.135 1.748 4.551 5.486a.25.25 0 0 0 .087-.236z" fill="#FFBB24"/><path d="M8.516.912a3.493 3.493 0 0 0-3.49 3.487c0 1.19.564 2.467 1.678 3.796a11.929 11.929 0 0 0 1.659 1.63.25.25 0 0 0 .305 0 11.94 11.94 0 0 0 1.66-1.63C11.44 6.866 12.006 5.59 12.006 4.4A3.493 3.493 0 0 0 8.516.912zm1.292 3.487a1.292 1.292 0 1 1-2.584 0 1.292 1.292 0 0 1 2.584 0z" fill="#FF4A4A"/><path d="M8.517.912c-.153 0-.303.01-.45.029a3.494 3.494 0 0 1 3.04 3.458c0 1.19-.565 2.467-1.68 3.796a12.483 12.483 0 0 1-1.36 1.384c.174.15.285.237.297.247a.25.25 0 0 0 .305 0c.034-.027.841-.655 1.66-1.63 1.113-1.33 1.678-2.607 1.678-3.797A3.493 3.493 0 0 0 8.517.912z" fill="#E7343F"/><path d="M8.602 16.066l1.504-.674L8.5 13.73v2.358a.24.24 0 0 0 .102-.022z" fill="#FFDB56"/><path d="M15.66 8.436a.25.25 0 0 0-.124-.173l-.264-.148-3.05.68 4.438 5.15-1-5.509zM8.5 16.088v-.25l-3.819-5.8-.327 4.214 4.044 1.814a.25.25 0 0 0 .102.022z" fill="#1EA4E9"/></g><path d="M27.787 10.06c0 .958-.272 1.706-.815 2.247-.54.54-1.293.81-2.256.81-1.029 0-1.843-.327-2.442-.981-.595-.658-.893-1.553-.893-2.686 0-1.116.296-1.997.889-2.641.595-.648 1.402-.972 2.421-.972.801 0 1.48.216 2.037.65a2.617 2.617 0 0 1 1.005 1.708h-1.279a1.763 1.763 0 0 0-.644-.947c-.31-.228-.68-.342-1.114-.342-.635 0-1.13.223-1.489.67-.358.445-.537 1.065-.537 1.86 0 .81.184 1.448.552 1.914.37.465.874.698 1.508.698.531 0 .964-.153 1.3-.46.338-.305.512-.705.522-1.2l.005-.117h-1.7v-.962h2.93v.752zm4.136-4.223c1.025 0 1.837.327 2.436.981.603.655.904 1.542.904 2.661 0 1.12-.301 2.007-.904 2.662-.599.65-1.41.976-2.436.976-1.029 0-1.844-.325-2.446-.976-.6-.655-.899-1.542-.899-2.662 0-1.12.3-2.006.899-2.66.602-.655 1.417-.982 2.446-.982zm1.499 1.772c-.371-.465-.87-.698-1.5-.698-.627 0-1.127.231-1.498.693-.371.463-.557 1.088-.557 1.875 0 .785.186 1.408.557 1.87.37.463.87.694 1.499.694.628 0 1.128-.231 1.499-.693.371-.463.556-1.086.556-1.87 0-.785-.185-1.408-.556-1.87zm5.952-1.772c1.025 0 1.838.327 2.436.981.603.655.904 1.542.904 2.661 0 1.12-.301 2.007-.904 2.662-.598.65-1.41.976-2.436.976-1.029 0-1.844-.325-2.446-.976-.6-.655-.899-1.542-.899-2.662 0-1.12.3-2.006.899-2.66.602-.655 1.417-.982 2.446-.982zm1.499 1.772c-.371-.465-.87-.698-1.499-.698-.628 0-1.128.231-1.499.693-.371.463-.557 1.088-.557 1.875 0 .785.186 1.408.557 1.87.371.463.87.694 1.499.694.628 0 1.128-.231 1.499-.693.371-.463.557-1.086.557-1.87 0-.785-.186-1.408-.557-1.87zm9.014 2.451c0 .958-.272 1.706-.816 2.247-.54.54-1.292.81-2.256.81-1.028 0-1.842-.327-2.441-.981-.596-.658-.894-1.553-.894-2.686 0-1.116.297-1.997.89-2.641.595-.648 1.402-.972 2.421-.972.8 0 1.48.216 2.036.65a2.617 2.617 0 0 1 1.006 1.708h-1.28a1.763 1.763 0 0 0-.644-.947c-.31-.228-.68-.342-1.113-.342-.635 0-1.131.223-1.49.67-.357.445-.536 1.065-.536 1.86 0 .81.183 1.448.551 1.914.371.465.874.698 1.51.698.53 0 .963-.153 1.298-.46.338-.305.513-.705.522-1.2l.005-.117h-1.699v-.962h2.93v.752zm5.488 1.875V13h-4.458V5.954h1.26v5.981h3.198zm5.464 0V13h-4.56V5.954h4.56V7.02h-3.3v1.904h3.12v1h-3.12v2.012h3.3zM71.205 13h-1.133V8h-.034l-2.036 4.941h-.86L65.107 8h-.034v5h-1.137V5.954h1.46l2.158 5.317h.039l2.158-5.317h1.455V13zm5.85 0l-.6-1.821H73.86L73.26 13h-1.3l2.5-7.046h1.422l2.5 7.046h-1.328zM75.14 7.2l-.987 3.007h2.002l-.981-3.008h-.034zm3.999-1.246h2.739c.703 0 1.274.218 1.714.654.44.433.659 1.001.659 1.705 0 .7-.226 1.267-.679 1.704-.449.436-1.032.654-1.748.654H80.4V13h-1.26V5.954zm1.26 1.03v2.671h1.142c.453 0 .804-.117 1.055-.351.25-.235.376-.565.376-.992 0-.423-.126-.75-.376-.98-.248-.232-.598-.348-1.05-.348h-1.148zm4.487 4.034h1.22c.04.322.206.582.499.78.292.196.655.294 1.088.294.424 0 .769-.095 1.035-.283.27-.19.406-.43.406-.723a.75.75 0 0 0-.293-.615c-.195-.16-.514-.292-.957-.396l-.913-.215c-.648-.15-1.13-.382-1.446-.698-.312-.316-.468-.726-.468-1.23 0-.622.244-1.127.732-1.514s1.118-.581 1.89-.581c.774 0 1.398.192 1.87.576.475.38.72.882.737 1.504h-1.201a1.022 1.022 0 0 0-.425-.771c-.254-.19-.584-.284-.991-.284-.397 0-.72.09-.967.269a.837.837 0 0 0-.366.708.69.69 0 0 0 .283.571c.192.147.505.272.938.376l.81.186c.713.162 1.23.4 1.553.713.322.312.483.73.483 1.255 0 .667-.25 1.197-.752 1.591-.498.39-1.173.586-2.026.586-.814 0-1.468-.187-1.963-.561-.492-.378-.75-.89-.776-1.538z" fill="#1EA4E9"/><defs><clipPath id="a"><path fill="#fff" d="M0 0h17v17H0z"/></clipPath></defs></svg>