<svg width="65" height="65" viewBox="0 0 65 65" fill="none" xmlns="http://www.w3.org/2000/svg">
<path d="M27.1865 34.9002H50.9749L46.6595 27.0247C46.3898 26.5932 45.9583 26.2695 45.4188 26.2695H32.4728H19.5267C18.9873 26.2695 18.5558 26.5392 18.2861 27.0247L13.9707 34.9002H27.1865Z" fill="#46C770"/>
<path d="M20.2292 50.921H9.92632C9.49478 50.921 9.11719 50.5434 9.11719 50.1119C9.11719 49.6804 9.49478 49.3028 9.92632 49.3028H18.611V48.4397C18.611 47.1451 17.64 46.0662 16.3993 45.9044L10.1421 44.9874C9.71056 44.9335 9.38692 44.5019 9.44086 44.0704C9.4948 43.6389 9.92631 43.3152 10.3578 43.3692L16.6151 44.2862C18.6649 44.6098 20.2292 46.3899 20.2292 48.4397V50.921Z" fill="#393939"/>
<path d="M55.5062 64.6761H53.2946C50.6514 64.6761 48.4938 62.5184 48.4938 59.8753V58.4728H16.5601V59.8753C16.5601 62.5184 14.4025 64.6761 11.7593 64.6761H9.54769C6.90454 64.6761 4.74688 62.5184 4.74688 59.8753V41.9666L1.1867 40.672C0.485451 40.4023 0 39.7549 0 38.9998V35.7632C0 34.7923 0.809122 33.9832 1.78008 33.9832H6.41907C7.44396 33.9832 8.36098 33.4437 8.84645 32.5267L13.4315 24.1118C14.4564 22.2238 16.4523 21.0371 18.6639 21.0371H46.3361C48.4938 21.0371 50.4896 22.2238 51.5685 24.1118L56.1535 32.5267C56.639 33.4437 57.556 33.9832 58.5809 33.9832H63.2199C64.1908 33.9832 65 34.7923 65 35.7632V38.9998C65 39.7549 64.5145 40.4023 63.8132 40.672L60.2531 41.9666V59.8753C60.307 62.5184 58.1494 64.6761 55.5062 64.6761ZM14.9419 56.8545H50.112V59.8753C50.112 61.6014 51.5145 63.0578 53.2946 63.0578H55.5062C57.2324 63.0578 58.6888 61.6554 58.6888 59.8753V40.8877L63.3278 39.2155C63.3818 39.2155 63.4357 39.1076 63.4357 39.0537V35.8172C63.4357 35.7093 63.3817 35.6554 63.2738 35.6554H58.6348C57.0166 35.6554 55.5602 34.7923 54.751 33.3359L50.166 24.9209C49.4108 23.5184 47.9544 22.6554 46.39 22.6554H18.6639C17.0996 22.6554 15.6431 23.5184 14.888 24.9209L10.3029 33.3359C9.5477 34.7383 8.03732 35.6554 6.41907 35.6554H1.78008C1.67219 35.6554 1.61826 35.7093 1.61826 35.8172V39.0537C1.61826 39.1076 1.67217 39.1616 1.72611 39.2155L6.36514 40.8877V59.8753C6.36514 61.6014 7.76761 63.0578 9.54769 63.0578H11.7593C13.4855 63.0578 14.9419 61.6554 14.9419 59.8753V56.8545Z" fill="#393939"/>
<path d="M52.3231 35.7087H12.6758L17.6384 26.6465C18.016 25.9452 18.7712 25.5137 19.5803 25.5137H45.4185C46.2276 25.5137 46.9828 25.9452 47.3604 26.6465L52.3231 35.7087ZM15.4268 34.0904H49.626L45.9579 27.4016C45.85 27.1859 45.6343 27.078 45.4185 27.078H19.5803C19.3645 27.078 19.1488 27.1859 19.0409 27.4016L15.4268 34.0904Z" fill="#393939"/>
<path d="M55.0763 50.921H44.7734V48.4396C44.7734 46.3899 46.3377 44.6098 48.3875 44.2861L54.6448 43.3691C55.0763 43.3152 55.5079 43.5849 55.5618 44.0703C55.6158 44.5019 55.346 44.9334 54.8605 44.9874L48.6033 45.9044C47.3626 46.0662 46.3917 47.199 46.3917 48.4396V49.3027H55.0763C55.5079 49.3027 55.8855 49.6803 55.8855 50.1119C55.8855 50.5434 55.5618 50.921 55.0763 50.921Z" fill="#393939"/>
<path d="M39.4859 51.0831H25.5689C25.1374 51.0831 24.7598 50.7055 24.7598 50.274C24.7598 49.8424 25.1374 49.4648 25.5689 49.4648H39.4859C39.9174 49.4648 40.295 49.8424 40.295 50.274C40.295 50.7055 39.9174 51.0831 39.4859 51.0831Z" fill="#393939"/>
<path d="M39.486 51.0832C39.432 51.0832 39.432 51.0832 39.3781 51.0832C38.9466 51.0293 38.6229 50.6517 38.6768 50.1662L39.2163 45.5811H25.8926L26.4321 50.1662C26.486 50.5977 26.1623 51.0293 25.7308 51.0832C25.2992 51.1372 24.8677 50.8135 24.8138 50.382L24.0586 43.9629H41.0503L40.2951 50.382C40.2412 50.7596 39.8636 51.0832 39.486 51.0832Z" fill="#393939"/>
<path d="M15.7517 58.4737H11.5982C11.1667 58.4737 10.7891 58.0961 10.7891 57.6646C10.7891 57.2331 11.1667 56.8555 11.5982 56.8555H15.7517C16.1832 56.8555 16.5608 57.2331 16.5608 57.6646C16.5608 58.0961 16.1832 58.4737 15.7517 58.4737Z" fill="#393939"/>
<path d="M53.4568 58.4737H49.3033C48.8717 58.4737 48.4941 58.0961 48.4941 57.6646C48.4941 57.2331 48.8717 56.8555 49.3033 56.8555H53.4568C53.8883 56.8555 54.2659 57.2331 54.2659 57.6646C54.2659 58.0961 53.8883 58.4737 53.4568 58.4737Z" fill="#393939"/>
<path d="M38.1898 2.42685C38.1898 1.50984 37.4886 0.808594 36.5716 0.808594H28.5343C27.6173 0.808594 26.916 1.50984 26.916 2.42685V6.04095H38.1898V2.42685Z" fill="#46C770"/>
<path d="M36.5194 17.4232H28.4821C27.1335 17.4232 26.0547 16.3444 26.0547 14.9958V2.42739C26.0547 1.07884 27.1335 0 28.4821 0H36.5194C37.868 0 38.9468 1.07884 38.9468 2.42739V14.9958C39.0008 16.3444 37.868 17.4232 36.5194 17.4232ZM28.4821 1.61826C28.0505 1.61826 27.6729 1.99585 27.6729 2.42739V14.9958C27.6729 15.4274 28.0505 15.805 28.4821 15.805H36.5194C36.951 15.805 37.3286 15.4274 37.3286 14.9958V2.42739C37.3286 1.99585 36.951 1.61826 36.5194 1.61826H28.4821Z" fill="#393939"/>
<path d="M31.5558 8.68457H29.9375V10.3028H31.5558V8.68457Z" fill="#393939"/>
<path d="M35.1163 8.68457H33.498V10.3028H35.1163V8.68457Z" fill="#393939"/>
<path d="M31.5558 11.5977H29.9375V13.2159H31.5558V11.5977Z" fill="#393939"/>
<path d="M35.1163 11.5977H33.498V13.2159H35.1163V11.5977Z" fill="#393939"/>
<path d="M38.1923 6.85068H26.9185C26.487 6.85068 26.1094 6.47309 26.1094 6.04155C26.1094 5.61002 26.487 5.23242 26.9185 5.23242H38.1923C38.6238 5.23242 39.0014 5.61002 39.0014 6.04155C39.0014 6.47309 38.6238 6.85068 38.1923 6.85068Z" fill="#393939"/>
<path d="M57.5011 23.5724H55.8829C55.8829 19.311 52.4306 15.8048 48.1152 15.8048V14.1865C53.2937 14.1865 57.5011 18.394 57.5011 23.5724Z" fill="#393939"/>
<path d="M61.5468 23.5725H59.9285C59.9285 17.0455 54.6422 11.7592 48.1152 11.7592V10.141C55.5053 10.087 61.5468 16.1285 61.5468 23.5725Z" fill="#393939"/>
<path d="M9.16904 23.5724H7.55078C7.55078 18.394 11.7582 14.1865 16.9367 14.1865V15.8048C12.6213 15.8048 9.16904 19.311 9.16904 23.5724Z" fill="#393939"/>
<path d="M5.12412 23.5722H3.50586C3.50586 16.1282 9.54733 10.1406 16.9374 10.1406V11.7589C10.4104 11.7049 5.12412 17.0452 5.12412 23.5722Z" fill="#393939"/>
</svg>
