<svg width="75" height="70" viewBox="0 0 75 70" fill="none" xmlns="http://www.w3.org/2000/svg">
<path d="M37.5004 6.98535C20.6287 6.98535 6.98633 20.6277 6.98633 37.4995H34.4687C34.4687 35.8518 35.7869 34.4678 37.5004 34.4678C39.1481 34.4678 40.5321 35.7859 40.5321 37.4995H68.0145C68.0145 20.6277 54.3722 6.98535 37.5004 6.98535Z" fill="#46C770"/>
<path d="M37.5007 69.0024C20.1018 69.0024 5.99805 54.8987 5.99805 37.4998C5.99805 20.1008 20.1018 5.99707 37.5007 5.99707C54.8997 5.99707 69.0033 20.1008 69.0033 37.4998C69.0033 54.8987 54.8338 69.0024 37.5007 69.0024ZM37.5007 7.97422C21.2222 7.97422 7.9752 21.2212 7.9752 37.4998C7.9752 53.7783 21.2222 67.0252 37.5007 67.0252C53.7793 67.0252 67.0262 53.7783 67.0262 37.4998C67.0262 21.2212 53.7793 7.97422 37.5007 7.97422Z" fill="#393939"/>
<path d="M74.0114 38.4886C73.4842 38.4886 73.0229 38.0273 73.0229 37.5C73.0229 17.9262 57.0739 1.97715 37.5 1.97715C17.9262 1.97715 1.97715 17.9262 1.97715 37.5C1.97715 38.0273 1.51582 38.4886 0.988577 38.4886C0.461336 38.4886 0 38.0273 0 37.5C0 16.8058 16.8058 0 37.5 0C58.1943 0 75 16.8058 75 37.5C75 38.0273 74.5387 38.4886 74.0114 38.4886Z" fill="#393939"/>
<path d="M37.5007 41.5209C35.3259 41.5209 33.4805 39.7415 33.4805 37.5007C33.4805 35.26 35.26 33.4805 37.5007 33.4805C39.7415 33.4805 41.5209 35.26 41.5209 37.5007C41.5209 39.7415 39.6756 41.5209 37.5007 41.5209ZM37.5007 35.4576C36.3804 35.4576 35.4576 36.3804 35.4576 37.5007C35.4576 38.6211 36.3804 39.5438 37.5007 39.5438C38.6211 39.5438 39.5438 38.6211 39.5438 37.5007C39.5438 36.3804 38.6211 35.4576 37.5007 35.4576Z" fill="#393939"/>
<path d="M37.5003 17.2009C36.9731 17.2009 36.5117 16.7395 36.5117 16.2123V11.5989C36.5117 11.0717 36.9731 10.6104 37.5003 10.6104C38.0275 10.6104 38.4889 11.0717 38.4889 11.5989V16.2123C38.4889 16.7395 38.0275 17.2009 37.5003 17.2009Z" fill="#393939"/>
<path d="M30.9111 18.255C30.5157 18.255 30.1202 17.9914 29.9884 17.5959L28.5385 13.1803C28.3407 12.6531 28.6703 12.1258 29.1975 11.9281C29.7248 11.7304 30.252 12.0599 30.4497 12.5872L31.8997 17.0028C32.0974 17.53 31.7679 18.0573 31.2406 18.255C31.1088 18.255 30.977 18.255 30.9111 18.255Z" fill="#393939"/>
<path d="M24.9786 21.2872C24.6491 21.2872 24.3854 21.1554 24.1877 20.8918L21.4856 17.1352C21.1561 16.6739 21.2879 16.0808 21.6833 15.7512C22.1447 15.4217 22.7378 15.5535 23.0673 15.9489L25.7694 19.7055C26.0989 20.1669 25.9671 20.76 25.5717 21.0895C25.374 21.2213 25.1763 21.2872 24.9786 21.2872Z" fill="#393939"/>
<path d="M20.2319 25.9668C20.0342 25.9668 19.8365 25.9009 19.6388 25.7691L15.8822 23.067C15.4209 22.7375 15.3549 22.1443 15.6845 21.683C16.014 21.2216 16.6072 21.1557 17.0685 21.4852L20.8251 24.1873C21.2864 24.5169 21.3524 25.11 21.0228 25.5713C20.891 25.8349 20.5615 25.9668 20.2319 25.9668Z" fill="#393939"/>
<path d="M17.2679 31.8982C17.136 31.8982 17.0701 31.8981 16.9383 31.8322L12.5227 30.3824C11.9955 30.1846 11.7319 29.6574 11.8637 29.1301C12.0614 28.6029 12.5886 28.3393 13.1159 28.4711L17.5315 29.9211C18.0587 30.1188 18.3224 30.6459 18.1905 31.1732C18.0587 31.6345 17.6633 31.8982 17.2679 31.8982Z" fill="#393939"/>
<path d="M16.2113 38.4889H11.598C11.0707 38.4889 10.6094 38.0275 10.6094 37.5003C10.6094 36.9731 11.0707 36.5117 11.598 36.5117H16.2113C16.7386 36.5117 17.1999 36.9731 17.1999 37.5003C17.1999 38.0275 16.7386 38.4889 16.2113 38.4889Z" fill="#393939"/>
<path d="M12.8518 46.4631C12.4563 46.4631 12.0609 46.1995 11.9291 45.804C11.7314 45.2768 12.0609 44.7495 12.5881 44.5518L17.0038 43.1019C17.531 42.9042 18.0583 43.2338 18.256 43.761C18.4537 44.2882 18.1242 44.8154 17.5969 45.0131L13.1813 46.4631C13.0495 46.4631 12.9836 46.4631 12.8518 46.4631Z" fill="#393939"/>
<path d="M16.5421 53.7123C16.2125 53.7123 15.949 53.5805 15.7512 53.3169C15.4217 52.8555 15.5535 52.2623 15.9489 51.9328L19.7055 49.2307C20.1669 48.9012 20.76 49.033 21.0895 49.4284C21.4191 49.8239 21.2872 50.4829 20.8918 50.8124L17.1352 53.5145C16.9375 53.6463 16.7398 53.7123 16.5421 53.7123Z" fill="#393939"/>
<path d="M58.4585 53.7129C58.2608 53.7129 58.063 53.647 57.8653 53.5152L54.1088 50.8131C53.6474 50.4835 53.5815 49.8904 53.911 49.4291C54.2405 48.9677 54.8338 48.9018 55.2951 49.2313L59.0517 51.9334C59.513 52.263 59.5789 52.8562 59.2494 53.3175C59.0517 53.5811 58.7221 53.7129 58.4585 53.7129Z" fill="#393939"/>
<path d="M62.1487 46.4627C62.0169 46.4627 61.951 46.4627 61.8192 46.3968L57.4036 44.9468C56.8763 44.7491 56.6127 44.2218 56.7445 43.6946C56.9422 43.1674 57.4695 42.9037 57.9967 43.0355L62.4124 44.4855C62.9396 44.6832 63.2032 45.2105 63.0714 45.7377C62.9396 46.1991 62.5441 46.4627 62.1487 46.4627Z" fill="#393939"/>
<path d="M63.4008 38.4889H58.7874C58.2602 38.4889 57.7988 38.0275 57.7988 37.5003C57.7988 36.9731 58.2602 36.5117 58.7874 36.5117H63.4008C63.928 36.5117 64.3893 36.9731 64.3893 37.5003C64.3893 38.0275 63.928 38.4889 63.4008 38.4889Z" fill="#393939"/>
<path d="M57.7326 31.8977C57.3372 31.8977 56.9418 31.6341 56.8099 31.2387C56.6122 30.7114 56.9418 30.1842 57.469 29.9865L61.8847 28.5365C62.4119 28.3388 62.9391 28.6683 63.1368 29.1956C63.3345 29.7228 63.005 30.2501 62.4778 30.4478L58.0622 31.8977C57.9304 31.8977 57.8644 31.8977 57.7326 31.8977Z" fill="#393939"/>
<path d="M54.7023 25.9662C54.3727 25.9662 54.1091 25.8343 53.9114 25.5707C53.5818 25.1094 53.7137 24.5162 54.1091 24.1867L57.8657 21.4846C58.327 21.1551 58.9202 21.2869 59.2497 21.6824C59.5793 22.1437 59.4474 22.7368 59.052 23.0663L55.2954 25.7684C55.0977 25.9003 54.9 25.9662 54.7023 25.9662Z" fill="#393939"/>
<path d="M50.0203 21.2878C49.8226 21.2878 49.6248 21.222 49.4271 21.0902C48.9658 20.7606 48.8999 20.1675 49.2294 19.7062L51.9315 15.9495C52.261 15.4882 52.8542 15.4223 53.3155 15.7519C53.7769 16.0814 53.8427 16.6745 53.5132 17.1359L50.8111 20.8924C50.6134 21.0901 50.2839 21.2878 50.0203 21.2878Z" fill="#393939"/>
<path d="M44.0905 18.2555C43.9587 18.2555 43.8928 18.2555 43.761 18.1896C43.2338 17.9919 42.9701 17.4646 43.1019 16.9374L44.5518 12.5217C44.7495 11.9945 45.2768 11.7309 45.804 11.8627C46.3313 12.0604 46.5949 12.5877 46.4631 13.1149L45.0131 17.5305C44.8813 17.9919 44.486 18.2555 44.0905 18.2555Z" fill="#393939"/>
<path d="M37.5003 35.4567C36.9731 35.4567 36.5117 34.9954 36.5117 34.4681V22.2757C36.5117 21.7484 36.9731 21.2871 37.5003 21.2871C38.0275 21.2871 38.4889 21.7484 38.4889 22.2757V34.4681C38.4889 35.0613 38.0275 35.4567 37.5003 35.4567Z" fill="#393939"/>
<path d="M37.5003 44.354C35.6549 44.354 33.9413 43.6291 32.6892 42.3769C32.2937 41.9814 32.2937 41.3883 32.6892 40.9929C33.0846 40.5974 33.6777 40.5974 34.0731 40.9929C34.9958 41.9155 36.1822 42.4428 37.5003 42.4428C38.8184 42.4428 40.0046 41.9155 40.9273 40.9929C41.3227 40.5974 41.9159 40.5974 42.3113 40.9929C42.7067 41.3883 42.7067 41.9814 42.3113 42.3769C41.0591 43.6291 39.3456 44.354 37.5003 44.354Z" fill="#393939"/>
<path d="M47.7157 60.5008H27.2852V49.8242H47.7157V60.5008ZM29.2623 58.5237H45.7386V51.8014H29.2623V58.5237Z" fill="#393939"/>
<path d="M34.0729 54.1084H32.0957V56.0856H34.0729V54.1084Z" fill="#393939"/>
<path d="M38.4889 54.1084H36.5117V56.0856H38.4889V54.1084Z" fill="#393939"/>
<path d="M42.9049 54.1084H40.9277V56.0856H42.9049V54.1084Z" fill="#393939"/>
</svg>
