<svg width="50" height="50" viewBox="0 0 50 50" fill="none" xmlns="http://www.w3.org/2000/svg">
<g clip-path="url(#clip0)">
<path d="M47.6154 29.2865H46.8672V22.5468C46.8672 21.4798 46.3361 20.535 45.5251 19.961V19.0433C45.5251 17.7122 44.4422 16.6293 43.111 16.6293H42.5523L44.6899 13.4926C45.4064 12.4412 45.134 11.0028 44.0826 10.2862L29.5776 0.40144C29.0684 0.054272 28.4545 -0.073853 27.8486 0.0410884C27.2431 0.155835 26.7184 0.499487 26.3713 1.00886L13.8517 19.3802H10.3678L11.2083 10.8715C11.2178 10.7756 11.2801 10.6925 11.367 10.6597C12.4499 10.2514 13.3884 9.48894 14.0095 8.51277C14.0584 8.43591 14.1507 8.39197 14.2462 8.40164L19.7105 8.94148C20.1023 8.97947 20.4509 8.69412 20.4895 8.30252C20.5282 7.91091 20.2422 7.56218 19.8506 7.52351L14.3862 6.98367C13.752 6.92156 13.1471 7.21384 12.8072 7.74783C12.3506 8.4656 11.6605 9.02615 10.8644 9.32634C10.265 9.55232 9.85351 10.0906 9.79023 10.7313L8.93594 19.3802H8.02744L9.35674 5.92273C9.40459 5.43835 9.83691 5.08249 10.3219 5.13103L21.3643 6.22185C21.7559 6.25964 22.1046 5.97449 22.1433 5.58289C22.1819 5.19128 21.8959 4.84255 21.5043 4.80388L10.4619 3.71306C9.1959 3.58816 8.06377 4.51638 7.93867 5.78259L6.86719 16.6293H5.04248C3.71143 16.6293 2.62842 17.7122 2.62842 19.0433V19.6693C1.53945 20.1707 0.78125 21.2715 0.78125 22.5468V46.8334C0.78125 48.5795 2.20176 50 3.94795 50H43.7006C45.4467 50 46.8672 48.5795 46.8672 46.8334V40.0937H47.6154C48.4986 40.0937 49.2171 39.3753 49.2171 38.4922V30.8882C49.2172 30.005 48.4986 29.2865 47.6154 29.2865ZM43.111 18.0543C43.6565 18.0542 44.1002 18.4979 44.1002 19.0434V19.4064C43.9691 19.3898 43.836 19.3803 43.7006 19.3803H40.6776L41.5812 18.0543H43.111ZM27.5487 1.81121C27.6815 1.61638 27.8822 1.48494 28.1139 1.44099C28.1692 1.43054 28.2248 1.42527 28.28 1.42527C28.4555 1.42527 28.6269 1.47781 28.7752 1.57878L43.2802 11.4636C43.6823 11.7377 43.7866 12.2879 43.5126 12.69L38.9534 19.3801H37.8593L40.0945 16.1001C40.457 15.5681 40.4869 14.8912 40.1723 14.3333C39.7541 13.5921 39.5846 12.7193 39.6949 11.8757C39.777 11.248 39.5008 10.6353 38.9742 10.2765L31.4549 5.15232C30.9282 4.79343 30.2569 4.76052 29.7028 5.06648C28.9582 5.47761 28.0839 5.63904 27.2411 5.52107C26.6161 5.43337 25.9822 5.7156 25.6251 6.23953L16.6701 19.3802H15.576L27.5487 1.81121ZM27.8625 13.9099C24.7599 13.9099 22.213 16.3292 22.0055 19.3802H18.3942L26.8023 7.04197C26.8024 7.04197 26.8024 7.04197 26.8024 7.04197C26.8502 6.97175 26.9294 6.92996 27.0107 6.92996C27.0216 6.92996 27.0324 6.93074 27.0433 6.9322C28.1896 7.09255 29.3785 6.87322 30.3914 6.31394C30.4711 6.2698 30.5734 6.27615 30.6523 6.32986L38.1718 11.4542C38.2505 11.5079 38.2937 11.6009 38.282 11.6911C38.1319 12.8385 38.3626 14.0254 38.9312 15.0334C38.9769 15.1143 38.9713 15.218 38.9172 15.2976L36.1352 19.3801H33.7198C33.5121 16.3292 30.9653 13.9099 27.8625 13.9099ZM32.291 19.3802H23.4341C23.6382 17.1157 25.5458 15.3349 27.8625 15.3349C30.1793 15.3348 32.087 17.1157 32.291 19.3802ZM4.05332 19.0433C4.05332 18.4978 4.49697 18.0541 5.04248 18.0541H6.72646L6.59551 19.3802H4.05332V19.0433ZM2.20615 22.5468C2.20615 21.5864 2.9875 20.8051 3.94795 20.8051H43.7006C44.661 20.8051 45.4423 21.5864 45.4423 22.5468V24.5237H2.20615V22.5468ZM45.4423 46.8334C45.4423 47.7937 44.661 48.5751 43.7006 48.5751H3.94795C2.9875 48.5751 2.20615 47.7937 2.20615 46.8334V44.8564H6.04814C6.4417 44.8564 6.76055 44.5375 6.76055 44.144C6.76055 43.7506 6.4416 43.4316 6.04814 43.4316H2.20615V25.9486H45.4423V29.2865H38.6683H38.6682C36.5338 29.2865 34.685 30.5306 33.8075 32.3315C33.8046 32.3376 33.8013 32.3434 33.7982 32.3495C33.7908 32.3648 33.7844 32.3807 33.7771 32.3962C33.6727 32.6181 33.5818 32.8479 33.5079 33.085C33.5077 33.0857 33.5075 33.0863 33.5073 33.087C33.3496 33.5937 33.2645 34.1321 33.2645 34.6901C33.2645 37.6697 35.6886 40.0937 38.6681 40.0937H38.6682H45.4422V43.4316H10.6101C10.2165 43.4316 9.89766 43.7506 9.89766 44.144C9.89766 44.5375 10.2166 44.8564 10.6101 44.8564H45.4423V46.8334ZM47.7923 38.4921C47.7923 38.5895 47.713 38.6688 47.6154 38.6688H38.6684C37.1601 38.6688 35.845 37.8252 35.1705 36.585C35.1398 36.5287 35.1105 36.4715 35.0825 36.4136C35.0266 36.2976 34.9761 36.1786 34.9314 36.0567C34.775 35.6303 34.6896 35.17 34.6896 34.6901C34.6896 34.2102 34.7751 33.7499 34.9314 33.3235C34.9762 33.2017 35.0267 33.0827 35.0825 32.9667C35.1105 32.9088 35.1398 32.8515 35.1705 32.7952C35.845 31.5551 37.1601 30.7114 38.6684 30.7114H47.6154C47.7129 30.7114 47.7923 30.7907 47.7923 30.8882V38.4921Z" fill="#393939"/>
<path d="M38.8359 31.7998C37.242 31.7998 35.9453 33.0966 35.9453 34.6904C35.9453 36.2843 37.242 37.581 38.8359 37.581C40.4299 37.581 41.7266 36.2843 41.7266 34.6904C41.7266 33.0966 40.4299 31.7998 38.8359 31.7998ZM38.8359 36.1561C38.0277 36.1561 37.3702 35.4985 37.3702 34.6904C37.3702 33.8823 38.0277 33.2247 38.8359 33.2247C39.6441 33.2247 40.3017 33.8822 40.3017 34.6904C40.3017 35.4986 39.6441 36.1561 38.8359 36.1561Z" fill="#46C770"/>
</g>
<defs>
<clipPath id="clip0">
<rect width="50" height="50" fill="white"/>
</clipPath>
</defs>
</svg>
