<svg width="60" height="53" viewBox="0 0 60 53" fill="none" xmlns="http://www.w3.org/2000/svg"><path d="M29.922 5.093a4.565 4.565 0 0 0-4.584 4.584 4.565 4.565 0 0 0 4.584 4.584 4.565 4.565 0 0 0 4.583-4.584 4.565 4.565 0 0 0-4.583-4.584zm0 6.264a1.695 1.695 0 0 1-1.681-1.68c0-.917.764-1.68 1.68-1.68.917 0 1.681.763 1.681 1.68 0 .917-.764 1.68-1.68 1.68zm0 16.603c-6.52 0-11.867 5.298-11.867 11.868s5.297 11.867 11.867 11.867c6.57 0 11.866-5.297 11.866-11.867 0-6.57-5.347-11.867-11.866-11.867zm7.537 12.937L36.135 41c-.204 1.07-.662 2.088-1.375 2.903l.764 1.12c.306.408.204 1.02-.255 1.274l-1.222.815c-.407.306-1.019.204-1.273-.255l-.764-1.07c-1.07.357-2.19.46-3.209.255l-.56 1.223a.934.934 0 0 1-1.223.458l-1.324-.611c-.458-.204-.662-.764-.458-1.222l.56-1.223a6.529 6.529 0 0 1-1.833-2.648l-1.325.102c-.509.05-.967-.357-1.018-.866l-.102-1.477c-.051-.51.357-.968.866-1.019l1.324-.102c.204-1.07.662-2.088 1.375-2.903l-.764-1.12c-.305-.408-.204-1.019.255-1.273l1.222-.815c.408-.306 1.019-.204 1.273.254l.764 1.07c1.07-.357 2.19-.459 3.209-.255l.56-1.222c.204-.459.764-.662 1.223-.459l1.324.612c.458.203.662.764.458 1.222l-.56 1.222a6.529 6.529 0 0 1 1.834 2.649l1.324-.102c.509-.051.967.356 1.018.866l.102 1.477c0 .509-.356.967-.866 1.018z" fill="#F2DDDE"/><path d="M27.375 48.537c-.255 0-.51-.05-.713-.153l-1.325-.61a1.787 1.787 0 0 1-.865-.969c-.153-.407-.102-.865.05-1.273l.357-.713c-.56-.611-1.07-1.273-1.375-2.037l-.764.05c-.917.052-1.732-.61-1.834-1.527l-.101-1.477c-.051-.459.101-.866.407-1.223.306-.356.713-.56 1.171-.61l.764-.052a5.86 5.86 0 0 1 1.07-2.19l-.458-.61a1.59 1.59 0 0 1-.255-1.274c.102-.458.356-.815.713-1.07l1.222-.814a1.59 1.59 0 0 1 1.273-.255c.459.102.815.356 1.07.713l.459.611c.814-.204 1.63-.255 2.444-.204l.357-.713c.203-.407.56-.713.967-.866a1.586 1.586 0 0 1 1.274.051l1.324.612c.407.203.713.56.866.967.152.408.102.866-.051 1.274l-.357.713c.56.61 1.07 1.273 1.375 2.037l.764-.051c.917-.051 1.732.611 1.834 1.528l.102 1.477c.05.458-.102.866-.408 1.222-.305.357-.713.56-1.171.611l-.764.051a5.86 5.86 0 0 1-1.07 2.19l.459.611c.509.764.356 1.834-.459 2.343l-1.222.815a1.59 1.59 0 0 1-1.273.255 1.756 1.756 0 0 1-1.07-.713l-.458-.611a7.974 7.974 0 0 1-2.445.203l-.357.713a1.73 1.73 0 0 1-1.527.968zm-2.903-7.385l.203.56a5.032 5.032 0 0 0 1.63 2.343l.459.357-.815 1.731v.102c0 .051.05.051.101.102l1.325.611c.102.051.203 0 .203-.102l.815-1.731.56.102c.968.152 1.936.101 2.802-.204l.56-.204 1.07 1.579c.05.05.05.05.101.05.051 0 .051 0 .102-.05l1.222-.815c.051-.05.102-.153.051-.204l-1.07-1.578.357-.459c.612-.713 1.019-1.63 1.223-2.546l.102-.56 1.884-.153c.051 0 .102-.051.102-.051s.05-.051.05-.102l-.101-1.477c0-.102-.102-.153-.153-.153l-1.884.153-.204-.56a5.033 5.033 0 0 0-1.63-2.343l-.458-.357.815-1.731v-.102c0-.051-.051-.051-.102-.102l-1.324-.611h-.102c-.051 0-.051.05-.102.102l-.815 1.731-.56-.102c-.968-.153-1.936-.102-2.801.204l-.56.204-1.07-1.58c-.051-.05-.051-.05-.102-.05-.05 0-.05 0-.102.05l-1.222.816c-.051.05-.051.05-.051.102 0 .05 0 .05.05.101l1.07 1.58-.356.458c-.611.713-1.019 1.63-1.223 2.546l-.101.56-1.885.153c-.05 0-.102.051-.102.051s-.05.051-.05.102l.101 1.477c0 .102.102.153.153.153l1.834-.153z" fill="#344154"/><path d="M29.92 52.459c-6.978 0-12.63-5.654-12.63-12.631 0-6.978 5.652-12.631 12.63-12.631 6.977 0 12.63 5.653 12.63 12.63 0 6.978-5.704 12.632-12.63 12.632zm0-23.734c-6.112 0-11.103 4.991-11.103 11.103 0 6.111 4.991 11.103 11.103 11.103s11.103-4.991 11.103-11.103-4.991-11.103-11.103-11.103zM5.067 26.84c-.204 0-.408-.05-.56-.203a.739.739 0 0 1 0-1.07l11.102-11.103a.738.738 0 0 1 1.07 0 .738.738 0 0 1 0 1.07L5.627 26.637c-.153.152-.357.203-.56.203zm-2.139-2.139c-.204 0-.407-.05-.56-.203a.738.738 0 0 1 0-1.07L13.47 12.325a.739.739 0 0 1 1.07 0 .739.739 0 0 1 0 1.07L3.436 24.498c-.101.152-.305.203-.509.203zM.79 22.562c-.204 0-.408-.05-.56-.203a.739.739 0 0 1 0-1.07l11.102-11.103a.739.739 0 0 1 1.07 0 .739.739 0 0 1 0 1.07L1.299 22.359c-.102.152-.306.203-.51.203zm53.985 4.278c-.204 0-.407-.05-.56-.203L43.112 15.534a.738.738 0 0 1 0-1.07.738.738 0 0 1 1.07 0l11.102 11.103a.739.739 0 0 1-.509 1.273zm2.141-2.139c-.204 0-.408-.05-.56-.203L45.252 13.395a.739.739 0 0 1 0-1.07.739.739 0 0 1 1.07 0l11.102 11.103a.738.738 0 0 1 0 1.07.654.654 0 0 1-.51.203zm2.137-2.139c-.204 0-.408-.05-.56-.203L47.388 11.256a.739.739 0 0 1 0-1.07.739.739 0 0 1 1.07 0L59.562 21.29a.739.739 0 0 1 0 1.07.654.654 0 0 1-.51.203z" fill="#344154"/><path d="M54.014 16.807l-1.07-1.12 4.584-4.584-9.575-9.575h-36.11l-9.524 9.575 4.584 4.584-1.12 1.12-5.654-5.704L11.232 0h37.383l11.103 11.103-5.704 5.704zM18.82 38.402L7.817 27.4l9.677-9.677 11.001 11-1.324.306a11.117 11.117 0 0 0-8.047 8.048l-.306 1.324zM9.956 27.4l8.098 8.098a12.646 12.646 0 0 1 7.487-7.487l-8.098-8.098L9.957 27.4zm31.018 11.002l-.306-1.324a11.117 11.117 0 0 0-8.047-8.048l-1.324-.305 11-11.001 9.678 9.677-11.001 11zM34.25 27.96a12.646 12.646 0 0 1 7.487 7.487l8.098-8.098-7.487-7.487-8.098 8.098z" fill="#344154"/><path d="M29.92 15.025a5.347 5.347 0 0 1-5.348-5.348 5.347 5.347 0 0 1 5.348-5.348 5.347 5.347 0 0 1 5.348 5.348 5.347 5.347 0 0 1-5.348 5.348zm0-9.168c-2.088 0-3.82 1.732-3.82 3.82s1.732 3.82 3.82 3.82 3.82-1.732 3.82-3.82-1.732-3.82-3.82-3.82z" fill="#344154"/><path d="M29.921 12.121c-1.324 0-2.444-1.12-2.444-2.444 0-1.324 1.12-2.445 2.444-2.445 1.324 0 2.445 1.12 2.445 2.445 0 1.324-1.12 2.444-2.445 2.444zm0-3.36a.913.913 0 0 0-.916.916c0 .51.407.917.916.917.51 0 .917-.408.917-.917a.913.913 0 0 0-.917-.917zm6.011 12.375a.813.813 0 0 1-.764-.662l-1.426-11.46c-.051-.407.255-.814.662-.865.407-.051.815.255.866.662l1.426 11.46c.05.407-.255.814-.662.865h-.102zm-12.02 0h-.102c-.407-.05-.713-.458-.662-.866l1.426-11.459a.762.762 0 0 1 .866-.662c.407.05.713.458.662.866l-1.426 11.46a.771.771 0 0 1-.764.661z" fill="#344154"/></svg>