<svg width="46" height="53" viewBox="0 0 46 53" fill="none" xmlns="http://www.w3.org/2000/svg"><path d="M44.09 11.697h-3.7a.722.722 0 0 1-.732-.731v-9.55c0-.41.32-.73.731-.73h3.701c.411 0 .731.32.731.73v9.55c0 .41-.32.73-.73.73zM1.417 52.315h3.7c.412 0 .731-.32.731-.731v-9.55a.722.722 0 0 0-.73-.73H1.416a.722.722 0 0 0-.731.73v9.55c0 .41.32.73.73.73z" fill="#46C770"/><path d="M22.752 9.32a3.11 3.11 0 0 1-3.107-3.106 3.11 3.11 0 0 1 3.107-3.107c1.69 0 3.106 1.416 3.106 3.107 0 1.69-1.416 3.107-3.107 3.107zm0-4.842a1.736 1.736 0 1 0-.002 3.47 1.736 1.736 0 0 0 .002-3.47z" fill="#393939"/><path d="M36.872 5.528H25.176V6.9h11.696V5.53zm-16.541 0H8.635V6.9H20.33V5.53z" fill="#393939"/><path d="M8.635 9.778a.703.703 0 0 1-.686-.686V3.335c0-.365.32-.685.686-.685.365 0 .685.32.685.685v5.757c0 .366-.32.686-.685.686zm28.238 0a.703.703 0 0 1-.685-.686V3.335c0-.365.32-.685.685-.685.365 0 .685.32.685.685v5.757c0 .366-.32.686-.685.686zM25.906 51.4h-6.35a1.423 1.423 0 0 1-1.417-1.416v-6.35c0-.777.64-1.417 1.416-1.417h6.35c.778 0 1.417.64 1.417 1.417v6.35c0 .777-.594 1.417-1.416 1.417zm-6.35-7.812c-.047 0-.047.046-.047.046v6.35c0 .046.046.046.046.046h6.35c.047 0 .047-.046.047-.046v-6.35c0-.046-.046-.046-.046-.046h-6.35z" fill="#393939"/><path d="M25.222 43.588h-4.98v-2.193a2.242 2.242 0 0 1 2.239-2.239h.503a2.242 2.242 0 0 1 2.238 2.239v2.193zm-3.61-1.37h2.24v-.823a.867.867 0 0 0-.868-.868h-.503a.867.867 0 0 0-.868.868v.822z" fill="#393939"/><path d="M23.439 8.635h-1.37v31.16h1.37V8.636zm20.653 3.747H40.39c-.777 0-1.416-.64-1.416-1.416v-9.55A1.425 1.425 0 0 1 40.39 0h3.7c.778 0 1.417.64 1.417 1.416v9.55c0 .776-.64 1.416-1.416 1.416zM40.39 1.37c-.046 0-.046 0 0 0l-.046 9.595c0 .045 0 .045.046.045h3.7c.047 0 .047 0 .047-.045v-9.55c0-.045 0-.045-.046-.045H40.39z" fill="#393939"/><path d="M42.218 5.072a.703.703 0 0 1-.685-.686v-3.7c0-.366.32-.686.685-.686.366 0 .686.32.686.685v3.701c0 .366-.32.686-.686.686zm-37.101 7.31h-3.7C.64 12.382 0 11.742 0 10.966v-9.55C0 .64.64 0 1.416 0h3.701c.777 0 1.417.64 1.417 1.416v9.55c0 .776-.64 1.416-1.417 1.416zM1.417 1.37c-.046 0-.046 0 0 0l-.046 9.595c0 .045 0 .045.045.045h3.701c.046 0 .046 0 .046-.045v-9.55c0-.045 0-.045-.046-.045h-3.7z" fill="#393939"/><path d="M3.244 5.072a.703.703 0 0 1-.685-.686v-3.7c0-.366.32-.686.685-.686.365 0 .685.32.685.685v3.701a.673.673 0 0 1-.685.686zM36.825 46.1H26.637v1.371h10.188v-1.37zm-18.002 0H8.635v1.371h10.188v-1.37z" fill="#393939"/><path d="M8.635 50.35a.703.703 0 0 1-.686-.685v-5.757c0-.366.32-.686.686-.686.365 0 .685.32.685.686v5.757c0 .41-.32.685-.685.685zm28.238 0a.703.703 0 0 1-.685-.685v-5.757c0-.366.32-.686.685-.686.365 0 .685.32.685.686v5.757c0 .41-.32.685-.685.685zM44.092 53H40.39c-.777 0-1.416-.64-1.416-1.416v-9.55c0-.776.64-1.416 1.416-1.416h3.7c.778 0 1.417.64 1.417 1.416v9.55c0 .776-.64 1.416-1.416 1.416zM40.39 41.989c-.046 0-.046 0 0 0l-.046 9.595c0 .045 0 .045.046.045h3.7c.047 0 .047 0 .047-.045v-9.55c0-.045 0-.045-.046-.045H40.39z" fill="#393939"/><path d="M42.218 45.69a.703.703 0 0 1-.685-.686v-3.7c0-.366.32-.686.685-.686.366 0 .686.32.686.685v3.701c0 .366-.32.686-.686.686zM5.117 53h-3.7C.64 53 0 52.36 0 51.584v-9.55c0-.776.64-1.416 1.416-1.416h3.701c.777 0 1.417.64 1.417 1.416v9.55c0 .776-.64 1.416-1.417 1.416zm-3.7-11.011c-.046 0-.046 0 0 0l-.046 9.595c0 .045 0 .045.045.045h3.701c.046 0 .046 0 .046-.045v-9.55c0-.045 0-.045-.046-.045h-3.7z" fill="#393939"/><path d="M3.244 45.69a.703.703 0 0 1-.685-.686v-3.7c0-.366.32-.686.685-.686.365 0 .685.32.685.685v3.701a.673.673 0 0 1-.685.686zm19.51 5.71a.703.703 0 0 1-.686-.684v-3.93c0-.365.32-.685.686-.685.365 0 .685.32.685.685v3.93c0 .365-.32.685-.685.685z" fill="#393939"/></svg>