<svg width="13" height="52" viewBox="0 0 13 52" fill="none" xmlns="http://www.w3.org/2000/svg"><path d="M6.76 4.124s-1.885.824-1.885 1.885c0 1.021 1.885 1.885 1.885 1.885v-3.77zm0 10.526H1.538v11.154h5.224V14.65z" fill="#F2DDDE"/><path d="M6.76 11.94A5.967 5.967 0 0 1 .792 5.97c0-3.3 2.67-5.97 5.97-5.97 3.299 0 5.97 2.67 5.97 5.97-.04 3.299-2.71 5.97-5.97 5.97zm0-10.722c-2.63 0-4.79 2.16-4.79 4.791 0 2.631 2.16 4.792 4.79 4.792 2.632 0 4.792-2.16 4.792-4.792-.039-2.67-2.16-4.791-4.791-4.791zM6.76 52c-2.63 0-4.79-2.16-4.79-4.791 0-2.632 2.16-4.792 4.791-4.792 2.632 0 4.792 2.16 4.792 4.791C11.512 49.84 9.392 52 6.76 52zm0-8.365a3.604 3.604 0 0 0-3.613 3.613A3.604 3.604 0 0 0 6.76 50.86a3.604 3.604 0 0 0 3.614-3.613c-.04-2.003-1.65-3.613-3.614-3.613z" fill="#344154"/><path d="M6.762 49.407a2.18 2.18 0 0 1-2.16-2.16 2.18 2.18 0 0 1 2.16-2.16 2.18 2.18 0 0 1 2.16 2.16 2.18 2.18 0 0 1-2.16 2.16zm0-3.18a.972.972 0 0 0-.982.981c0 .55.432.982.982.982s.982-.432.982-.982a.998.998 0 0 0-.982-.982zM6.761 8.444c-1.335 0-2.474-1.1-2.474-2.474 0-1.375 1.1-2.474 2.474-2.474 1.375 0 2.475 1.1 2.475 2.474S8.096 8.444 6.76 8.444zm0-3.73c-.707 0-1.296.588-1.296 1.295s.59 1.296 1.296 1.296c.707 0 1.296-.589 1.296-1.296 0-.707-.589-1.296-1.296-1.296zm4.675 21.718H2.088A1.14 1.14 0 0 1 .95 25.294V15.239c0-.628.51-1.139 1.14-1.139h.824v-3.81h1.178v4.988H2.127v9.976h9.27v-9.976H9.432V10.29h1.178v3.81h.825c.628 0 1.139.51 1.139 1.14v10.054a1.14 1.14 0 0 1-1.14 1.138z" fill="#344154"/><path d="M3.501 30.399a.604.604 0 0 1-.589-.59v-3.966c0-.314.275-.59.59-.59.313 0 .588.276.588.59v3.967a.604.604 0 0 1-.589.589zm6.519 0a.604.604 0 0 1-.588-.59v-3.966c0-.314.275-.59.589-.59.314 0 .589.276.589.59v3.967a.604.604 0 0 1-.59.589zM4.562 43.91a.604.604 0 0 1-.59-.59v-3.966c0-.315.276-.59.59-.59.314 0 .589.275.589.59v3.967a.579.579 0 0 1-.59.589zm4.359 0a.604.604 0 0 1-.589-.59v-3.966c0-.315.275-.59.59-.59.313 0 .588.275.588.59v3.967c0 .353-.235.589-.589.589z" fill="#344154"/><path d="M11.986 30.399H1.537a.604.604 0 0 1-.589-.59c0-.313.275-.588.59-.588h10.447c.314 0 .589.275.589.589a.604.604 0 0 1-.59.589zm0 3.181H1.537a.604.604 0 0 1-.589-.59c0-.313.275-.588.59-.588h10.447c.314 0 .589.275.589.589a.604.604 0 0 1-.59.589zm0 3.18H1.537a.604.604 0 0 1-.589-.588c0-.314.275-.59.59-.59h10.447c.314 0 .589.276.589.59a.604.604 0 0 1-.59.589zm0 3.183H1.537a.604.604 0 0 1-.589-.59c0-.314.275-.588.59-.588h10.447c.314 0 .589.274.589.589a.604.604 0 0 1-.59.589zM6.761 15.238h-3.26a.604.604 0 0 1-.589-.589c0-.314.275-.589.59-.589h3.26c.313 0 .588.275.588.59a.578.578 0 0 1-.589.588z" fill="#344154"/></svg>